G04 #@! TF.GenerationSoftware,KiCad,Pcbnew,9.0.5*
G04 #@! TF.CreationDate,2025-10-28T12:58:33-04:00*
G04 #@! TF.ProjectId,ReedRelay_Drive_V2,52656564-5265-46c6-9179-5f4472697665,rev?*
G04 #@! TF.SameCoordinates,Original*
G04 #@! TF.FileFunction,Soldermask,Top*
G04 #@! TF.FilePolarity,Negative*
%FSLAX46Y46*%
G04 Gerber Fmt 4.6, Leading zero omitted, Abs format (unit mm)*
G04 Created by KiCad (PCBNEW 9.0.5) date 2025-10-28 12:58:33*
%MOMM*%
%LPD*%
G01*
G04 APERTURE LIST*
G04 Aperture macros list*
%AMRoundRect*
0 Rectangle with rounded corners*
0 $1 Rounding radius*
0 $2 $3 $4 $5 $6 $7 $8 $9 X,Y pos of 4 corners*
0 Add a 4 corners polygon primitive as box body*
4,1,4,$2,$3,$4,$5,$6,$7,$8,$9,$2,$3,0*
0 Add four circle primitives for the rounded corners*
1,1,$1+$1,$2,$3*
1,1,$1+$1,$4,$5*
1,1,$1+$1,$6,$7*
1,1,$1+$1,$8,$9*
0 Add four rect primitives between the rounded corners*
20,1,$1+$1,$2,$3,$4,$5,0*
20,1,$1+$1,$4,$5,$6,$7,0*
20,1,$1+$1,$6,$7,$8,$9,0*
20,1,$1+$1,$8,$9,$2,$3,0*%
G04 Aperture macros list end*
%ADD10C,4.440000*%
%ADD11C,2.150000*%
%ADD12RoundRect,0.102000X-1.387500X-1.387500X1.387500X-1.387500X1.387500X1.387500X-1.387500X1.387500X0*%
%ADD13C,2.979000*%
%ADD14C,3.054000*%
%ADD15RoundRect,0.070000X1.100000X-1.100000X1.100000X1.100000X-1.100000X1.100000X-1.100000X-1.100000X0*%
%ADD16O,2.340000X2.340000*%
%ADD17RoundRect,0.070000X-1.100000X-1.100000X1.100000X-1.100000X1.100000X1.100000X-1.100000X1.100000X0*%
%ADD18RoundRect,0.102000X1.387500X-1.387500X1.387500X1.387500X-1.387500X1.387500X-1.387500X-1.387500X0*%
%ADD19C,2.154000*%
%ADD20C,2.550000*%
G04 APERTURE END LIST*
D10*
X29650000Y-149500000D03*
X29600000Y-55750000D03*
X160250000Y-181000000D03*
X160250000Y-27850000D03*
D11*
X155500000Y-152200000D03*
X155500000Y-101400000D03*
X150400000Y-126800000D03*
X160600000Y-126800000D03*
D12*
X64995000Y-56000000D03*
D13*
X69695000Y-56000000D03*
X74395000Y-56000000D03*
D14*
X111200000Y-31000000D03*
X111200000Y-26000000D03*
X104190000Y-26000000D03*
X104190000Y-31000000D03*
D15*
X143525000Y-131905000D03*
D16*
X143525000Y-121745000D03*
D12*
X64110000Y-152290000D03*
D13*
X68810000Y-152290000D03*
X73510000Y-152290000D03*
D14*
X111065000Y-180540000D03*
X111065000Y-175540000D03*
X104055000Y-175540000D03*
X104055000Y-180540000D03*
D17*
X64565000Y-44825000D03*
D16*
X74725000Y-44825000D03*
D18*
X135000000Y-131500000D03*
D13*
X135000000Y-126800000D03*
X135000000Y-122100000D03*
D11*
X43335000Y-174115000D03*
X94135000Y-174115000D03*
X68735000Y-169015000D03*
X68735000Y-179215000D03*
D14*
X34065000Y-180540000D03*
X34065000Y-175540000D03*
X27055000Y-175540000D03*
X27055000Y-180540000D03*
D19*
X28399800Y-89177400D03*
X28399800Y-84177400D03*
D14*
X156825000Y-169550000D03*
X161825000Y-169550000D03*
X161825000Y-162540000D03*
X156825000Y-162540000D03*
X156525000Y-90935000D03*
X161525000Y-90935000D03*
X161525000Y-83925000D03*
X156525000Y-83925000D03*
D20*
X26499800Y-101727400D03*
X31599800Y-101727400D03*
X31599800Y-106827400D03*
X26499800Y-106827400D03*
D14*
X34200000Y-31000000D03*
X34200000Y-26000000D03*
X27190000Y-26000000D03*
X27190000Y-31000000D03*
D11*
X43645000Y-32500000D03*
X94445000Y-32500000D03*
X69045000Y-27400000D03*
X69045000Y-37600000D03*
D20*
X26749800Y-116727400D03*
X31849800Y-116727400D03*
X26749800Y-121827400D03*
X31849800Y-121827400D03*
D17*
X63605000Y-162415000D03*
D16*
X73765000Y-162415000D03*
M02*
