G04 #@! TF.GenerationSoftware,KiCad,Pcbnew,9.0.5*
G04 #@! TF.CreationDate,2025-10-28T12:58:33-04:00*
G04 #@! TF.ProjectId,ReedRelay_Drive_V2,52656564-5265-46c6-9179-5f4472697665,rev?*
G04 #@! TF.SameCoordinates,Original*
G04 #@! TF.FileFunction,Copper,L1,Top*
G04 #@! TF.FilePolarity,Positive*
%FSLAX46Y46*%
G04 Gerber Fmt 4.6, Leading zero omitted, Abs format (unit mm)*
G04 Created by KiCad (PCBNEW 9.0.5) date 2025-10-28 12:58:33*
%MOMM*%
%LPD*%
G01*
G04 APERTURE LIST*
G04 #@! TA.AperFunction,ComponentPad*
%ADD10C,2.000000*%
G04 #@! TD*
G04 #@! TA.AperFunction,ComponentPad*
%ADD11R,2.775000X2.775000*%
G04 #@! TD*
G04 #@! TA.AperFunction,ComponentPad*
%ADD12C,2.775000*%
G04 #@! TD*
G04 #@! TA.AperFunction,ComponentPad*
%ADD13C,2.850000*%
G04 #@! TD*
G04 #@! TA.AperFunction,ComponentPad*
%ADD14R,2.200000X2.200000*%
G04 #@! TD*
G04 #@! TA.AperFunction,ComponentPad*
%ADD15O,2.200000X2.200000*%
G04 #@! TD*
G04 #@! TA.AperFunction,ComponentPad*
%ADD16C,1.950000*%
G04 #@! TD*
G04 #@! TA.AperFunction,ComponentPad*
%ADD17C,2.400000*%
G04 #@! TD*
G04 #@! TA.AperFunction,Conductor*
%ADD18C,1.000000*%
G04 #@! TD*
G04 #@! TA.AperFunction,Conductor*
%ADD19C,0.500000*%
G04 #@! TD*
G04 APERTURE END LIST*
D10*
X155500000Y-152200000D03*
X155500000Y-101400000D03*
X150400000Y-126800000D03*
X160600000Y-126800000D03*
D11*
X64995000Y-56000000D03*
D12*
X69695000Y-56000000D03*
X74395000Y-56000000D03*
D13*
X111200000Y-31000000D03*
X111200000Y-26000000D03*
X104190000Y-26000000D03*
X104190000Y-31000000D03*
D14*
X143525000Y-131905000D03*
D15*
X143525000Y-121745000D03*
D11*
X64110000Y-152290000D03*
D12*
X68810000Y-152290000D03*
X73510000Y-152290000D03*
D13*
X111065000Y-180540000D03*
X111065000Y-175540000D03*
X104055000Y-175540000D03*
X104055000Y-180540000D03*
D14*
X64565000Y-44825000D03*
D15*
X74725000Y-44825000D03*
D11*
X135000000Y-131500000D03*
D12*
X135000000Y-126800000D03*
X135000000Y-122100000D03*
D10*
X43335000Y-174115000D03*
X94135000Y-174115000D03*
X68735000Y-169015000D03*
X68735000Y-179215000D03*
D13*
X34065000Y-180540000D03*
X34065000Y-175540000D03*
X27055000Y-175540000D03*
X27055000Y-180540000D03*
D16*
X28399800Y-89177400D03*
X28399800Y-84177400D03*
D13*
X156825000Y-169550000D03*
X161825000Y-169550000D03*
X161825000Y-162540000D03*
X156825000Y-162540000D03*
X156525000Y-90935000D03*
X161525000Y-90935000D03*
X161525000Y-83925000D03*
X156525000Y-83925000D03*
D17*
X26499800Y-101727400D03*
X31599800Y-101727400D03*
X31599800Y-106827400D03*
X26499800Y-106827400D03*
D13*
X34200000Y-31000000D03*
X34200000Y-26000000D03*
X27190000Y-26000000D03*
X27190000Y-31000000D03*
D10*
X43645000Y-32500000D03*
X94445000Y-32500000D03*
X69045000Y-27400000D03*
X69045000Y-37600000D03*
D17*
X26749800Y-116727400D03*
X31849800Y-116727400D03*
X26749800Y-121827400D03*
X31849800Y-121827400D03*
D14*
X63605000Y-162415000D03*
D15*
X73765000Y-162415000D03*
D18*
X31849800Y-116727400D02*
X112747400Y-116727400D01*
X112747400Y-116727400D02*
X122820000Y-126800000D01*
X122820000Y-126800000D02*
X135000000Y-126800000D01*
D19*
X63605000Y-162415000D02*
X63605000Y-163885000D01*
X64565000Y-44825000D02*
X64565000Y-31880000D01*
X63605000Y-163885000D02*
X68735000Y-169015000D01*
X143525000Y-131905000D02*
X145295000Y-131905000D01*
X145295000Y-131905000D02*
X150400000Y-126800000D01*
X64565000Y-31880000D02*
X69045000Y-27400000D01*
D18*
X38347400Y-121827400D02*
X68810000Y-152290000D01*
D19*
X26749800Y-121827400D02*
X31849800Y-121827400D01*
D18*
X28399800Y-84177400D02*
X41517600Y-84177400D01*
X34345000Y-90105000D02*
X34345000Y-109132200D01*
X31849800Y-121827400D02*
X38347400Y-121827400D01*
D19*
X26749800Y-116727400D02*
X26749800Y-121827400D01*
D18*
X41517600Y-84177400D02*
X69695000Y-56000000D01*
X34345000Y-109132200D02*
X26749800Y-116727400D01*
D19*
X31849800Y-121827400D02*
X31849800Y-116727400D01*
D18*
X34327400Y-90105000D02*
X34345000Y-90105000D01*
D19*
X26749800Y-116727400D02*
X31849800Y-116727400D01*
D18*
X28399800Y-84177400D02*
X34327400Y-90105000D01*
D19*
X69045000Y-37600000D02*
X74725000Y-43280000D01*
X74725000Y-43280000D02*
X74725000Y-44825000D01*
X74395000Y-45155000D02*
X74725000Y-44825000D01*
X74395000Y-56000000D02*
X74395000Y-45155000D01*
X73510000Y-162160000D02*
X73765000Y-162415000D01*
X73510000Y-152290000D02*
X73510000Y-162160000D01*
X73765000Y-174185000D02*
X68735000Y-179215000D01*
X73765000Y-162415000D02*
X73765000Y-174185000D01*
X155545000Y-121745000D02*
X160600000Y-126800000D01*
X135000000Y-122100000D02*
X143170000Y-122100000D01*
X143170000Y-122100000D02*
X143525000Y-121745000D01*
X143525000Y-121745000D02*
X155545000Y-121745000D01*
D18*
X104190000Y-26000000D02*
X111200000Y-26000000D01*
X94445000Y-32500000D02*
X95945000Y-31000000D01*
X111200000Y-31000000D02*
X104190000Y-31000000D01*
X111200000Y-31000000D02*
X111200000Y-26000000D01*
X95945000Y-31000000D02*
X104190000Y-31000000D01*
X34200000Y-31000000D02*
X27190000Y-31000000D01*
X34200000Y-26000000D02*
X34200000Y-31000000D01*
X27190000Y-31000000D02*
X27190000Y-26000000D01*
X34200000Y-31000000D02*
X42145000Y-31000000D01*
X42145000Y-31000000D02*
X43645000Y-32500000D01*
X27190000Y-26000000D02*
X26548000Y-25358000D01*
X27190000Y-26000000D02*
X34200000Y-26000000D01*
X95560000Y-175540000D02*
X104055000Y-175540000D01*
X104055000Y-175540000D02*
X104055000Y-180540000D01*
X104055000Y-180540000D02*
X111065000Y-180540000D01*
X104055000Y-175540000D02*
X111065000Y-175540000D01*
X111065000Y-180540000D02*
X111065000Y-175540000D01*
X94135000Y-174115000D02*
X95560000Y-175540000D01*
X27055000Y-180540000D02*
X27055000Y-175540000D01*
X27055000Y-175540000D02*
X34065000Y-175540000D01*
X27055000Y-180540000D02*
X34065000Y-180540000D01*
X41910000Y-175540000D02*
X43335000Y-174115000D01*
X34065000Y-180540000D02*
X34065000Y-175540000D01*
X34065000Y-175540000D02*
X41910000Y-175540000D01*
X161525000Y-90935000D02*
X161525000Y-83925000D01*
X156525000Y-90935000D02*
X161525000Y-90935000D01*
X156525000Y-83925000D02*
X161525000Y-83925000D01*
X156525000Y-100375000D02*
X155500000Y-101400000D01*
X156525000Y-83925000D02*
X156525000Y-90935000D01*
X156525000Y-90935000D02*
X156525000Y-100375000D01*
X161825000Y-162540000D02*
X161825000Y-169550000D01*
X156825000Y-162540000D02*
X161825000Y-162540000D01*
X161825000Y-169550000D02*
X156825000Y-169550000D01*
X156825000Y-153525000D02*
X156825000Y-162540000D01*
X155500000Y-152200000D02*
X156825000Y-153525000D01*
X156825000Y-162540000D02*
X156825000Y-169550000D01*
M02*
