G04 #@! TF.GenerationSoftware,KiCad,Pcbnew,9.0.5*
G04 #@! TF.CreationDate,2025-10-28T12:58:33-04:00*
G04 #@! TF.ProjectId,ReedRelay_Drive_V2,52656564-5265-46c6-9179-5f4472697665,rev?*
G04 #@! TF.SameCoordinates,Original*
G04 #@! TF.FileFunction,Legend,Top*
G04 #@! TF.FilePolarity,Positive*
%FSLAX46Y46*%
G04 Gerber Fmt 4.6, Leading zero omitted, Abs format (unit mm)*
G04 Created by KiCad (PCBNEW 9.0.5) date 2025-10-28 12:58:33*
%MOMM*%
%LPD*%
G01*
G04 APERTURE LIST*
%ADD10C,0.100000*%
%ADD11C,0.200000*%
%ADD12C,0.150000*%
%ADD13C,0.127000*%
%ADD14C,0.120000*%
%ADD15C,0.400000*%
G04 APERTURE END LIST*
D10*
X76300000Y-63200000D02*
X74550000Y-61450000D01*
X75100000Y-142400000D02*
X73350000Y-144150000D01*
X75100000Y-142400000D02*
X73350000Y-140650000D01*
X22599800Y-79727400D02*
X38849800Y-79727400D01*
X38849800Y-79727400D02*
X38849800Y-125227400D01*
X76300000Y-63200000D02*
X74550000Y-64950000D01*
X122480000Y-28970000D02*
X142320000Y-28970000D01*
X142320000Y-47230000D01*
X122480000Y-47230000D01*
X122480000Y-28970000D01*
X63100000Y-142400000D02*
X75100000Y-142400000D01*
X118685000Y-24615000D02*
X146115000Y-24615000D01*
X146115000Y-51585000D01*
X118685000Y-51585000D01*
X118685000Y-24615000D01*
X22599800Y-125227400D02*
X38849800Y-125227400D01*
X124100000Y-120200000D02*
X122350000Y-121950000D01*
X124100000Y-132200000D02*
X124100000Y-120200000D01*
X64300000Y-63200000D02*
X76300000Y-63200000D01*
X125415000Y-24615000D02*
X139385000Y-24615000D01*
X139385000Y-51585000D01*
X125415000Y-51585000D01*
X125415000Y-24615000D01*
X124100000Y-120200000D02*
X125850000Y-121950000D01*
D11*
X36467019Y-108631536D02*
X36467019Y-109107726D01*
X36467019Y-109107726D02*
X36943209Y-109155345D01*
X36943209Y-109155345D02*
X36895590Y-109107726D01*
X36895590Y-109107726D02*
X36847971Y-109012488D01*
X36847971Y-109012488D02*
X36847971Y-108774393D01*
X36847971Y-108774393D02*
X36895590Y-108679155D01*
X36895590Y-108679155D02*
X36943209Y-108631536D01*
X36943209Y-108631536D02*
X37038447Y-108583917D01*
X37038447Y-108583917D02*
X37276542Y-108583917D01*
X37276542Y-108583917D02*
X37371780Y-108631536D01*
X37371780Y-108631536D02*
X37419400Y-108679155D01*
X37419400Y-108679155D02*
X37467019Y-108774393D01*
X37467019Y-108774393D02*
X37467019Y-109012488D01*
X37467019Y-109012488D02*
X37419400Y-109107726D01*
X37419400Y-109107726D02*
X37371780Y-109155345D01*
X36467019Y-108298202D02*
X37467019Y-107964869D01*
X37467019Y-107964869D02*
X36467019Y-107631536D01*
X37467019Y-106536297D02*
X36467019Y-106536297D01*
X36467019Y-106536297D02*
X36467019Y-106298202D01*
X36467019Y-106298202D02*
X36514638Y-106155345D01*
X36514638Y-106155345D02*
X36609876Y-106060107D01*
X36609876Y-106060107D02*
X36705114Y-106012488D01*
X36705114Y-106012488D02*
X36895590Y-105964869D01*
X36895590Y-105964869D02*
X37038447Y-105964869D01*
X37038447Y-105964869D02*
X37228923Y-106012488D01*
X37228923Y-106012488D02*
X37324161Y-106060107D01*
X37324161Y-106060107D02*
X37419400Y-106155345D01*
X37419400Y-106155345D02*
X37467019Y-106298202D01*
X37467019Y-106298202D02*
X37467019Y-106536297D01*
X37371780Y-104964869D02*
X37419400Y-105012488D01*
X37419400Y-105012488D02*
X37467019Y-105155345D01*
X37467019Y-105155345D02*
X37467019Y-105250583D01*
X37467019Y-105250583D02*
X37419400Y-105393440D01*
X37419400Y-105393440D02*
X37324161Y-105488678D01*
X37324161Y-105488678D02*
X37228923Y-105536297D01*
X37228923Y-105536297D02*
X37038447Y-105583916D01*
X37038447Y-105583916D02*
X36895590Y-105583916D01*
X36895590Y-105583916D02*
X36705114Y-105536297D01*
X36705114Y-105536297D02*
X36609876Y-105488678D01*
X36609876Y-105488678D02*
X36514638Y-105393440D01*
X36514638Y-105393440D02*
X36467019Y-105250583D01*
X36467019Y-105250583D02*
X36467019Y-105155345D01*
X36467019Y-105155345D02*
X36514638Y-105012488D01*
X36514638Y-105012488D02*
X36562257Y-104964869D01*
X37467019Y-103774392D02*
X36467019Y-103774392D01*
X36800352Y-103298202D02*
X37467019Y-103298202D01*
X36895590Y-103298202D02*
X36847971Y-103250583D01*
X36847971Y-103250583D02*
X36800352Y-103155345D01*
X36800352Y-103155345D02*
X36800352Y-103012488D01*
X36800352Y-103012488D02*
X36847971Y-102917250D01*
X36847971Y-102917250D02*
X36943209Y-102869631D01*
X36943209Y-102869631D02*
X37467019Y-102869631D01*
X36800352Y-102393440D02*
X37800352Y-102393440D01*
X36847971Y-102393440D02*
X36800352Y-102298202D01*
X36800352Y-102298202D02*
X36800352Y-102107726D01*
X36800352Y-102107726D02*
X36847971Y-102012488D01*
X36847971Y-102012488D02*
X36895590Y-101964869D01*
X36895590Y-101964869D02*
X36990828Y-101917250D01*
X36990828Y-101917250D02*
X37276542Y-101917250D01*
X37276542Y-101917250D02*
X37371780Y-101964869D01*
X37371780Y-101964869D02*
X37419400Y-102012488D01*
X37419400Y-102012488D02*
X37467019Y-102107726D01*
X37467019Y-102107726D02*
X37467019Y-102298202D01*
X37467019Y-102298202D02*
X37419400Y-102393440D01*
X36800352Y-101060107D02*
X37467019Y-101060107D01*
X36800352Y-101488678D02*
X37324161Y-101488678D01*
X37324161Y-101488678D02*
X37419400Y-101441059D01*
X37419400Y-101441059D02*
X37467019Y-101345821D01*
X37467019Y-101345821D02*
X37467019Y-101202964D01*
X37467019Y-101202964D02*
X37419400Y-101107726D01*
X37419400Y-101107726D02*
X37371780Y-101060107D01*
X36800352Y-100726773D02*
X36800352Y-100345821D01*
X36467019Y-100583916D02*
X37324161Y-100583916D01*
X37324161Y-100583916D02*
X37419400Y-100536297D01*
X37419400Y-100536297D02*
X37467019Y-100441059D01*
X37467019Y-100441059D02*
X37467019Y-100345821D01*
X125094838Y-128211279D02*
X125094838Y-127830326D01*
X125094838Y-127830326D02*
X125190076Y-127639850D01*
X125190076Y-127639850D02*
X125380552Y-127449374D01*
X125380552Y-127449374D02*
X125761504Y-127354136D01*
X125761504Y-127354136D02*
X126428171Y-127354136D01*
X126428171Y-127354136D02*
X126809123Y-127449374D01*
X126809123Y-127449374D02*
X126999600Y-127639850D01*
X126999600Y-127639850D02*
X127094838Y-127830326D01*
X127094838Y-127830326D02*
X127094838Y-128211279D01*
X127094838Y-128211279D02*
X126999600Y-128401755D01*
X126999600Y-128401755D02*
X126809123Y-128592231D01*
X126809123Y-128592231D02*
X126428171Y-128687469D01*
X126428171Y-128687469D02*
X125761504Y-128687469D01*
X125761504Y-128687469D02*
X125380552Y-128592231D01*
X125380552Y-128592231D02*
X125190076Y-128401755D01*
X125190076Y-128401755D02*
X125094838Y-128211279D01*
X127094838Y-126496993D02*
X125094838Y-126496993D01*
X125094838Y-126496993D02*
X127094838Y-125354136D01*
X127094838Y-125354136D02*
X125094838Y-125354136D01*
D10*
X65080074Y-87220210D02*
X64394360Y-87220210D01*
X64737217Y-87220210D02*
X64737217Y-86020210D01*
X64737217Y-86020210D02*
X64622931Y-86191639D01*
X64622931Y-86191639D02*
X64508646Y-86305925D01*
X64508646Y-86305925D02*
X64394360Y-86363068D01*
X65594360Y-87105925D02*
X65651503Y-87163068D01*
X65651503Y-87163068D02*
X65594360Y-87220210D01*
X65594360Y-87220210D02*
X65537217Y-87163068D01*
X65537217Y-87163068D02*
X65594360Y-87105925D01*
X65594360Y-87105925D02*
X65594360Y-87220210D01*
X67765789Y-87105925D02*
X67708646Y-87163068D01*
X67708646Y-87163068D02*
X67537218Y-87220210D01*
X67537218Y-87220210D02*
X67422932Y-87220210D01*
X67422932Y-87220210D02*
X67251503Y-87163068D01*
X67251503Y-87163068D02*
X67137218Y-87048782D01*
X67137218Y-87048782D02*
X67080075Y-86934496D01*
X67080075Y-86934496D02*
X67022932Y-86705925D01*
X67022932Y-86705925D02*
X67022932Y-86534496D01*
X67022932Y-86534496D02*
X67080075Y-86305925D01*
X67080075Y-86305925D02*
X67137218Y-86191639D01*
X67137218Y-86191639D02*
X67251503Y-86077353D01*
X67251503Y-86077353D02*
X67422932Y-86020210D01*
X67422932Y-86020210D02*
X67537218Y-86020210D01*
X67537218Y-86020210D02*
X67708646Y-86077353D01*
X67708646Y-86077353D02*
X67765789Y-86134496D01*
X68451503Y-87220210D02*
X68337218Y-87163068D01*
X68337218Y-87163068D02*
X68280075Y-87048782D01*
X68280075Y-87048782D02*
X68280075Y-86020210D01*
X69080074Y-87220210D02*
X68965789Y-87163068D01*
X68965789Y-87163068D02*
X68908646Y-87105925D01*
X68908646Y-87105925D02*
X68851503Y-86991639D01*
X68851503Y-86991639D02*
X68851503Y-86648782D01*
X68851503Y-86648782D02*
X68908646Y-86534496D01*
X68908646Y-86534496D02*
X68965789Y-86477353D01*
X68965789Y-86477353D02*
X69080074Y-86420210D01*
X69080074Y-86420210D02*
X69251503Y-86420210D01*
X69251503Y-86420210D02*
X69365789Y-86477353D01*
X69365789Y-86477353D02*
X69422932Y-86534496D01*
X69422932Y-86534496D02*
X69480074Y-86648782D01*
X69480074Y-86648782D02*
X69480074Y-86991639D01*
X69480074Y-86991639D02*
X69422932Y-87105925D01*
X69422932Y-87105925D02*
X69365789Y-87163068D01*
X69365789Y-87163068D02*
X69251503Y-87220210D01*
X69251503Y-87220210D02*
X69080074Y-87220210D01*
X69937217Y-87163068D02*
X70051503Y-87220210D01*
X70051503Y-87220210D02*
X70280074Y-87220210D01*
X70280074Y-87220210D02*
X70394360Y-87163068D01*
X70394360Y-87163068D02*
X70451503Y-87048782D01*
X70451503Y-87048782D02*
X70451503Y-86991639D01*
X70451503Y-86991639D02*
X70394360Y-86877353D01*
X70394360Y-86877353D02*
X70280074Y-86820210D01*
X70280074Y-86820210D02*
X70108646Y-86820210D01*
X70108646Y-86820210D02*
X69994360Y-86763068D01*
X69994360Y-86763068D02*
X69937217Y-86648782D01*
X69937217Y-86648782D02*
X69937217Y-86591639D01*
X69937217Y-86591639D02*
X69994360Y-86477353D01*
X69994360Y-86477353D02*
X70108646Y-86420210D01*
X70108646Y-86420210D02*
X70280074Y-86420210D01*
X70280074Y-86420210D02*
X70394360Y-86477353D01*
X71422932Y-87163068D02*
X71308646Y-87220210D01*
X71308646Y-87220210D02*
X71080075Y-87220210D01*
X71080075Y-87220210D02*
X70965789Y-87163068D01*
X70965789Y-87163068D02*
X70908646Y-87048782D01*
X70908646Y-87048782D02*
X70908646Y-86591639D01*
X70908646Y-86591639D02*
X70965789Y-86477353D01*
X70965789Y-86477353D02*
X71080075Y-86420210D01*
X71080075Y-86420210D02*
X71308646Y-86420210D01*
X71308646Y-86420210D02*
X71422932Y-86477353D01*
X71422932Y-86477353D02*
X71480075Y-86591639D01*
X71480075Y-86591639D02*
X71480075Y-86705925D01*
X71480075Y-86705925D02*
X70908646Y-86820210D01*
X72851503Y-87163068D02*
X73022932Y-87220210D01*
X73022932Y-87220210D02*
X73308646Y-87220210D01*
X73308646Y-87220210D02*
X73422932Y-87163068D01*
X73422932Y-87163068D02*
X73480074Y-87105925D01*
X73480074Y-87105925D02*
X73537217Y-86991639D01*
X73537217Y-86991639D02*
X73537217Y-86877353D01*
X73537217Y-86877353D02*
X73480074Y-86763068D01*
X73480074Y-86763068D02*
X73422932Y-86705925D01*
X73422932Y-86705925D02*
X73308646Y-86648782D01*
X73308646Y-86648782D02*
X73080074Y-86591639D01*
X73080074Y-86591639D02*
X72965789Y-86534496D01*
X72965789Y-86534496D02*
X72908646Y-86477353D01*
X72908646Y-86477353D02*
X72851503Y-86363068D01*
X72851503Y-86363068D02*
X72851503Y-86248782D01*
X72851503Y-86248782D02*
X72908646Y-86134496D01*
X72908646Y-86134496D02*
X72965789Y-86077353D01*
X72965789Y-86077353D02*
X73080074Y-86020210D01*
X73080074Y-86020210D02*
X73365789Y-86020210D01*
X73365789Y-86020210D02*
X73537217Y-86077353D01*
X73994360Y-86134496D02*
X74051503Y-86077353D01*
X74051503Y-86077353D02*
X74165789Y-86020210D01*
X74165789Y-86020210D02*
X74451503Y-86020210D01*
X74451503Y-86020210D02*
X74565789Y-86077353D01*
X74565789Y-86077353D02*
X74622931Y-86134496D01*
X74622931Y-86134496D02*
X74680074Y-86248782D01*
X74680074Y-86248782D02*
X74680074Y-86363068D01*
X74680074Y-86363068D02*
X74622931Y-86534496D01*
X74622931Y-86534496D02*
X73937217Y-87220210D01*
X73937217Y-87220210D02*
X74680074Y-87220210D01*
X76622932Y-87220210D02*
X76622932Y-86591639D01*
X76622932Y-86591639D02*
X76565789Y-86477353D01*
X76565789Y-86477353D02*
X76451503Y-86420210D01*
X76451503Y-86420210D02*
X76222932Y-86420210D01*
X76222932Y-86420210D02*
X76108646Y-86477353D01*
X76622932Y-87163068D02*
X76508646Y-87220210D01*
X76508646Y-87220210D02*
X76222932Y-87220210D01*
X76222932Y-87220210D02*
X76108646Y-87163068D01*
X76108646Y-87163068D02*
X76051503Y-87048782D01*
X76051503Y-87048782D02*
X76051503Y-86934496D01*
X76051503Y-86934496D02*
X76108646Y-86820210D01*
X76108646Y-86820210D02*
X76222932Y-86763068D01*
X76222932Y-86763068D02*
X76508646Y-86763068D01*
X76508646Y-86763068D02*
X76622932Y-86705925D01*
X77194360Y-86420210D02*
X77194360Y-87220210D01*
X77194360Y-86534496D02*
X77251503Y-86477353D01*
X77251503Y-86477353D02*
X77365788Y-86420210D01*
X77365788Y-86420210D02*
X77537217Y-86420210D01*
X77537217Y-86420210D02*
X77651503Y-86477353D01*
X77651503Y-86477353D02*
X77708646Y-86591639D01*
X77708646Y-86591639D02*
X77708646Y-87220210D01*
X78794360Y-87220210D02*
X78794360Y-86020210D01*
X78794360Y-87163068D02*
X78680074Y-87220210D01*
X78680074Y-87220210D02*
X78451502Y-87220210D01*
X78451502Y-87220210D02*
X78337217Y-87163068D01*
X78337217Y-87163068D02*
X78280074Y-87105925D01*
X78280074Y-87105925D02*
X78222931Y-86991639D01*
X78222931Y-86991639D02*
X78222931Y-86648782D01*
X78222931Y-86648782D02*
X78280074Y-86534496D01*
X78280074Y-86534496D02*
X78337217Y-86477353D01*
X78337217Y-86477353D02*
X78451502Y-86420210D01*
X78451502Y-86420210D02*
X78680074Y-86420210D01*
X78680074Y-86420210D02*
X78794360Y-86477353D01*
X80222931Y-87163068D02*
X80394360Y-87220210D01*
X80394360Y-87220210D02*
X80680074Y-87220210D01*
X80680074Y-87220210D02*
X80794360Y-87163068D01*
X80794360Y-87163068D02*
X80851502Y-87105925D01*
X80851502Y-87105925D02*
X80908645Y-86991639D01*
X80908645Y-86991639D02*
X80908645Y-86877353D01*
X80908645Y-86877353D02*
X80851502Y-86763068D01*
X80851502Y-86763068D02*
X80794360Y-86705925D01*
X80794360Y-86705925D02*
X80680074Y-86648782D01*
X80680074Y-86648782D02*
X80451502Y-86591639D01*
X80451502Y-86591639D02*
X80337217Y-86534496D01*
X80337217Y-86534496D02*
X80280074Y-86477353D01*
X80280074Y-86477353D02*
X80222931Y-86363068D01*
X80222931Y-86363068D02*
X80222931Y-86248782D01*
X80222931Y-86248782D02*
X80280074Y-86134496D01*
X80280074Y-86134496D02*
X80337217Y-86077353D01*
X80337217Y-86077353D02*
X80451502Y-86020210D01*
X80451502Y-86020210D02*
X80737217Y-86020210D01*
X80737217Y-86020210D02*
X80908645Y-86077353D01*
X82051502Y-87220210D02*
X81365788Y-87220210D01*
X81708645Y-87220210D02*
X81708645Y-86020210D01*
X81708645Y-86020210D02*
X81594359Y-86191639D01*
X81594359Y-86191639D02*
X81480074Y-86305925D01*
X81480074Y-86305925D02*
X81365788Y-86363068D01*
X82622931Y-87163068D02*
X82622931Y-87220210D01*
X82622931Y-87220210D02*
X82565788Y-87334496D01*
X82565788Y-87334496D02*
X82508645Y-87391639D01*
X84222931Y-87220210D02*
X84108646Y-87163068D01*
X84108646Y-87163068D02*
X84051503Y-87105925D01*
X84051503Y-87105925D02*
X83994360Y-86991639D01*
X83994360Y-86991639D02*
X83994360Y-86648782D01*
X83994360Y-86648782D02*
X84051503Y-86534496D01*
X84051503Y-86534496D02*
X84108646Y-86477353D01*
X84108646Y-86477353D02*
X84222931Y-86420210D01*
X84222931Y-86420210D02*
X84394360Y-86420210D01*
X84394360Y-86420210D02*
X84508646Y-86477353D01*
X84508646Y-86477353D02*
X84565789Y-86534496D01*
X84565789Y-86534496D02*
X84622931Y-86648782D01*
X84622931Y-86648782D02*
X84622931Y-86991639D01*
X84622931Y-86991639D02*
X84565789Y-87105925D01*
X84565789Y-87105925D02*
X84508646Y-87163068D01*
X84508646Y-87163068D02*
X84394360Y-87220210D01*
X84394360Y-87220210D02*
X84222931Y-87220210D01*
X85137217Y-86420210D02*
X85137217Y-87620210D01*
X85137217Y-86477353D02*
X85251503Y-86420210D01*
X85251503Y-86420210D02*
X85480074Y-86420210D01*
X85480074Y-86420210D02*
X85594360Y-86477353D01*
X85594360Y-86477353D02*
X85651503Y-86534496D01*
X85651503Y-86534496D02*
X85708645Y-86648782D01*
X85708645Y-86648782D02*
X85708645Y-86991639D01*
X85708645Y-86991639D02*
X85651503Y-87105925D01*
X85651503Y-87105925D02*
X85594360Y-87163068D01*
X85594360Y-87163068D02*
X85480074Y-87220210D01*
X85480074Y-87220210D02*
X85251503Y-87220210D01*
X85251503Y-87220210D02*
X85137217Y-87163068D01*
X86680074Y-87163068D02*
X86565788Y-87220210D01*
X86565788Y-87220210D02*
X86337217Y-87220210D01*
X86337217Y-87220210D02*
X86222931Y-87163068D01*
X86222931Y-87163068D02*
X86165788Y-87048782D01*
X86165788Y-87048782D02*
X86165788Y-86591639D01*
X86165788Y-86591639D02*
X86222931Y-86477353D01*
X86222931Y-86477353D02*
X86337217Y-86420210D01*
X86337217Y-86420210D02*
X86565788Y-86420210D01*
X86565788Y-86420210D02*
X86680074Y-86477353D01*
X86680074Y-86477353D02*
X86737217Y-86591639D01*
X86737217Y-86591639D02*
X86737217Y-86705925D01*
X86737217Y-86705925D02*
X86165788Y-86820210D01*
X87251502Y-86420210D02*
X87251502Y-87220210D01*
X87251502Y-86534496D02*
X87308645Y-86477353D01*
X87308645Y-86477353D02*
X87422930Y-86420210D01*
X87422930Y-86420210D02*
X87594359Y-86420210D01*
X87594359Y-86420210D02*
X87708645Y-86477353D01*
X87708645Y-86477353D02*
X87765788Y-86591639D01*
X87765788Y-86591639D02*
X87765788Y-87220210D01*
X89194359Y-87163068D02*
X89365788Y-87220210D01*
X89365788Y-87220210D02*
X89651502Y-87220210D01*
X89651502Y-87220210D02*
X89765788Y-87163068D01*
X89765788Y-87163068D02*
X89822930Y-87105925D01*
X89822930Y-87105925D02*
X89880073Y-86991639D01*
X89880073Y-86991639D02*
X89880073Y-86877353D01*
X89880073Y-86877353D02*
X89822930Y-86763068D01*
X89822930Y-86763068D02*
X89765788Y-86705925D01*
X89765788Y-86705925D02*
X89651502Y-86648782D01*
X89651502Y-86648782D02*
X89422930Y-86591639D01*
X89422930Y-86591639D02*
X89308645Y-86534496D01*
X89308645Y-86534496D02*
X89251502Y-86477353D01*
X89251502Y-86477353D02*
X89194359Y-86363068D01*
X89194359Y-86363068D02*
X89194359Y-86248782D01*
X89194359Y-86248782D02*
X89251502Y-86134496D01*
X89251502Y-86134496D02*
X89308645Y-86077353D01*
X89308645Y-86077353D02*
X89422930Y-86020210D01*
X89422930Y-86020210D02*
X89708645Y-86020210D01*
X89708645Y-86020210D02*
X89880073Y-86077353D01*
X90280073Y-86020210D02*
X91022930Y-86020210D01*
X91022930Y-86020210D02*
X90622930Y-86477353D01*
X90622930Y-86477353D02*
X90794359Y-86477353D01*
X90794359Y-86477353D02*
X90908645Y-86534496D01*
X90908645Y-86534496D02*
X90965787Y-86591639D01*
X90965787Y-86591639D02*
X91022930Y-86705925D01*
X91022930Y-86705925D02*
X91022930Y-86991639D01*
X91022930Y-86991639D02*
X90965787Y-87105925D01*
X90965787Y-87105925D02*
X90908645Y-87163068D01*
X90908645Y-87163068D02*
X90794359Y-87220210D01*
X90794359Y-87220210D02*
X90451502Y-87220210D01*
X90451502Y-87220210D02*
X90337216Y-87163068D01*
X90337216Y-87163068D02*
X90280073Y-87105925D01*
X91594359Y-87163068D02*
X91594359Y-87220210D01*
X91594359Y-87220210D02*
X91537216Y-87334496D01*
X91537216Y-87334496D02*
X91480073Y-87391639D01*
X93537217Y-87163068D02*
X93422931Y-87220210D01*
X93422931Y-87220210D02*
X93194359Y-87220210D01*
X93194359Y-87220210D02*
X93080074Y-87163068D01*
X93080074Y-87163068D02*
X93022931Y-87105925D01*
X93022931Y-87105925D02*
X92965788Y-86991639D01*
X92965788Y-86991639D02*
X92965788Y-86648782D01*
X92965788Y-86648782D02*
X93022931Y-86534496D01*
X93022931Y-86534496D02*
X93080074Y-86477353D01*
X93080074Y-86477353D02*
X93194359Y-86420210D01*
X93194359Y-86420210D02*
X93422931Y-86420210D01*
X93422931Y-86420210D02*
X93537217Y-86477353D01*
X94051502Y-87220210D02*
X94051502Y-86020210D01*
X94565788Y-87220210D02*
X94565788Y-86591639D01*
X94565788Y-86591639D02*
X94508645Y-86477353D01*
X94508645Y-86477353D02*
X94394359Y-86420210D01*
X94394359Y-86420210D02*
X94222930Y-86420210D01*
X94222930Y-86420210D02*
X94108645Y-86477353D01*
X94108645Y-86477353D02*
X94051502Y-86534496D01*
X95651502Y-87220210D02*
X95651502Y-86591639D01*
X95651502Y-86591639D02*
X95594359Y-86477353D01*
X95594359Y-86477353D02*
X95480073Y-86420210D01*
X95480073Y-86420210D02*
X95251502Y-86420210D01*
X95251502Y-86420210D02*
X95137216Y-86477353D01*
X95651502Y-87163068D02*
X95537216Y-87220210D01*
X95537216Y-87220210D02*
X95251502Y-87220210D01*
X95251502Y-87220210D02*
X95137216Y-87163068D01*
X95137216Y-87163068D02*
X95080073Y-87048782D01*
X95080073Y-87048782D02*
X95080073Y-86934496D01*
X95080073Y-86934496D02*
X95137216Y-86820210D01*
X95137216Y-86820210D02*
X95251502Y-86763068D01*
X95251502Y-86763068D02*
X95537216Y-86763068D01*
X95537216Y-86763068D02*
X95651502Y-86705925D01*
X96222930Y-87220210D02*
X96222930Y-86420210D01*
X96222930Y-86648782D02*
X96280073Y-86534496D01*
X96280073Y-86534496D02*
X96337216Y-86477353D01*
X96337216Y-86477353D02*
X96451501Y-86420210D01*
X96451501Y-86420210D02*
X96565787Y-86420210D01*
X97480073Y-86420210D02*
X97480073Y-87391639D01*
X97480073Y-87391639D02*
X97422930Y-87505925D01*
X97422930Y-87505925D02*
X97365787Y-87563068D01*
X97365787Y-87563068D02*
X97251501Y-87620210D01*
X97251501Y-87620210D02*
X97080073Y-87620210D01*
X97080073Y-87620210D02*
X96965787Y-87563068D01*
X97480073Y-87163068D02*
X97365787Y-87220210D01*
X97365787Y-87220210D02*
X97137215Y-87220210D01*
X97137215Y-87220210D02*
X97022930Y-87163068D01*
X97022930Y-87163068D02*
X96965787Y-87105925D01*
X96965787Y-87105925D02*
X96908644Y-86991639D01*
X96908644Y-86991639D02*
X96908644Y-86648782D01*
X96908644Y-86648782D02*
X96965787Y-86534496D01*
X96965787Y-86534496D02*
X97022930Y-86477353D01*
X97022930Y-86477353D02*
X97137215Y-86420210D01*
X97137215Y-86420210D02*
X97365787Y-86420210D01*
X97365787Y-86420210D02*
X97480073Y-86477353D01*
X98508644Y-87163068D02*
X98394358Y-87220210D01*
X98394358Y-87220210D02*
X98165787Y-87220210D01*
X98165787Y-87220210D02*
X98051501Y-87163068D01*
X98051501Y-87163068D02*
X97994358Y-87048782D01*
X97994358Y-87048782D02*
X97994358Y-86591639D01*
X97994358Y-86591639D02*
X98051501Y-86477353D01*
X98051501Y-86477353D02*
X98165787Y-86420210D01*
X98165787Y-86420210D02*
X98394358Y-86420210D01*
X98394358Y-86420210D02*
X98508644Y-86477353D01*
X98508644Y-86477353D02*
X98565787Y-86591639D01*
X98565787Y-86591639D02*
X98565787Y-86705925D01*
X98565787Y-86705925D02*
X97994358Y-86820210D01*
X100680072Y-87105925D02*
X100622929Y-87163068D01*
X100622929Y-87163068D02*
X100451501Y-87220210D01*
X100451501Y-87220210D02*
X100337215Y-87220210D01*
X100337215Y-87220210D02*
X100165786Y-87163068D01*
X100165786Y-87163068D02*
X100051501Y-87048782D01*
X100051501Y-87048782D02*
X99994358Y-86934496D01*
X99994358Y-86934496D02*
X99937215Y-86705925D01*
X99937215Y-86705925D02*
X99937215Y-86534496D01*
X99937215Y-86534496D02*
X99994358Y-86305925D01*
X99994358Y-86305925D02*
X100051501Y-86191639D01*
X100051501Y-86191639D02*
X100165786Y-86077353D01*
X100165786Y-86077353D02*
X100337215Y-86020210D01*
X100337215Y-86020210D02*
X100451501Y-86020210D01*
X100451501Y-86020210D02*
X100622929Y-86077353D01*
X100622929Y-86077353D02*
X100680072Y-86134496D01*
X100908644Y-87334496D02*
X101822929Y-87334496D01*
X102108644Y-87220210D02*
X102108644Y-86020210D01*
X102108644Y-86477353D02*
X102222930Y-86420210D01*
X102222930Y-86420210D02*
X102451501Y-86420210D01*
X102451501Y-86420210D02*
X102565787Y-86477353D01*
X102565787Y-86477353D02*
X102622930Y-86534496D01*
X102622930Y-86534496D02*
X102680072Y-86648782D01*
X102680072Y-86648782D02*
X102680072Y-86991639D01*
X102680072Y-86991639D02*
X102622930Y-87105925D01*
X102622930Y-87105925D02*
X102565787Y-87163068D01*
X102565787Y-87163068D02*
X102451501Y-87220210D01*
X102451501Y-87220210D02*
X102222930Y-87220210D01*
X102222930Y-87220210D02*
X102108644Y-87163068D01*
X103708644Y-86420210D02*
X103708644Y-87220210D01*
X103194358Y-86420210D02*
X103194358Y-87048782D01*
X103194358Y-87048782D02*
X103251501Y-87163068D01*
X103251501Y-87163068D02*
X103365786Y-87220210D01*
X103365786Y-87220210D02*
X103537215Y-87220210D01*
X103537215Y-87220210D02*
X103651501Y-87163068D01*
X103651501Y-87163068D02*
X103708644Y-87105925D01*
X104451500Y-87220210D02*
X104337215Y-87163068D01*
X104337215Y-87163068D02*
X104280072Y-87048782D01*
X104280072Y-87048782D02*
X104280072Y-86020210D01*
X104908643Y-87220210D02*
X104908643Y-86020210D01*
X105022929Y-86763068D02*
X105365786Y-87220210D01*
X105365786Y-86420210D02*
X104908643Y-86877353D01*
X64394360Y-89998362D02*
X64451503Y-89941219D01*
X64451503Y-89941219D02*
X64565789Y-89884076D01*
X64565789Y-89884076D02*
X64851503Y-89884076D01*
X64851503Y-89884076D02*
X64965789Y-89941219D01*
X64965789Y-89941219D02*
X65022931Y-89998362D01*
X65022931Y-89998362D02*
X65080074Y-90112648D01*
X65080074Y-90112648D02*
X65080074Y-90226934D01*
X65080074Y-90226934D02*
X65022931Y-90398362D01*
X65022931Y-90398362D02*
X64337217Y-91084076D01*
X64337217Y-91084076D02*
X65080074Y-91084076D01*
X65594360Y-90969791D02*
X65651503Y-91026934D01*
X65651503Y-91026934D02*
X65594360Y-91084076D01*
X65594360Y-91084076D02*
X65537217Y-91026934D01*
X65537217Y-91026934D02*
X65594360Y-90969791D01*
X65594360Y-90969791D02*
X65594360Y-91084076D01*
X67308646Y-89884076D02*
X67537218Y-89884076D01*
X67537218Y-89884076D02*
X67651503Y-89941219D01*
X67651503Y-89941219D02*
X67765789Y-90055505D01*
X67765789Y-90055505D02*
X67822932Y-90284076D01*
X67822932Y-90284076D02*
X67822932Y-90684076D01*
X67822932Y-90684076D02*
X67765789Y-90912648D01*
X67765789Y-90912648D02*
X67651503Y-91026934D01*
X67651503Y-91026934D02*
X67537218Y-91084076D01*
X67537218Y-91084076D02*
X67308646Y-91084076D01*
X67308646Y-91084076D02*
X67194361Y-91026934D01*
X67194361Y-91026934D02*
X67080075Y-90912648D01*
X67080075Y-90912648D02*
X67022932Y-90684076D01*
X67022932Y-90684076D02*
X67022932Y-90284076D01*
X67022932Y-90284076D02*
X67080075Y-90055505D01*
X67080075Y-90055505D02*
X67194361Y-89941219D01*
X67194361Y-89941219D02*
X67308646Y-89884076D01*
X68337218Y-90284076D02*
X68337218Y-91484076D01*
X68337218Y-90341219D02*
X68451504Y-90284076D01*
X68451504Y-90284076D02*
X68680075Y-90284076D01*
X68680075Y-90284076D02*
X68794361Y-90341219D01*
X68794361Y-90341219D02*
X68851504Y-90398362D01*
X68851504Y-90398362D02*
X68908646Y-90512648D01*
X68908646Y-90512648D02*
X68908646Y-90855505D01*
X68908646Y-90855505D02*
X68851504Y-90969791D01*
X68851504Y-90969791D02*
X68794361Y-91026934D01*
X68794361Y-91026934D02*
X68680075Y-91084076D01*
X68680075Y-91084076D02*
X68451504Y-91084076D01*
X68451504Y-91084076D02*
X68337218Y-91026934D01*
X69880075Y-91026934D02*
X69765789Y-91084076D01*
X69765789Y-91084076D02*
X69537218Y-91084076D01*
X69537218Y-91084076D02*
X69422932Y-91026934D01*
X69422932Y-91026934D02*
X69365789Y-90912648D01*
X69365789Y-90912648D02*
X69365789Y-90455505D01*
X69365789Y-90455505D02*
X69422932Y-90341219D01*
X69422932Y-90341219D02*
X69537218Y-90284076D01*
X69537218Y-90284076D02*
X69765789Y-90284076D01*
X69765789Y-90284076D02*
X69880075Y-90341219D01*
X69880075Y-90341219D02*
X69937218Y-90455505D01*
X69937218Y-90455505D02*
X69937218Y-90569791D01*
X69937218Y-90569791D02*
X69365789Y-90684076D01*
X70451503Y-90284076D02*
X70451503Y-91084076D01*
X70451503Y-90398362D02*
X70508646Y-90341219D01*
X70508646Y-90341219D02*
X70622931Y-90284076D01*
X70622931Y-90284076D02*
X70794360Y-90284076D01*
X70794360Y-90284076D02*
X70908646Y-90341219D01*
X70908646Y-90341219D02*
X70965789Y-90455505D01*
X70965789Y-90455505D02*
X70965789Y-91084076D01*
X72394360Y-91026934D02*
X72565789Y-91084076D01*
X72565789Y-91084076D02*
X72851503Y-91084076D01*
X72851503Y-91084076D02*
X72965789Y-91026934D01*
X72965789Y-91026934D02*
X73022931Y-90969791D01*
X73022931Y-90969791D02*
X73080074Y-90855505D01*
X73080074Y-90855505D02*
X73080074Y-90741219D01*
X73080074Y-90741219D02*
X73022931Y-90626934D01*
X73022931Y-90626934D02*
X72965789Y-90569791D01*
X72965789Y-90569791D02*
X72851503Y-90512648D01*
X72851503Y-90512648D02*
X72622931Y-90455505D01*
X72622931Y-90455505D02*
X72508646Y-90398362D01*
X72508646Y-90398362D02*
X72451503Y-90341219D01*
X72451503Y-90341219D02*
X72394360Y-90226934D01*
X72394360Y-90226934D02*
X72394360Y-90112648D01*
X72394360Y-90112648D02*
X72451503Y-89998362D01*
X72451503Y-89998362D02*
X72508646Y-89941219D01*
X72508646Y-89941219D02*
X72622931Y-89884076D01*
X72622931Y-89884076D02*
X72908646Y-89884076D01*
X72908646Y-89884076D02*
X73080074Y-89941219D01*
X74222931Y-91084076D02*
X73537217Y-91084076D01*
X73880074Y-91084076D02*
X73880074Y-89884076D01*
X73880074Y-89884076D02*
X73765788Y-90055505D01*
X73765788Y-90055505D02*
X73651503Y-90169791D01*
X73651503Y-90169791D02*
X73537217Y-90226934D01*
X74794360Y-91026934D02*
X74794360Y-91084076D01*
X74794360Y-91084076D02*
X74737217Y-91198362D01*
X74737217Y-91198362D02*
X74680074Y-91255505D01*
X76165789Y-91026934D02*
X76337218Y-91084076D01*
X76337218Y-91084076D02*
X76622932Y-91084076D01*
X76622932Y-91084076D02*
X76737218Y-91026934D01*
X76737218Y-91026934D02*
X76794360Y-90969791D01*
X76794360Y-90969791D02*
X76851503Y-90855505D01*
X76851503Y-90855505D02*
X76851503Y-90741219D01*
X76851503Y-90741219D02*
X76794360Y-90626934D01*
X76794360Y-90626934D02*
X76737218Y-90569791D01*
X76737218Y-90569791D02*
X76622932Y-90512648D01*
X76622932Y-90512648D02*
X76394360Y-90455505D01*
X76394360Y-90455505D02*
X76280075Y-90398362D01*
X76280075Y-90398362D02*
X76222932Y-90341219D01*
X76222932Y-90341219D02*
X76165789Y-90226934D01*
X76165789Y-90226934D02*
X76165789Y-90112648D01*
X76165789Y-90112648D02*
X76222932Y-89998362D01*
X76222932Y-89998362D02*
X76280075Y-89941219D01*
X76280075Y-89941219D02*
X76394360Y-89884076D01*
X76394360Y-89884076D02*
X76680075Y-89884076D01*
X76680075Y-89884076D02*
X76851503Y-89941219D01*
X77308646Y-89998362D02*
X77365789Y-89941219D01*
X77365789Y-89941219D02*
X77480075Y-89884076D01*
X77480075Y-89884076D02*
X77765789Y-89884076D01*
X77765789Y-89884076D02*
X77880075Y-89941219D01*
X77880075Y-89941219D02*
X77937217Y-89998362D01*
X77937217Y-89998362D02*
X77994360Y-90112648D01*
X77994360Y-90112648D02*
X77994360Y-90226934D01*
X77994360Y-90226934D02*
X77937217Y-90398362D01*
X77937217Y-90398362D02*
X77251503Y-91084076D01*
X77251503Y-91084076D02*
X77994360Y-91084076D01*
X78565789Y-91026934D02*
X78565789Y-91084076D01*
X78565789Y-91084076D02*
X78508646Y-91198362D01*
X78508646Y-91198362D02*
X78451503Y-91255505D01*
X80508647Y-91084076D02*
X80508647Y-90455505D01*
X80508647Y-90455505D02*
X80451504Y-90341219D01*
X80451504Y-90341219D02*
X80337218Y-90284076D01*
X80337218Y-90284076D02*
X80108647Y-90284076D01*
X80108647Y-90284076D02*
X79994361Y-90341219D01*
X80508647Y-91026934D02*
X80394361Y-91084076D01*
X80394361Y-91084076D02*
X80108647Y-91084076D01*
X80108647Y-91084076D02*
X79994361Y-91026934D01*
X79994361Y-91026934D02*
X79937218Y-90912648D01*
X79937218Y-90912648D02*
X79937218Y-90798362D01*
X79937218Y-90798362D02*
X79994361Y-90684076D01*
X79994361Y-90684076D02*
X80108647Y-90626934D01*
X80108647Y-90626934D02*
X80394361Y-90626934D01*
X80394361Y-90626934D02*
X80508647Y-90569791D01*
X81080075Y-90284076D02*
X81080075Y-91084076D01*
X81080075Y-90398362D02*
X81137218Y-90341219D01*
X81137218Y-90341219D02*
X81251503Y-90284076D01*
X81251503Y-90284076D02*
X81422932Y-90284076D01*
X81422932Y-90284076D02*
X81537218Y-90341219D01*
X81537218Y-90341219D02*
X81594361Y-90455505D01*
X81594361Y-90455505D02*
X81594361Y-91084076D01*
X82680075Y-91084076D02*
X82680075Y-89884076D01*
X82680075Y-91026934D02*
X82565789Y-91084076D01*
X82565789Y-91084076D02*
X82337217Y-91084076D01*
X82337217Y-91084076D02*
X82222932Y-91026934D01*
X82222932Y-91026934D02*
X82165789Y-90969791D01*
X82165789Y-90969791D02*
X82108646Y-90855505D01*
X82108646Y-90855505D02*
X82108646Y-90512648D01*
X82108646Y-90512648D02*
X82165789Y-90398362D01*
X82165789Y-90398362D02*
X82222932Y-90341219D01*
X82222932Y-90341219D02*
X82337217Y-90284076D01*
X82337217Y-90284076D02*
X82565789Y-90284076D01*
X82565789Y-90284076D02*
X82680075Y-90341219D01*
X84108646Y-91026934D02*
X84280075Y-91084076D01*
X84280075Y-91084076D02*
X84565789Y-91084076D01*
X84565789Y-91084076D02*
X84680075Y-91026934D01*
X84680075Y-91026934D02*
X84737217Y-90969791D01*
X84737217Y-90969791D02*
X84794360Y-90855505D01*
X84794360Y-90855505D02*
X84794360Y-90741219D01*
X84794360Y-90741219D02*
X84737217Y-90626934D01*
X84737217Y-90626934D02*
X84680075Y-90569791D01*
X84680075Y-90569791D02*
X84565789Y-90512648D01*
X84565789Y-90512648D02*
X84337217Y-90455505D01*
X84337217Y-90455505D02*
X84222932Y-90398362D01*
X84222932Y-90398362D02*
X84165789Y-90341219D01*
X84165789Y-90341219D02*
X84108646Y-90226934D01*
X84108646Y-90226934D02*
X84108646Y-90112648D01*
X84108646Y-90112648D02*
X84165789Y-89998362D01*
X84165789Y-89998362D02*
X84222932Y-89941219D01*
X84222932Y-89941219D02*
X84337217Y-89884076D01*
X84337217Y-89884076D02*
X84622932Y-89884076D01*
X84622932Y-89884076D02*
X84794360Y-89941219D01*
X85194360Y-89884076D02*
X85937217Y-89884076D01*
X85937217Y-89884076D02*
X85537217Y-90341219D01*
X85537217Y-90341219D02*
X85708646Y-90341219D01*
X85708646Y-90341219D02*
X85822932Y-90398362D01*
X85822932Y-90398362D02*
X85880074Y-90455505D01*
X85880074Y-90455505D02*
X85937217Y-90569791D01*
X85937217Y-90569791D02*
X85937217Y-90855505D01*
X85937217Y-90855505D02*
X85880074Y-90969791D01*
X85880074Y-90969791D02*
X85822932Y-91026934D01*
X85822932Y-91026934D02*
X85708646Y-91084076D01*
X85708646Y-91084076D02*
X85365789Y-91084076D01*
X85365789Y-91084076D02*
X85251503Y-91026934D01*
X85251503Y-91026934D02*
X85194360Y-90969791D01*
X86508646Y-91026934D02*
X86508646Y-91084076D01*
X86508646Y-91084076D02*
X86451503Y-91198362D01*
X86451503Y-91198362D02*
X86394360Y-91255505D01*
X88451504Y-91084076D02*
X88451504Y-90455505D01*
X88451504Y-90455505D02*
X88394361Y-90341219D01*
X88394361Y-90341219D02*
X88280075Y-90284076D01*
X88280075Y-90284076D02*
X88051504Y-90284076D01*
X88051504Y-90284076D02*
X87937218Y-90341219D01*
X88451504Y-91026934D02*
X88337218Y-91084076D01*
X88337218Y-91084076D02*
X88051504Y-91084076D01*
X88051504Y-91084076D02*
X87937218Y-91026934D01*
X87937218Y-91026934D02*
X87880075Y-90912648D01*
X87880075Y-90912648D02*
X87880075Y-90798362D01*
X87880075Y-90798362D02*
X87937218Y-90684076D01*
X87937218Y-90684076D02*
X88051504Y-90626934D01*
X88051504Y-90626934D02*
X88337218Y-90626934D01*
X88337218Y-90626934D02*
X88451504Y-90569791D01*
X88851503Y-90284076D02*
X89308646Y-90284076D01*
X89022932Y-89884076D02*
X89022932Y-90912648D01*
X89022932Y-90912648D02*
X89080075Y-91026934D01*
X89080075Y-91026934D02*
X89194360Y-91084076D01*
X89194360Y-91084076D02*
X89308646Y-91084076D01*
X89537217Y-90284076D02*
X89994360Y-90284076D01*
X89708646Y-89884076D02*
X89708646Y-90912648D01*
X89708646Y-90912648D02*
X89765789Y-91026934D01*
X89765789Y-91026934D02*
X89880074Y-91084076D01*
X89880074Y-91084076D02*
X89994360Y-91084076D01*
X90908646Y-91084076D02*
X90908646Y-90455505D01*
X90908646Y-90455505D02*
X90851503Y-90341219D01*
X90851503Y-90341219D02*
X90737217Y-90284076D01*
X90737217Y-90284076D02*
X90508646Y-90284076D01*
X90508646Y-90284076D02*
X90394360Y-90341219D01*
X90908646Y-91026934D02*
X90794360Y-91084076D01*
X90794360Y-91084076D02*
X90508646Y-91084076D01*
X90508646Y-91084076D02*
X90394360Y-91026934D01*
X90394360Y-91026934D02*
X90337217Y-90912648D01*
X90337217Y-90912648D02*
X90337217Y-90798362D01*
X90337217Y-90798362D02*
X90394360Y-90684076D01*
X90394360Y-90684076D02*
X90508646Y-90626934D01*
X90508646Y-90626934D02*
X90794360Y-90626934D01*
X90794360Y-90626934D02*
X90908646Y-90569791D01*
X91994360Y-91026934D02*
X91880074Y-91084076D01*
X91880074Y-91084076D02*
X91651502Y-91084076D01*
X91651502Y-91084076D02*
X91537217Y-91026934D01*
X91537217Y-91026934D02*
X91480074Y-90969791D01*
X91480074Y-90969791D02*
X91422931Y-90855505D01*
X91422931Y-90855505D02*
X91422931Y-90512648D01*
X91422931Y-90512648D02*
X91480074Y-90398362D01*
X91480074Y-90398362D02*
X91537217Y-90341219D01*
X91537217Y-90341219D02*
X91651502Y-90284076D01*
X91651502Y-90284076D02*
X91880074Y-90284076D01*
X91880074Y-90284076D02*
X91994360Y-90341219D01*
X92508645Y-91084076D02*
X92508645Y-89884076D01*
X93022931Y-91084076D02*
X93022931Y-90455505D01*
X93022931Y-90455505D02*
X92965788Y-90341219D01*
X92965788Y-90341219D02*
X92851502Y-90284076D01*
X92851502Y-90284076D02*
X92680073Y-90284076D01*
X92680073Y-90284076D02*
X92565788Y-90341219D01*
X92565788Y-90341219D02*
X92508645Y-90398362D01*
X94451502Y-91026934D02*
X94565788Y-91084076D01*
X94565788Y-91084076D02*
X94794359Y-91084076D01*
X94794359Y-91084076D02*
X94908645Y-91026934D01*
X94908645Y-91026934D02*
X94965788Y-90912648D01*
X94965788Y-90912648D02*
X94965788Y-90855505D01*
X94965788Y-90855505D02*
X94908645Y-90741219D01*
X94908645Y-90741219D02*
X94794359Y-90684076D01*
X94794359Y-90684076D02*
X94622931Y-90684076D01*
X94622931Y-90684076D02*
X94508645Y-90626934D01*
X94508645Y-90626934D02*
X94451502Y-90512648D01*
X94451502Y-90512648D02*
X94451502Y-90455505D01*
X94451502Y-90455505D02*
X94508645Y-90341219D01*
X94508645Y-90341219D02*
X94622931Y-90284076D01*
X94622931Y-90284076D02*
X94794359Y-90284076D01*
X94794359Y-90284076D02*
X94908645Y-90341219D01*
X95994360Y-91026934D02*
X95880074Y-91084076D01*
X95880074Y-91084076D02*
X95651502Y-91084076D01*
X95651502Y-91084076D02*
X95537217Y-91026934D01*
X95537217Y-91026934D02*
X95480074Y-90969791D01*
X95480074Y-90969791D02*
X95422931Y-90855505D01*
X95422931Y-90855505D02*
X95422931Y-90512648D01*
X95422931Y-90512648D02*
X95480074Y-90398362D01*
X95480074Y-90398362D02*
X95537217Y-90341219D01*
X95537217Y-90341219D02*
X95651502Y-90284076D01*
X95651502Y-90284076D02*
X95880074Y-90284076D01*
X95880074Y-90284076D02*
X95994360Y-90341219D01*
X96680073Y-91084076D02*
X96565788Y-91026934D01*
X96565788Y-91026934D02*
X96508645Y-90969791D01*
X96508645Y-90969791D02*
X96451502Y-90855505D01*
X96451502Y-90855505D02*
X96451502Y-90512648D01*
X96451502Y-90512648D02*
X96508645Y-90398362D01*
X96508645Y-90398362D02*
X96565788Y-90341219D01*
X96565788Y-90341219D02*
X96680073Y-90284076D01*
X96680073Y-90284076D02*
X96851502Y-90284076D01*
X96851502Y-90284076D02*
X96965788Y-90341219D01*
X96965788Y-90341219D02*
X97022931Y-90398362D01*
X97022931Y-90398362D02*
X97080073Y-90512648D01*
X97080073Y-90512648D02*
X97080073Y-90855505D01*
X97080073Y-90855505D02*
X97022931Y-90969791D01*
X97022931Y-90969791D02*
X96965788Y-91026934D01*
X96965788Y-91026934D02*
X96851502Y-91084076D01*
X96851502Y-91084076D02*
X96680073Y-91084076D01*
X97594359Y-90284076D02*
X97594359Y-91484076D01*
X97594359Y-90341219D02*
X97708645Y-90284076D01*
X97708645Y-90284076D02*
X97937216Y-90284076D01*
X97937216Y-90284076D02*
X98051502Y-90341219D01*
X98051502Y-90341219D02*
X98108645Y-90398362D01*
X98108645Y-90398362D02*
X98165787Y-90512648D01*
X98165787Y-90512648D02*
X98165787Y-90855505D01*
X98165787Y-90855505D02*
X98108645Y-90969791D01*
X98108645Y-90969791D02*
X98051502Y-91026934D01*
X98051502Y-91026934D02*
X97937216Y-91084076D01*
X97937216Y-91084076D02*
X97708645Y-91084076D01*
X97708645Y-91084076D02*
X97594359Y-91026934D01*
X99137216Y-91026934D02*
X99022930Y-91084076D01*
X99022930Y-91084076D02*
X98794359Y-91084076D01*
X98794359Y-91084076D02*
X98680073Y-91026934D01*
X98680073Y-91026934D02*
X98622930Y-90912648D01*
X98622930Y-90912648D02*
X98622930Y-90455505D01*
X98622930Y-90455505D02*
X98680073Y-90341219D01*
X98680073Y-90341219D02*
X98794359Y-90284076D01*
X98794359Y-90284076D02*
X99022930Y-90284076D01*
X99022930Y-90284076D02*
X99137216Y-90341219D01*
X99137216Y-90341219D02*
X99194359Y-90455505D01*
X99194359Y-90455505D02*
X99194359Y-90569791D01*
X99194359Y-90569791D02*
X98622930Y-90684076D01*
X99765787Y-91026934D02*
X99765787Y-91084076D01*
X99765787Y-91084076D02*
X99708644Y-91198362D01*
X99708644Y-91198362D02*
X99651501Y-91255505D01*
X101022930Y-90284076D02*
X101480073Y-90284076D01*
X101194359Y-89884076D02*
X101194359Y-90912648D01*
X101194359Y-90912648D02*
X101251502Y-91026934D01*
X101251502Y-91026934D02*
X101365787Y-91084076D01*
X101365787Y-91084076D02*
X101480073Y-91084076D01*
X102337216Y-91026934D02*
X102222930Y-91084076D01*
X102222930Y-91084076D02*
X101994359Y-91084076D01*
X101994359Y-91084076D02*
X101880073Y-91026934D01*
X101880073Y-91026934D02*
X101822930Y-90912648D01*
X101822930Y-90912648D02*
X101822930Y-90455505D01*
X101822930Y-90455505D02*
X101880073Y-90341219D01*
X101880073Y-90341219D02*
X101994359Y-90284076D01*
X101994359Y-90284076D02*
X102222930Y-90284076D01*
X102222930Y-90284076D02*
X102337216Y-90341219D01*
X102337216Y-90341219D02*
X102394359Y-90455505D01*
X102394359Y-90455505D02*
X102394359Y-90569791D01*
X102394359Y-90569791D02*
X101822930Y-90684076D01*
X102851501Y-91026934D02*
X102965787Y-91084076D01*
X102965787Y-91084076D02*
X103194358Y-91084076D01*
X103194358Y-91084076D02*
X103308644Y-91026934D01*
X103308644Y-91026934D02*
X103365787Y-90912648D01*
X103365787Y-90912648D02*
X103365787Y-90855505D01*
X103365787Y-90855505D02*
X103308644Y-90741219D01*
X103308644Y-90741219D02*
X103194358Y-90684076D01*
X103194358Y-90684076D02*
X103022930Y-90684076D01*
X103022930Y-90684076D02*
X102908644Y-90626934D01*
X102908644Y-90626934D02*
X102851501Y-90512648D01*
X102851501Y-90512648D02*
X102851501Y-90455505D01*
X102851501Y-90455505D02*
X102908644Y-90341219D01*
X102908644Y-90341219D02*
X103022930Y-90284076D01*
X103022930Y-90284076D02*
X103194358Y-90284076D01*
X103194358Y-90284076D02*
X103308644Y-90341219D01*
X103708644Y-90284076D02*
X104165787Y-90284076D01*
X103880073Y-89884076D02*
X103880073Y-90912648D01*
X103880073Y-90912648D02*
X103937216Y-91026934D01*
X103937216Y-91026934D02*
X104051501Y-91084076D01*
X104051501Y-91084076D02*
X104165787Y-91084076D01*
X104565787Y-91084076D02*
X104565787Y-90284076D01*
X104565787Y-89884076D02*
X104508644Y-89941219D01*
X104508644Y-89941219D02*
X104565787Y-89998362D01*
X104565787Y-89998362D02*
X104622930Y-89941219D01*
X104622930Y-89941219D02*
X104565787Y-89884076D01*
X104565787Y-89884076D02*
X104565787Y-89998362D01*
X105137216Y-90284076D02*
X105137216Y-91084076D01*
X105137216Y-90398362D02*
X105194359Y-90341219D01*
X105194359Y-90341219D02*
X105308644Y-90284076D01*
X105308644Y-90284076D02*
X105480073Y-90284076D01*
X105480073Y-90284076D02*
X105594359Y-90341219D01*
X105594359Y-90341219D02*
X105651502Y-90455505D01*
X105651502Y-90455505D02*
X105651502Y-91084076D01*
X106737216Y-90284076D02*
X106737216Y-91255505D01*
X106737216Y-91255505D02*
X106680073Y-91369791D01*
X106680073Y-91369791D02*
X106622930Y-91426934D01*
X106622930Y-91426934D02*
X106508644Y-91484076D01*
X106508644Y-91484076D02*
X106337216Y-91484076D01*
X106337216Y-91484076D02*
X106222930Y-91426934D01*
X106737216Y-91026934D02*
X106622930Y-91084076D01*
X106622930Y-91084076D02*
X106394358Y-91084076D01*
X106394358Y-91084076D02*
X106280073Y-91026934D01*
X106280073Y-91026934D02*
X106222930Y-90969791D01*
X106222930Y-90969791D02*
X106165787Y-90855505D01*
X106165787Y-90855505D02*
X106165787Y-90512648D01*
X106165787Y-90512648D02*
X106222930Y-90398362D01*
X106222930Y-90398362D02*
X106280073Y-90341219D01*
X106280073Y-90341219D02*
X106394358Y-90284076D01*
X106394358Y-90284076D02*
X106622930Y-90284076D01*
X106622930Y-90284076D02*
X106737216Y-90341219D01*
X64337217Y-93747942D02*
X65080074Y-93747942D01*
X65080074Y-93747942D02*
X64680074Y-94205085D01*
X64680074Y-94205085D02*
X64851503Y-94205085D01*
X64851503Y-94205085D02*
X64965789Y-94262228D01*
X64965789Y-94262228D02*
X65022931Y-94319371D01*
X65022931Y-94319371D02*
X65080074Y-94433657D01*
X65080074Y-94433657D02*
X65080074Y-94719371D01*
X65080074Y-94719371D02*
X65022931Y-94833657D01*
X65022931Y-94833657D02*
X64965789Y-94890800D01*
X64965789Y-94890800D02*
X64851503Y-94947942D01*
X64851503Y-94947942D02*
X64508646Y-94947942D01*
X64508646Y-94947942D02*
X64394360Y-94890800D01*
X64394360Y-94890800D02*
X64337217Y-94833657D01*
X65594360Y-94833657D02*
X65651503Y-94890800D01*
X65651503Y-94890800D02*
X65594360Y-94947942D01*
X65594360Y-94947942D02*
X65537217Y-94890800D01*
X65537217Y-94890800D02*
X65594360Y-94833657D01*
X65594360Y-94833657D02*
X65594360Y-94947942D01*
X67080075Y-93747942D02*
X67080075Y-94719371D01*
X67080075Y-94719371D02*
X67137218Y-94833657D01*
X67137218Y-94833657D02*
X67194361Y-94890800D01*
X67194361Y-94890800D02*
X67308646Y-94947942D01*
X67308646Y-94947942D02*
X67537218Y-94947942D01*
X67537218Y-94947942D02*
X67651503Y-94890800D01*
X67651503Y-94890800D02*
X67708646Y-94833657D01*
X67708646Y-94833657D02*
X67765789Y-94719371D01*
X67765789Y-94719371D02*
X67765789Y-93747942D01*
X68337218Y-94147942D02*
X68337218Y-94947942D01*
X68337218Y-94262228D02*
X68394361Y-94205085D01*
X68394361Y-94205085D02*
X68508646Y-94147942D01*
X68508646Y-94147942D02*
X68680075Y-94147942D01*
X68680075Y-94147942D02*
X68794361Y-94205085D01*
X68794361Y-94205085D02*
X68851504Y-94319371D01*
X68851504Y-94319371D02*
X68851504Y-94947942D01*
X69422932Y-94147942D02*
X69422932Y-95347942D01*
X69422932Y-94205085D02*
X69537218Y-94147942D01*
X69537218Y-94147942D02*
X69765789Y-94147942D01*
X69765789Y-94147942D02*
X69880075Y-94205085D01*
X69880075Y-94205085D02*
X69937218Y-94262228D01*
X69937218Y-94262228D02*
X69994360Y-94376514D01*
X69994360Y-94376514D02*
X69994360Y-94719371D01*
X69994360Y-94719371D02*
X69937218Y-94833657D01*
X69937218Y-94833657D02*
X69880075Y-94890800D01*
X69880075Y-94890800D02*
X69765789Y-94947942D01*
X69765789Y-94947942D02*
X69537218Y-94947942D01*
X69537218Y-94947942D02*
X69422932Y-94890800D01*
X70680074Y-94947942D02*
X70565789Y-94890800D01*
X70565789Y-94890800D02*
X70508646Y-94776514D01*
X70508646Y-94776514D02*
X70508646Y-93747942D01*
X71651503Y-94147942D02*
X71651503Y-94947942D01*
X71137217Y-94147942D02*
X71137217Y-94776514D01*
X71137217Y-94776514D02*
X71194360Y-94890800D01*
X71194360Y-94890800D02*
X71308645Y-94947942D01*
X71308645Y-94947942D02*
X71480074Y-94947942D01*
X71480074Y-94947942D02*
X71594360Y-94890800D01*
X71594360Y-94890800D02*
X71651503Y-94833657D01*
X72737217Y-94147942D02*
X72737217Y-95119371D01*
X72737217Y-95119371D02*
X72680074Y-95233657D01*
X72680074Y-95233657D02*
X72622931Y-95290800D01*
X72622931Y-95290800D02*
X72508645Y-95347942D01*
X72508645Y-95347942D02*
X72337217Y-95347942D01*
X72337217Y-95347942D02*
X72222931Y-95290800D01*
X72737217Y-94890800D02*
X72622931Y-94947942D01*
X72622931Y-94947942D02*
X72394359Y-94947942D01*
X72394359Y-94947942D02*
X72280074Y-94890800D01*
X72280074Y-94890800D02*
X72222931Y-94833657D01*
X72222931Y-94833657D02*
X72165788Y-94719371D01*
X72165788Y-94719371D02*
X72165788Y-94376514D01*
X72165788Y-94376514D02*
X72222931Y-94262228D01*
X72222931Y-94262228D02*
X72280074Y-94205085D01*
X72280074Y-94205085D02*
X72394359Y-94147942D01*
X72394359Y-94147942D02*
X72622931Y-94147942D01*
X72622931Y-94147942D02*
X72737217Y-94205085D01*
X74222931Y-94147942D02*
X74222931Y-95347942D01*
X74222931Y-94205085D02*
X74337217Y-94147942D01*
X74337217Y-94147942D02*
X74565788Y-94147942D01*
X74565788Y-94147942D02*
X74680074Y-94205085D01*
X74680074Y-94205085D02*
X74737217Y-94262228D01*
X74737217Y-94262228D02*
X74794359Y-94376514D01*
X74794359Y-94376514D02*
X74794359Y-94719371D01*
X74794359Y-94719371D02*
X74737217Y-94833657D01*
X74737217Y-94833657D02*
X74680074Y-94890800D01*
X74680074Y-94890800D02*
X74565788Y-94947942D01*
X74565788Y-94947942D02*
X74337217Y-94947942D01*
X74337217Y-94947942D02*
X74222931Y-94890800D01*
X75480073Y-94947942D02*
X75365788Y-94890800D01*
X75365788Y-94890800D02*
X75308645Y-94833657D01*
X75308645Y-94833657D02*
X75251502Y-94719371D01*
X75251502Y-94719371D02*
X75251502Y-94376514D01*
X75251502Y-94376514D02*
X75308645Y-94262228D01*
X75308645Y-94262228D02*
X75365788Y-94205085D01*
X75365788Y-94205085D02*
X75480073Y-94147942D01*
X75480073Y-94147942D02*
X75651502Y-94147942D01*
X75651502Y-94147942D02*
X75765788Y-94205085D01*
X75765788Y-94205085D02*
X75822931Y-94262228D01*
X75822931Y-94262228D02*
X75880073Y-94376514D01*
X75880073Y-94376514D02*
X75880073Y-94719371D01*
X75880073Y-94719371D02*
X75822931Y-94833657D01*
X75822931Y-94833657D02*
X75765788Y-94890800D01*
X75765788Y-94890800D02*
X75651502Y-94947942D01*
X75651502Y-94947942D02*
X75480073Y-94947942D01*
X76280073Y-94147942D02*
X76508645Y-94947942D01*
X76508645Y-94947942D02*
X76737216Y-94376514D01*
X76737216Y-94376514D02*
X76965787Y-94947942D01*
X76965787Y-94947942D02*
X77194359Y-94147942D01*
X78108645Y-94890800D02*
X77994359Y-94947942D01*
X77994359Y-94947942D02*
X77765788Y-94947942D01*
X77765788Y-94947942D02*
X77651502Y-94890800D01*
X77651502Y-94890800D02*
X77594359Y-94776514D01*
X77594359Y-94776514D02*
X77594359Y-94319371D01*
X77594359Y-94319371D02*
X77651502Y-94205085D01*
X77651502Y-94205085D02*
X77765788Y-94147942D01*
X77765788Y-94147942D02*
X77994359Y-94147942D01*
X77994359Y-94147942D02*
X78108645Y-94205085D01*
X78108645Y-94205085D02*
X78165788Y-94319371D01*
X78165788Y-94319371D02*
X78165788Y-94433657D01*
X78165788Y-94433657D02*
X77594359Y-94547942D01*
X78680073Y-94947942D02*
X78680073Y-94147942D01*
X78680073Y-94376514D02*
X78737216Y-94262228D01*
X78737216Y-94262228D02*
X78794359Y-94205085D01*
X78794359Y-94205085D02*
X78908644Y-94147942D01*
X78908644Y-94147942D02*
X79022930Y-94147942D01*
X80280073Y-94890800D02*
X80394359Y-94947942D01*
X80394359Y-94947942D02*
X80622930Y-94947942D01*
X80622930Y-94947942D02*
X80737216Y-94890800D01*
X80737216Y-94890800D02*
X80794359Y-94776514D01*
X80794359Y-94776514D02*
X80794359Y-94719371D01*
X80794359Y-94719371D02*
X80737216Y-94605085D01*
X80737216Y-94605085D02*
X80622930Y-94547942D01*
X80622930Y-94547942D02*
X80451502Y-94547942D01*
X80451502Y-94547942D02*
X80337216Y-94490800D01*
X80337216Y-94490800D02*
X80280073Y-94376514D01*
X80280073Y-94376514D02*
X80280073Y-94319371D01*
X80280073Y-94319371D02*
X80337216Y-94205085D01*
X80337216Y-94205085D02*
X80451502Y-94147942D01*
X80451502Y-94147942D02*
X80622930Y-94147942D01*
X80622930Y-94147942D02*
X80737216Y-94205085D01*
X81822931Y-94147942D02*
X81822931Y-94947942D01*
X81308645Y-94147942D02*
X81308645Y-94776514D01*
X81308645Y-94776514D02*
X81365788Y-94890800D01*
X81365788Y-94890800D02*
X81480073Y-94947942D01*
X81480073Y-94947942D02*
X81651502Y-94947942D01*
X81651502Y-94947942D02*
X81765788Y-94890800D01*
X81765788Y-94890800D02*
X81822931Y-94833657D01*
X82394359Y-94147942D02*
X82394359Y-95347942D01*
X82394359Y-94205085D02*
X82508645Y-94147942D01*
X82508645Y-94147942D02*
X82737216Y-94147942D01*
X82737216Y-94147942D02*
X82851502Y-94205085D01*
X82851502Y-94205085D02*
X82908645Y-94262228D01*
X82908645Y-94262228D02*
X82965787Y-94376514D01*
X82965787Y-94376514D02*
X82965787Y-94719371D01*
X82965787Y-94719371D02*
X82908645Y-94833657D01*
X82908645Y-94833657D02*
X82851502Y-94890800D01*
X82851502Y-94890800D02*
X82737216Y-94947942D01*
X82737216Y-94947942D02*
X82508645Y-94947942D01*
X82508645Y-94947942D02*
X82394359Y-94890800D01*
X83480073Y-94147942D02*
X83480073Y-95347942D01*
X83480073Y-94205085D02*
X83594359Y-94147942D01*
X83594359Y-94147942D02*
X83822930Y-94147942D01*
X83822930Y-94147942D02*
X83937216Y-94205085D01*
X83937216Y-94205085D02*
X83994359Y-94262228D01*
X83994359Y-94262228D02*
X84051501Y-94376514D01*
X84051501Y-94376514D02*
X84051501Y-94719371D01*
X84051501Y-94719371D02*
X83994359Y-94833657D01*
X83994359Y-94833657D02*
X83937216Y-94890800D01*
X83937216Y-94890800D02*
X83822930Y-94947942D01*
X83822930Y-94947942D02*
X83594359Y-94947942D01*
X83594359Y-94947942D02*
X83480073Y-94890800D01*
X84737215Y-94947942D02*
X84622930Y-94890800D01*
X84622930Y-94890800D02*
X84565787Y-94776514D01*
X84565787Y-94776514D02*
X84565787Y-93747942D01*
X85080072Y-94147942D02*
X85365786Y-94947942D01*
X85651501Y-94147942D02*
X85365786Y-94947942D01*
X85365786Y-94947942D02*
X85251501Y-95233657D01*
X85251501Y-95233657D02*
X85194358Y-95290800D01*
X85194358Y-95290800D02*
X85080072Y-95347942D01*
X86165787Y-94890800D02*
X86165787Y-94947942D01*
X86165787Y-94947942D02*
X86108644Y-95062228D01*
X86108644Y-95062228D02*
X86051501Y-95119371D01*
X88108645Y-94890800D02*
X87994359Y-94947942D01*
X87994359Y-94947942D02*
X87765787Y-94947942D01*
X87765787Y-94947942D02*
X87651502Y-94890800D01*
X87651502Y-94890800D02*
X87594359Y-94833657D01*
X87594359Y-94833657D02*
X87537216Y-94719371D01*
X87537216Y-94719371D02*
X87537216Y-94376514D01*
X87537216Y-94376514D02*
X87594359Y-94262228D01*
X87594359Y-94262228D02*
X87651502Y-94205085D01*
X87651502Y-94205085D02*
X87765787Y-94147942D01*
X87765787Y-94147942D02*
X87994359Y-94147942D01*
X87994359Y-94147942D02*
X88108645Y-94205085D01*
X88794358Y-94947942D02*
X88680073Y-94890800D01*
X88680073Y-94890800D02*
X88622930Y-94776514D01*
X88622930Y-94776514D02*
X88622930Y-93747942D01*
X89422929Y-94947942D02*
X89308644Y-94890800D01*
X89308644Y-94890800D02*
X89251501Y-94833657D01*
X89251501Y-94833657D02*
X89194358Y-94719371D01*
X89194358Y-94719371D02*
X89194358Y-94376514D01*
X89194358Y-94376514D02*
X89251501Y-94262228D01*
X89251501Y-94262228D02*
X89308644Y-94205085D01*
X89308644Y-94205085D02*
X89422929Y-94147942D01*
X89422929Y-94147942D02*
X89594358Y-94147942D01*
X89594358Y-94147942D02*
X89708644Y-94205085D01*
X89708644Y-94205085D02*
X89765787Y-94262228D01*
X89765787Y-94262228D02*
X89822929Y-94376514D01*
X89822929Y-94376514D02*
X89822929Y-94719371D01*
X89822929Y-94719371D02*
X89765787Y-94833657D01*
X89765787Y-94833657D02*
X89708644Y-94890800D01*
X89708644Y-94890800D02*
X89594358Y-94947942D01*
X89594358Y-94947942D02*
X89422929Y-94947942D01*
X90280072Y-94890800D02*
X90394358Y-94947942D01*
X90394358Y-94947942D02*
X90622929Y-94947942D01*
X90622929Y-94947942D02*
X90737215Y-94890800D01*
X90737215Y-94890800D02*
X90794358Y-94776514D01*
X90794358Y-94776514D02*
X90794358Y-94719371D01*
X90794358Y-94719371D02*
X90737215Y-94605085D01*
X90737215Y-94605085D02*
X90622929Y-94547942D01*
X90622929Y-94547942D02*
X90451501Y-94547942D01*
X90451501Y-94547942D02*
X90337215Y-94490800D01*
X90337215Y-94490800D02*
X90280072Y-94376514D01*
X90280072Y-94376514D02*
X90280072Y-94319371D01*
X90280072Y-94319371D02*
X90337215Y-94205085D01*
X90337215Y-94205085D02*
X90451501Y-94147942D01*
X90451501Y-94147942D02*
X90622929Y-94147942D01*
X90622929Y-94147942D02*
X90737215Y-94205085D01*
X91765787Y-94890800D02*
X91651501Y-94947942D01*
X91651501Y-94947942D02*
X91422930Y-94947942D01*
X91422930Y-94947942D02*
X91308644Y-94890800D01*
X91308644Y-94890800D02*
X91251501Y-94776514D01*
X91251501Y-94776514D02*
X91251501Y-94319371D01*
X91251501Y-94319371D02*
X91308644Y-94205085D01*
X91308644Y-94205085D02*
X91422930Y-94147942D01*
X91422930Y-94147942D02*
X91651501Y-94147942D01*
X91651501Y-94147942D02*
X91765787Y-94205085D01*
X91765787Y-94205085D02*
X91822930Y-94319371D01*
X91822930Y-94319371D02*
X91822930Y-94433657D01*
X91822930Y-94433657D02*
X91251501Y-94547942D01*
X93194358Y-94890800D02*
X93365787Y-94947942D01*
X93365787Y-94947942D02*
X93651501Y-94947942D01*
X93651501Y-94947942D02*
X93765787Y-94890800D01*
X93765787Y-94890800D02*
X93822929Y-94833657D01*
X93822929Y-94833657D02*
X93880072Y-94719371D01*
X93880072Y-94719371D02*
X93880072Y-94605085D01*
X93880072Y-94605085D02*
X93822929Y-94490800D01*
X93822929Y-94490800D02*
X93765787Y-94433657D01*
X93765787Y-94433657D02*
X93651501Y-94376514D01*
X93651501Y-94376514D02*
X93422929Y-94319371D01*
X93422929Y-94319371D02*
X93308644Y-94262228D01*
X93308644Y-94262228D02*
X93251501Y-94205085D01*
X93251501Y-94205085D02*
X93194358Y-94090800D01*
X93194358Y-94090800D02*
X93194358Y-93976514D01*
X93194358Y-93976514D02*
X93251501Y-93862228D01*
X93251501Y-93862228D02*
X93308644Y-93805085D01*
X93308644Y-93805085D02*
X93422929Y-93747942D01*
X93422929Y-93747942D02*
X93708644Y-93747942D01*
X93708644Y-93747942D02*
X93880072Y-93805085D01*
X95022929Y-94947942D02*
X94337215Y-94947942D01*
X94680072Y-94947942D02*
X94680072Y-93747942D01*
X94680072Y-93747942D02*
X94565786Y-93919371D01*
X94565786Y-93919371D02*
X94451501Y-94033657D01*
X94451501Y-94033657D02*
X94337215Y-94090800D01*
X95594358Y-94890800D02*
X95594358Y-94947942D01*
X95594358Y-94947942D02*
X95537215Y-95062228D01*
X95537215Y-95062228D02*
X95480072Y-95119371D01*
X96965787Y-94890800D02*
X97137216Y-94947942D01*
X97137216Y-94947942D02*
X97422930Y-94947942D01*
X97422930Y-94947942D02*
X97537216Y-94890800D01*
X97537216Y-94890800D02*
X97594358Y-94833657D01*
X97594358Y-94833657D02*
X97651501Y-94719371D01*
X97651501Y-94719371D02*
X97651501Y-94605085D01*
X97651501Y-94605085D02*
X97594358Y-94490800D01*
X97594358Y-94490800D02*
X97537216Y-94433657D01*
X97537216Y-94433657D02*
X97422930Y-94376514D01*
X97422930Y-94376514D02*
X97194358Y-94319371D01*
X97194358Y-94319371D02*
X97080073Y-94262228D01*
X97080073Y-94262228D02*
X97022930Y-94205085D01*
X97022930Y-94205085D02*
X96965787Y-94090800D01*
X96965787Y-94090800D02*
X96965787Y-93976514D01*
X96965787Y-93976514D02*
X97022930Y-93862228D01*
X97022930Y-93862228D02*
X97080073Y-93805085D01*
X97080073Y-93805085D02*
X97194358Y-93747942D01*
X97194358Y-93747942D02*
X97480073Y-93747942D01*
X97480073Y-93747942D02*
X97651501Y-93805085D01*
X98108644Y-93862228D02*
X98165787Y-93805085D01*
X98165787Y-93805085D02*
X98280073Y-93747942D01*
X98280073Y-93747942D02*
X98565787Y-93747942D01*
X98565787Y-93747942D02*
X98680073Y-93805085D01*
X98680073Y-93805085D02*
X98737215Y-93862228D01*
X98737215Y-93862228D02*
X98794358Y-93976514D01*
X98794358Y-93976514D02*
X98794358Y-94090800D01*
X98794358Y-94090800D02*
X98737215Y-94262228D01*
X98737215Y-94262228D02*
X98051501Y-94947942D01*
X98051501Y-94947942D02*
X98794358Y-94947942D01*
X99365787Y-94890800D02*
X99365787Y-94947942D01*
X99365787Y-94947942D02*
X99308644Y-95062228D01*
X99308644Y-95062228D02*
X99251501Y-95119371D01*
X101308645Y-94947942D02*
X101308645Y-94319371D01*
X101308645Y-94319371D02*
X101251502Y-94205085D01*
X101251502Y-94205085D02*
X101137216Y-94147942D01*
X101137216Y-94147942D02*
X100908645Y-94147942D01*
X100908645Y-94147942D02*
X100794359Y-94205085D01*
X101308645Y-94890800D02*
X101194359Y-94947942D01*
X101194359Y-94947942D02*
X100908645Y-94947942D01*
X100908645Y-94947942D02*
X100794359Y-94890800D01*
X100794359Y-94890800D02*
X100737216Y-94776514D01*
X100737216Y-94776514D02*
X100737216Y-94662228D01*
X100737216Y-94662228D02*
X100794359Y-94547942D01*
X100794359Y-94547942D02*
X100908645Y-94490800D01*
X100908645Y-94490800D02*
X101194359Y-94490800D01*
X101194359Y-94490800D02*
X101308645Y-94433657D01*
X101880073Y-94147942D02*
X101880073Y-94947942D01*
X101880073Y-94262228D02*
X101937216Y-94205085D01*
X101937216Y-94205085D02*
X102051501Y-94147942D01*
X102051501Y-94147942D02*
X102222930Y-94147942D01*
X102222930Y-94147942D02*
X102337216Y-94205085D01*
X102337216Y-94205085D02*
X102394359Y-94319371D01*
X102394359Y-94319371D02*
X102394359Y-94947942D01*
X103480073Y-94947942D02*
X103480073Y-93747942D01*
X103480073Y-94890800D02*
X103365787Y-94947942D01*
X103365787Y-94947942D02*
X103137215Y-94947942D01*
X103137215Y-94947942D02*
X103022930Y-94890800D01*
X103022930Y-94890800D02*
X102965787Y-94833657D01*
X102965787Y-94833657D02*
X102908644Y-94719371D01*
X102908644Y-94719371D02*
X102908644Y-94376514D01*
X102908644Y-94376514D02*
X102965787Y-94262228D01*
X102965787Y-94262228D02*
X103022930Y-94205085D01*
X103022930Y-94205085D02*
X103137215Y-94147942D01*
X103137215Y-94147942D02*
X103365787Y-94147942D01*
X103365787Y-94147942D02*
X103480073Y-94205085D01*
X104908644Y-94890800D02*
X105080073Y-94947942D01*
X105080073Y-94947942D02*
X105365787Y-94947942D01*
X105365787Y-94947942D02*
X105480073Y-94890800D01*
X105480073Y-94890800D02*
X105537215Y-94833657D01*
X105537215Y-94833657D02*
X105594358Y-94719371D01*
X105594358Y-94719371D02*
X105594358Y-94605085D01*
X105594358Y-94605085D02*
X105537215Y-94490800D01*
X105537215Y-94490800D02*
X105480073Y-94433657D01*
X105480073Y-94433657D02*
X105365787Y-94376514D01*
X105365787Y-94376514D02*
X105137215Y-94319371D01*
X105137215Y-94319371D02*
X105022930Y-94262228D01*
X105022930Y-94262228D02*
X104965787Y-94205085D01*
X104965787Y-94205085D02*
X104908644Y-94090800D01*
X104908644Y-94090800D02*
X104908644Y-93976514D01*
X104908644Y-93976514D02*
X104965787Y-93862228D01*
X104965787Y-93862228D02*
X105022930Y-93805085D01*
X105022930Y-93805085D02*
X105137215Y-93747942D01*
X105137215Y-93747942D02*
X105422930Y-93747942D01*
X105422930Y-93747942D02*
X105594358Y-93805085D01*
X105994358Y-93747942D02*
X106737215Y-93747942D01*
X106737215Y-93747942D02*
X106337215Y-94205085D01*
X106337215Y-94205085D02*
X106508644Y-94205085D01*
X106508644Y-94205085D02*
X106622930Y-94262228D01*
X106622930Y-94262228D02*
X106680072Y-94319371D01*
X106680072Y-94319371D02*
X106737215Y-94433657D01*
X106737215Y-94433657D02*
X106737215Y-94719371D01*
X106737215Y-94719371D02*
X106680072Y-94833657D01*
X106680072Y-94833657D02*
X106622930Y-94890800D01*
X106622930Y-94890800D02*
X106508644Y-94947942D01*
X106508644Y-94947942D02*
X106165787Y-94947942D01*
X106165787Y-94947942D02*
X106051501Y-94890800D01*
X106051501Y-94890800D02*
X105994358Y-94833657D01*
X107308644Y-94890800D02*
X107308644Y-94947942D01*
X107308644Y-94947942D02*
X107251501Y-95062228D01*
X107251501Y-95062228D02*
X107194358Y-95119371D01*
X109251502Y-94947942D02*
X109251502Y-93747942D01*
X109251502Y-94890800D02*
X109137216Y-94947942D01*
X109137216Y-94947942D02*
X108908644Y-94947942D01*
X108908644Y-94947942D02*
X108794359Y-94890800D01*
X108794359Y-94890800D02*
X108737216Y-94833657D01*
X108737216Y-94833657D02*
X108680073Y-94719371D01*
X108680073Y-94719371D02*
X108680073Y-94376514D01*
X108680073Y-94376514D02*
X108737216Y-94262228D01*
X108737216Y-94262228D02*
X108794359Y-94205085D01*
X108794359Y-94205085D02*
X108908644Y-94147942D01*
X108908644Y-94147942D02*
X109137216Y-94147942D01*
X109137216Y-94147942D02*
X109251502Y-94205085D01*
X109822930Y-94947942D02*
X109822930Y-94147942D01*
X109822930Y-93747942D02*
X109765787Y-93805085D01*
X109765787Y-93805085D02*
X109822930Y-93862228D01*
X109822930Y-93862228D02*
X109880073Y-93805085D01*
X109880073Y-93805085D02*
X109822930Y-93747942D01*
X109822930Y-93747942D02*
X109822930Y-93862228D01*
X110337216Y-94890800D02*
X110451502Y-94947942D01*
X110451502Y-94947942D02*
X110680073Y-94947942D01*
X110680073Y-94947942D02*
X110794359Y-94890800D01*
X110794359Y-94890800D02*
X110851502Y-94776514D01*
X110851502Y-94776514D02*
X110851502Y-94719371D01*
X110851502Y-94719371D02*
X110794359Y-94605085D01*
X110794359Y-94605085D02*
X110680073Y-94547942D01*
X110680073Y-94547942D02*
X110508645Y-94547942D01*
X110508645Y-94547942D02*
X110394359Y-94490800D01*
X110394359Y-94490800D02*
X110337216Y-94376514D01*
X110337216Y-94376514D02*
X110337216Y-94319371D01*
X110337216Y-94319371D02*
X110394359Y-94205085D01*
X110394359Y-94205085D02*
X110508645Y-94147942D01*
X110508645Y-94147942D02*
X110680073Y-94147942D01*
X110680073Y-94147942D02*
X110794359Y-94205085D01*
X111880074Y-94890800D02*
X111765788Y-94947942D01*
X111765788Y-94947942D02*
X111537216Y-94947942D01*
X111537216Y-94947942D02*
X111422931Y-94890800D01*
X111422931Y-94890800D02*
X111365788Y-94833657D01*
X111365788Y-94833657D02*
X111308645Y-94719371D01*
X111308645Y-94719371D02*
X111308645Y-94376514D01*
X111308645Y-94376514D02*
X111365788Y-94262228D01*
X111365788Y-94262228D02*
X111422931Y-94205085D01*
X111422931Y-94205085D02*
X111537216Y-94147942D01*
X111537216Y-94147942D02*
X111765788Y-94147942D01*
X111765788Y-94147942D02*
X111880074Y-94205085D01*
X112394359Y-94947942D02*
X112394359Y-93747942D01*
X112908645Y-94947942D02*
X112908645Y-94319371D01*
X112908645Y-94319371D02*
X112851502Y-94205085D01*
X112851502Y-94205085D02*
X112737216Y-94147942D01*
X112737216Y-94147942D02*
X112565787Y-94147942D01*
X112565787Y-94147942D02*
X112451502Y-94205085D01*
X112451502Y-94205085D02*
X112394359Y-94262228D01*
X113994359Y-94947942D02*
X113994359Y-94319371D01*
X113994359Y-94319371D02*
X113937216Y-94205085D01*
X113937216Y-94205085D02*
X113822930Y-94147942D01*
X113822930Y-94147942D02*
X113594359Y-94147942D01*
X113594359Y-94147942D02*
X113480073Y-94205085D01*
X113994359Y-94890800D02*
X113880073Y-94947942D01*
X113880073Y-94947942D02*
X113594359Y-94947942D01*
X113594359Y-94947942D02*
X113480073Y-94890800D01*
X113480073Y-94890800D02*
X113422930Y-94776514D01*
X113422930Y-94776514D02*
X113422930Y-94662228D01*
X113422930Y-94662228D02*
X113480073Y-94547942D01*
X113480073Y-94547942D02*
X113594359Y-94490800D01*
X113594359Y-94490800D02*
X113880073Y-94490800D01*
X113880073Y-94490800D02*
X113994359Y-94433657D01*
X114565787Y-94947942D02*
X114565787Y-94147942D01*
X114565787Y-94376514D02*
X114622930Y-94262228D01*
X114622930Y-94262228D02*
X114680073Y-94205085D01*
X114680073Y-94205085D02*
X114794358Y-94147942D01*
X114794358Y-94147942D02*
X114908644Y-94147942D01*
X115822930Y-94147942D02*
X115822930Y-95119371D01*
X115822930Y-95119371D02*
X115765787Y-95233657D01*
X115765787Y-95233657D02*
X115708644Y-95290800D01*
X115708644Y-95290800D02*
X115594358Y-95347942D01*
X115594358Y-95347942D02*
X115422930Y-95347942D01*
X115422930Y-95347942D02*
X115308644Y-95290800D01*
X115822930Y-94890800D02*
X115708644Y-94947942D01*
X115708644Y-94947942D02*
X115480072Y-94947942D01*
X115480072Y-94947942D02*
X115365787Y-94890800D01*
X115365787Y-94890800D02*
X115308644Y-94833657D01*
X115308644Y-94833657D02*
X115251501Y-94719371D01*
X115251501Y-94719371D02*
X115251501Y-94376514D01*
X115251501Y-94376514D02*
X115308644Y-94262228D01*
X115308644Y-94262228D02*
X115365787Y-94205085D01*
X115365787Y-94205085D02*
X115480072Y-94147942D01*
X115480072Y-94147942D02*
X115708644Y-94147942D01*
X115708644Y-94147942D02*
X115822930Y-94205085D01*
X116394358Y-94947942D02*
X116394358Y-94147942D01*
X116394358Y-93747942D02*
X116337215Y-93805085D01*
X116337215Y-93805085D02*
X116394358Y-93862228D01*
X116394358Y-93862228D02*
X116451501Y-93805085D01*
X116451501Y-93805085D02*
X116394358Y-93747942D01*
X116394358Y-93747942D02*
X116394358Y-93862228D01*
X116965787Y-94147942D02*
X116965787Y-94947942D01*
X116965787Y-94262228D02*
X117022930Y-94205085D01*
X117022930Y-94205085D02*
X117137215Y-94147942D01*
X117137215Y-94147942D02*
X117308644Y-94147942D01*
X117308644Y-94147942D02*
X117422930Y-94205085D01*
X117422930Y-94205085D02*
X117480073Y-94319371D01*
X117480073Y-94319371D02*
X117480073Y-94947942D01*
X118565787Y-94147942D02*
X118565787Y-95119371D01*
X118565787Y-95119371D02*
X118508644Y-95233657D01*
X118508644Y-95233657D02*
X118451501Y-95290800D01*
X118451501Y-95290800D02*
X118337215Y-95347942D01*
X118337215Y-95347942D02*
X118165787Y-95347942D01*
X118165787Y-95347942D02*
X118051501Y-95290800D01*
X118565787Y-94890800D02*
X118451501Y-94947942D01*
X118451501Y-94947942D02*
X118222929Y-94947942D01*
X118222929Y-94947942D02*
X118108644Y-94890800D01*
X118108644Y-94890800D02*
X118051501Y-94833657D01*
X118051501Y-94833657D02*
X117994358Y-94719371D01*
X117994358Y-94719371D02*
X117994358Y-94376514D01*
X117994358Y-94376514D02*
X118051501Y-94262228D01*
X118051501Y-94262228D02*
X118108644Y-94205085D01*
X118108644Y-94205085D02*
X118222929Y-94147942D01*
X118222929Y-94147942D02*
X118451501Y-94147942D01*
X118451501Y-94147942D02*
X118565787Y-94205085D01*
D11*
X67088720Y-143394838D02*
X67469673Y-143394838D01*
X67469673Y-143394838D02*
X67660149Y-143490076D01*
X67660149Y-143490076D02*
X67850625Y-143680552D01*
X67850625Y-143680552D02*
X67945863Y-144061504D01*
X67945863Y-144061504D02*
X67945863Y-144728171D01*
X67945863Y-144728171D02*
X67850625Y-145109123D01*
X67850625Y-145109123D02*
X67660149Y-145299600D01*
X67660149Y-145299600D02*
X67469673Y-145394838D01*
X67469673Y-145394838D02*
X67088720Y-145394838D01*
X67088720Y-145394838D02*
X66898244Y-145299600D01*
X66898244Y-145299600D02*
X66707768Y-145109123D01*
X66707768Y-145109123D02*
X66612530Y-144728171D01*
X66612530Y-144728171D02*
X66612530Y-144061504D01*
X66612530Y-144061504D02*
X66707768Y-143680552D01*
X66707768Y-143680552D02*
X66898244Y-143490076D01*
X66898244Y-143490076D02*
X67088720Y-143394838D01*
X68803006Y-145394838D02*
X68803006Y-143394838D01*
X68803006Y-143394838D02*
X69945863Y-145394838D01*
X69945863Y-145394838D02*
X69945863Y-143394838D01*
X68288720Y-64194838D02*
X68669673Y-64194838D01*
X68669673Y-64194838D02*
X68860149Y-64290076D01*
X68860149Y-64290076D02*
X69050625Y-64480552D01*
X69050625Y-64480552D02*
X69145863Y-64861504D01*
X69145863Y-64861504D02*
X69145863Y-65528171D01*
X69145863Y-65528171D02*
X69050625Y-65909123D01*
X69050625Y-65909123D02*
X68860149Y-66099600D01*
X68860149Y-66099600D02*
X68669673Y-66194838D01*
X68669673Y-66194838D02*
X68288720Y-66194838D01*
X68288720Y-66194838D02*
X68098244Y-66099600D01*
X68098244Y-66099600D02*
X67907768Y-65909123D01*
X67907768Y-65909123D02*
X67812530Y-65528171D01*
X67812530Y-65528171D02*
X67812530Y-64861504D01*
X67812530Y-64861504D02*
X67907768Y-64480552D01*
X67907768Y-64480552D02*
X68098244Y-64290076D01*
X68098244Y-64290076D02*
X68288720Y-64194838D01*
X70003006Y-66194838D02*
X70003006Y-64194838D01*
X70003006Y-64194838D02*
X71145863Y-66194838D01*
X71145863Y-66194838D02*
X71145863Y-64194838D01*
D12*
X24854819Y-150833333D02*
X24378628Y-151166666D01*
X24854819Y-151404761D02*
X23854819Y-151404761D01*
X23854819Y-151404761D02*
X23854819Y-151023809D01*
X23854819Y-151023809D02*
X23902438Y-150928571D01*
X23902438Y-150928571D02*
X23950057Y-150880952D01*
X23950057Y-150880952D02*
X24045295Y-150833333D01*
X24045295Y-150833333D02*
X24188152Y-150833333D01*
X24188152Y-150833333D02*
X24283390Y-150880952D01*
X24283390Y-150880952D02*
X24331009Y-150928571D01*
X24331009Y-150928571D02*
X24378628Y-151023809D01*
X24378628Y-151023809D02*
X24378628Y-151404761D01*
X24331009Y-150404761D02*
X24331009Y-150071428D01*
X24854819Y-149928571D02*
X24854819Y-150404761D01*
X24854819Y-150404761D02*
X23854819Y-150404761D01*
X23854819Y-150404761D02*
X23854819Y-149928571D01*
X24331009Y-149166666D02*
X24331009Y-149499999D01*
X24854819Y-149499999D02*
X23854819Y-149499999D01*
X23854819Y-149499999D02*
X23854819Y-149023809D01*
X23854819Y-148499999D02*
X24092914Y-148499999D01*
X23997676Y-148738094D02*
X24092914Y-148499999D01*
X24092914Y-148499999D02*
X23997676Y-148261904D01*
X24283390Y-148642856D02*
X24092914Y-148499999D01*
X24092914Y-148499999D02*
X24283390Y-148357142D01*
X23854819Y-147738094D02*
X24092914Y-147738094D01*
X23997676Y-147976189D02*
X24092914Y-147738094D01*
X24092914Y-147738094D02*
X23997676Y-147499999D01*
X24283390Y-147880951D02*
X24092914Y-147738094D01*
X24092914Y-147738094D02*
X24283390Y-147595237D01*
X24804819Y-57083333D02*
X24328628Y-57416666D01*
X24804819Y-57654761D02*
X23804819Y-57654761D01*
X23804819Y-57654761D02*
X23804819Y-57273809D01*
X23804819Y-57273809D02*
X23852438Y-57178571D01*
X23852438Y-57178571D02*
X23900057Y-57130952D01*
X23900057Y-57130952D02*
X23995295Y-57083333D01*
X23995295Y-57083333D02*
X24138152Y-57083333D01*
X24138152Y-57083333D02*
X24233390Y-57130952D01*
X24233390Y-57130952D02*
X24281009Y-57178571D01*
X24281009Y-57178571D02*
X24328628Y-57273809D01*
X24328628Y-57273809D02*
X24328628Y-57654761D01*
X24281009Y-56654761D02*
X24281009Y-56321428D01*
X24804819Y-56178571D02*
X24804819Y-56654761D01*
X24804819Y-56654761D02*
X23804819Y-56654761D01*
X23804819Y-56654761D02*
X23804819Y-56178571D01*
X24281009Y-55416666D02*
X24281009Y-55749999D01*
X24804819Y-55749999D02*
X23804819Y-55749999D01*
X23804819Y-55749999D02*
X23804819Y-55273809D01*
X23804819Y-54749999D02*
X24042914Y-54749999D01*
X23947676Y-54988094D02*
X24042914Y-54749999D01*
X24042914Y-54749999D02*
X23947676Y-54511904D01*
X24233390Y-54892856D02*
X24042914Y-54749999D01*
X24042914Y-54749999D02*
X24233390Y-54607142D01*
X23804819Y-53988094D02*
X24042914Y-53988094D01*
X23947676Y-54226189D02*
X24042914Y-53988094D01*
X24042914Y-53988094D02*
X23947676Y-53749999D01*
X24233390Y-54130951D02*
X24042914Y-53988094D01*
X24042914Y-53988094D02*
X24233390Y-53845237D01*
X158916666Y-176204819D02*
X158583333Y-175728628D01*
X158345238Y-176204819D02*
X158345238Y-175204819D01*
X158345238Y-175204819D02*
X158726190Y-175204819D01*
X158726190Y-175204819D02*
X158821428Y-175252438D01*
X158821428Y-175252438D02*
X158869047Y-175300057D01*
X158869047Y-175300057D02*
X158916666Y-175395295D01*
X158916666Y-175395295D02*
X158916666Y-175538152D01*
X158916666Y-175538152D02*
X158869047Y-175633390D01*
X158869047Y-175633390D02*
X158821428Y-175681009D01*
X158821428Y-175681009D02*
X158726190Y-175728628D01*
X158726190Y-175728628D02*
X158345238Y-175728628D01*
X159345238Y-175681009D02*
X159678571Y-175681009D01*
X159821428Y-176204819D02*
X159345238Y-176204819D01*
X159345238Y-176204819D02*
X159345238Y-175204819D01*
X159345238Y-175204819D02*
X159821428Y-175204819D01*
X160583333Y-175681009D02*
X160250000Y-175681009D01*
X160250000Y-176204819D02*
X160250000Y-175204819D01*
X160250000Y-175204819D02*
X160726190Y-175204819D01*
X161250000Y-175204819D02*
X161250000Y-175442914D01*
X161011905Y-175347676D02*
X161250000Y-175442914D01*
X161250000Y-175442914D02*
X161488095Y-175347676D01*
X161107143Y-175633390D02*
X161250000Y-175442914D01*
X161250000Y-175442914D02*
X161392857Y-175633390D01*
X162011905Y-175204819D02*
X162011905Y-175442914D01*
X161773810Y-175347676D02*
X162011905Y-175442914D01*
X162011905Y-175442914D02*
X162250000Y-175347676D01*
X161869048Y-175633390D02*
X162011905Y-175442914D01*
X162011905Y-175442914D02*
X162154762Y-175633390D01*
X158916666Y-23054819D02*
X158583333Y-22578628D01*
X158345238Y-23054819D02*
X158345238Y-22054819D01*
X158345238Y-22054819D02*
X158726190Y-22054819D01*
X158726190Y-22054819D02*
X158821428Y-22102438D01*
X158821428Y-22102438D02*
X158869047Y-22150057D01*
X158869047Y-22150057D02*
X158916666Y-22245295D01*
X158916666Y-22245295D02*
X158916666Y-22388152D01*
X158916666Y-22388152D02*
X158869047Y-22483390D01*
X158869047Y-22483390D02*
X158821428Y-22531009D01*
X158821428Y-22531009D02*
X158726190Y-22578628D01*
X158726190Y-22578628D02*
X158345238Y-22578628D01*
X159345238Y-22531009D02*
X159678571Y-22531009D01*
X159821428Y-23054819D02*
X159345238Y-23054819D01*
X159345238Y-23054819D02*
X159345238Y-22054819D01*
X159345238Y-22054819D02*
X159821428Y-22054819D01*
X160583333Y-22531009D02*
X160250000Y-22531009D01*
X160250000Y-23054819D02*
X160250000Y-22054819D01*
X160250000Y-22054819D02*
X160726190Y-22054819D01*
X161250000Y-22054819D02*
X161250000Y-22292914D01*
X161011905Y-22197676D02*
X161250000Y-22292914D01*
X161250000Y-22292914D02*
X161488095Y-22197676D01*
X161107143Y-22483390D02*
X161250000Y-22292914D01*
X161250000Y-22292914D02*
X161392857Y-22483390D01*
X162011905Y-22054819D02*
X162011905Y-22292914D01*
X161773810Y-22197676D02*
X162011905Y-22292914D01*
X162011905Y-22292914D02*
X162250000Y-22197676D01*
X161869048Y-22483390D02*
X162011905Y-22292914D01*
X162011905Y-22292914D02*
X162154762Y-22483390D01*
D10*
X155957419Y-127538094D02*
X154957419Y-127538094D01*
X155957419Y-126966666D02*
X155385990Y-127395237D01*
X154957419Y-126966666D02*
X155528847Y-127538094D01*
X154957419Y-126633332D02*
X154957419Y-126014285D01*
X154957419Y-126014285D02*
X155338371Y-126347618D01*
X155338371Y-126347618D02*
X155338371Y-126204761D01*
X155338371Y-126204761D02*
X155385990Y-126109523D01*
X155385990Y-126109523D02*
X155433609Y-126061904D01*
X155433609Y-126061904D02*
X155528847Y-126014285D01*
X155528847Y-126014285D02*
X155766942Y-126014285D01*
X155766942Y-126014285D02*
X155862180Y-126061904D01*
X155862180Y-126061904D02*
X155909800Y-126109523D01*
X155909800Y-126109523D02*
X155957419Y-126204761D01*
X155957419Y-126204761D02*
X155957419Y-126490475D01*
X155957419Y-126490475D02*
X155909800Y-126585713D01*
X155909800Y-126585713D02*
X155862180Y-126633332D01*
D12*
X65508095Y-51092200D02*
X65650952Y-51139819D01*
X65650952Y-51139819D02*
X65889047Y-51139819D01*
X65889047Y-51139819D02*
X65984285Y-51092200D01*
X65984285Y-51092200D02*
X66031904Y-51044580D01*
X66031904Y-51044580D02*
X66079523Y-50949342D01*
X66079523Y-50949342D02*
X66079523Y-50854104D01*
X66079523Y-50854104D02*
X66031904Y-50758866D01*
X66031904Y-50758866D02*
X65984285Y-50711247D01*
X65984285Y-50711247D02*
X65889047Y-50663628D01*
X65889047Y-50663628D02*
X65698571Y-50616009D01*
X65698571Y-50616009D02*
X65603333Y-50568390D01*
X65603333Y-50568390D02*
X65555714Y-50520771D01*
X65555714Y-50520771D02*
X65508095Y-50425533D01*
X65508095Y-50425533D02*
X65508095Y-50330295D01*
X65508095Y-50330295D02*
X65555714Y-50235057D01*
X65555714Y-50235057D02*
X65603333Y-50187438D01*
X65603333Y-50187438D02*
X65698571Y-50139819D01*
X65698571Y-50139819D02*
X65936666Y-50139819D01*
X65936666Y-50139819D02*
X66079523Y-50187438D01*
X67031904Y-51139819D02*
X66460476Y-51139819D01*
X66746190Y-51139819D02*
X66746190Y-50139819D01*
X66746190Y-50139819D02*
X66650952Y-50282676D01*
X66650952Y-50282676D02*
X66555714Y-50377914D01*
X66555714Y-50377914D02*
X66460476Y-50425533D01*
X100334819Y-29843333D02*
X101049104Y-29843333D01*
X101049104Y-29843333D02*
X101191961Y-29890952D01*
X101191961Y-29890952D02*
X101287200Y-29986190D01*
X101287200Y-29986190D02*
X101334819Y-30129047D01*
X101334819Y-30129047D02*
X101334819Y-30224285D01*
X100430057Y-29414761D02*
X100382438Y-29367142D01*
X100382438Y-29367142D02*
X100334819Y-29271904D01*
X100334819Y-29271904D02*
X100334819Y-29033809D01*
X100334819Y-29033809D02*
X100382438Y-28938571D01*
X100382438Y-28938571D02*
X100430057Y-28890952D01*
X100430057Y-28890952D02*
X100525295Y-28843333D01*
X100525295Y-28843333D02*
X100620533Y-28843333D01*
X100620533Y-28843333D02*
X100763390Y-28890952D01*
X100763390Y-28890952D02*
X101334819Y-29462380D01*
X101334819Y-29462380D02*
X101334819Y-28843333D01*
X141479819Y-127643094D02*
X140479819Y-127643094D01*
X140479819Y-127643094D02*
X140479819Y-127404999D01*
X140479819Y-127404999D02*
X140527438Y-127262142D01*
X140527438Y-127262142D02*
X140622676Y-127166904D01*
X140622676Y-127166904D02*
X140717914Y-127119285D01*
X140717914Y-127119285D02*
X140908390Y-127071666D01*
X140908390Y-127071666D02*
X141051247Y-127071666D01*
X141051247Y-127071666D02*
X141241723Y-127119285D01*
X141241723Y-127119285D02*
X141336961Y-127166904D01*
X141336961Y-127166904D02*
X141432200Y-127262142D01*
X141432200Y-127262142D02*
X141479819Y-127404999D01*
X141479819Y-127404999D02*
X141479819Y-127643094D01*
X140479819Y-126738332D02*
X140479819Y-126119285D01*
X140479819Y-126119285D02*
X140860771Y-126452618D01*
X140860771Y-126452618D02*
X140860771Y-126309761D01*
X140860771Y-126309761D02*
X140908390Y-126214523D01*
X140908390Y-126214523D02*
X140956009Y-126166904D01*
X140956009Y-126166904D02*
X141051247Y-126119285D01*
X141051247Y-126119285D02*
X141289342Y-126119285D01*
X141289342Y-126119285D02*
X141384580Y-126166904D01*
X141384580Y-126166904D02*
X141432200Y-126214523D01*
X141432200Y-126214523D02*
X141479819Y-126309761D01*
X141479819Y-126309761D02*
X141479819Y-126595475D01*
X141479819Y-126595475D02*
X141432200Y-126690713D01*
X141432200Y-126690713D02*
X141384580Y-126738332D01*
X64623095Y-147382200D02*
X64765952Y-147429819D01*
X64765952Y-147429819D02*
X65004047Y-147429819D01*
X65004047Y-147429819D02*
X65099285Y-147382200D01*
X65099285Y-147382200D02*
X65146904Y-147334580D01*
X65146904Y-147334580D02*
X65194523Y-147239342D01*
X65194523Y-147239342D02*
X65194523Y-147144104D01*
X65194523Y-147144104D02*
X65146904Y-147048866D01*
X65146904Y-147048866D02*
X65099285Y-147001247D01*
X65099285Y-147001247D02*
X65004047Y-146953628D01*
X65004047Y-146953628D02*
X64813571Y-146906009D01*
X64813571Y-146906009D02*
X64718333Y-146858390D01*
X64718333Y-146858390D02*
X64670714Y-146810771D01*
X64670714Y-146810771D02*
X64623095Y-146715533D01*
X64623095Y-146715533D02*
X64623095Y-146620295D01*
X64623095Y-146620295D02*
X64670714Y-146525057D01*
X64670714Y-146525057D02*
X64718333Y-146477438D01*
X64718333Y-146477438D02*
X64813571Y-146429819D01*
X64813571Y-146429819D02*
X65051666Y-146429819D01*
X65051666Y-146429819D02*
X65194523Y-146477438D01*
X65575476Y-146525057D02*
X65623095Y-146477438D01*
X65623095Y-146477438D02*
X65718333Y-146429819D01*
X65718333Y-146429819D02*
X65956428Y-146429819D01*
X65956428Y-146429819D02*
X66051666Y-146477438D01*
X66051666Y-146477438D02*
X66099285Y-146525057D01*
X66099285Y-146525057D02*
X66146904Y-146620295D01*
X66146904Y-146620295D02*
X66146904Y-146715533D01*
X66146904Y-146715533D02*
X66099285Y-146858390D01*
X66099285Y-146858390D02*
X65527857Y-147429819D01*
X65527857Y-147429819D02*
X66146904Y-147429819D01*
X100199819Y-179383333D02*
X100914104Y-179383333D01*
X100914104Y-179383333D02*
X101056961Y-179430952D01*
X101056961Y-179430952D02*
X101152200Y-179526190D01*
X101152200Y-179526190D02*
X101199819Y-179669047D01*
X101199819Y-179669047D02*
X101199819Y-179764285D01*
X100533152Y-178478571D02*
X101199819Y-178478571D01*
X100152200Y-178716666D02*
X100866485Y-178954761D01*
X100866485Y-178954761D02*
X100866485Y-178335714D01*
X68826905Y-42779819D02*
X68826905Y-41779819D01*
X68826905Y-41779819D02*
X69065000Y-41779819D01*
X69065000Y-41779819D02*
X69207857Y-41827438D01*
X69207857Y-41827438D02*
X69303095Y-41922676D01*
X69303095Y-41922676D02*
X69350714Y-42017914D01*
X69350714Y-42017914D02*
X69398333Y-42208390D01*
X69398333Y-42208390D02*
X69398333Y-42351247D01*
X69398333Y-42351247D02*
X69350714Y-42541723D01*
X69350714Y-42541723D02*
X69303095Y-42636961D01*
X69303095Y-42636961D02*
X69207857Y-42732200D01*
X69207857Y-42732200D02*
X69065000Y-42779819D01*
X69065000Y-42779819D02*
X68826905Y-42779819D01*
X70350714Y-42779819D02*
X69779286Y-42779819D01*
X70065000Y-42779819D02*
X70065000Y-41779819D01*
X70065000Y-41779819D02*
X69969762Y-41922676D01*
X69969762Y-41922676D02*
X69874524Y-42017914D01*
X69874524Y-42017914D02*
X69779286Y-42065533D01*
X130092200Y-130986904D02*
X130139819Y-130844047D01*
X130139819Y-130844047D02*
X130139819Y-130605952D01*
X130139819Y-130605952D02*
X130092200Y-130510714D01*
X130092200Y-130510714D02*
X130044580Y-130463095D01*
X130044580Y-130463095D02*
X129949342Y-130415476D01*
X129949342Y-130415476D02*
X129854104Y-130415476D01*
X129854104Y-130415476D02*
X129758866Y-130463095D01*
X129758866Y-130463095D02*
X129711247Y-130510714D01*
X129711247Y-130510714D02*
X129663628Y-130605952D01*
X129663628Y-130605952D02*
X129616009Y-130796428D01*
X129616009Y-130796428D02*
X129568390Y-130891666D01*
X129568390Y-130891666D02*
X129520771Y-130939285D01*
X129520771Y-130939285D02*
X129425533Y-130986904D01*
X129425533Y-130986904D02*
X129330295Y-130986904D01*
X129330295Y-130986904D02*
X129235057Y-130939285D01*
X129235057Y-130939285D02*
X129187438Y-130891666D01*
X129187438Y-130891666D02*
X129139819Y-130796428D01*
X129139819Y-130796428D02*
X129139819Y-130558333D01*
X129139819Y-130558333D02*
X129187438Y-130415476D01*
X129139819Y-130082142D02*
X129139819Y-129463095D01*
X129139819Y-129463095D02*
X129520771Y-129796428D01*
X129520771Y-129796428D02*
X129520771Y-129653571D01*
X129520771Y-129653571D02*
X129568390Y-129558333D01*
X129568390Y-129558333D02*
X129616009Y-129510714D01*
X129616009Y-129510714D02*
X129711247Y-129463095D01*
X129711247Y-129463095D02*
X129949342Y-129463095D01*
X129949342Y-129463095D02*
X130044580Y-129510714D01*
X130044580Y-129510714D02*
X130092200Y-129558333D01*
X130092200Y-129558333D02*
X130139819Y-129653571D01*
X130139819Y-129653571D02*
X130139819Y-129939285D01*
X130139819Y-129939285D02*
X130092200Y-130034523D01*
X130092200Y-130034523D02*
X130044580Y-130082142D01*
D10*
X67996905Y-174572419D02*
X67996905Y-173572419D01*
X68568333Y-174572419D02*
X68139762Y-174000990D01*
X68568333Y-173572419D02*
X67996905Y-174143847D01*
X68949286Y-173667657D02*
X68996905Y-173620038D01*
X68996905Y-173620038D02*
X69092143Y-173572419D01*
X69092143Y-173572419D02*
X69330238Y-173572419D01*
X69330238Y-173572419D02*
X69425476Y-173620038D01*
X69425476Y-173620038D02*
X69473095Y-173667657D01*
X69473095Y-173667657D02*
X69520714Y-173762895D01*
X69520714Y-173762895D02*
X69520714Y-173858133D01*
X69520714Y-173858133D02*
X69473095Y-174000990D01*
X69473095Y-174000990D02*
X68901667Y-174572419D01*
X68901667Y-174572419D02*
X69520714Y-174572419D01*
D12*
X23199819Y-179383333D02*
X23914104Y-179383333D01*
X23914104Y-179383333D02*
X24056961Y-179430952D01*
X24056961Y-179430952D02*
X24152200Y-179526190D01*
X24152200Y-179526190D02*
X24199819Y-179669047D01*
X24199819Y-179669047D02*
X24199819Y-179764285D01*
X23199819Y-178430952D02*
X23199819Y-178907142D01*
X23199819Y-178907142D02*
X23676009Y-178954761D01*
X23676009Y-178954761D02*
X23628390Y-178907142D01*
X23628390Y-178907142D02*
X23580771Y-178811904D01*
X23580771Y-178811904D02*
X23580771Y-178573809D01*
X23580771Y-178573809D02*
X23628390Y-178478571D01*
X23628390Y-178478571D02*
X23676009Y-178430952D01*
X23676009Y-178430952D02*
X23771247Y-178383333D01*
X23771247Y-178383333D02*
X24009342Y-178383333D01*
X24009342Y-178383333D02*
X24104580Y-178430952D01*
X24104580Y-178430952D02*
X24152200Y-178478571D01*
X24152200Y-178478571D02*
X24199819Y-178573809D01*
X24199819Y-178573809D02*
X24199819Y-178811904D01*
X24199819Y-178811904D02*
X24152200Y-178907142D01*
X24152200Y-178907142D02*
X24104580Y-178954761D01*
X22719619Y-87010733D02*
X23433904Y-87010733D01*
X23433904Y-87010733D02*
X23576761Y-87058352D01*
X23576761Y-87058352D02*
X23672000Y-87153590D01*
X23672000Y-87153590D02*
X23719619Y-87296447D01*
X23719619Y-87296447D02*
X23719619Y-87391685D01*
X23719619Y-86010733D02*
X23719619Y-86582161D01*
X23719619Y-86296447D02*
X22719619Y-86296447D01*
X22719619Y-86296447D02*
X22862476Y-86391685D01*
X22862476Y-86391685D02*
X22957714Y-86486923D01*
X22957714Y-86486923D02*
X23005333Y-86582161D01*
X157981666Y-158684819D02*
X157981666Y-159399104D01*
X157981666Y-159399104D02*
X157934047Y-159541961D01*
X157934047Y-159541961D02*
X157838809Y-159637200D01*
X157838809Y-159637200D02*
X157695952Y-159684819D01*
X157695952Y-159684819D02*
X157600714Y-159684819D01*
X158362619Y-158684819D02*
X159029285Y-158684819D01*
X159029285Y-158684819D02*
X158600714Y-159684819D01*
X157681666Y-80069819D02*
X157681666Y-80784104D01*
X157681666Y-80784104D02*
X157634047Y-80926961D01*
X157634047Y-80926961D02*
X157538809Y-81022200D01*
X157538809Y-81022200D02*
X157395952Y-81069819D01*
X157395952Y-81069819D02*
X157300714Y-81069819D01*
X158586428Y-80069819D02*
X158395952Y-80069819D01*
X158395952Y-80069819D02*
X158300714Y-80117438D01*
X158300714Y-80117438D02*
X158253095Y-80165057D01*
X158253095Y-80165057D02*
X158157857Y-80307914D01*
X158157857Y-80307914D02*
X158110238Y-80498390D01*
X158110238Y-80498390D02*
X158110238Y-80879342D01*
X158110238Y-80879342D02*
X158157857Y-80974580D01*
X158157857Y-80974580D02*
X158205476Y-81022200D01*
X158205476Y-81022200D02*
X158300714Y-81069819D01*
X158300714Y-81069819D02*
X158491190Y-81069819D01*
X158491190Y-81069819D02*
X158586428Y-81022200D01*
X158586428Y-81022200D02*
X158634047Y-80974580D01*
X158634047Y-80974580D02*
X158681666Y-80879342D01*
X158681666Y-80879342D02*
X158681666Y-80641247D01*
X158681666Y-80641247D02*
X158634047Y-80546009D01*
X158634047Y-80546009D02*
X158586428Y-80498390D01*
X158586428Y-80498390D02*
X158491190Y-80450771D01*
X158491190Y-80450771D02*
X158300714Y-80450771D01*
X158300714Y-80450771D02*
X158205476Y-80498390D01*
X158205476Y-80498390D02*
X158157857Y-80546009D01*
X158157857Y-80546009D02*
X158110238Y-80641247D01*
D10*
X29007219Y-105610733D02*
X28531028Y-105944066D01*
X29007219Y-106182161D02*
X28007219Y-106182161D01*
X28007219Y-106182161D02*
X28007219Y-105801209D01*
X28007219Y-105801209D02*
X28054838Y-105705971D01*
X28054838Y-105705971D02*
X28102457Y-105658352D01*
X28102457Y-105658352D02*
X28197695Y-105610733D01*
X28197695Y-105610733D02*
X28340552Y-105610733D01*
X28340552Y-105610733D02*
X28435790Y-105658352D01*
X28435790Y-105658352D02*
X28483409Y-105705971D01*
X28483409Y-105705971D02*
X28531028Y-105801209D01*
X28531028Y-105801209D02*
X28531028Y-106182161D01*
X28483409Y-105182161D02*
X28483409Y-104848828D01*
X29007219Y-104705971D02*
X29007219Y-105182161D01*
X29007219Y-105182161D02*
X28007219Y-105182161D01*
X28007219Y-105182161D02*
X28007219Y-104705971D01*
X28483409Y-103944066D02*
X28483409Y-104277399D01*
X29007219Y-104277399D02*
X28007219Y-104277399D01*
X28007219Y-104277399D02*
X28007219Y-103801209D01*
X28007219Y-103277399D02*
X28245314Y-103277399D01*
X28150076Y-103515494D02*
X28245314Y-103277399D01*
X28245314Y-103277399D02*
X28150076Y-103039304D01*
X28435790Y-103420256D02*
X28245314Y-103277399D01*
X28245314Y-103277399D02*
X28435790Y-103134542D01*
X28007219Y-102515494D02*
X28245314Y-102515494D01*
X28150076Y-102753589D02*
X28245314Y-102515494D01*
X28245314Y-102515494D02*
X28150076Y-102277399D01*
X28435790Y-102658351D02*
X28245314Y-102515494D01*
X28245314Y-102515494D02*
X28435790Y-102372637D01*
D12*
X23334819Y-29843333D02*
X24049104Y-29843333D01*
X24049104Y-29843333D02*
X24191961Y-29890952D01*
X24191961Y-29890952D02*
X24287200Y-29986190D01*
X24287200Y-29986190D02*
X24334819Y-30129047D01*
X24334819Y-30129047D02*
X24334819Y-30224285D01*
X23334819Y-29462380D02*
X23334819Y-28843333D01*
X23334819Y-28843333D02*
X23715771Y-29176666D01*
X23715771Y-29176666D02*
X23715771Y-29033809D01*
X23715771Y-29033809D02*
X23763390Y-28938571D01*
X23763390Y-28938571D02*
X23811009Y-28890952D01*
X23811009Y-28890952D02*
X23906247Y-28843333D01*
X23906247Y-28843333D02*
X24144342Y-28843333D01*
X24144342Y-28843333D02*
X24239580Y-28890952D01*
X24239580Y-28890952D02*
X24287200Y-28938571D01*
X24287200Y-28938571D02*
X24334819Y-29033809D01*
X24334819Y-29033809D02*
X24334819Y-29319523D01*
X24334819Y-29319523D02*
X24287200Y-29414761D01*
X24287200Y-29414761D02*
X24239580Y-29462380D01*
D10*
X68306905Y-32957419D02*
X68306905Y-31957419D01*
X68878333Y-32957419D02*
X68449762Y-32385990D01*
X68878333Y-31957419D02*
X68306905Y-32528847D01*
X69830714Y-32957419D02*
X69259286Y-32957419D01*
X69545000Y-32957419D02*
X69545000Y-31957419D01*
X69545000Y-31957419D02*
X69449762Y-32100276D01*
X69449762Y-32100276D02*
X69354524Y-32195514D01*
X69354524Y-32195514D02*
X69259286Y-32243133D01*
X29257219Y-120610733D02*
X28781028Y-120944066D01*
X29257219Y-121182161D02*
X28257219Y-121182161D01*
X28257219Y-121182161D02*
X28257219Y-120801209D01*
X28257219Y-120801209D02*
X28304838Y-120705971D01*
X28304838Y-120705971D02*
X28352457Y-120658352D01*
X28352457Y-120658352D02*
X28447695Y-120610733D01*
X28447695Y-120610733D02*
X28590552Y-120610733D01*
X28590552Y-120610733D02*
X28685790Y-120658352D01*
X28685790Y-120658352D02*
X28733409Y-120705971D01*
X28733409Y-120705971D02*
X28781028Y-120801209D01*
X28781028Y-120801209D02*
X28781028Y-121182161D01*
X28733409Y-120182161D02*
X28733409Y-119848828D01*
X29257219Y-119705971D02*
X29257219Y-120182161D01*
X29257219Y-120182161D02*
X28257219Y-120182161D01*
X28257219Y-120182161D02*
X28257219Y-119705971D01*
X28733409Y-118944066D02*
X28733409Y-119277399D01*
X29257219Y-119277399D02*
X28257219Y-119277399D01*
X28257219Y-119277399D02*
X28257219Y-118801209D01*
X28257219Y-118277399D02*
X28495314Y-118277399D01*
X28400076Y-118515494D02*
X28495314Y-118277399D01*
X28495314Y-118277399D02*
X28400076Y-118039304D01*
X28685790Y-118420256D02*
X28495314Y-118277399D01*
X28495314Y-118277399D02*
X28685790Y-118134542D01*
X28257219Y-117515494D02*
X28495314Y-117515494D01*
X28400076Y-117753589D02*
X28495314Y-117515494D01*
X28495314Y-117515494D02*
X28400076Y-117277399D01*
X28685790Y-117658351D02*
X28495314Y-117515494D01*
X28495314Y-117515494D02*
X28685790Y-117372637D01*
D12*
X67866905Y-160369819D02*
X67866905Y-159369819D01*
X67866905Y-159369819D02*
X68105000Y-159369819D01*
X68105000Y-159369819D02*
X68247857Y-159417438D01*
X68247857Y-159417438D02*
X68343095Y-159512676D01*
X68343095Y-159512676D02*
X68390714Y-159607914D01*
X68390714Y-159607914D02*
X68438333Y-159798390D01*
X68438333Y-159798390D02*
X68438333Y-159941247D01*
X68438333Y-159941247D02*
X68390714Y-160131723D01*
X68390714Y-160131723D02*
X68343095Y-160226961D01*
X68343095Y-160226961D02*
X68247857Y-160322200D01*
X68247857Y-160322200D02*
X68105000Y-160369819D01*
X68105000Y-160369819D02*
X67866905Y-160369819D01*
X68819286Y-159465057D02*
X68866905Y-159417438D01*
X68866905Y-159417438D02*
X68962143Y-159369819D01*
X68962143Y-159369819D02*
X69200238Y-159369819D01*
X69200238Y-159369819D02*
X69295476Y-159417438D01*
X69295476Y-159417438D02*
X69343095Y-159465057D01*
X69343095Y-159465057D02*
X69390714Y-159560295D01*
X69390714Y-159560295D02*
X69390714Y-159655533D01*
X69390714Y-159655533D02*
X69343095Y-159798390D01*
X69343095Y-159798390D02*
X68771667Y-160369819D01*
X68771667Y-160369819D02*
X69390714Y-160369819D01*
D10*
X147600000Y-156800000D02*
X163400000Y-156800000D01*
X163400000Y-96800000D01*
X147600000Y-96800000D01*
X147600000Y-156800000D01*
D13*
X63345000Y-52570000D02*
X76045000Y-52570000D01*
X63345000Y-54292500D02*
X63345000Y-52570000D01*
X63345000Y-59430000D02*
X63345000Y-57707500D01*
X76045000Y-52570000D02*
X76045000Y-54292500D01*
X76045000Y-59430000D02*
X63345000Y-59430000D01*
X76045000Y-59430000D02*
X76045000Y-57707500D01*
D11*
X62695000Y-56000000D02*
G75*
G02*
X62495000Y-56000000I-100000J0D01*
G01*
X62495000Y-56000000D02*
G75*
G02*
X62695000Y-56000000I100000J0D01*
G01*
D13*
X103760000Y-29255000D02*
X103760000Y-27745000D01*
X105935000Y-24565000D02*
X109455000Y-24565000D01*
X105935000Y-32435000D02*
X109455000Y-32435000D01*
X111630000Y-29255000D02*
X111630000Y-27745000D01*
D14*
X142055000Y-124075000D02*
X144995000Y-124075000D01*
X142055000Y-124105000D02*
X142055000Y-129545000D01*
X142055000Y-128525000D02*
X144995000Y-128525000D01*
X142055000Y-128645000D02*
X144995000Y-128645000D01*
X142055000Y-128765000D02*
X144995000Y-128765000D01*
X142055000Y-129545000D02*
X144995000Y-129545000D01*
X144995000Y-129545000D02*
X144995000Y-124105000D01*
D13*
X62460000Y-148860000D02*
X75160000Y-148860000D01*
X62460000Y-150582500D02*
X62460000Y-148860000D01*
X62460000Y-155720000D02*
X62460000Y-153997500D01*
X75160000Y-148860000D02*
X75160000Y-150582500D01*
X75160000Y-155720000D02*
X62460000Y-155720000D01*
X75160000Y-155720000D02*
X75160000Y-153997500D01*
D11*
X61810000Y-152290000D02*
G75*
G02*
X61610000Y-152290000I-100000J0D01*
G01*
X61610000Y-152290000D02*
G75*
G02*
X61810000Y-152290000I100000J0D01*
G01*
D13*
X103625000Y-178795000D02*
X103625000Y-177285000D01*
X105800000Y-174105000D02*
X109320000Y-174105000D01*
X105800000Y-181975000D02*
X109320000Y-181975000D01*
X111495000Y-178795000D02*
X111495000Y-177285000D01*
D14*
X66925000Y-43355000D02*
X66925000Y-46295000D01*
X66925000Y-46295000D02*
X72365000Y-46295000D01*
X67705000Y-43355000D02*
X67705000Y-46295000D01*
X67825000Y-43355000D02*
X67825000Y-46295000D01*
X67945000Y-43355000D02*
X67945000Y-46295000D01*
X72365000Y-43355000D02*
X66925000Y-43355000D01*
X72395000Y-43355000D02*
X72395000Y-46295000D01*
D13*
X131570000Y-120450000D02*
X133292500Y-120450000D01*
X131570000Y-133150000D02*
X131570000Y-120450000D01*
X133292500Y-133150000D02*
X131570000Y-133150000D01*
X138430000Y-120450000D02*
X136707500Y-120450000D01*
X138430000Y-120450000D02*
X138430000Y-133150000D01*
X138430000Y-133150000D02*
X136707500Y-133150000D01*
D11*
X135100000Y-133900000D02*
G75*
G02*
X134900000Y-133900000I-100000J0D01*
G01*
X134900000Y-133900000D02*
G75*
G02*
X135100000Y-133900000I100000J0D01*
G01*
D10*
X38735000Y-166215000D02*
X98735000Y-166215000D01*
X98735000Y-182015000D01*
X38735000Y-182015000D01*
X38735000Y-166215000D01*
D13*
X26625000Y-178795000D02*
X26625000Y-177285000D01*
X28800000Y-174105000D02*
X32320000Y-174105000D01*
X28800000Y-181975000D02*
X32320000Y-181975000D01*
X34495000Y-178795000D02*
X34495000Y-177285000D01*
D11*
X24799800Y-81577400D02*
X32499800Y-81577400D01*
X24799800Y-91777400D02*
X24799800Y-81577400D01*
X32499800Y-81577400D02*
X32499800Y-91777400D01*
X32499800Y-91777400D02*
X24799800Y-91777400D01*
D15*
X27099800Y-90077400D02*
G75*
G02*
X26899800Y-90077400I-100000J0D01*
G01*
X26899800Y-90077400D02*
G75*
G02*
X27099800Y-90077400I100000J0D01*
G01*
D13*
X155390000Y-164285000D02*
X155390000Y-167805000D01*
X158570000Y-162110000D02*
X160080000Y-162110000D01*
X158570000Y-169980000D02*
X160080000Y-169980000D01*
X163260000Y-164285000D02*
X163260000Y-167805000D01*
X155090000Y-85670000D02*
X155090000Y-89190000D01*
X158270000Y-83495000D02*
X159780000Y-83495000D01*
X158270000Y-91365000D02*
X159780000Y-91365000D01*
X162960000Y-85670000D02*
X162960000Y-89190000D01*
D10*
X25049800Y-108277400D02*
X33049800Y-108277400D01*
X33049800Y-100277400D01*
X25049800Y-100277400D01*
X25049800Y-108277400D01*
D13*
X26760000Y-29255000D02*
X26760000Y-27745000D01*
X28935000Y-24565000D02*
X32455000Y-24565000D01*
X28935000Y-32435000D02*
X32455000Y-32435000D01*
X34630000Y-29255000D02*
X34630000Y-27745000D01*
D10*
X39045000Y-24600000D02*
X99045000Y-24600000D01*
X99045000Y-40400000D01*
X39045000Y-40400000D01*
X39045000Y-24600000D01*
X25299800Y-123277400D02*
X33299800Y-123277400D01*
X33299800Y-115277400D01*
X25299800Y-115277400D01*
X25299800Y-123277400D01*
D14*
X65965000Y-160945000D02*
X65965000Y-163885000D01*
X65965000Y-163885000D02*
X71405000Y-163885000D01*
X66745000Y-160945000D02*
X66745000Y-163885000D01*
X66865000Y-160945000D02*
X66865000Y-163885000D01*
X66985000Y-160945000D02*
X66985000Y-163885000D01*
X71405000Y-160945000D02*
X65965000Y-160945000D01*
X71435000Y-160945000D02*
X71435000Y-163885000D01*
M02*
