M48
; DRILL file {KiCad 9.0.5} date 2025-10-28T12:58:37-0400
; FORMAT={-:-/ absolute / metric / decimal}
; #@! TF.CreationDate,2025-10-28T12:58:37-04:00
; #@! TF.GenerationSoftware,Kicad,Pcbnew,9.0.5
; #@! TF.FileFunction,Plated,1,2,PTH
FMAT,2
METRIC
; #@! TA.AperFunction,Plated,PTH,ComponentDrill
T1C1.100
; #@! TA.AperFunction,Plated,PTH,ComponentDrill
T2C1.200
; #@! TA.AperFunction,Plated,PTH,ComponentDrill
T3C1.300
; #@! TA.AperFunction,Plated,PTH,ComponentDrill
T4C1.700
; #@! TA.AperFunction,Plated,PTH,ComponentDrill
T5C1.850
; #@! TA.AperFunction,Plated,PTH,ComponentDrill
T6C1.900
%
G90
G05
T1
X63.605Y-162.415
X64.565Y-44.825
X73.765Y-162.415
X74.725Y-44.825
X143.525Y-121.745
X143.525Y-131.905
T2
X43.335Y-174.115
X43.645Y-32.5
X68.735Y-169.015
X68.735Y-179.215
X69.045Y-27.4
X69.045Y-37.6
X94.135Y-174.115
X94.445Y-32.5
X150.4Y-126.8
X155.5Y-101.4
X155.5Y-152.2
X160.6Y-126.8
T3
X28.4Y-84.177
X28.4Y-89.177
T4
X26.5Y-101.727
X26.5Y-106.827
X26.75Y-116.727
X26.75Y-121.827
X31.6Y-101.727
X31.6Y-106.827
X31.85Y-116.727
X31.85Y-121.827
T5
X64.11Y-152.29
X64.995Y-56.0
X68.81Y-152.29
X69.695Y-56.0
X73.51Y-152.29
X74.395Y-56.0
X135.0Y-122.1
X135.0Y-126.8
X135.0Y-131.5
T6
X27.055Y-175.54
X27.055Y-180.54
X27.19Y-26.0
X27.19Y-31.0
X34.065Y-175.54
X34.065Y-180.54
X34.2Y-26.0
X34.2Y-31.0
X104.055Y-175.54
X104.055Y-180.54
X104.19Y-26.0
X104.19Y-31.0
X111.065Y-175.54
X111.065Y-180.54
X111.2Y-26.0
X111.2Y-31.0
X156.525Y-83.925
X156.525Y-90.935
X156.825Y-162.54
X156.825Y-169.55
X161.525Y-83.925
X161.525Y-90.935
X161.825Y-162.54
X161.825Y-169.55
M30
