%TF.GenerationSoftware,KiCad,Pcbnew,9.0.6*%
%TF.CreationDate,2025-12-19T02:54:43-05:00*%
%TF.ProjectId,CSI_Tester,4353495f-5465-4737-9465-722e6b696361,rev?*%
%TF.SameCoordinates,Original*%
%TF.FileFunction,Copper,L1,Top*%
%TF.FilePolarity,Positive*%
%FSLAX46Y46*%
G04 Gerber Fmt 4.6, Leading zero omitted, Abs format (unit mm)*
G04 Created by KiCad (PCBNEW 9.0.6) date 2025-12-19 02:54:43*
%MOMM*%
%LPD*%
G01*
G04 APERTURE LIST*
%TA.AperFunction,SMDPad,CuDef*%
%ADD10C,2.000000*%
%TD*%
%TA.AperFunction,SMDPad,CuDef*%
%ADD11R,1.270000X3.680000*%
%TD*%
%TA.AperFunction,ComponentPad*%
%ADD12C,2.400000*%
%TD*%
%TA.AperFunction,ComponentPad*%
%ADD13R,4.500000X2.500000*%
%TD*%
%TA.AperFunction,ComponentPad*%
%ADD14O,4.500000X2.500000*%
%TD*%
%TA.AperFunction,SMDPad,CuDef*%
%ADD15R,20.000000X20.000000*%
%TD*%
%TA.AperFunction,ComponentPad*%
%ADD16C,3.124200*%
%TD*%
%TA.AperFunction,ViaPad*%
%ADD17C,0.600000*%
%TD*%
%TA.AperFunction,Conductor*%
%ADD18C,0.600000*%
%TD*%
%TA.AperFunction,Conductor*%
%ADD19C,1.600000*%
%TD*%
%TA.AperFunction,Conductor*%
%ADD20C,0.800000*%
%TD*%
G04 APERTURE END LIST*
D10*
%TO.P,Vg_H1,1,1*%
%TO.N,/Tester_Board/Vg_H*%
X112370000Y-36475000D03*
%TD*%
%TO.P,Vs_H1,1,1*%
%TO.N,/Tester_Board/Vs_H*%
X119370000Y-36475000D03*
%TD*%
%TO.P,Vc+1,1,1*%
%TO.N,/Tester_Board/Vc+*%
X145370000Y-36475000D03*
%TD*%
%TO.P,Vdc+1,1,1*%
%TO.N,/Tester_Board/Vdc+*%
X129000000Y-139000000D03*
%TD*%
D11*
%TO.P,J1,01,01*%
%TO.N,/Tester_Board/Vg_L*%
X93270000Y-104425000D03*
%TO.P,J1,02,02*%
%TO.N,/Tester_Board/Vs_L*%
X93270000Y-109375000D03*
%TO.P,J1,03,03*%
%TO.N,/Tester_Board/Vg_L*%
X90730000Y-104425000D03*
%TO.P,J1,04,04*%
%TO.N,/Tester_Board/Vs_L*%
X90730000Y-109375000D03*
%TD*%
D12*
%TO.P,C4,1*%
%TO.N,/Tester_Board/Vc-*%
X210800000Y-96250000D03*
%TO.P,C4,2*%
%TO.N,/Tester_Board/Vc+*%
X210800000Y-73750000D03*
%TD*%
D13*
%TO.P,Q1,1,G*%
%TO.N,/Tester_Board/Vg_L*%
X107615000Y-101498400D03*
D14*
%TO.P,Q1,2,D*%
%TO.N,/Tester_Board/Vdc+*%
X107615000Y-106948400D03*
%TO.P,Q1,3,S*%
%TO.N,/Tester_Board/Vs_L*%
X107615000Y-112398400D03*
%TD*%
D12*
%TO.P,C2,1*%
%TO.N,/Tester_Board/Vc-*%
X184800000Y-96250000D03*
%TO.P,C2,2*%
%TO.N,/Tester_Board/Vc+*%
X184800000Y-73750000D03*
%TD*%
%TO.P,C1,1*%
%TO.N,/Tester_Board/Vc-*%
X171800000Y-96250000D03*
%TO.P,C1,2*%
%TO.N,/Tester_Board/Vc+*%
X171800000Y-73750000D03*
%TD*%
D13*
%TO.P,D1,1,K*%
%TO.N,/Tester_Board/Vcvr1*%
X116466200Y-101433200D03*
D14*
%TO.P,D1,2,A*%
%TO.N,/Tester_Board/Vs_L*%
X116466200Y-112333200D03*
%TD*%
D15*
%TO.P,R1,1*%
%TO.N,/Tester_Board/Vcvr1*%
X144000000Y-110000000D03*
%TD*%
D13*
%TO.P,D2,1,K*%
%TO.N,/Tester_Board/Vcvr2*%
X117228200Y-64908000D03*
D14*
%TO.P,D2,2,A*%
%TO.N,/Tester_Board/Vs_H*%
X117228200Y-75808000D03*
%TD*%
D10*
%TO.P,Vc-1,1,1*%
%TO.N,/Tester_Board/Vc-*%
X145000000Y-139000000D03*
%TD*%
D12*
%TO.P,C3,1*%
%TO.N,/Tester_Board/Vc-*%
X197800000Y-96250000D03*
%TO.P,C3,2*%
%TO.N,/Tester_Board/Vc+*%
X197800000Y-73750000D03*
%TD*%
D15*
%TO.P,R2,1*%
%TO.N,/Tester_Board/Vcvr2*%
X144400000Y-65300000D03*
%TD*%
D11*
%TO.P,J2,01,01*%
%TO.N,/Tester_Board/Vg_H*%
X93270000Y-68425000D03*
%TO.P,J2,02,02*%
%TO.N,/Tester_Board/Vs_H*%
X93270000Y-73375000D03*
%TO.P,J2,03,03*%
%TO.N,/Tester_Board/Vg_H*%
X90730000Y-68425000D03*
%TO.P,J2,04,04*%
%TO.N,/Tester_Board/Vs_H*%
X90730000Y-73375000D03*
%TD*%
D16*
%TO.P,J3,1*%
%TO.N,/Tester_Board/Vdc+*%
X80040600Y-29616850D03*
%TO.P,J3,2*%
X80040600Y-34823850D03*
%TO.P,J3,3*%
X80040600Y-40030850D03*
%TO.P,J3,4*%
X90835600Y-29616850D03*
%TO.P,J3,5*%
X90835600Y-34823850D03*
%TO.P,J3,6*%
X90835600Y-40030850D03*
%TD*%
D10*
%TO.P,Vs_L1,1,1*%
%TO.N,/Tester_Board/Vs_L*%
X121000000Y-139000000D03*
%TD*%
D13*
%TO.P,Q2,1,G*%
%TO.N,/Tester_Board/Vg_H*%
X108356400Y-64922400D03*
D14*
%TO.P,Q2,2,D*%
%TO.N,/Tester_Board/Vdc+*%
X108356400Y-70372400D03*
%TO.P,Q2,3,S*%
%TO.N,/Tester_Board/Vs_H*%
X108356400Y-75822400D03*
%TD*%
D10*
%TO.P,Vcvr1,1,1*%
%TO.N,/Tester_Board/Vcvr1*%
X137000000Y-139000000D03*
%TD*%
%TO.P,Vdc+2,1,1*%
%TO.N,/Tester_Board/Vdc+*%
X129370000Y-36475000D03*
%TD*%
%TO.P,Vcvr2,1,1*%
%TO.N,/Tester_Board/Vcvr2*%
X137370000Y-36475000D03*
%TD*%
%TO.P,Vg_L1,1,1*%
%TO.N,/Tester_Board/Vg_L*%
X115000000Y-139000000D03*
%TD*%
D16*
%TO.P,J4,1*%
%TO.N,/Tester_Board/Vc-*%
X90659400Y-144083150D03*
%TO.P,J4,2*%
X90659400Y-138876150D03*
%TO.P,J4,3*%
X90659400Y-133669150D03*
%TO.P,J4,4*%
X79864400Y-144083150D03*
%TO.P,J4,5*%
X79864400Y-138876150D03*
%TO.P,J4,6*%
X79864400Y-133669150D03*
%TD*%
D17*
%TO.N,/Tester_Board/Vg_L*%
X111912400Y-132588000D03*
%TO.N,/Tester_Board/Vc-*%
X145000000Y-135000000D03*
%TO.N,/Tester_Board/Vc+*%
X145370000Y-39475000D03*
%TO.N,/Tester_Board/Vdc+*%
X129370000Y-39475000D03*
X129000000Y-135000000D03*
%TD*%
D18*
%TO.N,/Tester_Board/Vg_L*%
X111912400Y-135912400D02*
X111912400Y-132588000D01*
X115000000Y-139000000D02*
X111912400Y-135912400D01*
%TO.N,/Tester_Board/Vs_L*%
X116466200Y-112333200D02*
X118073600Y-112333200D01*
X118073600Y-112333200D02*
X119684800Y-113944400D01*
X119684800Y-113944400D02*
X119684800Y-137684800D01*
X119684800Y-137684800D02*
X121000000Y-139000000D01*
X93270000Y-109375000D02*
X93830200Y-109375000D01*
X93830200Y-109375000D02*
X96853600Y-112398400D01*
X96853600Y-112398400D02*
X107615000Y-112398400D01*
%TO.N,/Tester_Board/Vg_L*%
X93270000Y-104425000D02*
X93745800Y-104425000D01*
X93745800Y-104425000D02*
X96672400Y-101498400D01*
X96672400Y-101498400D02*
X107615000Y-101498400D01*
%TO.N,/Tester_Board/Vs_H*%
X116143200Y-75808000D02*
X113030000Y-72694800D01*
X117228200Y-75808000D02*
X116143200Y-75808000D01*
X113030000Y-72694800D02*
X113030000Y-42815000D01*
X113030000Y-42815000D02*
X119370000Y-36475000D01*
D19*
%TO.N,/Tester_Board/Vs_L*%
X107615000Y-112398400D02*
X116401000Y-112398400D01*
X116401000Y-112398400D02*
X116466200Y-112333200D01*
%TO.N,/Tester_Board/Vs_H*%
X108356400Y-75822400D02*
X117213800Y-75822400D01*
X117213800Y-75822400D02*
X117228200Y-75808000D01*
D18*
%TO.N,/Tester_Board/Vg_H*%
X108356400Y-64922400D02*
X108356400Y-40488600D01*
X108356400Y-40488600D02*
X112370000Y-36475000D01*
%TO.N,/Tester_Board/Vs_H*%
X93270000Y-73375000D02*
X94152200Y-73375000D01*
X94152200Y-73375000D02*
X96599600Y-75822400D01*
X96599600Y-75822400D02*
X108356400Y-75822400D01*
%TO.N,/Tester_Board/Vg_H*%
X93270000Y-68425000D02*
X94084200Y-68425000D01*
X97586800Y-64922400D02*
X108356400Y-64922400D01*
X94084200Y-68425000D02*
X97586800Y-64922400D01*
%TO.N,/Tester_Board/Vc-*%
X145000000Y-139000000D02*
X145000000Y-135000000D01*
%TO.N,/Tester_Board/Vc+*%
X145370000Y-36475000D02*
X145370000Y-39475000D01*
D20*
%TO.N,/Tester_Board/Vg_L*%
X90730000Y-104425000D02*
X93270000Y-104425000D01*
D18*
%TO.N,/Tester_Board/Vg_H*%
X90730000Y-68425000D02*
X93270000Y-68425000D01*
D20*
%TO.N,/Tester_Board/Vs_L*%
X90730000Y-109375000D02*
X93270000Y-109375000D01*
D18*
%TO.N,/Tester_Board/Vs_H*%
X90730000Y-73375000D02*
X93270000Y-73375000D01*
%TO.N,/Tester_Board/Vdc+*%
X129370000Y-36475000D02*
X129370000Y-39475000D01*
X129000000Y-139000000D02*
X129000000Y-135000000D01*
%TD*%
%TA.AperFunction,Conductor*%
%TO.N,/Tester_Board/Vcvr1*%
G36*
X158893039Y-93695109D02*
G01*
X158938794Y-93747913D01*
X158950000Y-93799424D01*
X158950000Y-146451424D01*
X158930315Y-146518463D01*
X158877511Y-146564218D01*
X158826000Y-146575424D01*
X71074000Y-146575424D01*
X71006961Y-146555739D01*
X70961206Y-146502935D01*
X70950000Y-146451424D01*
X70950000Y-144124500D01*
X70969685Y-144057461D01*
X71022489Y-144011706D01*
X71074000Y-144000500D01*
X71134812Y-144000500D01*
X71134812Y-144000499D01*
X71402732Y-143970312D01*
X71500667Y-143947959D01*
X77801800Y-143947959D01*
X77801800Y-144218340D01*
X77837090Y-144486403D01*
X77907071Y-144747574D01*
X78010539Y-144997368D01*
X78010544Y-144997379D01*
X78091831Y-145138171D01*
X78145731Y-145231528D01*
X78145733Y-145231531D01*
X78145734Y-145231532D01*
X78310326Y-145446033D01*
X78310332Y-145446040D01*
X78501509Y-145637217D01*
X78501515Y-145637222D01*
X78716022Y-145801819D01*
X78866515Y-145888706D01*
X78950170Y-145937005D01*
X78950175Y-145937007D01*
X78950178Y-145937009D01*
X79199976Y-146040479D01*
X79461143Y-146110459D01*
X79662193Y-146136927D01*
X79729209Y-146145750D01*
X79729210Y-146145750D01*
X79999591Y-146145750D01*
X80053203Y-146138691D01*
X80267657Y-146110459D01*
X80528824Y-146040479D01*
X80778622Y-145937009D01*
X81012778Y-145801819D01*
X81227285Y-145637222D01*
X81418472Y-145446035D01*
X81583069Y-145231528D01*
X81718259Y-144997372D01*
X81821729Y-144747574D01*
X81891709Y-144486407D01*
X81927000Y-144218340D01*
X81927000Y-143947960D01*
X81927000Y-143947959D01*
X88596800Y-143947959D01*
X88596800Y-144218340D01*
X88632090Y-144486403D01*
X88702071Y-144747574D01*
X88805539Y-144997368D01*
X88805544Y-144997379D01*
X88886831Y-145138171D01*
X88940731Y-145231528D01*
X88940733Y-145231531D01*
X88940734Y-145231532D01*
X89105326Y-145446033D01*
X89105332Y-145446040D01*
X89296509Y-145637217D01*
X89296515Y-145637222D01*
X89511022Y-145801819D01*
X89661515Y-145888706D01*
X89745170Y-145937005D01*
X89745175Y-145937007D01*
X89745178Y-145937009D01*
X89994976Y-146040479D01*
X90256143Y-146110459D01*
X90457193Y-146136927D01*
X90524209Y-146145750D01*
X90524210Y-146145750D01*
X90794591Y-146145750D01*
X90848203Y-146138691D01*
X91062657Y-146110459D01*
X91323824Y-146040479D01*
X91573622Y-145937009D01*
X91807778Y-145801819D01*
X92022285Y-145637222D01*
X92213472Y-145446035D01*
X92378069Y-145231528D01*
X92513259Y-144997372D01*
X92616729Y-144747574D01*
X92686709Y-144486407D01*
X92722000Y-144218340D01*
X92722000Y-143947960D01*
X92686709Y-143679893D01*
X92616729Y-143418726D01*
X92513259Y-143168928D01*
X92513257Y-143168925D01*
X92513255Y-143168920D01*
X92464956Y-143085265D01*
X92378069Y-142934772D01*
X92310171Y-142846285D01*
X92213473Y-142720266D01*
X92213467Y-142720259D01*
X92022290Y-142529082D01*
X92022283Y-142529076D01*
X91807782Y-142364484D01*
X91807781Y-142364483D01*
X91807778Y-142364481D01*
X91714421Y-142310581D01*
X91573629Y-142229294D01*
X91573618Y-142229289D01*
X91323824Y-142125821D01*
X91062653Y-142055840D01*
X90794591Y-142020550D01*
X90794590Y-142020550D01*
X90524210Y-142020550D01*
X90524209Y-142020550D01*
X90256146Y-142055840D01*
X89994975Y-142125821D01*
X89745181Y-142229289D01*
X89745170Y-142229294D01*
X89511017Y-142364484D01*
X89296516Y-142529076D01*
X89296509Y-142529082D01*
X89105332Y-142720259D01*
X89105326Y-142720266D01*
X88940734Y-142934767D01*
X88805544Y-143168920D01*
X88805539Y-143168931D01*
X88702071Y-143418725D01*
X88632090Y-143679896D01*
X88596800Y-143947959D01*
X81927000Y-143947959D01*
X81891709Y-143679893D01*
X81821729Y-143418726D01*
X81718259Y-143168928D01*
X81718257Y-143168925D01*
X81718255Y-143168920D01*
X81669956Y-143085265D01*
X81583069Y-142934772D01*
X81515171Y-142846285D01*
X81418473Y-142720266D01*
X81418467Y-142720259D01*
X81227290Y-142529082D01*
X81227283Y-142529076D01*
X81012782Y-142364484D01*
X81012781Y-142364483D01*
X81012778Y-142364481D01*
X80919421Y-142310581D01*
X80778629Y-142229294D01*
X80778618Y-142229289D01*
X80528824Y-142125821D01*
X80267653Y-142055840D01*
X79999591Y-142020550D01*
X79999590Y-142020550D01*
X79729210Y-142020550D01*
X79729209Y-142020550D01*
X79461146Y-142055840D01*
X79199975Y-142125821D01*
X78950181Y-142229289D01*
X78950170Y-142229294D01*
X78716017Y-142364484D01*
X78501516Y-142529076D01*
X78501509Y-142529082D01*
X78310332Y-142720259D01*
X78310326Y-142720266D01*
X78145734Y-142934767D01*
X78010544Y-143168920D01*
X78010539Y-143168931D01*
X77907071Y-143418725D01*
X77837090Y-143679896D01*
X77801800Y-143947959D01*
X71500667Y-143947959D01*
X71665591Y-143910316D01*
X71920079Y-143821267D01*
X72162997Y-143704284D01*
X72391289Y-143560838D01*
X72602085Y-143392734D01*
X72792734Y-143202085D01*
X72960838Y-142991289D01*
X73104284Y-142762997D01*
X73221267Y-142520079D01*
X73310316Y-142265591D01*
X73370312Y-142002732D01*
X73400500Y-141734809D01*
X73400500Y-141465191D01*
X73370312Y-141197268D01*
X73310316Y-140934409D01*
X73221267Y-140679921D01*
X73104284Y-140437003D01*
X72960838Y-140208711D01*
X72792734Y-139997915D01*
X72602085Y-139807266D01*
X72580909Y-139790379D01*
X72548549Y-139764573D01*
X72391289Y-139639162D01*
X72162997Y-139495716D01*
X72162994Y-139495714D01*
X71920082Y-139378734D01*
X71665602Y-139289687D01*
X71665594Y-139289684D01*
X71468446Y-139244687D01*
X71402732Y-139229688D01*
X71402728Y-139229687D01*
X71402719Y-139229686D01*
X71134813Y-139199500D01*
X71134809Y-139199500D01*
X71074000Y-139199500D01*
X71006961Y-139179815D01*
X70961206Y-139127011D01*
X70950000Y-139075500D01*
X70950000Y-138740959D01*
X77801800Y-138740959D01*
X77801800Y-139011340D01*
X77837090Y-139279403D01*
X77907071Y-139540574D01*
X78010539Y-139790368D01*
X78010544Y-139790379D01*
X78091831Y-139931171D01*
X78145731Y-140024528D01*
X78145733Y-140024531D01*
X78145734Y-140024532D01*
X78310326Y-140239033D01*
X78310332Y-140239040D01*
X78501509Y-140430217D01*
X78501516Y-140430223D01*
X78544953Y-140463553D01*
X78716022Y-140594819D01*
X78863416Y-140679917D01*
X78950170Y-140730005D01*
X78950175Y-140730007D01*
X78950178Y-140730009D01*
X79199976Y-140833479D01*
X79461143Y-140903459D01*
X79662193Y-140929927D01*
X79729209Y-140938750D01*
X79729210Y-140938750D01*
X79999591Y-140938750D01*
X80053203Y-140931691D01*
X80267657Y-140903459D01*
X80528824Y-140833479D01*
X80778622Y-140730009D01*
X81012778Y-140594819D01*
X81227285Y-140430222D01*
X81418472Y-140239035D01*
X81583069Y-140024528D01*
X81718259Y-139790372D01*
X81821729Y-139540574D01*
X81891709Y-139279407D01*
X81927000Y-139011340D01*
X81927000Y-138740960D01*
X81927000Y-138740959D01*
X88596800Y-138740959D01*
X88596800Y-139011340D01*
X88632090Y-139279403D01*
X88702071Y-139540574D01*
X88805539Y-139790368D01*
X88805544Y-139790379D01*
X88886831Y-139931171D01*
X88940731Y-140024528D01*
X88940733Y-140024531D01*
X88940734Y-140024532D01*
X89105326Y-140239033D01*
X89105332Y-140239040D01*
X89296509Y-140430217D01*
X89296516Y-140430223D01*
X89339953Y-140463553D01*
X89511022Y-140594819D01*
X89658416Y-140679917D01*
X89745170Y-140730005D01*
X89745175Y-140730007D01*
X89745178Y-140730009D01*
X89994976Y-140833479D01*
X90256143Y-140903459D01*
X90457193Y-140929927D01*
X90524209Y-140938750D01*
X90524210Y-140938750D01*
X90794591Y-140938750D01*
X90848203Y-140931691D01*
X91062657Y-140903459D01*
X91323824Y-140833479D01*
X91573622Y-140730009D01*
X91807778Y-140594819D01*
X92022285Y-140430222D01*
X92213472Y-140239035D01*
X92378069Y-140024528D01*
X92513259Y-139790372D01*
X92616729Y-139540574D01*
X92686709Y-139279407D01*
X92722000Y-139011340D01*
X92722000Y-138740960D01*
X92686709Y-138472893D01*
X92616729Y-138211726D01*
X92513259Y-137961928D01*
X92513257Y-137961925D01*
X92513255Y-137961920D01*
X92451800Y-137855478D01*
X92378069Y-137727772D01*
X92231260Y-137536447D01*
X92213473Y-137513266D01*
X92213467Y-137513259D01*
X92022290Y-137322082D01*
X92022283Y-137322076D01*
X91807782Y-137157484D01*
X91807781Y-137157483D01*
X91807778Y-137157481D01*
X91714421Y-137103581D01*
X91573629Y-137022294D01*
X91573618Y-137022289D01*
X91323824Y-136918821D01*
X91062653Y-136848840D01*
X90794591Y-136813550D01*
X90794590Y-136813550D01*
X90524210Y-136813550D01*
X90524209Y-136813550D01*
X90256146Y-136848840D01*
X89994975Y-136918821D01*
X89745181Y-137022289D01*
X89745170Y-137022294D01*
X89511017Y-137157484D01*
X89296516Y-137322076D01*
X89296509Y-137322082D01*
X89105332Y-137513259D01*
X89105326Y-137513266D01*
X88940734Y-137727767D01*
X88805544Y-137961920D01*
X88805539Y-137961931D01*
X88702071Y-138211725D01*
X88632090Y-138472896D01*
X88596800Y-138740959D01*
X81927000Y-138740959D01*
X81891709Y-138472893D01*
X81821729Y-138211726D01*
X81718259Y-137961928D01*
X81718257Y-137961925D01*
X81718255Y-137961920D01*
X81656800Y-137855478D01*
X81583069Y-137727772D01*
X81436260Y-137536447D01*
X81418473Y-137513266D01*
X81418467Y-137513259D01*
X81227290Y-137322082D01*
X81227283Y-137322076D01*
X81012782Y-137157484D01*
X81012781Y-137157483D01*
X81012778Y-137157481D01*
X80919421Y-137103581D01*
X80778629Y-137022294D01*
X80778618Y-137022289D01*
X80528824Y-136918821D01*
X80267653Y-136848840D01*
X79999591Y-136813550D01*
X79999590Y-136813550D01*
X79729210Y-136813550D01*
X79729209Y-136813550D01*
X79461146Y-136848840D01*
X79199975Y-136918821D01*
X78950181Y-137022289D01*
X78950170Y-137022294D01*
X78716017Y-137157484D01*
X78501516Y-137322076D01*
X78501509Y-137322082D01*
X78310332Y-137513259D01*
X78310326Y-137513266D01*
X78145734Y-137727767D01*
X78010544Y-137961920D01*
X78010539Y-137961931D01*
X77907071Y-138211725D01*
X77837090Y-138472896D01*
X77801800Y-138740959D01*
X70950000Y-138740959D01*
X70950000Y-133533959D01*
X77801800Y-133533959D01*
X77801800Y-133804340D01*
X77837090Y-134072403D01*
X77907071Y-134333574D01*
X78010539Y-134583368D01*
X78010544Y-134583379D01*
X78091831Y-134724171D01*
X78145731Y-134817528D01*
X78145733Y-134817531D01*
X78145734Y-134817532D01*
X78310326Y-135032033D01*
X78310332Y-135032040D01*
X78501509Y-135223217D01*
X78501515Y-135223222D01*
X78716022Y-135387819D01*
X78866515Y-135474706D01*
X78950170Y-135523005D01*
X78950175Y-135523007D01*
X78950178Y-135523009D01*
X79199976Y-135626479D01*
X79461143Y-135696459D01*
X79662193Y-135722927D01*
X79729209Y-135731750D01*
X79729210Y-135731750D01*
X79999591Y-135731750D01*
X80053203Y-135724691D01*
X80267657Y-135696459D01*
X80528824Y-135626479D01*
X80778622Y-135523009D01*
X81012778Y-135387819D01*
X81227285Y-135223222D01*
X81418472Y-135032035D01*
X81583069Y-134817528D01*
X81718259Y-134583372D01*
X81821729Y-134333574D01*
X81891709Y-134072407D01*
X81927000Y-133804340D01*
X81927000Y-133533960D01*
X81927000Y-133533959D01*
X88596800Y-133533959D01*
X88596800Y-133804340D01*
X88632090Y-134072403D01*
X88702071Y-134333574D01*
X88805539Y-134583368D01*
X88805544Y-134583379D01*
X88886831Y-134724171D01*
X88940731Y-134817528D01*
X88940733Y-134817531D01*
X88940734Y-134817532D01*
X89105326Y-135032033D01*
X89105332Y-135032040D01*
X89296509Y-135223217D01*
X89296515Y-135223222D01*
X89511022Y-135387819D01*
X89661515Y-135474706D01*
X89745170Y-135523005D01*
X89745175Y-135523007D01*
X89745178Y-135523009D01*
X89994976Y-135626479D01*
X90256143Y-135696459D01*
X90457193Y-135722927D01*
X90524209Y-135731750D01*
X90524210Y-135731750D01*
X90794591Y-135731750D01*
X90848203Y-135724691D01*
X91062657Y-135696459D01*
X91323824Y-135626479D01*
X91573622Y-135523009D01*
X91807778Y-135387819D01*
X92022285Y-135223222D01*
X92213472Y-135032035D01*
X92378069Y-134817528D01*
X92513259Y-134583372D01*
X92616729Y-134333574D01*
X92686709Y-134072407D01*
X92722000Y-133804340D01*
X92722000Y-133533960D01*
X92686709Y-133265893D01*
X92616729Y-133004726D01*
X92513259Y-132754928D01*
X92513257Y-132754925D01*
X92513255Y-132754920D01*
X92403643Y-132565068D01*
X92378069Y-132520772D01*
X92369155Y-132509155D01*
X92369153Y-132509153D01*
X111111900Y-132509153D01*
X111111900Y-135991246D01*
X111142661Y-136145889D01*
X111142664Y-136145901D01*
X111203002Y-136291572D01*
X111203009Y-136291585D01*
X111290610Y-136422688D01*
X111290613Y-136422692D01*
X113489051Y-138621129D01*
X113522536Y-138682452D01*
X113523843Y-138728208D01*
X113499500Y-138881902D01*
X113499500Y-139118097D01*
X113536446Y-139351368D01*
X113609433Y-139575996D01*
X113716657Y-139786433D01*
X113855483Y-139977510D01*
X114022490Y-140144517D01*
X114213567Y-140283343D01*
X114312991Y-140334002D01*
X114424003Y-140390566D01*
X114424005Y-140390566D01*
X114424008Y-140390568D01*
X114496783Y-140414214D01*
X114648631Y-140463553D01*
X114881903Y-140500500D01*
X114881908Y-140500500D01*
X115118097Y-140500500D01*
X115351368Y-140463553D01*
X115575992Y-140390568D01*
X115786433Y-140283343D01*
X115977510Y-140144517D01*
X116144517Y-139977510D01*
X116283343Y-139786433D01*
X116390568Y-139575992D01*
X116463553Y-139351368D01*
X116473323Y-139289684D01*
X116500500Y-139118097D01*
X116500500Y-138881902D01*
X116463553Y-138648631D01*
X116390566Y-138424003D01*
X116283342Y-138213566D01*
X116282005Y-138211726D01*
X116144517Y-138022490D01*
X115977510Y-137855483D01*
X115786433Y-137716657D01*
X115751053Y-137698630D01*
X115575996Y-137609433D01*
X115351368Y-137536446D01*
X115118097Y-137499500D01*
X115118092Y-137499500D01*
X114881908Y-137499500D01*
X114881903Y-137499500D01*
X114728208Y-137523843D01*
X114658915Y-137514888D01*
X114621129Y-137489051D01*
X112749219Y-135617141D01*
X112715734Y-135555818D01*
X112712900Y-135529460D01*
X112712900Y-132509155D01*
X112712899Y-132509153D01*
X112682138Y-132354510D01*
X112682137Y-132354503D01*
X112662157Y-132306266D01*
X112621797Y-132208827D01*
X112621790Y-132208814D01*
X112534189Y-132077711D01*
X112534186Y-132077707D01*
X112422692Y-131966213D01*
X112422688Y-131966210D01*
X112291585Y-131878609D01*
X112291572Y-131878602D01*
X112145901Y-131818264D01*
X112145889Y-131818261D01*
X111991245Y-131787500D01*
X111991242Y-131787500D01*
X111833558Y-131787500D01*
X111833555Y-131787500D01*
X111678910Y-131818261D01*
X111678898Y-131818264D01*
X111533227Y-131878602D01*
X111533214Y-131878609D01*
X111402111Y-131966210D01*
X111402107Y-131966213D01*
X111290613Y-132077707D01*
X111290610Y-132077711D01*
X111203009Y-132208814D01*
X111203002Y-132208827D01*
X111142664Y-132354498D01*
X111142661Y-132354510D01*
X111111900Y-132509153D01*
X92369153Y-132509153D01*
X92213473Y-132306266D01*
X92213467Y-132306259D01*
X92022290Y-132115082D01*
X92022283Y-132115076D01*
X91807782Y-131950484D01*
X91807781Y-131950483D01*
X91807778Y-131950481D01*
X91683280Y-131878602D01*
X91573629Y-131815294D01*
X91573618Y-131815289D01*
X91323824Y-131711821D01*
X91062653Y-131641840D01*
X90794591Y-131606550D01*
X90794590Y-131606550D01*
X90524210Y-131606550D01*
X90524209Y-131606550D01*
X90256146Y-131641840D01*
X89994975Y-131711821D01*
X89745181Y-131815289D01*
X89745170Y-131815294D01*
X89511017Y-131950484D01*
X89296516Y-132115076D01*
X89296509Y-132115082D01*
X89105332Y-132306259D01*
X89105326Y-132306266D01*
X88940734Y-132520767D01*
X88805544Y-132754920D01*
X88805539Y-132754931D01*
X88702071Y-133004725D01*
X88632090Y-133265896D01*
X88596800Y-133533959D01*
X81927000Y-133533959D01*
X81891709Y-133265893D01*
X81821729Y-133004726D01*
X81718259Y-132754928D01*
X81718257Y-132754925D01*
X81718255Y-132754920D01*
X81608643Y-132565068D01*
X81583069Y-132520772D01*
X81455486Y-132354503D01*
X81418473Y-132306266D01*
X81418467Y-132306259D01*
X81227290Y-132115082D01*
X81227283Y-132115076D01*
X81012782Y-131950484D01*
X81012781Y-131950483D01*
X81012778Y-131950481D01*
X80888280Y-131878602D01*
X80778629Y-131815294D01*
X80778618Y-131815289D01*
X80528824Y-131711821D01*
X80267653Y-131641840D01*
X79999591Y-131606550D01*
X79999590Y-131606550D01*
X79729210Y-131606550D01*
X79729209Y-131606550D01*
X79461146Y-131641840D01*
X79199975Y-131711821D01*
X78950181Y-131815289D01*
X78950170Y-131815294D01*
X78716017Y-131950484D01*
X78501516Y-132115076D01*
X78501509Y-132115082D01*
X78310332Y-132306259D01*
X78310326Y-132306266D01*
X78145734Y-132520767D01*
X78010544Y-132754920D01*
X78010539Y-132754931D01*
X77907071Y-133004725D01*
X77837090Y-133265896D01*
X77801800Y-133533959D01*
X70950000Y-133533959D01*
X70950000Y-107487135D01*
X89594500Y-107487135D01*
X89594500Y-111262870D01*
X89594501Y-111262876D01*
X89600908Y-111322483D01*
X89651202Y-111457328D01*
X89651206Y-111457335D01*
X89737452Y-111572544D01*
X89737455Y-111572547D01*
X89852664Y-111658793D01*
X89852671Y-111658797D01*
X89987517Y-111709091D01*
X89987516Y-111709091D01*
X89994444Y-111709835D01*
X90047127Y-111715500D01*
X91412872Y-111715499D01*
X91472483Y-111709091D01*
X91607331Y-111658796D01*
X91722546Y-111572546D01*
X91808796Y-111457331D01*
X91859091Y-111322483D01*
X91865500Y-111262873D01*
X91865500Y-110399500D01*
X91868050Y-110390814D01*
X91866762Y-110381853D01*
X91877740Y-110357812D01*
X91885185Y-110332461D01*
X91892025Y-110326533D01*
X91895787Y-110318297D01*
X91918021Y-110304007D01*
X91937989Y-110286706D01*
X91948503Y-110284418D01*
X91954565Y-110280523D01*
X91989500Y-110275500D01*
X92010501Y-110275500D01*
X92077540Y-110295185D01*
X92123295Y-110347989D01*
X92134501Y-110399500D01*
X92134501Y-111262876D01*
X92140908Y-111322483D01*
X92191202Y-111457328D01*
X92191206Y-111457335D01*
X92277452Y-111572544D01*
X92277455Y-111572547D01*
X92392664Y-111658793D01*
X92392671Y-111658797D01*
X92527517Y-111709091D01*
X92527516Y-111709091D01*
X92534444Y-111709835D01*
X92587127Y-111715500D01*
X93952872Y-111715499D01*
X94012483Y-111709091D01*
X94147331Y-111658796D01*
X94262546Y-111572546D01*
X94348796Y-111457331D01*
X94398630Y-111323718D01*
X94440501Y-111267785D01*
X94505965Y-111243368D01*
X94574238Y-111258219D01*
X94602493Y-111279371D01*
X96227470Y-112904347D01*
X96227491Y-112904370D01*
X96343307Y-113020186D01*
X96343311Y-113020189D01*
X96474414Y-113107790D01*
X96474427Y-113107797D01*
X96620098Y-113168135D01*
X96620103Y-113168137D01*
X96620107Y-113168137D01*
X96620108Y-113168138D01*
X96774754Y-113198900D01*
X96774757Y-113198900D01*
X96774758Y-113198900D01*
X104984274Y-113198900D01*
X105051313Y-113218585D01*
X105091661Y-113260900D01*
X105156388Y-113373012D01*
X105296081Y-113555061D01*
X105296089Y-113555070D01*
X105458330Y-113717311D01*
X105458338Y-113717318D01*
X105640382Y-113857007D01*
X105640385Y-113857008D01*
X105640388Y-113857011D01*
X105839112Y-113971744D01*
X105839117Y-113971746D01*
X105839123Y-113971749D01*
X105930480Y-114009590D01*
X106051113Y-114059558D01*
X106272762Y-114118948D01*
X106500266Y-114148900D01*
X106500273Y-114148900D01*
X108729727Y-114148900D01*
X108729734Y-114148900D01*
X108957238Y-114118948D01*
X109178887Y-114059558D01*
X109390888Y-113971744D01*
X109589612Y-113857011D01*
X109762270Y-113724524D01*
X109827439Y-113699330D01*
X109837757Y-113698900D01*
X114328412Y-113698900D01*
X114395451Y-113718585D01*
X114403893Y-113724520D01*
X114491588Y-113791811D01*
X114690312Y-113906544D01*
X114690317Y-113906546D01*
X114690323Y-113906549D01*
X114781680Y-113944390D01*
X114902313Y-113994358D01*
X115123962Y-114053748D01*
X115351466Y-114083700D01*
X115351473Y-114083700D01*
X117580927Y-114083700D01*
X117580934Y-114083700D01*
X117808438Y-114053748D01*
X118030087Y-113994358D01*
X118196738Y-113925328D01*
X118242079Y-113906548D01*
X118242082Y-113906546D01*
X118242088Y-113906544D01*
X118242094Y-113906540D01*
X118242099Y-113906538D01*
X118332620Y-113854275D01*
X118400520Y-113837801D01*
X118466547Y-113860653D01*
X118482302Y-113873980D01*
X118847981Y-114239659D01*
X118881466Y-114300982D01*
X118884300Y-114327340D01*
X118884300Y-137763646D01*
X118915061Y-137918289D01*
X118915064Y-137918301D01*
X118975402Y-138063972D01*
X118975409Y-138063985D01*
X119063010Y-138195088D01*
X119063013Y-138195092D01*
X119489051Y-138621129D01*
X119522536Y-138682452D01*
X119523843Y-138728208D01*
X119499500Y-138881902D01*
X119499500Y-139118097D01*
X119536446Y-139351368D01*
X119609433Y-139575996D01*
X119716657Y-139786433D01*
X119855483Y-139977510D01*
X120022490Y-140144517D01*
X120213567Y-140283343D01*
X120312991Y-140334002D01*
X120424003Y-140390566D01*
X120424005Y-140390566D01*
X120424008Y-140390568D01*
X120496783Y-140414214D01*
X120648631Y-140463553D01*
X120881903Y-140500500D01*
X120881908Y-140500500D01*
X121118097Y-140500500D01*
X121351368Y-140463553D01*
X121575992Y-140390568D01*
X121786433Y-140283343D01*
X121977510Y-140144517D01*
X122144517Y-139977510D01*
X122283343Y-139786433D01*
X122390568Y-139575992D01*
X122463553Y-139351368D01*
X122473323Y-139289684D01*
X122500500Y-139118097D01*
X122500500Y-138881902D01*
X127499500Y-138881902D01*
X127499500Y-139118097D01*
X127536446Y-139351368D01*
X127609433Y-139575996D01*
X127716657Y-139786433D01*
X127855483Y-139977510D01*
X128022490Y-140144517D01*
X128213567Y-140283343D01*
X128312991Y-140334002D01*
X128424003Y-140390566D01*
X128424005Y-140390566D01*
X128424008Y-140390568D01*
X128496783Y-140414214D01*
X128648631Y-140463553D01*
X128881903Y-140500500D01*
X128881908Y-140500500D01*
X129118097Y-140500500D01*
X129121260Y-140499999D01*
X136914213Y-140499999D01*
X136914214Y-140500000D01*
X137085786Y-140500000D01*
X137085786Y-140499999D01*
X137000000Y-140414214D01*
X136914213Y-140499999D01*
X129121260Y-140499999D01*
X129351368Y-140463553D01*
X129575992Y-140390568D01*
X129786433Y-140283343D01*
X129977510Y-140144517D01*
X130144517Y-139977510D01*
X130283343Y-139786433D01*
X130390568Y-139575992D01*
X130463553Y-139351368D01*
X130473323Y-139289684D01*
X130500500Y-139118097D01*
X130500500Y-139085786D01*
X135500000Y-139085786D01*
X135585786Y-139000000D01*
X135585786Y-138999999D01*
X138414214Y-138999999D01*
X138414214Y-139000000D01*
X138499999Y-139085786D01*
X138500000Y-139085785D01*
X138500000Y-138914214D01*
X138499999Y-138914213D01*
X138414214Y-138999999D01*
X135585786Y-138999999D01*
X135500000Y-138914213D01*
X135500000Y-139085786D01*
X130500500Y-139085786D01*
X130500500Y-138881902D01*
X143499500Y-138881902D01*
X143499500Y-139118097D01*
X143536446Y-139351368D01*
X143609433Y-139575996D01*
X143716657Y-139786433D01*
X143855483Y-139977510D01*
X144022490Y-140144517D01*
X144213567Y-140283343D01*
X144312991Y-140334002D01*
X144424003Y-140390566D01*
X144424005Y-140390566D01*
X144424008Y-140390568D01*
X144496783Y-140414214D01*
X144648631Y-140463553D01*
X144881903Y-140500500D01*
X144881908Y-140500500D01*
X145118097Y-140500500D01*
X145351368Y-140463553D01*
X145575992Y-140390568D01*
X145786433Y-140283343D01*
X145977510Y-140144517D01*
X146144517Y-139977510D01*
X146283343Y-139786433D01*
X146390568Y-139575992D01*
X146463553Y-139351368D01*
X146473323Y-139289684D01*
X146500500Y-139118097D01*
X146500500Y-138881902D01*
X146463553Y-138648631D01*
X146390566Y-138424003D01*
X146283342Y-138213566D01*
X146282005Y-138211726D01*
X146144517Y-138022490D01*
X145977510Y-137855483D01*
X145971449Y-137851079D01*
X145851614Y-137764012D01*
X145808948Y-137708682D01*
X145800500Y-137663695D01*
X145800500Y-134921155D01*
X145800499Y-134921153D01*
X145779887Y-134817532D01*
X145769737Y-134766503D01*
X145769735Y-134766498D01*
X145709397Y-134620827D01*
X145709390Y-134620814D01*
X145621789Y-134489711D01*
X145621786Y-134489707D01*
X145510292Y-134378213D01*
X145510288Y-134378210D01*
X145379185Y-134290609D01*
X145379172Y-134290602D01*
X145233501Y-134230264D01*
X145233489Y-134230261D01*
X145078845Y-134199500D01*
X145078842Y-134199500D01*
X144921158Y-134199500D01*
X144921155Y-134199500D01*
X144766510Y-134230261D01*
X144766498Y-134230264D01*
X144620827Y-134290602D01*
X144620814Y-134290609D01*
X144489711Y-134378210D01*
X144489707Y-134378213D01*
X144378213Y-134489707D01*
X144378210Y-134489711D01*
X144290609Y-134620814D01*
X144290602Y-134620827D01*
X144230264Y-134766498D01*
X144230261Y-134766510D01*
X144199500Y-134921153D01*
X144199500Y-137663695D01*
X144179815Y-137730734D01*
X144148386Y-137764012D01*
X144022496Y-137855478D01*
X144022487Y-137855485D01*
X143855485Y-138022487D01*
X143855485Y-138022488D01*
X143855483Y-138022490D01*
X143825335Y-138063985D01*
X143716657Y-138213566D01*
X143609433Y-138424003D01*
X143536446Y-138648631D01*
X143499500Y-138881902D01*
X130500500Y-138881902D01*
X130495567Y-138850758D01*
X130463553Y-138648631D01*
X130390566Y-138424003D01*
X130283342Y-138213566D01*
X130282005Y-138211726D01*
X130144517Y-138022490D01*
X129977510Y-137855483D01*
X129971449Y-137851079D01*
X129851614Y-137764012D01*
X129848274Y-137759681D01*
X129843297Y-137757408D01*
X129827165Y-137732307D01*
X129808948Y-137708682D01*
X129807695Y-137702009D01*
X129805523Y-137698630D01*
X129800500Y-137663695D01*
X129800500Y-137500000D01*
X136914213Y-137500000D01*
X137000000Y-137585786D01*
X137085786Y-137500000D01*
X136914213Y-137500000D01*
X129800500Y-137500000D01*
X129800500Y-134921155D01*
X129800499Y-134921153D01*
X129779887Y-134817532D01*
X129769737Y-134766503D01*
X129769735Y-134766498D01*
X129709397Y-134620827D01*
X129709390Y-134620814D01*
X129621789Y-134489711D01*
X129621786Y-134489707D01*
X129510292Y-134378213D01*
X129510288Y-134378210D01*
X129379185Y-134290609D01*
X129379172Y-134290602D01*
X129233501Y-134230264D01*
X129233489Y-134230261D01*
X129078845Y-134199500D01*
X129078842Y-134199500D01*
X128921158Y-134199500D01*
X128921155Y-134199500D01*
X128766510Y-134230261D01*
X128766498Y-134230264D01*
X128620827Y-134290602D01*
X128620814Y-134290609D01*
X128489711Y-134378210D01*
X128489707Y-134378213D01*
X128378213Y-134489707D01*
X128378210Y-134489711D01*
X128290609Y-134620814D01*
X128290602Y-134620827D01*
X128230264Y-134766498D01*
X128230261Y-134766510D01*
X128199500Y-134921153D01*
X128199500Y-137663695D01*
X128179815Y-137730734D01*
X128148386Y-137764012D01*
X128022496Y-137855478D01*
X128022487Y-137855485D01*
X127855485Y-138022487D01*
X127855485Y-138022488D01*
X127855483Y-138022490D01*
X127825335Y-138063985D01*
X127716657Y-138213566D01*
X127609433Y-138424003D01*
X127536446Y-138648631D01*
X127499500Y-138881902D01*
X122500500Y-138881902D01*
X122463553Y-138648631D01*
X122390566Y-138424003D01*
X122283342Y-138213566D01*
X122282005Y-138211726D01*
X122144517Y-138022490D01*
X121977510Y-137855483D01*
X121786433Y-137716657D01*
X121751053Y-137698630D01*
X121575996Y-137609433D01*
X121351368Y-137536446D01*
X121118097Y-137499500D01*
X121118092Y-137499500D01*
X120881908Y-137499500D01*
X120881903Y-137499500D01*
X120728208Y-137523843D01*
X120722782Y-137523141D01*
X120717656Y-137525054D01*
X120688499Y-137518711D01*
X120658915Y-137514888D01*
X120653311Y-137511056D01*
X120649383Y-137510202D01*
X120621129Y-137489051D01*
X120521619Y-137389541D01*
X120488134Y-137328218D01*
X120485300Y-137301860D01*
X120485300Y-113865555D01*
X120485299Y-113865553D01*
X120470631Y-113791811D01*
X120454537Y-113710903D01*
X120449565Y-113698900D01*
X120394197Y-113565227D01*
X120394190Y-113565214D01*
X120306590Y-113434112D01*
X120306589Y-113434111D01*
X120195089Y-113322611D01*
X119253019Y-112380541D01*
X119219534Y-112319218D01*
X119216700Y-112292860D01*
X119216700Y-112218472D01*
X119216699Y-112218458D01*
X119215257Y-112207512D01*
X119186748Y-111990962D01*
X119127358Y-111769313D01*
X119056356Y-111597900D01*
X119039549Y-111557323D01*
X119039546Y-111557317D01*
X119039544Y-111557312D01*
X118924811Y-111358588D01*
X118924808Y-111358585D01*
X118924807Y-111358582D01*
X118785118Y-111176538D01*
X118785111Y-111176530D01*
X118622870Y-111014289D01*
X118622861Y-111014281D01*
X118440817Y-110874592D01*
X118242090Y-110759857D01*
X118242076Y-110759850D01*
X118030087Y-110672042D01*
X117808438Y-110612652D01*
X117770415Y-110607646D01*
X117580941Y-110582700D01*
X117580934Y-110582700D01*
X115351466Y-110582700D01*
X115351458Y-110582700D01*
X115134915Y-110611209D01*
X115123962Y-110612652D01*
X115030276Y-110637754D01*
X114902312Y-110672042D01*
X114690323Y-110759850D01*
X114690309Y-110759857D01*
X114491582Y-110874592D01*
X114309538Y-111014281D01*
X114309530Y-111014288D01*
X114262240Y-111061580D01*
X114200917Y-111095066D01*
X114174558Y-111097900D01*
X109837757Y-111097900D01*
X109770718Y-111078215D01*
X109762270Y-111072275D01*
X109589617Y-110939792D01*
X109390890Y-110825057D01*
X109390876Y-110825050D01*
X109178887Y-110737242D01*
X108957238Y-110677852D01*
X108919215Y-110672846D01*
X108729741Y-110647900D01*
X108729734Y-110647900D01*
X106500266Y-110647900D01*
X106500258Y-110647900D01*
X106283715Y-110676409D01*
X106272762Y-110677852D01*
X106179076Y-110702954D01*
X106051112Y-110737242D01*
X105839123Y-110825050D01*
X105839109Y-110825057D01*
X105640382Y-110939792D01*
X105458338Y-111079481D01*
X105296081Y-111241738D01*
X105156388Y-111423787D01*
X105091661Y-111535900D01*
X105041094Y-111584115D01*
X104984274Y-111597900D01*
X97236539Y-111597900D01*
X97169500Y-111578215D01*
X97148858Y-111561581D01*
X94441818Y-108854540D01*
X94408333Y-108793217D01*
X94405499Y-108766859D01*
X94405499Y-107487129D01*
X94405498Y-107487123D01*
X94405497Y-107487116D01*
X94399091Y-107427517D01*
X94348796Y-107292669D01*
X94348795Y-107292668D01*
X94348793Y-107292664D01*
X94262547Y-107177455D01*
X94262544Y-107177452D01*
X94147335Y-107091206D01*
X94147328Y-107091202D01*
X94012482Y-107040908D01*
X94012483Y-107040908D01*
X93952883Y-107034501D01*
X93952881Y-107034500D01*
X93952873Y-107034500D01*
X93952864Y-107034500D01*
X92587129Y-107034500D01*
X92587123Y-107034501D01*
X92527516Y-107040908D01*
X92392671Y-107091202D01*
X92392664Y-107091206D01*
X92277455Y-107177452D01*
X92277452Y-107177455D01*
X92191206Y-107292664D01*
X92191202Y-107292671D01*
X92140908Y-107427517D01*
X92134501Y-107487116D01*
X92134501Y-107487123D01*
X92134500Y-107487135D01*
X92134500Y-108350500D01*
X92131949Y-108359185D01*
X92133238Y-108368147D01*
X92122259Y-108392187D01*
X92114815Y-108417539D01*
X92107974Y-108423466D01*
X92104213Y-108431703D01*
X92081978Y-108445992D01*
X92062011Y-108463294D01*
X92051496Y-108465581D01*
X92045435Y-108469477D01*
X92010500Y-108474500D01*
X91989499Y-108474500D01*
X91922460Y-108454815D01*
X91876705Y-108402011D01*
X91865499Y-108350500D01*
X91865499Y-107487129D01*
X91865498Y-107487123D01*
X91865497Y-107487116D01*
X91859091Y-107427517D01*
X91808796Y-107292669D01*
X91808795Y-107292668D01*
X91808793Y-107292664D01*
X91722547Y-107177455D01*
X91722544Y-107177452D01*
X91607335Y-107091206D01*
X91607328Y-107091202D01*
X91472482Y-107040908D01*
X91472483Y-107040908D01*
X91412883Y-107034501D01*
X91412881Y-107034500D01*
X91412873Y-107034500D01*
X91412864Y-107034500D01*
X90047129Y-107034500D01*
X90047123Y-107034501D01*
X89987516Y-107040908D01*
X89852671Y-107091202D01*
X89852664Y-107091206D01*
X89737455Y-107177452D01*
X89737452Y-107177455D01*
X89651206Y-107292664D01*
X89651202Y-107292671D01*
X89600908Y-107427517D01*
X89594501Y-107487116D01*
X89594501Y-107487123D01*
X89594500Y-107487135D01*
X70950000Y-107487135D01*
X70950000Y-106833658D01*
X104864500Y-106833658D01*
X104864500Y-107063141D01*
X104879551Y-107177455D01*
X104894452Y-107290638D01*
X104947101Y-107487128D01*
X104953842Y-107512287D01*
X105041650Y-107724276D01*
X105041657Y-107724290D01*
X105156392Y-107923017D01*
X105296081Y-108105061D01*
X105296089Y-108105070D01*
X105458330Y-108267311D01*
X105458338Y-108267318D01*
X105640382Y-108407007D01*
X105640385Y-108407008D01*
X105640388Y-108407011D01*
X105839112Y-108521744D01*
X105839117Y-108521746D01*
X105839123Y-108521749D01*
X105930480Y-108559590D01*
X106051113Y-108609558D01*
X106272762Y-108668948D01*
X106500266Y-108698900D01*
X106500273Y-108698900D01*
X108729727Y-108698900D01*
X108729734Y-108698900D01*
X108957238Y-108668948D01*
X109178887Y-108609558D01*
X109390888Y-108521744D01*
X109589612Y-108407011D01*
X109771661Y-108267319D01*
X109771665Y-108267314D01*
X109771670Y-108267311D01*
X109933911Y-108105070D01*
X109933914Y-108105065D01*
X109933919Y-108105061D01*
X110073611Y-107923012D01*
X110188344Y-107724288D01*
X110276158Y-107512287D01*
X110335548Y-107290638D01*
X110365500Y-107063134D01*
X110365500Y-106833666D01*
X110335548Y-106606162D01*
X110276158Y-106384513D01*
X110188344Y-106172512D01*
X110073611Y-105973788D01*
X110073608Y-105973785D01*
X110073607Y-105973782D01*
X109933918Y-105791738D01*
X109933911Y-105791730D01*
X109771670Y-105629489D01*
X109771661Y-105629481D01*
X109589617Y-105489792D01*
X109390890Y-105375057D01*
X109390876Y-105375050D01*
X109178887Y-105287242D01*
X108957238Y-105227852D01*
X108919215Y-105222846D01*
X108729741Y-105197900D01*
X108729734Y-105197900D01*
X106500266Y-105197900D01*
X106500258Y-105197900D01*
X106283715Y-105226409D01*
X106272762Y-105227852D01*
X106179076Y-105252954D01*
X106051112Y-105287242D01*
X105839123Y-105375050D01*
X105839109Y-105375057D01*
X105640382Y-105489792D01*
X105458338Y-105629481D01*
X105296081Y-105791738D01*
X105156392Y-105973782D01*
X105041657Y-106172509D01*
X105041650Y-106172523D01*
X104953842Y-106384512D01*
X104894453Y-106606159D01*
X104894451Y-106606170D01*
X104864500Y-106833658D01*
X70950000Y-106833658D01*
X70950000Y-102537135D01*
X89594500Y-102537135D01*
X89594500Y-106312870D01*
X89594501Y-106312876D01*
X89600908Y-106372483D01*
X89651202Y-106507328D01*
X89651206Y-106507335D01*
X89737452Y-106622544D01*
X89737455Y-106622547D01*
X89852664Y-106708793D01*
X89852671Y-106708797D01*
X89987517Y-106759091D01*
X89987516Y-106759091D01*
X89994444Y-106759835D01*
X90047127Y-106765500D01*
X91412872Y-106765499D01*
X91472483Y-106759091D01*
X91607331Y-106708796D01*
X91722546Y-106622546D01*
X91808796Y-106507331D01*
X91859091Y-106372483D01*
X91865500Y-106312873D01*
X91865500Y-105449500D01*
X91868050Y-105440814D01*
X91866762Y-105431853D01*
X91877740Y-105407812D01*
X91885185Y-105382461D01*
X91892025Y-105376533D01*
X91895787Y-105368297D01*
X91918021Y-105354007D01*
X91937989Y-105336706D01*
X91948503Y-105334418D01*
X91954565Y-105330523D01*
X91989500Y-105325500D01*
X92010501Y-105325500D01*
X92077540Y-105345185D01*
X92123295Y-105397989D01*
X92134501Y-105449500D01*
X92134501Y-106312876D01*
X92140908Y-106372483D01*
X92191202Y-106507328D01*
X92191206Y-106507335D01*
X92277452Y-106622544D01*
X92277455Y-106622547D01*
X92392664Y-106708793D01*
X92392671Y-106708797D01*
X92527517Y-106759091D01*
X92527516Y-106759091D01*
X92534444Y-106759835D01*
X92587127Y-106765500D01*
X93952872Y-106765499D01*
X94012483Y-106759091D01*
X94134921Y-106713425D01*
X94147328Y-106708797D01*
X94147327Y-106708797D01*
X94147331Y-106708796D01*
X94262546Y-106622546D01*
X94348796Y-106507331D01*
X94399091Y-106372483D01*
X94405500Y-106312873D01*
X94405499Y-104948738D01*
X94425184Y-104881700D01*
X94441813Y-104861063D01*
X96967659Y-102335219D01*
X97028982Y-102301734D01*
X97055340Y-102298900D01*
X104740501Y-102298900D01*
X104807540Y-102318585D01*
X104853295Y-102371389D01*
X104864501Y-102422900D01*
X104864501Y-102796276D01*
X104870908Y-102855883D01*
X104921202Y-102990728D01*
X104921206Y-102990735D01*
X105007452Y-103105944D01*
X105007455Y-103105947D01*
X105122664Y-103192193D01*
X105122671Y-103192197D01*
X105257517Y-103242491D01*
X105257516Y-103242491D01*
X105264444Y-103243235D01*
X105317127Y-103248900D01*
X109912872Y-103248899D01*
X109972483Y-103242491D01*
X110107331Y-103192196D01*
X110222546Y-103105946D01*
X110308796Y-102990731D01*
X110359091Y-102855883D01*
X110365500Y-102796273D01*
X110365500Y-102731044D01*
X113716200Y-102731044D01*
X113722601Y-102790572D01*
X113722603Y-102790579D01*
X113772845Y-102925286D01*
X113772849Y-102925293D01*
X113859009Y-103040387D01*
X113859012Y-103040390D01*
X113974106Y-103126550D01*
X113974113Y-103126554D01*
X114108820Y-103176796D01*
X114108827Y-103176798D01*
X114168355Y-103183199D01*
X114168372Y-103183200D01*
X115466200Y-103183200D01*
X117466200Y-103183200D01*
X118764028Y-103183200D01*
X118764044Y-103183199D01*
X118823572Y-103176798D01*
X118823579Y-103176796D01*
X118958286Y-103126554D01*
X118958293Y-103126550D01*
X119073387Y-103040390D01*
X119073390Y-103040387D01*
X119159550Y-102925293D01*
X119159554Y-102925286D01*
X119209796Y-102790579D01*
X119209798Y-102790572D01*
X119216199Y-102731044D01*
X119216200Y-102731027D01*
X119216200Y-102433200D01*
X117466200Y-102433200D01*
X117466200Y-103183200D01*
X115466200Y-103183200D01*
X115466200Y-102433200D01*
X113716200Y-102433200D01*
X113716200Y-102731044D01*
X110365500Y-102731044D01*
X110365499Y-101359331D01*
X115716200Y-101359331D01*
X115716200Y-101507069D01*
X115745022Y-101651967D01*
X115801559Y-101788458D01*
X115883637Y-101911297D01*
X115988103Y-102015763D01*
X116110942Y-102097841D01*
X116247433Y-102154378D01*
X116392331Y-102183200D01*
X116540069Y-102183200D01*
X116684967Y-102154378D01*
X116821458Y-102097841D01*
X116944297Y-102015763D01*
X117048763Y-101911297D01*
X117130841Y-101788458D01*
X117187378Y-101651967D01*
X117216200Y-101507069D01*
X117216200Y-101359331D01*
X117187378Y-101214433D01*
X117130841Y-101077942D01*
X117048763Y-100955103D01*
X116944297Y-100850637D01*
X116821458Y-100768559D01*
X116684967Y-100712022D01*
X116540069Y-100683200D01*
X116392331Y-100683200D01*
X116247433Y-100712022D01*
X116110942Y-100768559D01*
X115988103Y-100850637D01*
X115883637Y-100955103D01*
X115801559Y-101077942D01*
X115745022Y-101214433D01*
X115716200Y-101359331D01*
X110365499Y-101359331D01*
X110365499Y-100200529D01*
X110365498Y-100200523D01*
X110365497Y-100200516D01*
X110359563Y-100145304D01*
X110359563Y-100145301D01*
X110359092Y-100140919D01*
X110357017Y-100135355D01*
X113716200Y-100135355D01*
X113716200Y-100433200D01*
X115466200Y-100433200D01*
X117466200Y-100433200D01*
X119216200Y-100433200D01*
X119216200Y-100135372D01*
X119216199Y-100135355D01*
X119209798Y-100075827D01*
X119209797Y-100075823D01*
X119178602Y-99992185D01*
X119178601Y-99992182D01*
X119163672Y-99952155D01*
X133500000Y-99952155D01*
X133500000Y-109000000D01*
X139861325Y-109000000D01*
X139928364Y-109019685D01*
X139974119Y-109072489D01*
X139984063Y-109141647D01*
X139982942Y-109148191D01*
X139933491Y-109396791D01*
X139893949Y-109798286D01*
X139893949Y-110201713D01*
X139933491Y-110603208D01*
X139982942Y-110851809D01*
X139976715Y-110921400D01*
X139933852Y-110976577D01*
X139867962Y-110999822D01*
X139861325Y-111000000D01*
X133500000Y-111000000D01*
X133500000Y-120047844D01*
X133506401Y-120107372D01*
X133506403Y-120107379D01*
X133556645Y-120242086D01*
X133556649Y-120242093D01*
X133642809Y-120357187D01*
X133642812Y-120357190D01*
X133757906Y-120443350D01*
X133757913Y-120443354D01*
X133892620Y-120493596D01*
X133892627Y-120493598D01*
X133952155Y-120499999D01*
X133952172Y-120500000D01*
X143000000Y-120500000D01*
X143000000Y-114138675D01*
X143019685Y-114071636D01*
X143072489Y-114025881D01*
X143141647Y-114015937D01*
X143148194Y-114017058D01*
X143396791Y-114066508D01*
X143798283Y-114106051D01*
X143798286Y-114106051D01*
X144201714Y-114106051D01*
X144201717Y-114106051D01*
X144603209Y-114066508D01*
X144851809Y-114017058D01*
X144921400Y-114023285D01*
X144976577Y-114066148D01*
X144999822Y-114132038D01*
X145000000Y-114138675D01*
X145000000Y-120500000D01*
X154047828Y-120500000D01*
X154047844Y-120499999D01*
X154107372Y-120493598D01*
X154107379Y-120493596D01*
X154242086Y-120443354D01*
X154242093Y-120443350D01*
X154357187Y-120357190D01*
X154357190Y-120357187D01*
X154443350Y-120242093D01*
X154443354Y-120242086D01*
X154493596Y-120107379D01*
X154493598Y-120107372D01*
X154499999Y-120047844D01*
X154500000Y-120047827D01*
X154500000Y-111000000D01*
X148138675Y-111000000D01*
X148071636Y-110980315D01*
X148025881Y-110927511D01*
X148015937Y-110858353D01*
X148017058Y-110851809D01*
X148064629Y-110612653D01*
X148066508Y-110603209D01*
X148106051Y-110201717D01*
X148106051Y-109798283D01*
X148066508Y-109396791D01*
X148017058Y-109148191D01*
X148023285Y-109078600D01*
X148066148Y-109023423D01*
X148132038Y-109000178D01*
X148138675Y-109000000D01*
X154500000Y-109000000D01*
X154500000Y-99952172D01*
X154499999Y-99952155D01*
X154493598Y-99892627D01*
X154493596Y-99892620D01*
X154443354Y-99757913D01*
X154443350Y-99757906D01*
X154357190Y-99642812D01*
X154357187Y-99642809D01*
X154242093Y-99556649D01*
X154242086Y-99556645D01*
X154107379Y-99506403D01*
X154107372Y-99506401D01*
X154047844Y-99500000D01*
X145000000Y-99500000D01*
X145000000Y-105861324D01*
X144980315Y-105928363D01*
X144927511Y-105974118D01*
X144858353Y-105984062D01*
X144851809Y-105982941D01*
X144603208Y-105933491D01*
X144300821Y-105903709D01*
X144201717Y-105893949D01*
X143798283Y-105893949D01*
X143706713Y-105902967D01*
X143396791Y-105933491D01*
X143148191Y-105982941D01*
X143078599Y-105976714D01*
X143023422Y-105933851D01*
X143000178Y-105867961D01*
X143000000Y-105861324D01*
X143000000Y-99500000D01*
X133952155Y-99500000D01*
X133892627Y-99506401D01*
X133892620Y-99506403D01*
X133757913Y-99556645D01*
X133757906Y-99556649D01*
X133642812Y-99642809D01*
X133642809Y-99642812D01*
X133556649Y-99757906D01*
X133556645Y-99757913D01*
X133506403Y-99892620D01*
X133506401Y-99892627D01*
X133500000Y-99952155D01*
X119163672Y-99952155D01*
X119159555Y-99941115D01*
X119159550Y-99941106D01*
X119073390Y-99826012D01*
X119073387Y-99826009D01*
X118958293Y-99739849D01*
X118958286Y-99739845D01*
X118823579Y-99689603D01*
X118823572Y-99689601D01*
X118764044Y-99683200D01*
X117466200Y-99683200D01*
X117466200Y-100433200D01*
X115466200Y-100433200D01*
X115466200Y-99683200D01*
X114168355Y-99683200D01*
X114108827Y-99689601D01*
X114108820Y-99689603D01*
X113974113Y-99739845D01*
X113974106Y-99739849D01*
X113859012Y-99826009D01*
X113859009Y-99826012D01*
X113772849Y-99941106D01*
X113772845Y-99941113D01*
X113722603Y-100075820D01*
X113722601Y-100075827D01*
X113716200Y-100135355D01*
X110357017Y-100135355D01*
X110308797Y-100006071D01*
X110308793Y-100006064D01*
X110222547Y-99890855D01*
X110222544Y-99890852D01*
X110107335Y-99804606D01*
X110107328Y-99804602D01*
X109972482Y-99754308D01*
X109972483Y-99754308D01*
X109912883Y-99747901D01*
X109912881Y-99747900D01*
X109912873Y-99747900D01*
X109912864Y-99747900D01*
X105317129Y-99747900D01*
X105317123Y-99747901D01*
X105257516Y-99754308D01*
X105122671Y-99804602D01*
X105122664Y-99804606D01*
X105007455Y-99890852D01*
X105007452Y-99890855D01*
X104921206Y-100006064D01*
X104921202Y-100006071D01*
X104870908Y-100140917D01*
X104864501Y-100200516D01*
X104864501Y-100200523D01*
X104864500Y-100200535D01*
X104864500Y-100573900D01*
X104844815Y-100640939D01*
X104792011Y-100686694D01*
X104740500Y-100697900D01*
X96593554Y-100697900D01*
X96438909Y-100728661D01*
X96438897Y-100728664D01*
X96396232Y-100746336D01*
X96396233Y-100746337D01*
X96293223Y-100789004D01*
X96293214Y-100789009D01*
X96162112Y-100876609D01*
X96162110Y-100876612D01*
X94579565Y-102459155D01*
X94518242Y-102492640D01*
X94448550Y-102487656D01*
X94392617Y-102445784D01*
X94375702Y-102414807D01*
X94348797Y-102342671D01*
X94348793Y-102342664D01*
X94262547Y-102227455D01*
X94262544Y-102227452D01*
X94147335Y-102141206D01*
X94147328Y-102141202D01*
X94012482Y-102090908D01*
X94012483Y-102090908D01*
X93952883Y-102084501D01*
X93952881Y-102084500D01*
X93952873Y-102084500D01*
X93952864Y-102084500D01*
X92587129Y-102084500D01*
X92587123Y-102084501D01*
X92527516Y-102090908D01*
X92392671Y-102141202D01*
X92392664Y-102141206D01*
X92277455Y-102227452D01*
X92277452Y-102227455D01*
X92191206Y-102342664D01*
X92191202Y-102342671D01*
X92140908Y-102477517D01*
X92134501Y-102537116D01*
X92134501Y-102537123D01*
X92134500Y-102537135D01*
X92134500Y-103400500D01*
X92131949Y-103409185D01*
X92133238Y-103418147D01*
X92122259Y-103442187D01*
X92114815Y-103467539D01*
X92107974Y-103473466D01*
X92104213Y-103481703D01*
X92081978Y-103495992D01*
X92062011Y-103513294D01*
X92051496Y-103515581D01*
X92045435Y-103519477D01*
X92010500Y-103524500D01*
X91989499Y-103524500D01*
X91922460Y-103504815D01*
X91876705Y-103452011D01*
X91865499Y-103400500D01*
X91865499Y-102537129D01*
X91865498Y-102537123D01*
X91865497Y-102537116D01*
X91859091Y-102477517D01*
X91852242Y-102459155D01*
X91808797Y-102342671D01*
X91808793Y-102342664D01*
X91722547Y-102227455D01*
X91722544Y-102227452D01*
X91607335Y-102141206D01*
X91607328Y-102141202D01*
X91472482Y-102090908D01*
X91472483Y-102090908D01*
X91412883Y-102084501D01*
X91412881Y-102084500D01*
X91412873Y-102084500D01*
X91412864Y-102084500D01*
X90047129Y-102084500D01*
X90047123Y-102084501D01*
X89987516Y-102090908D01*
X89852671Y-102141202D01*
X89852664Y-102141206D01*
X89737455Y-102227452D01*
X89737452Y-102227455D01*
X89651206Y-102342664D01*
X89651202Y-102342671D01*
X89600908Y-102477517D01*
X89594501Y-102537116D01*
X89594501Y-102537123D01*
X89594500Y-102537135D01*
X70950000Y-102537135D01*
X70950000Y-93799424D01*
X70969685Y-93732385D01*
X71022489Y-93686630D01*
X71074000Y-93675424D01*
X158826000Y-93675424D01*
X158893039Y-93695109D01*
G37*
%TD.AperFunction*%
%TD*%
%TA.AperFunction,Conductor*%
%TO.N,/Tester_Board/Vcvr2*%
G36*
X158668813Y-26794707D02*
G01*
X158738054Y-26849926D01*
X158776481Y-26929718D01*
X158781470Y-26974000D01*
X158781470Y-79476000D01*
X158761763Y-79562343D01*
X158706544Y-79631584D01*
X158626752Y-79670011D01*
X158582470Y-79675000D01*
X71580470Y-79675000D01*
X71494127Y-79655293D01*
X71424886Y-79600074D01*
X71386459Y-79520282D01*
X71381470Y-79476000D01*
X71381470Y-66537127D01*
X89594500Y-66537127D01*
X89594500Y-66537128D01*
X89594500Y-66537132D01*
X89594500Y-70312876D01*
X89600908Y-70372481D01*
X89651203Y-70507329D01*
X89651207Y-70507335D01*
X89737453Y-70622546D01*
X89823219Y-70686750D01*
X89852669Y-70708796D01*
X89865408Y-70713547D01*
X89939416Y-70762181D01*
X89984997Y-70838114D01*
X89993118Y-70926304D01*
X89962170Y-71009284D01*
X89898283Y-71070619D01*
X89865415Y-71086449D01*
X89852674Y-71091201D01*
X89852664Y-71091207D01*
X89737453Y-71177453D01*
X89651207Y-71292664D01*
X89651204Y-71292669D01*
X89600909Y-71427517D01*
X89594500Y-71487127D01*
X89594500Y-71487128D01*
X89594500Y-71487132D01*
X89594500Y-75262876D01*
X89600908Y-75322481D01*
X89651203Y-75457329D01*
X89651207Y-75457335D01*
X89737453Y-75572546D01*
X89823219Y-75636750D01*
X89852669Y-75658796D01*
X89987517Y-75709091D01*
X90047127Y-75715500D01*
X91412872Y-75715499D01*
X91412876Y-75715499D01*
X91452612Y-75711227D01*
X91472483Y-75709091D01*
X91607331Y-75658796D01*
X91722546Y-75572546D01*
X91808796Y-75457331D01*
X91813546Y-75444592D01*
X91862179Y-75370585D01*
X91938112Y-75325003D01*
X92026302Y-75316881D01*
X92109282Y-75347828D01*
X92170618Y-75411713D01*
X92186450Y-75444586D01*
X92191204Y-75457331D01*
X92191207Y-75457335D01*
X92277453Y-75572546D01*
X92363219Y-75636750D01*
X92392669Y-75658796D01*
X92527517Y-75709091D01*
X92587127Y-75715500D01*
X93952872Y-75715499D01*
X93952876Y-75715499D01*
X93992612Y-75711227D01*
X94012483Y-75709091D01*
X94147331Y-75658796D01*
X94262546Y-75572546D01*
X94348796Y-75457331D01*
X94399091Y-75322483D01*
X94405500Y-75262873D01*
X94405499Y-75240807D01*
X94425203Y-75154469D01*
X94480419Y-75085225D01*
X94560210Y-75046796D01*
X94648774Y-75046793D01*
X94728568Y-75085216D01*
X94745213Y-75100091D01*
X95970851Y-76325728D01*
X95970861Y-76325739D01*
X95977810Y-76332688D01*
X95977811Y-76332689D01*
X96089311Y-76444189D01*
X96219539Y-76531205D01*
X96220418Y-76531792D01*
X96220425Y-76531796D01*
X96346186Y-76583887D01*
X96346188Y-76583888D01*
X96366103Y-76592137D01*
X96366106Y-76592137D01*
X96366107Y-76592138D01*
X96444472Y-76607725D01*
X96520757Y-76622900D01*
X96520758Y-76622900D01*
X105682373Y-76622900D01*
X105768716Y-76642607D01*
X105837957Y-76697826D01*
X105854710Y-76722396D01*
X105897789Y-76797012D01*
X106021449Y-76958168D01*
X106037484Y-76979065D01*
X106199734Y-77141315D01*
X106199738Y-77141318D01*
X106199739Y-77141319D01*
X106381788Y-77281011D01*
X106381792Y-77281013D01*
X106381793Y-77281014D01*
X106381796Y-77281017D01*
X106555565Y-77381341D01*
X106580512Y-77395744D01*
X106792513Y-77483558D01*
X107014162Y-77542948D01*
X107203396Y-77567861D01*
X107241658Y-77572899D01*
X107241664Y-77572900D01*
X107241666Y-77572900D01*
X109471136Y-77572900D01*
X109471139Y-77572899D01*
X109698638Y-77542948D01*
X109920287Y-77483558D01*
X110132288Y-77395744D01*
X110224117Y-77342726D01*
X110331003Y-77281017D01*
X110331004Y-77281015D01*
X110331012Y-77281011D01*
X110483473Y-77164022D01*
X110563969Y-77127095D01*
X110604616Y-77122900D01*
X114998750Y-77122900D01*
X115085093Y-77142607D01*
X115119894Y-77164023D01*
X115253592Y-77266614D01*
X115253596Y-77266617D01*
X115437247Y-77372646D01*
X115452312Y-77381344D01*
X115664313Y-77469158D01*
X115885962Y-77528548D01*
X116075196Y-77553461D01*
X116113458Y-77558499D01*
X116113464Y-77558500D01*
X116113466Y-77558500D01*
X118342936Y-77558500D01*
X118342939Y-77558499D01*
X118570438Y-77528548D01*
X118792087Y-77469158D01*
X119004088Y-77381344D01*
X119095917Y-77328326D01*
X119202803Y-77266617D01*
X119202804Y-77266615D01*
X119202812Y-77266611D01*
X119384861Y-77126919D01*
X119384865Y-77126915D01*
X119384869Y-77126912D01*
X119547112Y-76964669D01*
X119547115Y-76964665D01*
X119547119Y-76964661D01*
X119686811Y-76782612D01*
X119686815Y-76782604D01*
X119686817Y-76782603D01*
X119801544Y-76583888D01*
X119801544Y-76583887D01*
X119889358Y-76371887D01*
X119948748Y-76150238D01*
X119978700Y-75922734D01*
X119978700Y-75693266D01*
X119948748Y-75465762D01*
X119908187Y-75314386D01*
X119889360Y-75244120D01*
X119889359Y-75244119D01*
X119889358Y-75244113D01*
X119801544Y-75032112D01*
X119761997Y-74963614D01*
X119686817Y-74833396D01*
X119686814Y-74833393D01*
X119686813Y-74833392D01*
X119686811Y-74833388D01*
X119547119Y-74651339D01*
X119547118Y-74651338D01*
X119547115Y-74651334D01*
X119384865Y-74489084D01*
X119221578Y-74363789D01*
X119202812Y-74349389D01*
X119202808Y-74349387D01*
X119202806Y-74349385D01*
X119202803Y-74349382D01*
X119004092Y-74234658D01*
X119004083Y-74234654D01*
X118792087Y-74146842D01*
X118792085Y-74146841D01*
X118792079Y-74146839D01*
X118570435Y-74087451D01*
X118342941Y-74057500D01*
X118342934Y-74057500D01*
X116113466Y-74057500D01*
X116113458Y-74057500D01*
X115885969Y-74087450D01*
X115735702Y-74127713D01*
X115647201Y-74131023D01*
X115566027Y-74095607D01*
X115543485Y-74076207D01*
X113888786Y-72421508D01*
X113841667Y-72346520D01*
X113830500Y-72280794D01*
X113830500Y-66205822D01*
X114478200Y-66205822D01*
X114484601Y-66265372D01*
X114484603Y-66265381D01*
X114534846Y-66400087D01*
X114534847Y-66400090D01*
X114621010Y-66515189D01*
X114736109Y-66601352D01*
X114736112Y-66601353D01*
X114870818Y-66651596D01*
X114870827Y-66651598D01*
X114930377Y-66658000D01*
X116228200Y-66658000D01*
X118228200Y-66658000D01*
X119526023Y-66658000D01*
X119585572Y-66651598D01*
X119585581Y-66651596D01*
X119720287Y-66601353D01*
X119720290Y-66601352D01*
X119835389Y-66515189D01*
X119921552Y-66400090D01*
X119921553Y-66400087D01*
X119971796Y-66265381D01*
X119971798Y-66265372D01*
X119978200Y-66205822D01*
X119978200Y-65908000D01*
X118228200Y-65908000D01*
X118228200Y-66658000D01*
X116228200Y-66658000D01*
X116228200Y-65908000D01*
X114478200Y-65908000D01*
X114478200Y-66205822D01*
X113830500Y-66205822D01*
X113830500Y-64834131D01*
X116478200Y-64834131D01*
X116478200Y-64981869D01*
X116507022Y-65126767D01*
X116563559Y-65263258D01*
X116645637Y-65386097D01*
X116750103Y-65490563D01*
X116872942Y-65572641D01*
X117009433Y-65629178D01*
X117154331Y-65658000D01*
X117302069Y-65658000D01*
X117446967Y-65629178D01*
X117583458Y-65572641D01*
X117706297Y-65490563D01*
X117810763Y-65386097D01*
X117892841Y-65263258D01*
X117949378Y-65126767D01*
X117978200Y-64981869D01*
X117978200Y-64834131D01*
X117949378Y-64689233D01*
X117892841Y-64552742D01*
X117810763Y-64429903D01*
X117706297Y-64325437D01*
X117583458Y-64243359D01*
X117446967Y-64186822D01*
X117302069Y-64158000D01*
X117154331Y-64158000D01*
X117009433Y-64186822D01*
X116872942Y-64243359D01*
X116750103Y-64325437D01*
X116645637Y-64429903D01*
X116563559Y-64552742D01*
X116507022Y-64689233D01*
X116478200Y-64834131D01*
X113830500Y-64834131D01*
X113830500Y-63610177D01*
X114478200Y-63610177D01*
X114478200Y-63908000D01*
X116228200Y-63908000D01*
X118228200Y-63908000D01*
X119978200Y-63908000D01*
X119978200Y-63610177D01*
X119971798Y-63550627D01*
X119971796Y-63550618D01*
X119921553Y-63415912D01*
X119921552Y-63415909D01*
X119835389Y-63300810D01*
X119720290Y-63214647D01*
X119720287Y-63214646D01*
X119585581Y-63164403D01*
X119585572Y-63164401D01*
X119526023Y-63158000D01*
X118228200Y-63158000D01*
X118228200Y-63908000D01*
X116228200Y-63908000D01*
X116228200Y-63158000D01*
X114930377Y-63158000D01*
X114870827Y-63164401D01*
X114870818Y-63164403D01*
X114736112Y-63214646D01*
X114736109Y-63214647D01*
X114621010Y-63300810D01*
X114534847Y-63415909D01*
X114534846Y-63415912D01*
X114484603Y-63550618D01*
X114484601Y-63550627D01*
X114478200Y-63610177D01*
X113830500Y-63610177D01*
X113830500Y-55252177D01*
X133900000Y-55252177D01*
X133900000Y-64300000D01*
X140169937Y-64300000D01*
X140256280Y-64319707D01*
X140325521Y-64374926D01*
X140363948Y-64454718D01*
X140365113Y-64537823D01*
X140333492Y-64696789D01*
X140293949Y-65098276D01*
X140293949Y-65501723D01*
X140333492Y-65903210D01*
X140365113Y-66062177D01*
X140362629Y-66150705D01*
X140321981Y-66229389D01*
X140251218Y-66282644D01*
X140169937Y-66300000D01*
X133900000Y-66300000D01*
X133900000Y-75347822D01*
X133906401Y-75407372D01*
X133906403Y-75407381D01*
X133956646Y-75542087D01*
X133956647Y-75542090D01*
X134042810Y-75657189D01*
X134157909Y-75743352D01*
X134157912Y-75743353D01*
X134292618Y-75793596D01*
X134292627Y-75793598D01*
X134352177Y-75800000D01*
X143400000Y-75800000D01*
X143400000Y-69530063D01*
X143419707Y-69443720D01*
X143474926Y-69374479D01*
X143554718Y-69336052D01*
X143637823Y-69334887D01*
X143796791Y-69366508D01*
X144198283Y-69406051D01*
X144198285Y-69406051D01*
X144601715Y-69406051D01*
X144601717Y-69406051D01*
X145003209Y-69366508D01*
X145162177Y-69334887D01*
X145250705Y-69337371D01*
X145329389Y-69378019D01*
X145382644Y-69448782D01*
X145400000Y-69530063D01*
X145400000Y-75800000D01*
X154447823Y-75800000D01*
X154507372Y-75793598D01*
X154507381Y-75793596D01*
X154642087Y-75743353D01*
X154642090Y-75743352D01*
X154757189Y-75657189D01*
X154843352Y-75542090D01*
X154843353Y-75542087D01*
X154893596Y-75407381D01*
X154893598Y-75407372D01*
X154900000Y-75347822D01*
X154900000Y-66300000D01*
X148630063Y-66300000D01*
X148543720Y-66280293D01*
X148474479Y-66225074D01*
X148436052Y-66145282D01*
X148434887Y-66062177D01*
X148435108Y-66061064D01*
X148466508Y-65903209D01*
X148506051Y-65501717D01*
X148506051Y-65098283D01*
X148466508Y-64696791D01*
X148434887Y-64537823D01*
X148437371Y-64449295D01*
X148478019Y-64370611D01*
X148548782Y-64317356D01*
X148630063Y-64300000D01*
X154900000Y-64300000D01*
X154900000Y-55252177D01*
X154893598Y-55192627D01*
X154893596Y-55192618D01*
X154843353Y-55057912D01*
X154843352Y-55057909D01*
X154757189Y-54942810D01*
X154642090Y-54856647D01*
X154642087Y-54856646D01*
X154507381Y-54806403D01*
X154507372Y-54806401D01*
X154447823Y-54800000D01*
X145400000Y-54800000D01*
X145400000Y-61069936D01*
X145380293Y-61156279D01*
X145325074Y-61225520D01*
X145245282Y-61263947D01*
X145162178Y-61265112D01*
X145003212Y-61233492D01*
X144601723Y-61193949D01*
X144601717Y-61193949D01*
X144198283Y-61193949D01*
X144198276Y-61193949D01*
X143796787Y-61233492D01*
X143637822Y-61265112D01*
X143549294Y-61262628D01*
X143470610Y-61221979D01*
X143417356Y-61151216D01*
X143400000Y-61069936D01*
X143400000Y-54800000D01*
X134352177Y-54800000D01*
X134292627Y-54806401D01*
X134292618Y-54806403D01*
X134157912Y-54856646D01*
X134157909Y-54856647D01*
X134042810Y-54942810D01*
X133956647Y-55057909D01*
X133956646Y-55057912D01*
X133906403Y-55192618D01*
X133906401Y-55192627D01*
X133900000Y-55252177D01*
X113830500Y-55252177D01*
X113830500Y-43229005D01*
X113850207Y-43142662D01*
X113888783Y-43088294D01*
X118964109Y-38012967D01*
X119039095Y-37965850D01*
X119127102Y-37955934D01*
X119135901Y-37957125D01*
X119251908Y-37975500D01*
X119251911Y-37975500D01*
X119488092Y-37975500D01*
X119721362Y-37938554D01*
X119721362Y-37938553D01*
X119721368Y-37938553D01*
X119945992Y-37865568D01*
X120156433Y-37758343D01*
X120261961Y-37681671D01*
X120347505Y-37619521D01*
X120347512Y-37619515D01*
X120514515Y-37452512D01*
X120514521Y-37452505D01*
X120653344Y-37261431D01*
X120760565Y-37050998D01*
X120760565Y-37050997D01*
X120760568Y-37050992D01*
X120833553Y-36826368D01*
X120840711Y-36781177D01*
X120870500Y-36593091D01*
X120870500Y-36356908D01*
X127869500Y-36356908D01*
X127869500Y-36593091D01*
X127906445Y-36826362D01*
X127906447Y-36826370D01*
X127979430Y-37050987D01*
X127979434Y-37050998D01*
X128086655Y-37261431D01*
X128225478Y-37452505D01*
X128225484Y-37452512D01*
X128392486Y-37619514D01*
X128487469Y-37688523D01*
X128545738Y-37755218D01*
X128569300Y-37840589D01*
X128569500Y-37849518D01*
X128569500Y-39396158D01*
X128569500Y-39553842D01*
X128584170Y-39627593D01*
X128600262Y-39708493D01*
X128600264Y-39708500D01*
X128660603Y-39854174D01*
X128660606Y-39854179D01*
X128748211Y-39985289D01*
X128859711Y-40096789D01*
X128989939Y-40183805D01*
X128990818Y-40184392D01*
X128990825Y-40184396D01*
X129063662Y-40214565D01*
X129136503Y-40244737D01*
X129291158Y-40275500D01*
X129291159Y-40275500D01*
X129448841Y-40275500D01*
X129448842Y-40275500D01*
X129603497Y-40244737D01*
X129749179Y-40184394D01*
X129880289Y-40096789D01*
X129991789Y-39985289D01*
X130079394Y-39854179D01*
X130139737Y-39708497D01*
X130170500Y-39553842D01*
X130170500Y-39396158D01*
X130170500Y-37975000D01*
X137284213Y-37975000D01*
X137455786Y-37975000D01*
X137370000Y-37889214D01*
X137284213Y-37975000D01*
X130170500Y-37975000D01*
X130170500Y-37849518D01*
X130190207Y-37763175D01*
X130245426Y-37693934D01*
X130252531Y-37688523D01*
X130347510Y-37619517D01*
X130514517Y-37452510D01*
X130653343Y-37261433D01*
X130760568Y-37050992D01*
X130833553Y-36826368D01*
X130840711Y-36781177D01*
X130870500Y-36593091D01*
X130870500Y-36560785D01*
X135870000Y-36560785D01*
X135955785Y-36475000D01*
X138784214Y-36475000D01*
X138870000Y-36560785D01*
X138870000Y-36389214D01*
X138784214Y-36475000D01*
X135955785Y-36475000D01*
X135870000Y-36389214D01*
X135870000Y-36560785D01*
X130870500Y-36560785D01*
X130870500Y-36356909D01*
X130870500Y-36356908D01*
X143869500Y-36356908D01*
X143869500Y-36593091D01*
X143906445Y-36826362D01*
X143906447Y-36826370D01*
X143979430Y-37050987D01*
X143979434Y-37050998D01*
X144086655Y-37261431D01*
X144225478Y-37452505D01*
X144225484Y-37452512D01*
X144392486Y-37619514D01*
X144487469Y-37688523D01*
X144545738Y-37755218D01*
X144569300Y-37840589D01*
X144569500Y-37849518D01*
X144569500Y-39396158D01*
X144569500Y-39553842D01*
X144584170Y-39627593D01*
X144600262Y-39708493D01*
X144600264Y-39708500D01*
X144660603Y-39854174D01*
X144660606Y-39854179D01*
X144748211Y-39985289D01*
X144859711Y-40096789D01*
X144989939Y-40183805D01*
X144990818Y-40184392D01*
X144990825Y-40184396D01*
X145063662Y-40214565D01*
X145136503Y-40244737D01*
X145291158Y-40275500D01*
X145291159Y-40275500D01*
X145448841Y-40275500D01*
X145448842Y-40275500D01*
X145603497Y-40244737D01*
X145749179Y-40184394D01*
X145880289Y-40096789D01*
X145991789Y-39985289D01*
X146079394Y-39854179D01*
X146139737Y-39708497D01*
X146170500Y-39553842D01*
X146170500Y-39396158D01*
X146170500Y-37849518D01*
X146190207Y-37763175D01*
X146245426Y-37693934D01*
X146252531Y-37688523D01*
X146347510Y-37619517D01*
X146514517Y-37452510D01*
X146653343Y-37261433D01*
X146760568Y-37050992D01*
X146833553Y-36826368D01*
X146840711Y-36781177D01*
X146870500Y-36593091D01*
X146870500Y-36356908D01*
X146833554Y-36123637D01*
X146833552Y-36123629D01*
X146760568Y-35899008D01*
X146760566Y-35899004D01*
X146760565Y-35899001D01*
X146653344Y-35688568D01*
X146514521Y-35497494D01*
X146514515Y-35497487D01*
X146347512Y-35330484D01*
X146347505Y-35330478D01*
X146156431Y-35191655D01*
X145945998Y-35084434D01*
X145945987Y-35084430D01*
X145721370Y-35011447D01*
X145721362Y-35011445D01*
X145488092Y-34974500D01*
X145251908Y-34974500D01*
X145018637Y-35011445D01*
X145018629Y-35011447D01*
X144794012Y-35084430D01*
X144794001Y-35084434D01*
X144583568Y-35191655D01*
X144392494Y-35330478D01*
X144392487Y-35330484D01*
X144225484Y-35497487D01*
X144225478Y-35497494D01*
X144086655Y-35688568D01*
X143979434Y-35899001D01*
X143979430Y-35899012D01*
X143906447Y-36123629D01*
X143906445Y-36123637D01*
X143869500Y-36356908D01*
X130870500Y-36356908D01*
X130859487Y-36287377D01*
X130859487Y-36287376D01*
X130833554Y-36123637D01*
X130833552Y-36123629D01*
X130760568Y-35899008D01*
X130760566Y-35899004D01*
X130760565Y-35899001D01*
X130653344Y-35688568D01*
X130514521Y-35497494D01*
X130514515Y-35497487D01*
X130347512Y-35330484D01*
X130347505Y-35330478D01*
X130156435Y-35191658D01*
X130156427Y-35191653D01*
X129945998Y-35084434D01*
X129945987Y-35084430D01*
X129721370Y-35011447D01*
X129721362Y-35011445D01*
X129491249Y-34975000D01*
X137284214Y-34975000D01*
X137370000Y-35060785D01*
X137455786Y-34975000D01*
X137284214Y-34975000D01*
X129491249Y-34975000D01*
X129488092Y-34974500D01*
X129251908Y-34974500D01*
X129018637Y-35011445D01*
X129018629Y-35011447D01*
X128794012Y-35084430D01*
X128794001Y-35084434D01*
X128583568Y-35191655D01*
X128392494Y-35330478D01*
X128392487Y-35330484D01*
X128225484Y-35497487D01*
X128225478Y-35497494D01*
X128086655Y-35688568D01*
X127979434Y-35899001D01*
X127979430Y-35899012D01*
X127906447Y-36123629D01*
X127906445Y-36123637D01*
X127869500Y-36356908D01*
X120870500Y-36356908D01*
X120833554Y-36123637D01*
X120833552Y-36123629D01*
X120760568Y-35899008D01*
X120760566Y-35899004D01*
X120760565Y-35899001D01*
X120653344Y-35688568D01*
X120514521Y-35497494D01*
X120514515Y-35497487D01*
X120347512Y-35330484D01*
X120347505Y-35330478D01*
X120156431Y-35191655D01*
X119945998Y-35084434D01*
X119945987Y-35084430D01*
X119721370Y-35011447D01*
X119721362Y-35011445D01*
X119488092Y-34974500D01*
X119251908Y-34974500D01*
X119018637Y-35011445D01*
X119018629Y-35011447D01*
X118794012Y-35084430D01*
X118794001Y-35084434D01*
X118583568Y-35191655D01*
X118392494Y-35330478D01*
X118392487Y-35330484D01*
X118225484Y-35497487D01*
X118225478Y-35497494D01*
X118086655Y-35688568D01*
X117979434Y-35899001D01*
X117979430Y-35899012D01*
X117906447Y-36123629D01*
X117906445Y-36123637D01*
X117869500Y-36356908D01*
X117869500Y-36593091D01*
X117887865Y-36709047D01*
X117881907Y-36797410D01*
X117838200Y-36874437D01*
X117832029Y-36880891D01*
X112519711Y-42193211D01*
X112408214Y-42304707D01*
X112408208Y-42304715D01*
X112320607Y-42435818D01*
X112320603Y-42435825D01*
X112260264Y-42581499D01*
X112260262Y-42581506D01*
X112229500Y-42736158D01*
X112229500Y-72773641D01*
X112260262Y-72928293D01*
X112260264Y-72928300D01*
X112320603Y-73073974D01*
X112320606Y-73073979D01*
X112408211Y-73205089D01*
X112408214Y-73205092D01*
X113385308Y-74182186D01*
X113432427Y-74257174D01*
X113442343Y-74345181D01*
X113413092Y-74428774D01*
X113350468Y-74491398D01*
X113266875Y-74520649D01*
X113244594Y-74521900D01*
X110604616Y-74521900D01*
X110518273Y-74502193D01*
X110483475Y-74480779D01*
X110331012Y-74363789D01*
X110331008Y-74363787D01*
X110331006Y-74363785D01*
X110331003Y-74363782D01*
X110132292Y-74249058D01*
X110132283Y-74249054D01*
X110097523Y-74234656D01*
X109920287Y-74161242D01*
X109920285Y-74161241D01*
X109920279Y-74161239D01*
X109698635Y-74101851D01*
X109471141Y-74071900D01*
X109471134Y-74071900D01*
X107241666Y-74071900D01*
X107241658Y-74071900D01*
X107014164Y-74101851D01*
X107014163Y-74101851D01*
X106792520Y-74161239D01*
X106792510Y-74161243D01*
X106580516Y-74249054D01*
X106580507Y-74249058D01*
X106381796Y-74363782D01*
X106381793Y-74363785D01*
X106199734Y-74503484D01*
X106199731Y-74503488D01*
X106037488Y-74665731D01*
X106037484Y-74665734D01*
X105897788Y-74847789D01*
X105854713Y-74922399D01*
X105794475Y-74987321D01*
X105712034Y-75019677D01*
X105682373Y-75021900D01*
X97013605Y-75021900D01*
X96927262Y-75002193D01*
X96872891Y-74963614D01*
X94662492Y-72753214D01*
X94662491Y-72753213D01*
X94662489Y-72753211D01*
X94596493Y-72709114D01*
X94531381Y-72665607D01*
X94531372Y-72665602D01*
X94528344Y-72664348D01*
X94526262Y-72662871D01*
X94522758Y-72660998D01*
X94522995Y-72660553D01*
X94456115Y-72613099D01*
X94413276Y-72535586D01*
X94405499Y-72480497D01*
X94405499Y-71487123D01*
X94399091Y-71427518D01*
X94398152Y-71424999D01*
X94348796Y-71292669D01*
X94326750Y-71263219D01*
X94262546Y-71177453D01*
X94147335Y-71091207D01*
X94147329Y-71091203D01*
X94141834Y-71089153D01*
X94134590Y-71086452D01*
X94060580Y-71037815D01*
X94015001Y-70961881D01*
X94006882Y-70873691D01*
X94037831Y-70790711D01*
X94101719Y-70729378D01*
X94134588Y-70713548D01*
X94147331Y-70708796D01*
X94262546Y-70622546D01*
X94348796Y-70507331D01*
X94399091Y-70372483D01*
X94405500Y-70312873D01*
X94405500Y-70257658D01*
X105605900Y-70257658D01*
X105605900Y-70487141D01*
X105635851Y-70714635D01*
X105635851Y-70714636D01*
X105695239Y-70936279D01*
X105695241Y-70936285D01*
X105695242Y-70936287D01*
X105738578Y-71040909D01*
X105783054Y-71148283D01*
X105783058Y-71148292D01*
X105897782Y-71347003D01*
X105897785Y-71347006D01*
X105897787Y-71347008D01*
X105897789Y-71347012D01*
X106005308Y-71487132D01*
X106037484Y-71529065D01*
X106199734Y-71691315D01*
X106199738Y-71691318D01*
X106199739Y-71691319D01*
X106381788Y-71831011D01*
X106381792Y-71831013D01*
X106381793Y-71831014D01*
X106381796Y-71831017D01*
X106565447Y-71937046D01*
X106580512Y-71945744D01*
X106792513Y-72033558D01*
X107014162Y-72092948D01*
X107203396Y-72117861D01*
X107241658Y-72122899D01*
X107241664Y-72122900D01*
X107241666Y-72122900D01*
X109471136Y-72122900D01*
X109471139Y-72122899D01*
X109698638Y-72092948D01*
X109920287Y-72033558D01*
X110132288Y-71945744D01*
X110224117Y-71892726D01*
X110331003Y-71831017D01*
X110331004Y-71831015D01*
X110331012Y-71831011D01*
X110513061Y-71691319D01*
X110513065Y-71691315D01*
X110513069Y-71691312D01*
X110675312Y-71529069D01*
X110675315Y-71529065D01*
X110675319Y-71529061D01*
X110815011Y-71347012D01*
X110815015Y-71347004D01*
X110815017Y-71347003D01*
X110912905Y-71177454D01*
X110929744Y-71148288D01*
X111017558Y-70936287D01*
X111076948Y-70714638D01*
X111106900Y-70487134D01*
X111106900Y-70257666D01*
X111076948Y-70030162D01*
X111017558Y-69808513D01*
X110929744Y-69596512D01*
X110891380Y-69530063D01*
X110815017Y-69397796D01*
X110815014Y-69397793D01*
X110815013Y-69397792D01*
X110815011Y-69397788D01*
X110675319Y-69215739D01*
X110675318Y-69215738D01*
X110675315Y-69215734D01*
X110513065Y-69053484D01*
X110464610Y-69016303D01*
X110331012Y-68913789D01*
X110331008Y-68913787D01*
X110331006Y-68913785D01*
X110331003Y-68913782D01*
X110132292Y-68799058D01*
X110132283Y-68799054D01*
X109920289Y-68711243D01*
X109920279Y-68711239D01*
X109698635Y-68651851D01*
X109471141Y-68621900D01*
X109471134Y-68621900D01*
X107241666Y-68621900D01*
X107241658Y-68621900D01*
X107014164Y-68651851D01*
X107014163Y-68651851D01*
X106792520Y-68711239D01*
X106792510Y-68711243D01*
X106580516Y-68799054D01*
X106580507Y-68799058D01*
X106381796Y-68913782D01*
X106381793Y-68913785D01*
X106199734Y-69053484D01*
X106199731Y-69053488D01*
X106037488Y-69215731D01*
X106037484Y-69215734D01*
X105897785Y-69397793D01*
X105897782Y-69397796D01*
X105783058Y-69596507D01*
X105783054Y-69596516D01*
X105695243Y-69808510D01*
X105695239Y-69808520D01*
X105635851Y-70030163D01*
X105635851Y-70030164D01*
X105605900Y-70257658D01*
X94405500Y-70257658D01*
X94405499Y-69279434D01*
X94425206Y-69193092D01*
X94480424Y-69123851D01*
X94493923Y-69113984D01*
X94594489Y-69046789D01*
X97860092Y-65781186D01*
X97935080Y-65734067D01*
X98000806Y-65722900D01*
X105406901Y-65722900D01*
X105493244Y-65742607D01*
X105562485Y-65797826D01*
X105600912Y-65877618D01*
X105605901Y-65921900D01*
X105605901Y-66220276D01*
X105612308Y-66279881D01*
X105662603Y-66414729D01*
X105662607Y-66414735D01*
X105748853Y-66529946D01*
X105834619Y-66594150D01*
X105864069Y-66616196D01*
X105998917Y-66666491D01*
X106058527Y-66672900D01*
X110654272Y-66672899D01*
X110654276Y-66672899D01*
X110694012Y-66668627D01*
X110713883Y-66666491D01*
X110848731Y-66616196D01*
X110963946Y-66529946D01*
X111050196Y-66414731D01*
X111100491Y-66279883D01*
X111106900Y-66220273D01*
X111106899Y-63624528D01*
X111106899Y-63624527D01*
X111106899Y-63624523D01*
X111100491Y-63564918D01*
X111095158Y-63550618D01*
X111050196Y-63430069D01*
X111028150Y-63400619D01*
X110963946Y-63314853D01*
X110848735Y-63228607D01*
X110848731Y-63228604D01*
X110713883Y-63178309D01*
X110654273Y-63171900D01*
X110654268Y-63171900D01*
X109355900Y-63171900D01*
X109269557Y-63152193D01*
X109200316Y-63096974D01*
X109161889Y-63017182D01*
X109156900Y-62972900D01*
X109156900Y-40902605D01*
X109176607Y-40816262D01*
X109215183Y-40761894D01*
X111964109Y-38012967D01*
X112039095Y-37965850D01*
X112127102Y-37955934D01*
X112135901Y-37957125D01*
X112251908Y-37975500D01*
X112251911Y-37975500D01*
X112488092Y-37975500D01*
X112721362Y-37938554D01*
X112721362Y-37938553D01*
X112721368Y-37938553D01*
X112945992Y-37865568D01*
X113156433Y-37758343D01*
X113261961Y-37681671D01*
X113347505Y-37619521D01*
X113347512Y-37619515D01*
X113514515Y-37452512D01*
X113514521Y-37452505D01*
X113653344Y-37261431D01*
X113760565Y-37050998D01*
X113760565Y-37050997D01*
X113760568Y-37050992D01*
X113833553Y-36826368D01*
X113840711Y-36781177D01*
X113870500Y-36593091D01*
X113870500Y-36356908D01*
X113833554Y-36123637D01*
X113833552Y-36123629D01*
X113760568Y-35899008D01*
X113760566Y-35899004D01*
X113760565Y-35899001D01*
X113653344Y-35688568D01*
X113514521Y-35497494D01*
X113514515Y-35497487D01*
X113347512Y-35330484D01*
X113347505Y-35330478D01*
X113156431Y-35191655D01*
X112945998Y-35084434D01*
X112945987Y-35084430D01*
X112721370Y-35011447D01*
X112721362Y-35011445D01*
X112488092Y-34974500D01*
X112251908Y-34974500D01*
X112018637Y-35011445D01*
X112018629Y-35011447D01*
X111794012Y-35084430D01*
X111794001Y-35084434D01*
X111583568Y-35191655D01*
X111392494Y-35330478D01*
X111392487Y-35330484D01*
X111225484Y-35497487D01*
X111225478Y-35497494D01*
X111086655Y-35688568D01*
X110979434Y-35899001D01*
X110979430Y-35899012D01*
X110906447Y-36123629D01*
X110906445Y-36123637D01*
X110869500Y-36356908D01*
X110869500Y-36593091D01*
X110887865Y-36709047D01*
X110881907Y-36797410D01*
X110838200Y-36874437D01*
X110832029Y-36880891D01*
X107846111Y-39866811D01*
X107734614Y-39978307D01*
X107734608Y-39978315D01*
X107647007Y-40109418D01*
X107647003Y-40109425D01*
X107586664Y-40255099D01*
X107586662Y-40255106D01*
X107555900Y-40409758D01*
X107555900Y-62972900D01*
X107536193Y-63059243D01*
X107480974Y-63128484D01*
X107401182Y-63166911D01*
X107356900Y-63171900D01*
X106058523Y-63171900D01*
X105998918Y-63178308D01*
X105864070Y-63228603D01*
X105864064Y-63228607D01*
X105748853Y-63314853D01*
X105662607Y-63430064D01*
X105662604Y-63430069D01*
X105612309Y-63564917D01*
X105605900Y-63624527D01*
X105605900Y-63624528D01*
X105605900Y-63624532D01*
X105605900Y-63922900D01*
X105586193Y-64009243D01*
X105530974Y-64078484D01*
X105451182Y-64116911D01*
X105406900Y-64121900D01*
X97665642Y-64121900D01*
X97507957Y-64121900D01*
X97456871Y-64132061D01*
X97353305Y-64152662D01*
X97353298Y-64152664D01*
X97310632Y-64170336D01*
X97310633Y-64170337D01*
X97207622Y-64213005D01*
X97207618Y-64213007D01*
X97076515Y-64300608D01*
X97076507Y-64300614D01*
X94741790Y-66635331D01*
X94666801Y-66682450D01*
X94578795Y-66692366D01*
X94495202Y-66663115D01*
X94432578Y-66600491D01*
X94403327Y-66516898D01*
X94403216Y-66515886D01*
X94399091Y-66477518D01*
X94398152Y-66474999D01*
X94348796Y-66342669D01*
X94316025Y-66298892D01*
X94262546Y-66227453D01*
X94147335Y-66141207D01*
X94147331Y-66141204D01*
X94012483Y-66090909D01*
X93952873Y-66084500D01*
X93952867Y-66084500D01*
X92587123Y-66084500D01*
X92527518Y-66090908D01*
X92392670Y-66141203D01*
X92392664Y-66141207D01*
X92277453Y-66227453D01*
X92191207Y-66342664D01*
X92191202Y-66342672D01*
X92186452Y-66355409D01*
X92137813Y-66429421D01*
X92061879Y-66474999D01*
X91973688Y-66483117D01*
X91890709Y-66452166D01*
X91829376Y-66388278D01*
X91813548Y-66355409D01*
X91808797Y-66342672D01*
X91808796Y-66342670D01*
X91808796Y-66342669D01*
X91776025Y-66298892D01*
X91722546Y-66227453D01*
X91607335Y-66141207D01*
X91607331Y-66141204D01*
X91472483Y-66090909D01*
X91412873Y-66084500D01*
X91412867Y-66084500D01*
X90047123Y-66084500D01*
X89987518Y-66090908D01*
X89852670Y-66141203D01*
X89852664Y-66141207D01*
X89737453Y-66227453D01*
X89651207Y-66342664D01*
X89651204Y-66342669D01*
X89600909Y-66477517D01*
X89594500Y-66537127D01*
X71381470Y-66537127D01*
X71381470Y-39895660D01*
X77978000Y-39895660D01*
X77978000Y-40166040D01*
X78013291Y-40434107D01*
X78013293Y-40434115D01*
X78013294Y-40434119D01*
X78083270Y-40695271D01*
X78083272Y-40695277D01*
X78186738Y-40945067D01*
X78186739Y-40945068D01*
X78186741Y-40945072D01*
X78256303Y-41065557D01*
X78321928Y-41179224D01*
X78486531Y-41393739D01*
X78677710Y-41584918D01*
X78677714Y-41584921D01*
X78677715Y-41584922D01*
X78892222Y-41749519D01*
X79126378Y-41884709D01*
X79126381Y-41884710D01*
X79126382Y-41884711D01*
X79251277Y-41936444D01*
X79376176Y-41988179D01*
X79637343Y-42058159D01*
X79905410Y-42093450D01*
X79905413Y-42093450D01*
X80175787Y-42093450D01*
X80175790Y-42093450D01*
X80443857Y-42058159D01*
X80705024Y-41988179D01*
X80954822Y-41884709D01*
X81188978Y-41749519D01*
X81403485Y-41584922D01*
X81403489Y-41584918D01*
X81403493Y-41584915D01*
X81594665Y-41393743D01*
X81594668Y-41393739D01*
X81594672Y-41393735D01*
X81759269Y-41179228D01*
X81894459Y-40945072D01*
X81997929Y-40695274D01*
X82067909Y-40434107D01*
X82103200Y-40166040D01*
X82103200Y-39895660D01*
X88773000Y-39895660D01*
X88773000Y-40166040D01*
X88808291Y-40434107D01*
X88808293Y-40434115D01*
X88808294Y-40434119D01*
X88878270Y-40695271D01*
X88878272Y-40695277D01*
X88981738Y-40945067D01*
X88981739Y-40945068D01*
X88981741Y-40945072D01*
X89051303Y-41065557D01*
X89116928Y-41179224D01*
X89281531Y-41393739D01*
X89472710Y-41584918D01*
X89472714Y-41584921D01*
X89472715Y-41584922D01*
X89687222Y-41749519D01*
X89921378Y-41884709D01*
X89921381Y-41884710D01*
X89921382Y-41884711D01*
X90046277Y-41936444D01*
X90171176Y-41988179D01*
X90432343Y-42058159D01*
X90700410Y-42093450D01*
X90700413Y-42093450D01*
X90970787Y-42093450D01*
X90970790Y-42093450D01*
X91238857Y-42058159D01*
X91500024Y-41988179D01*
X91749822Y-41884709D01*
X91983978Y-41749519D01*
X92198485Y-41584922D01*
X92198489Y-41584918D01*
X92198493Y-41584915D01*
X92389665Y-41393743D01*
X92389668Y-41393739D01*
X92389672Y-41393735D01*
X92554269Y-41179228D01*
X92689459Y-40945072D01*
X92792929Y-40695274D01*
X92862909Y-40434107D01*
X92898200Y-40166040D01*
X92898200Y-39895660D01*
X92862909Y-39627593D01*
X92792929Y-39366426D01*
X92689459Y-39116628D01*
X92554269Y-38882472D01*
X92389672Y-38667965D01*
X92389671Y-38667964D01*
X92389668Y-38667960D01*
X92198489Y-38476781D01*
X91983974Y-38312178D01*
X91870307Y-38246553D01*
X91749822Y-38176991D01*
X91749818Y-38176989D01*
X91749817Y-38176988D01*
X91500027Y-38073522D01*
X91500021Y-38073520D01*
X91238869Y-38003544D01*
X91238865Y-38003543D01*
X91238857Y-38003541D01*
X90970790Y-37968250D01*
X90700410Y-37968250D01*
X90432343Y-38003541D01*
X90432337Y-38003542D01*
X90432330Y-38003544D01*
X90171178Y-38073520D01*
X90171172Y-38073522D01*
X89921382Y-38176988D01*
X89921380Y-38176990D01*
X89687225Y-38312178D01*
X89472710Y-38476781D01*
X89472707Y-38476785D01*
X89281535Y-38667957D01*
X89281531Y-38667960D01*
X89116928Y-38882475D01*
X88981740Y-39116630D01*
X88981738Y-39116632D01*
X88878272Y-39366422D01*
X88878270Y-39366428D01*
X88828053Y-39553842D01*
X88808291Y-39627593D01*
X88773000Y-39895660D01*
X82103200Y-39895660D01*
X82067909Y-39627593D01*
X81997929Y-39366426D01*
X81894459Y-39116628D01*
X81759269Y-38882472D01*
X81594672Y-38667965D01*
X81594671Y-38667964D01*
X81594668Y-38667960D01*
X81403489Y-38476781D01*
X81188974Y-38312178D01*
X81075307Y-38246553D01*
X80954822Y-38176991D01*
X80954818Y-38176989D01*
X80954817Y-38176988D01*
X80705027Y-38073522D01*
X80705021Y-38073520D01*
X80443869Y-38003544D01*
X80443865Y-38003543D01*
X80443857Y-38003541D01*
X80175790Y-37968250D01*
X79905410Y-37968250D01*
X79637343Y-38003541D01*
X79637337Y-38003542D01*
X79637330Y-38003544D01*
X79376178Y-38073520D01*
X79376172Y-38073522D01*
X79126382Y-38176988D01*
X79126380Y-38176990D01*
X78892225Y-38312178D01*
X78677710Y-38476781D01*
X78677707Y-38476785D01*
X78486535Y-38667957D01*
X78486531Y-38667960D01*
X78321928Y-38882475D01*
X78186740Y-39116630D01*
X78186738Y-39116632D01*
X78083272Y-39366422D01*
X78083270Y-39366428D01*
X78033053Y-39553842D01*
X78013291Y-39627593D01*
X77978000Y-39895660D01*
X71381470Y-39895660D01*
X71381470Y-35068526D01*
X71401177Y-34982183D01*
X71456396Y-34912942D01*
X71536188Y-34874515D01*
X71558177Y-34870779D01*
X71784202Y-34845312D01*
X72047061Y-34785316D01*
X72301549Y-34696267D01*
X72317345Y-34688660D01*
X77978000Y-34688660D01*
X77978000Y-34959040D01*
X78013291Y-35227107D01*
X78013293Y-35227115D01*
X78013294Y-35227119D01*
X78083270Y-35488271D01*
X78083272Y-35488277D01*
X78186738Y-35738067D01*
X78186739Y-35738068D01*
X78186741Y-35738072D01*
X78256303Y-35858557D01*
X78321928Y-35972224D01*
X78486531Y-36186739D01*
X78677710Y-36377918D01*
X78677714Y-36377921D01*
X78677715Y-36377922D01*
X78892222Y-36542519D01*
X79126378Y-36677709D01*
X79126381Y-36677710D01*
X79126382Y-36677711D01*
X79202034Y-36709047D01*
X79376176Y-36781179D01*
X79637343Y-36851159D01*
X79905410Y-36886450D01*
X79905413Y-36886450D01*
X80175787Y-36886450D01*
X80175790Y-36886450D01*
X80443857Y-36851159D01*
X80705024Y-36781179D01*
X80954822Y-36677709D01*
X81188978Y-36542519D01*
X81403485Y-36377922D01*
X81403489Y-36377918D01*
X81403493Y-36377915D01*
X81594665Y-36186743D01*
X81594668Y-36186739D01*
X81594672Y-36186735D01*
X81759269Y-35972228D01*
X81894459Y-35738072D01*
X81997929Y-35488274D01*
X82067909Y-35227107D01*
X82103200Y-34959040D01*
X82103200Y-34688660D01*
X88773000Y-34688660D01*
X88773000Y-34959040D01*
X88808291Y-35227107D01*
X88808293Y-35227115D01*
X88808294Y-35227119D01*
X88878270Y-35488271D01*
X88878272Y-35488277D01*
X88981738Y-35738067D01*
X88981739Y-35738068D01*
X88981741Y-35738072D01*
X89051303Y-35858557D01*
X89116928Y-35972224D01*
X89281531Y-36186739D01*
X89472710Y-36377918D01*
X89472714Y-36377921D01*
X89472715Y-36377922D01*
X89687222Y-36542519D01*
X89921378Y-36677709D01*
X89921381Y-36677710D01*
X89921382Y-36677711D01*
X89997034Y-36709047D01*
X90171176Y-36781179D01*
X90432343Y-36851159D01*
X90700410Y-36886450D01*
X90700413Y-36886450D01*
X90970787Y-36886450D01*
X90970790Y-36886450D01*
X91238857Y-36851159D01*
X91500024Y-36781179D01*
X91749822Y-36677709D01*
X91983978Y-36542519D01*
X92198485Y-36377922D01*
X92198489Y-36377918D01*
X92198493Y-36377915D01*
X92389665Y-36186743D01*
X92389668Y-36186739D01*
X92389672Y-36186735D01*
X92554269Y-35972228D01*
X92689459Y-35738072D01*
X92792929Y-35488274D01*
X92862909Y-35227107D01*
X92898200Y-34959040D01*
X92898200Y-34688660D01*
X92862909Y-34420593D01*
X92792929Y-34159426D01*
X92689459Y-33909628D01*
X92554269Y-33675472D01*
X92389672Y-33460965D01*
X92389671Y-33460964D01*
X92389668Y-33460960D01*
X92198489Y-33269781D01*
X91983974Y-33105178D01*
X91870307Y-33039553D01*
X91749822Y-32969991D01*
X91749818Y-32969989D01*
X91749817Y-32969988D01*
X91500027Y-32866522D01*
X91500021Y-32866520D01*
X91238869Y-32796544D01*
X91238865Y-32796543D01*
X91238857Y-32796541D01*
X90970790Y-32761250D01*
X90700410Y-32761250D01*
X90432343Y-32796541D01*
X90432337Y-32796542D01*
X90432330Y-32796544D01*
X90171178Y-32866520D01*
X90171172Y-32866522D01*
X89921382Y-32969988D01*
X89921380Y-32969990D01*
X89687225Y-33105178D01*
X89472710Y-33269781D01*
X89472707Y-33269785D01*
X89281535Y-33460957D01*
X89281531Y-33460960D01*
X89116928Y-33675475D01*
X88981740Y-33909630D01*
X88981738Y-33909632D01*
X88878272Y-34159422D01*
X88878270Y-34159428D01*
X88849248Y-34267741D01*
X88808291Y-34420593D01*
X88773000Y-34688660D01*
X82103200Y-34688660D01*
X82067909Y-34420593D01*
X81997929Y-34159426D01*
X81894459Y-33909628D01*
X81759269Y-33675472D01*
X81594672Y-33460965D01*
X81594671Y-33460964D01*
X81594668Y-33460960D01*
X81403489Y-33269781D01*
X81188974Y-33105178D01*
X81075307Y-33039553D01*
X80954822Y-32969991D01*
X80954818Y-32969989D01*
X80954817Y-32969988D01*
X80705027Y-32866522D01*
X80705021Y-32866520D01*
X80443869Y-32796544D01*
X80443865Y-32796543D01*
X80443857Y-32796541D01*
X80175790Y-32761250D01*
X79905410Y-32761250D01*
X79637343Y-32796541D01*
X79637337Y-32796542D01*
X79637330Y-32796544D01*
X79376178Y-32866520D01*
X79376172Y-32866522D01*
X79126382Y-32969988D01*
X79126380Y-32969990D01*
X78892225Y-33105178D01*
X78677710Y-33269781D01*
X78677707Y-33269785D01*
X78486535Y-33460957D01*
X78486531Y-33460960D01*
X78321928Y-33675475D01*
X78186740Y-33909630D01*
X78186738Y-33909632D01*
X78083272Y-34159422D01*
X78083270Y-34159428D01*
X78054248Y-34267741D01*
X78013291Y-34420593D01*
X77978000Y-34688660D01*
X72317345Y-34688660D01*
X72544467Y-34579284D01*
X72772759Y-34435838D01*
X72772770Y-34435828D01*
X72772776Y-34435825D01*
X72983546Y-34267741D01*
X72983555Y-34267734D01*
X73174204Y-34077085D01*
X73214785Y-34026197D01*
X73342295Y-33866306D01*
X73342298Y-33866300D01*
X73342308Y-33866289D01*
X73485754Y-33637997D01*
X73602737Y-33395079D01*
X73691786Y-33140591D01*
X73751782Y-32877732D01*
X73781970Y-32609809D01*
X73781970Y-32340191D01*
X73751782Y-32072268D01*
X73691786Y-31809409D01*
X73602737Y-31554921D01*
X73485754Y-31312003D01*
X73342308Y-31083711D01*
X73342303Y-31083705D01*
X73342295Y-31083693D01*
X73174211Y-30872923D01*
X73174203Y-30872914D01*
X72983555Y-30682266D01*
X72983546Y-30682258D01*
X72772776Y-30514174D01*
X72772763Y-30514165D01*
X72772761Y-30514164D01*
X72772759Y-30514162D01*
X72544467Y-30370716D01*
X72301549Y-30253733D01*
X72301543Y-30253731D01*
X72301533Y-30253727D01*
X72047065Y-30164685D01*
X72047066Y-30164685D01*
X71974374Y-30148093D01*
X71784202Y-30104688D01*
X71784198Y-30104687D01*
X71784196Y-30104687D01*
X71558189Y-30079222D01*
X71474595Y-30049971D01*
X71411972Y-29987347D01*
X71382721Y-29903754D01*
X71381470Y-29881473D01*
X71381470Y-29481660D01*
X77978000Y-29481660D01*
X77978000Y-29752040D01*
X78013291Y-30020107D01*
X78013293Y-30020115D01*
X78013294Y-30020119D01*
X78083270Y-30281271D01*
X78083272Y-30281277D01*
X78186738Y-30531067D01*
X78186739Y-30531068D01*
X78186741Y-30531072D01*
X78256303Y-30651557D01*
X78321928Y-30765224D01*
X78486531Y-30979739D01*
X78677710Y-31170918D01*
X78677714Y-31170921D01*
X78677715Y-31170922D01*
X78892222Y-31335519D01*
X79126378Y-31470709D01*
X79126381Y-31470710D01*
X79126382Y-31470711D01*
X79251277Y-31522444D01*
X79376176Y-31574179D01*
X79637343Y-31644159D01*
X79905410Y-31679450D01*
X79905413Y-31679450D01*
X80175787Y-31679450D01*
X80175790Y-31679450D01*
X80443857Y-31644159D01*
X80705024Y-31574179D01*
X80954822Y-31470709D01*
X81188978Y-31335519D01*
X81403485Y-31170922D01*
X81403489Y-31170918D01*
X81403493Y-31170915D01*
X81594665Y-30979743D01*
X81594668Y-30979739D01*
X81594672Y-30979735D01*
X81759269Y-30765228D01*
X81894459Y-30531072D01*
X81997929Y-30281274D01*
X82067909Y-30020107D01*
X82103200Y-29752040D01*
X82103200Y-29481660D01*
X88773000Y-29481660D01*
X88773000Y-29752040D01*
X88808291Y-30020107D01*
X88808293Y-30020115D01*
X88808294Y-30020119D01*
X88878270Y-30281271D01*
X88878272Y-30281277D01*
X88981738Y-30531067D01*
X88981739Y-30531068D01*
X88981741Y-30531072D01*
X89051303Y-30651557D01*
X89116928Y-30765224D01*
X89281531Y-30979739D01*
X89472710Y-31170918D01*
X89472714Y-31170921D01*
X89472715Y-31170922D01*
X89687222Y-31335519D01*
X89921378Y-31470709D01*
X89921381Y-31470710D01*
X89921382Y-31470711D01*
X90046277Y-31522444D01*
X90171176Y-31574179D01*
X90432343Y-31644159D01*
X90700410Y-31679450D01*
X90700413Y-31679450D01*
X90970787Y-31679450D01*
X90970790Y-31679450D01*
X91238857Y-31644159D01*
X91500024Y-31574179D01*
X91749822Y-31470709D01*
X91983978Y-31335519D01*
X92198485Y-31170922D01*
X92198489Y-31170918D01*
X92198493Y-31170915D01*
X92389665Y-30979743D01*
X92389668Y-30979739D01*
X92389672Y-30979735D01*
X92554269Y-30765228D01*
X92689459Y-30531072D01*
X92792929Y-30281274D01*
X92862909Y-30020107D01*
X92898200Y-29752040D01*
X92898200Y-29481660D01*
X92862909Y-29213593D01*
X92792929Y-28952426D01*
X92689459Y-28702628D01*
X92554269Y-28468472D01*
X92389672Y-28253965D01*
X92389671Y-28253964D01*
X92389668Y-28253960D01*
X92198489Y-28062781D01*
X91983974Y-27898178D01*
X91870307Y-27832553D01*
X91749822Y-27762991D01*
X91749818Y-27762989D01*
X91749817Y-27762988D01*
X91500027Y-27659522D01*
X91500021Y-27659520D01*
X91238869Y-27589544D01*
X91238865Y-27589543D01*
X91238857Y-27589541D01*
X90970790Y-27554250D01*
X90700410Y-27554250D01*
X90432343Y-27589541D01*
X90432337Y-27589542D01*
X90432330Y-27589544D01*
X90171178Y-27659520D01*
X90171172Y-27659522D01*
X89921382Y-27762988D01*
X89921380Y-27762990D01*
X89687225Y-27898178D01*
X89472710Y-28062781D01*
X89472707Y-28062785D01*
X89281535Y-28253957D01*
X89281531Y-28253960D01*
X89116928Y-28468475D01*
X88981740Y-28702630D01*
X88981738Y-28702632D01*
X88878272Y-28952422D01*
X88878271Y-28952426D01*
X88808291Y-29213593D01*
X88773000Y-29481660D01*
X82103200Y-29481660D01*
X82067909Y-29213593D01*
X81997929Y-28952426D01*
X81894459Y-28702628D01*
X81759269Y-28468472D01*
X81594672Y-28253965D01*
X81594671Y-28253964D01*
X81594668Y-28253960D01*
X81403489Y-28062781D01*
X81188974Y-27898178D01*
X81075307Y-27832553D01*
X80954822Y-27762991D01*
X80954818Y-27762989D01*
X80954817Y-27762988D01*
X80705027Y-27659522D01*
X80705021Y-27659520D01*
X80443869Y-27589544D01*
X80443865Y-27589543D01*
X80443857Y-27589541D01*
X80175790Y-27554250D01*
X79905410Y-27554250D01*
X79637343Y-27589541D01*
X79637337Y-27589542D01*
X79637330Y-27589544D01*
X79376178Y-27659520D01*
X79376172Y-27659522D01*
X79126382Y-27762988D01*
X79126380Y-27762990D01*
X78892225Y-27898178D01*
X78677710Y-28062781D01*
X78677707Y-28062785D01*
X78486535Y-28253957D01*
X78486531Y-28253960D01*
X78321928Y-28468475D01*
X78186740Y-28702630D01*
X78186738Y-28702632D01*
X78083272Y-28952422D01*
X78083271Y-28952426D01*
X78013291Y-29213593D01*
X77978000Y-29481660D01*
X71381470Y-29481660D01*
X71381470Y-26974000D01*
X71401177Y-26887657D01*
X71456396Y-26818416D01*
X71536188Y-26779989D01*
X71580470Y-26775000D01*
X158582470Y-26775000D01*
X158668813Y-26794707D01*
G37*
%TD.AperFunction*%
%TD*%
M02*
