M48
; DRILL file {KiCad 9.0.6} date 2025-12-19T02:54:50-0500
; FORMAT={-:-/ absolute / inch / decimal}
; #@! TF.CreationDate,2025-12-19T02:54:50-05:00
; #@! TF.GenerationSoftware,Kicad,Pcbnew,9.0.6
; #@! TF.FileFunction,Plated,1,4,PTH
FMAT,2
INCH
; #@! TA.AperFunction,Plated,PTH,ViaDrill
T1C0.0118
; #@! TA.AperFunction,Plated,PTH,ComponentDrill
T2C0.0472
; #@! TA.AperFunction,Plated,PTH,ComponentDrill
T3C0.0591
; #@! TA.AperFunction,Plated,PTH,ComponentDrill
T4C0.1010
%
G90
G05
T1
X4.406Y-5.22
X5.0787Y-5.315
X5.0933Y-1.5541
X5.7087Y-5.315
X5.7232Y-1.5541
T2
X6.7638Y-2.9035
X6.7638Y-3.7894
X7.2756Y-2.9035
X7.2756Y-3.7894
X7.7874Y-2.9035
X7.7874Y-3.7894
X8.2992Y-2.9035
X8.2992Y-3.7894
T3
X4.2368Y-3.996
X4.2368Y-4.2106
X4.2368Y-4.4251
X4.266Y-2.556
X4.266Y-2.7706
X4.266Y-2.9851
X4.5853Y-3.9934
X4.5853Y-4.4226
X4.6153Y-2.5554
X4.6153Y-2.9846
T4
X3.1443Y-5.2626
X3.1443Y-5.4676
X3.1443Y-5.6726
X3.1512Y-1.166
X3.1512Y-1.371
X3.1512Y-1.576
X3.5693Y-5.2626
X3.5693Y-5.4676
X3.5693Y-5.6726
X3.5762Y-1.166
X3.5762Y-1.371
X3.5762Y-1.576
M30
