%TF.GenerationSoftware,KiCad,Pcbnew,9.0.6*%
%TF.CreationDate,2025-12-19T02:54:44-05:00*%
%TF.ProjectId,CSI_Tester,4353495f-5465-4737-9465-722e6b696361,rev?*%
%TF.SameCoordinates,Original*%
%TF.FileFunction,Legend,Top*%
%TF.FilePolarity,Positive*%
%FSLAX46Y46*%
G04 Gerber Fmt 4.6, Leading zero omitted, Abs format (unit mm)*
G04 Created by KiCad (PCBNEW 9.0.6) date 2025-12-19 02:54:44*
%MOMM*%
%LPD*%
G01*
G04 APERTURE LIST*
%ADD10C,0.200000*%
%ADD11C,0.150000*%
%ADD12C,0.100000*%
%ADD13C,0.120000*%
%ADD14C,0.152400*%
G04 APERTURE END LIST*
D10*
X175750625Y-118114585D02*
X175655387Y-118209824D01*
X175655387Y-118209824D02*
X175369673Y-118305062D01*
X175369673Y-118305062D02*
X175179197Y-118305062D01*
X175179197Y-118305062D02*
X174893482Y-118209824D01*
X174893482Y-118209824D02*
X174703006Y-118019347D01*
X174703006Y-118019347D02*
X174607768Y-117828871D01*
X174607768Y-117828871D02*
X174512530Y-117447919D01*
X174512530Y-117447919D02*
X174512530Y-117162204D01*
X174512530Y-117162204D02*
X174607768Y-116781252D01*
X174607768Y-116781252D02*
X174703006Y-116590776D01*
X174703006Y-116590776D02*
X174893482Y-116400300D01*
X174893482Y-116400300D02*
X175179197Y-116305062D01*
X175179197Y-116305062D02*
X175369673Y-116305062D01*
X175369673Y-116305062D02*
X175655387Y-116400300D01*
X175655387Y-116400300D02*
X175750625Y-116495538D01*
X176512530Y-118209824D02*
X176798244Y-118305062D01*
X176798244Y-118305062D02*
X177274435Y-118305062D01*
X177274435Y-118305062D02*
X177464911Y-118209824D01*
X177464911Y-118209824D02*
X177560149Y-118114585D01*
X177560149Y-118114585D02*
X177655387Y-117924109D01*
X177655387Y-117924109D02*
X177655387Y-117733633D01*
X177655387Y-117733633D02*
X177560149Y-117543157D01*
X177560149Y-117543157D02*
X177464911Y-117447919D01*
X177464911Y-117447919D02*
X177274435Y-117352681D01*
X177274435Y-117352681D02*
X176893482Y-117257443D01*
X176893482Y-117257443D02*
X176703006Y-117162204D01*
X176703006Y-117162204D02*
X176607768Y-117066966D01*
X176607768Y-117066966D02*
X176512530Y-116876490D01*
X176512530Y-116876490D02*
X176512530Y-116686014D01*
X176512530Y-116686014D02*
X176607768Y-116495538D01*
X176607768Y-116495538D02*
X176703006Y-116400300D01*
X176703006Y-116400300D02*
X176893482Y-116305062D01*
X176893482Y-116305062D02*
X177369673Y-116305062D01*
X177369673Y-116305062D02*
X177655387Y-116400300D01*
X178512530Y-118305062D02*
X178512530Y-116305062D01*
X180988721Y-118305062D02*
X180988721Y-116305062D01*
X180988721Y-116305062D02*
X181464911Y-116305062D01*
X181464911Y-116305062D02*
X181750626Y-116400300D01*
X181750626Y-116400300D02*
X181941102Y-116590776D01*
X181941102Y-116590776D02*
X182036340Y-116781252D01*
X182036340Y-116781252D02*
X182131578Y-117162204D01*
X182131578Y-117162204D02*
X182131578Y-117447919D01*
X182131578Y-117447919D02*
X182036340Y-117828871D01*
X182036340Y-117828871D02*
X181941102Y-118019347D01*
X181941102Y-118019347D02*
X181750626Y-118209824D01*
X181750626Y-118209824D02*
X181464911Y-118305062D01*
X181464911Y-118305062D02*
X180988721Y-118305062D01*
X183274435Y-118305062D02*
X183083959Y-118209824D01*
X183083959Y-118209824D02*
X182988721Y-118114585D01*
X182988721Y-118114585D02*
X182893483Y-117924109D01*
X182893483Y-117924109D02*
X182893483Y-117352681D01*
X182893483Y-117352681D02*
X182988721Y-117162204D01*
X182988721Y-117162204D02*
X183083959Y-117066966D01*
X183083959Y-117066966D02*
X183274435Y-116971728D01*
X183274435Y-116971728D02*
X183560150Y-116971728D01*
X183560150Y-116971728D02*
X183750626Y-117066966D01*
X183750626Y-117066966D02*
X183845864Y-117162204D01*
X183845864Y-117162204D02*
X183941102Y-117352681D01*
X183941102Y-117352681D02*
X183941102Y-117924109D01*
X183941102Y-117924109D02*
X183845864Y-118114585D01*
X183845864Y-118114585D02*
X183750626Y-118209824D01*
X183750626Y-118209824D02*
X183560150Y-118305062D01*
X183560150Y-118305062D02*
X183274435Y-118305062D01*
X185655388Y-116971728D02*
X185655388Y-118305062D01*
X184798245Y-116971728D02*
X184798245Y-118019347D01*
X184798245Y-118019347D02*
X184893483Y-118209824D01*
X184893483Y-118209824D02*
X185083959Y-118305062D01*
X185083959Y-118305062D02*
X185369674Y-118305062D01*
X185369674Y-118305062D02*
X185560150Y-118209824D01*
X185560150Y-118209824D02*
X185655388Y-118114585D01*
X186607769Y-118305062D02*
X186607769Y-116305062D01*
X186607769Y-117066966D02*
X186798245Y-116971728D01*
X186798245Y-116971728D02*
X187179198Y-116971728D01*
X187179198Y-116971728D02*
X187369674Y-117066966D01*
X187369674Y-117066966D02*
X187464912Y-117162204D01*
X187464912Y-117162204D02*
X187560150Y-117352681D01*
X187560150Y-117352681D02*
X187560150Y-117924109D01*
X187560150Y-117924109D02*
X187464912Y-118114585D01*
X187464912Y-118114585D02*
X187369674Y-118209824D01*
X187369674Y-118209824D02*
X187179198Y-118305062D01*
X187179198Y-118305062D02*
X186798245Y-118305062D01*
X186798245Y-118305062D02*
X186607769Y-118209824D01*
X188703007Y-118305062D02*
X188512531Y-118209824D01*
X188512531Y-118209824D02*
X188417293Y-118019347D01*
X188417293Y-118019347D02*
X188417293Y-116305062D01*
X190226817Y-118209824D02*
X190036341Y-118305062D01*
X190036341Y-118305062D02*
X189655388Y-118305062D01*
X189655388Y-118305062D02*
X189464912Y-118209824D01*
X189464912Y-118209824D02*
X189369674Y-118019347D01*
X189369674Y-118019347D02*
X189369674Y-117257443D01*
X189369674Y-117257443D02*
X189464912Y-117066966D01*
X189464912Y-117066966D02*
X189655388Y-116971728D01*
X189655388Y-116971728D02*
X190036341Y-116971728D01*
X190036341Y-116971728D02*
X190226817Y-117066966D01*
X190226817Y-117066966D02*
X190322055Y-117257443D01*
X190322055Y-117257443D02*
X190322055Y-117447919D01*
X190322055Y-117447919D02*
X189369674Y-117638395D01*
X192703008Y-118305062D02*
X192703008Y-116305062D01*
X192703008Y-116305062D02*
X193464913Y-116305062D01*
X193464913Y-116305062D02*
X193655389Y-116400300D01*
X193655389Y-116400300D02*
X193750627Y-116495538D01*
X193750627Y-116495538D02*
X193845865Y-116686014D01*
X193845865Y-116686014D02*
X193845865Y-116971728D01*
X193845865Y-116971728D02*
X193750627Y-117162204D01*
X193750627Y-117162204D02*
X193655389Y-117257443D01*
X193655389Y-117257443D02*
X193464913Y-117352681D01*
X193464913Y-117352681D02*
X192703008Y-117352681D01*
X195560151Y-116971728D02*
X195560151Y-118305062D01*
X194703008Y-116971728D02*
X194703008Y-118019347D01*
X194703008Y-118019347D02*
X194798246Y-118209824D01*
X194798246Y-118209824D02*
X194988722Y-118305062D01*
X194988722Y-118305062D02*
X195274437Y-118305062D01*
X195274437Y-118305062D02*
X195464913Y-118209824D01*
X195464913Y-118209824D02*
X195560151Y-118114585D01*
X196798246Y-118305062D02*
X196607770Y-118209824D01*
X196607770Y-118209824D02*
X196512532Y-118019347D01*
X196512532Y-118019347D02*
X196512532Y-116305062D01*
X197464913Y-118209824D02*
X197655389Y-118305062D01*
X197655389Y-118305062D02*
X198036341Y-118305062D01*
X198036341Y-118305062D02*
X198226818Y-118209824D01*
X198226818Y-118209824D02*
X198322056Y-118019347D01*
X198322056Y-118019347D02*
X198322056Y-117924109D01*
X198322056Y-117924109D02*
X198226818Y-117733633D01*
X198226818Y-117733633D02*
X198036341Y-117638395D01*
X198036341Y-117638395D02*
X197750627Y-117638395D01*
X197750627Y-117638395D02*
X197560151Y-117543157D01*
X197560151Y-117543157D02*
X197464913Y-117352681D01*
X197464913Y-117352681D02*
X197464913Y-117257443D01*
X197464913Y-117257443D02*
X197560151Y-117066966D01*
X197560151Y-117066966D02*
X197750627Y-116971728D01*
X197750627Y-116971728D02*
X198036341Y-116971728D01*
X198036341Y-116971728D02*
X198226818Y-117066966D01*
X199941104Y-118209824D02*
X199750628Y-118305062D01*
X199750628Y-118305062D02*
X199369675Y-118305062D01*
X199369675Y-118305062D02*
X199179199Y-118209824D01*
X199179199Y-118209824D02*
X199083961Y-118019347D01*
X199083961Y-118019347D02*
X199083961Y-117257443D01*
X199083961Y-117257443D02*
X199179199Y-117066966D01*
X199179199Y-117066966D02*
X199369675Y-116971728D01*
X199369675Y-116971728D02*
X199750628Y-116971728D01*
X199750628Y-116971728D02*
X199941104Y-117066966D01*
X199941104Y-117066966D02*
X200036342Y-117257443D01*
X200036342Y-117257443D02*
X200036342Y-117447919D01*
X200036342Y-117447919D02*
X199083961Y-117638395D01*
X202131581Y-116305062D02*
X203274438Y-116305062D01*
X202703009Y-118305062D02*
X202703009Y-116305062D01*
X204703010Y-118209824D02*
X204512534Y-118305062D01*
X204512534Y-118305062D02*
X204131581Y-118305062D01*
X204131581Y-118305062D02*
X203941105Y-118209824D01*
X203941105Y-118209824D02*
X203845867Y-118019347D01*
X203845867Y-118019347D02*
X203845867Y-117257443D01*
X203845867Y-117257443D02*
X203941105Y-117066966D01*
X203941105Y-117066966D02*
X204131581Y-116971728D01*
X204131581Y-116971728D02*
X204512534Y-116971728D01*
X204512534Y-116971728D02*
X204703010Y-117066966D01*
X204703010Y-117066966D02*
X204798248Y-117257443D01*
X204798248Y-117257443D02*
X204798248Y-117447919D01*
X204798248Y-117447919D02*
X203845867Y-117638395D01*
X205560153Y-118209824D02*
X205750629Y-118305062D01*
X205750629Y-118305062D02*
X206131581Y-118305062D01*
X206131581Y-118305062D02*
X206322058Y-118209824D01*
X206322058Y-118209824D02*
X206417296Y-118019347D01*
X206417296Y-118019347D02*
X206417296Y-117924109D01*
X206417296Y-117924109D02*
X206322058Y-117733633D01*
X206322058Y-117733633D02*
X206131581Y-117638395D01*
X206131581Y-117638395D02*
X205845867Y-117638395D01*
X205845867Y-117638395D02*
X205655391Y-117543157D01*
X205655391Y-117543157D02*
X205560153Y-117352681D01*
X205560153Y-117352681D02*
X205560153Y-117257443D01*
X205560153Y-117257443D02*
X205655391Y-117066966D01*
X205655391Y-117066966D02*
X205845867Y-116971728D01*
X205845867Y-116971728D02*
X206131581Y-116971728D01*
X206131581Y-116971728D02*
X206322058Y-117066966D01*
X206988725Y-116971728D02*
X207750629Y-116971728D01*
X207274439Y-116305062D02*
X207274439Y-118019347D01*
X207274439Y-118019347D02*
X207369677Y-118209824D01*
X207369677Y-118209824D02*
X207560153Y-118305062D01*
X207560153Y-118305062D02*
X207750629Y-118305062D01*
X209179201Y-118209824D02*
X208988725Y-118305062D01*
X208988725Y-118305062D02*
X208607772Y-118305062D01*
X208607772Y-118305062D02*
X208417296Y-118209824D01*
X208417296Y-118209824D02*
X208322058Y-118019347D01*
X208322058Y-118019347D02*
X208322058Y-117257443D01*
X208322058Y-117257443D02*
X208417296Y-117066966D01*
X208417296Y-117066966D02*
X208607772Y-116971728D01*
X208607772Y-116971728D02*
X208988725Y-116971728D01*
X208988725Y-116971728D02*
X209179201Y-117066966D01*
X209179201Y-117066966D02*
X209274439Y-117257443D01*
X209274439Y-117257443D02*
X209274439Y-117447919D01*
X209274439Y-117447919D02*
X208322058Y-117638395D01*
X210131582Y-118305062D02*
X210131582Y-116971728D01*
X210131582Y-117352681D02*
X210226820Y-117162204D01*
X210226820Y-117162204D02*
X210322058Y-117066966D01*
X210322058Y-117066966D02*
X210512534Y-116971728D01*
X210512534Y-116971728D02*
X210703011Y-116971728D01*
X212607773Y-116305062D02*
X213274439Y-118305062D01*
X213274439Y-118305062D02*
X213941106Y-116305062D01*
X215655392Y-118305062D02*
X214512535Y-118305062D01*
X215083963Y-118305062D02*
X215083963Y-116305062D01*
X215083963Y-116305062D02*
X214893487Y-116590776D01*
X214893487Y-116590776D02*
X214703011Y-116781252D01*
X214703011Y-116781252D02*
X214512535Y-116876490D01*
X174607768Y-121524950D02*
X174607768Y-119524950D01*
X174607768Y-120477331D02*
X175750625Y-120477331D01*
X175750625Y-121524950D02*
X175750625Y-119524950D01*
X176988720Y-121524950D02*
X176798244Y-121429712D01*
X176798244Y-121429712D02*
X176703006Y-121334473D01*
X176703006Y-121334473D02*
X176607768Y-121143997D01*
X176607768Y-121143997D02*
X176607768Y-120572569D01*
X176607768Y-120572569D02*
X176703006Y-120382092D01*
X176703006Y-120382092D02*
X176798244Y-120286854D01*
X176798244Y-120286854D02*
X176988720Y-120191616D01*
X176988720Y-120191616D02*
X177274435Y-120191616D01*
X177274435Y-120191616D02*
X177464911Y-120286854D01*
X177464911Y-120286854D02*
X177560149Y-120382092D01*
X177560149Y-120382092D02*
X177655387Y-120572569D01*
X177655387Y-120572569D02*
X177655387Y-121143997D01*
X177655387Y-121143997D02*
X177560149Y-121334473D01*
X177560149Y-121334473D02*
X177464911Y-121429712D01*
X177464911Y-121429712D02*
X177274435Y-121524950D01*
X177274435Y-121524950D02*
X176988720Y-121524950D01*
X178512530Y-120191616D02*
X178512530Y-121524950D01*
X178512530Y-120382092D02*
X178607768Y-120286854D01*
X178607768Y-120286854D02*
X178798244Y-120191616D01*
X178798244Y-120191616D02*
X179083959Y-120191616D01*
X179083959Y-120191616D02*
X179274435Y-120286854D01*
X179274435Y-120286854D02*
X179369673Y-120477331D01*
X179369673Y-120477331D02*
X179369673Y-121524950D01*
X181179197Y-120191616D02*
X181179197Y-121810664D01*
X181179197Y-121810664D02*
X181083959Y-122001140D01*
X181083959Y-122001140D02*
X180988721Y-122096378D01*
X180988721Y-122096378D02*
X180798244Y-122191616D01*
X180798244Y-122191616D02*
X180512530Y-122191616D01*
X180512530Y-122191616D02*
X180322054Y-122096378D01*
X181179197Y-121429712D02*
X180988721Y-121524950D01*
X180988721Y-121524950D02*
X180607768Y-121524950D01*
X180607768Y-121524950D02*
X180417292Y-121429712D01*
X180417292Y-121429712D02*
X180322054Y-121334473D01*
X180322054Y-121334473D02*
X180226816Y-121143997D01*
X180226816Y-121143997D02*
X180226816Y-120572569D01*
X180226816Y-120572569D02*
X180322054Y-120382092D01*
X180322054Y-120382092D02*
X180417292Y-120286854D01*
X180417292Y-120286854D02*
X180607768Y-120191616D01*
X180607768Y-120191616D02*
X180988721Y-120191616D01*
X180988721Y-120191616D02*
X181179197Y-120286854D01*
X181941102Y-120191616D02*
X182417292Y-121524950D01*
X182893483Y-120191616D02*
X182417292Y-121524950D01*
X182417292Y-121524950D02*
X182226816Y-122001140D01*
X182226816Y-122001140D02*
X182131578Y-122096378D01*
X182131578Y-122096378D02*
X181941102Y-122191616D01*
X184512531Y-120191616D02*
X184512531Y-121524950D01*
X183655388Y-120191616D02*
X183655388Y-121239235D01*
X183655388Y-121239235D02*
X183750626Y-121429712D01*
X183750626Y-121429712D02*
X183941102Y-121524950D01*
X183941102Y-121524950D02*
X184226817Y-121524950D01*
X184226817Y-121524950D02*
X184417293Y-121429712D01*
X184417293Y-121429712D02*
X184512531Y-121334473D01*
X187369674Y-120572569D02*
X187369674Y-121524950D01*
X186703008Y-119524950D02*
X187369674Y-120572569D01*
X187369674Y-120572569D02*
X188036341Y-119524950D01*
X189560151Y-121524950D02*
X189560151Y-120477331D01*
X189560151Y-120477331D02*
X189464913Y-120286854D01*
X189464913Y-120286854D02*
X189274437Y-120191616D01*
X189274437Y-120191616D02*
X188893484Y-120191616D01*
X188893484Y-120191616D02*
X188703008Y-120286854D01*
X189560151Y-121429712D02*
X189369675Y-121524950D01*
X189369675Y-121524950D02*
X188893484Y-121524950D01*
X188893484Y-121524950D02*
X188703008Y-121429712D01*
X188703008Y-121429712D02*
X188607770Y-121239235D01*
X188607770Y-121239235D02*
X188607770Y-121048759D01*
X188607770Y-121048759D02*
X188703008Y-120858283D01*
X188703008Y-120858283D02*
X188893484Y-120763045D01*
X188893484Y-120763045D02*
X189369675Y-120763045D01*
X189369675Y-120763045D02*
X189560151Y-120667807D01*
X190512532Y-120191616D02*
X190512532Y-121524950D01*
X190512532Y-120382092D02*
X190607770Y-120286854D01*
X190607770Y-120286854D02*
X190798246Y-120191616D01*
X190798246Y-120191616D02*
X191083961Y-120191616D01*
X191083961Y-120191616D02*
X191274437Y-120286854D01*
X191274437Y-120286854D02*
X191369675Y-120477331D01*
X191369675Y-120477331D02*
X191369675Y-121524950D01*
X174512530Y-122935314D02*
X174607768Y-122840076D01*
X174607768Y-122840076D02*
X174798244Y-122744838D01*
X174798244Y-122744838D02*
X175274435Y-122744838D01*
X175274435Y-122744838D02*
X175464911Y-122840076D01*
X175464911Y-122840076D02*
X175560149Y-122935314D01*
X175560149Y-122935314D02*
X175655387Y-123125790D01*
X175655387Y-123125790D02*
X175655387Y-123316266D01*
X175655387Y-123316266D02*
X175560149Y-123601980D01*
X175560149Y-123601980D02*
X174417292Y-124744838D01*
X174417292Y-124744838D02*
X175655387Y-124744838D01*
X176893482Y-122744838D02*
X177083959Y-122744838D01*
X177083959Y-122744838D02*
X177274435Y-122840076D01*
X177274435Y-122840076D02*
X177369673Y-122935314D01*
X177369673Y-122935314D02*
X177464911Y-123125790D01*
X177464911Y-123125790D02*
X177560149Y-123506742D01*
X177560149Y-123506742D02*
X177560149Y-123982933D01*
X177560149Y-123982933D02*
X177464911Y-124363885D01*
X177464911Y-124363885D02*
X177369673Y-124554361D01*
X177369673Y-124554361D02*
X177274435Y-124649600D01*
X177274435Y-124649600D02*
X177083959Y-124744838D01*
X177083959Y-124744838D02*
X176893482Y-124744838D01*
X176893482Y-124744838D02*
X176703006Y-124649600D01*
X176703006Y-124649600D02*
X176607768Y-124554361D01*
X176607768Y-124554361D02*
X176512530Y-124363885D01*
X176512530Y-124363885D02*
X176417292Y-123982933D01*
X176417292Y-123982933D02*
X176417292Y-123506742D01*
X176417292Y-123506742D02*
X176512530Y-123125790D01*
X176512530Y-123125790D02*
X176607768Y-122935314D01*
X176607768Y-122935314D02*
X176703006Y-122840076D01*
X176703006Y-122840076D02*
X176893482Y-122744838D01*
X178322054Y-122935314D02*
X178417292Y-122840076D01*
X178417292Y-122840076D02*
X178607768Y-122744838D01*
X178607768Y-122744838D02*
X179083959Y-122744838D01*
X179083959Y-122744838D02*
X179274435Y-122840076D01*
X179274435Y-122840076D02*
X179369673Y-122935314D01*
X179369673Y-122935314D02*
X179464911Y-123125790D01*
X179464911Y-123125790D02*
X179464911Y-123316266D01*
X179464911Y-123316266D02*
X179369673Y-123601980D01*
X179369673Y-123601980D02*
X178226816Y-124744838D01*
X178226816Y-124744838D02*
X179464911Y-124744838D01*
X181274435Y-122744838D02*
X180322054Y-122744838D01*
X180322054Y-122744838D02*
X180226816Y-123697219D01*
X180226816Y-123697219D02*
X180322054Y-123601980D01*
X180322054Y-123601980D02*
X180512530Y-123506742D01*
X180512530Y-123506742D02*
X180988721Y-123506742D01*
X180988721Y-123506742D02*
X181179197Y-123601980D01*
X181179197Y-123601980D02*
X181274435Y-123697219D01*
X181274435Y-123697219D02*
X181369673Y-123887695D01*
X181369673Y-123887695D02*
X181369673Y-124363885D01*
X181369673Y-124363885D02*
X181274435Y-124554361D01*
X181274435Y-124554361D02*
X181179197Y-124649600D01*
X181179197Y-124649600D02*
X180988721Y-124744838D01*
X180988721Y-124744838D02*
X180512530Y-124744838D01*
X180512530Y-124744838D02*
X180322054Y-124649600D01*
X180322054Y-124649600D02*
X180226816Y-124554361D01*
X183655387Y-122649600D02*
X181941102Y-125221028D01*
X185369673Y-124744838D02*
X184226816Y-124744838D01*
X184798244Y-124744838D02*
X184798244Y-122744838D01*
X184798244Y-122744838D02*
X184607768Y-123030552D01*
X184607768Y-123030552D02*
X184417292Y-123221028D01*
X184417292Y-123221028D02*
X184226816Y-123316266D01*
X186131578Y-122935314D02*
X186226816Y-122840076D01*
X186226816Y-122840076D02*
X186417292Y-122744838D01*
X186417292Y-122744838D02*
X186893483Y-122744838D01*
X186893483Y-122744838D02*
X187083959Y-122840076D01*
X187083959Y-122840076D02*
X187179197Y-122935314D01*
X187179197Y-122935314D02*
X187274435Y-123125790D01*
X187274435Y-123125790D02*
X187274435Y-123316266D01*
X187274435Y-123316266D02*
X187179197Y-123601980D01*
X187179197Y-123601980D02*
X186036340Y-124744838D01*
X186036340Y-124744838D02*
X187274435Y-124744838D01*
X189560149Y-122649600D02*
X187845864Y-125221028D01*
X191274435Y-124744838D02*
X190131578Y-124744838D01*
X190703006Y-124744838D02*
X190703006Y-122744838D01*
X190703006Y-122744838D02*
X190512530Y-123030552D01*
X190512530Y-123030552D02*
X190322054Y-123221028D01*
X190322054Y-123221028D02*
X190131578Y-123316266D01*
X191941102Y-122744838D02*
X193274435Y-122744838D01*
X193274435Y-122744838D02*
X192417292Y-124744838D01*
D11*
X110203333Y-33931819D02*
X110536666Y-34931819D01*
X110536666Y-34931819D02*
X110869999Y-33931819D01*
X111631904Y-34265152D02*
X111631904Y-35074676D01*
X111631904Y-35074676D02*
X111584285Y-35169914D01*
X111584285Y-35169914D02*
X111536666Y-35217533D01*
X111536666Y-35217533D02*
X111441428Y-35265152D01*
X111441428Y-35265152D02*
X111298571Y-35265152D01*
X111298571Y-35265152D02*
X111203333Y-35217533D01*
X111631904Y-34884200D02*
X111536666Y-34931819D01*
X111536666Y-34931819D02*
X111346190Y-34931819D01*
X111346190Y-34931819D02*
X111250952Y-34884200D01*
X111250952Y-34884200D02*
X111203333Y-34836580D01*
X111203333Y-34836580D02*
X111155714Y-34741342D01*
X111155714Y-34741342D02*
X111155714Y-34455628D01*
X111155714Y-34455628D02*
X111203333Y-34360390D01*
X111203333Y-34360390D02*
X111250952Y-34312771D01*
X111250952Y-34312771D02*
X111346190Y-34265152D01*
X111346190Y-34265152D02*
X111536666Y-34265152D01*
X111536666Y-34265152D02*
X111631904Y-34312771D01*
X111870000Y-35027057D02*
X112631904Y-35027057D01*
X112870000Y-34931819D02*
X112870000Y-33931819D01*
X112870000Y-34408009D02*
X113441428Y-34408009D01*
X113441428Y-34931819D02*
X113441428Y-33931819D01*
X114441428Y-34931819D02*
X113870000Y-34931819D01*
X114155714Y-34931819D02*
X114155714Y-33931819D01*
X114155714Y-33931819D02*
X114060476Y-34074676D01*
X114060476Y-34074676D02*
X113965238Y-34169914D01*
X113965238Y-34169914D02*
X113870000Y-34217533D01*
X117250952Y-33931819D02*
X117584285Y-34931819D01*
X117584285Y-34931819D02*
X117917618Y-33931819D01*
X118203333Y-34884200D02*
X118298571Y-34931819D01*
X118298571Y-34931819D02*
X118489047Y-34931819D01*
X118489047Y-34931819D02*
X118584285Y-34884200D01*
X118584285Y-34884200D02*
X118631904Y-34788961D01*
X118631904Y-34788961D02*
X118631904Y-34741342D01*
X118631904Y-34741342D02*
X118584285Y-34646104D01*
X118584285Y-34646104D02*
X118489047Y-34598485D01*
X118489047Y-34598485D02*
X118346190Y-34598485D01*
X118346190Y-34598485D02*
X118250952Y-34550866D01*
X118250952Y-34550866D02*
X118203333Y-34455628D01*
X118203333Y-34455628D02*
X118203333Y-34408009D01*
X118203333Y-34408009D02*
X118250952Y-34312771D01*
X118250952Y-34312771D02*
X118346190Y-34265152D01*
X118346190Y-34265152D02*
X118489047Y-34265152D01*
X118489047Y-34265152D02*
X118584285Y-34312771D01*
X118822381Y-35027057D02*
X119584285Y-35027057D01*
X119822381Y-34931819D02*
X119822381Y-33931819D01*
X119822381Y-34408009D02*
X120393809Y-34408009D01*
X120393809Y-34931819D02*
X120393809Y-33931819D01*
X121393809Y-34931819D02*
X120822381Y-34931819D01*
X121108095Y-34931819D02*
X121108095Y-33931819D01*
X121108095Y-33931819D02*
X121012857Y-34074676D01*
X121012857Y-34074676D02*
X120917619Y-34169914D01*
X120917619Y-34169914D02*
X120822381Y-34217533D01*
X143512857Y-33931819D02*
X143846190Y-34931819D01*
X143846190Y-34931819D02*
X144179523Y-33931819D01*
X144941428Y-34884200D02*
X144846190Y-34931819D01*
X144846190Y-34931819D02*
X144655714Y-34931819D01*
X144655714Y-34931819D02*
X144560476Y-34884200D01*
X144560476Y-34884200D02*
X144512857Y-34836580D01*
X144512857Y-34836580D02*
X144465238Y-34741342D01*
X144465238Y-34741342D02*
X144465238Y-34455628D01*
X144465238Y-34455628D02*
X144512857Y-34360390D01*
X144512857Y-34360390D02*
X144560476Y-34312771D01*
X144560476Y-34312771D02*
X144655714Y-34265152D01*
X144655714Y-34265152D02*
X144846190Y-34265152D01*
X144846190Y-34265152D02*
X144941428Y-34312771D01*
X145370000Y-34550866D02*
X146131905Y-34550866D01*
X145750952Y-34931819D02*
X145750952Y-34169914D01*
X147131904Y-34931819D02*
X146560476Y-34931819D01*
X146846190Y-34931819D02*
X146846190Y-33931819D01*
X146846190Y-33931819D02*
X146750952Y-34074676D01*
X146750952Y-34074676D02*
X146655714Y-34169914D01*
X146655714Y-34169914D02*
X146560476Y-34217533D01*
X126690476Y-136456819D02*
X127023809Y-137456819D01*
X127023809Y-137456819D02*
X127357142Y-136456819D01*
X128119047Y-137456819D02*
X128119047Y-136456819D01*
X128119047Y-137409200D02*
X128023809Y-137456819D01*
X128023809Y-137456819D02*
X127833333Y-137456819D01*
X127833333Y-137456819D02*
X127738095Y-137409200D01*
X127738095Y-137409200D02*
X127690476Y-137361580D01*
X127690476Y-137361580D02*
X127642857Y-137266342D01*
X127642857Y-137266342D02*
X127642857Y-136980628D01*
X127642857Y-136980628D02*
X127690476Y-136885390D01*
X127690476Y-136885390D02*
X127738095Y-136837771D01*
X127738095Y-136837771D02*
X127833333Y-136790152D01*
X127833333Y-136790152D02*
X128023809Y-136790152D01*
X128023809Y-136790152D02*
X128119047Y-136837771D01*
X129023809Y-137409200D02*
X128928571Y-137456819D01*
X128928571Y-137456819D02*
X128738095Y-137456819D01*
X128738095Y-137456819D02*
X128642857Y-137409200D01*
X128642857Y-137409200D02*
X128595238Y-137361580D01*
X128595238Y-137361580D02*
X128547619Y-137266342D01*
X128547619Y-137266342D02*
X128547619Y-136980628D01*
X128547619Y-136980628D02*
X128595238Y-136885390D01*
X128595238Y-136885390D02*
X128642857Y-136837771D01*
X128642857Y-136837771D02*
X128738095Y-136790152D01*
X128738095Y-136790152D02*
X128928571Y-136790152D01*
X128928571Y-136790152D02*
X129023809Y-136837771D01*
X129452381Y-137075866D02*
X130214286Y-137075866D01*
X129833333Y-137456819D02*
X129833333Y-136694914D01*
X131214285Y-137456819D02*
X130642857Y-137456819D01*
X130928571Y-137456819D02*
X130928571Y-136456819D01*
X130928571Y-136456819D02*
X130833333Y-136599676D01*
X130833333Y-136599676D02*
X130738095Y-136694914D01*
X130738095Y-136694914D02*
X130642857Y-136742533D01*
X92301666Y-100389819D02*
X92301666Y-101104104D01*
X92301666Y-101104104D02*
X92254047Y-101246961D01*
X92254047Y-101246961D02*
X92158809Y-101342200D01*
X92158809Y-101342200D02*
X92015952Y-101389819D01*
X92015952Y-101389819D02*
X91920714Y-101389819D01*
X93301666Y-101389819D02*
X92730238Y-101389819D01*
X93015952Y-101389819D02*
X93015952Y-100389819D01*
X93015952Y-100389819D02*
X92920714Y-100532676D01*
X92920714Y-100532676D02*
X92825476Y-100627914D01*
X92825476Y-100627914D02*
X92730238Y-100675533D01*
X204659580Y-85166666D02*
X204707200Y-85214285D01*
X204707200Y-85214285D02*
X204754819Y-85357142D01*
X204754819Y-85357142D02*
X204754819Y-85452380D01*
X204754819Y-85452380D02*
X204707200Y-85595237D01*
X204707200Y-85595237D02*
X204611961Y-85690475D01*
X204611961Y-85690475D02*
X204516723Y-85738094D01*
X204516723Y-85738094D02*
X204326247Y-85785713D01*
X204326247Y-85785713D02*
X204183390Y-85785713D01*
X204183390Y-85785713D02*
X203992914Y-85738094D01*
X203992914Y-85738094D02*
X203897676Y-85690475D01*
X203897676Y-85690475D02*
X203802438Y-85595237D01*
X203802438Y-85595237D02*
X203754819Y-85452380D01*
X203754819Y-85452380D02*
X203754819Y-85357142D01*
X203754819Y-85357142D02*
X203802438Y-85214285D01*
X203802438Y-85214285D02*
X203850057Y-85166666D01*
X204088152Y-84309523D02*
X204754819Y-84309523D01*
X203707200Y-84547618D02*
X204421485Y-84785713D01*
X204421485Y-84785713D02*
X204421485Y-84166666D01*
X111445057Y-107043638D02*
X111397438Y-107138876D01*
X111397438Y-107138876D02*
X111302200Y-107234114D01*
X111302200Y-107234114D02*
X111159342Y-107376971D01*
X111159342Y-107376971D02*
X111111723Y-107472209D01*
X111111723Y-107472209D02*
X111111723Y-107567447D01*
X111349819Y-107519828D02*
X111302200Y-107615066D01*
X111302200Y-107615066D02*
X111206961Y-107710304D01*
X111206961Y-107710304D02*
X111016485Y-107757923D01*
X111016485Y-107757923D02*
X110683152Y-107757923D01*
X110683152Y-107757923D02*
X110492676Y-107710304D01*
X110492676Y-107710304D02*
X110397438Y-107615066D01*
X110397438Y-107615066D02*
X110349819Y-107519828D01*
X110349819Y-107519828D02*
X110349819Y-107329352D01*
X110349819Y-107329352D02*
X110397438Y-107234114D01*
X110397438Y-107234114D02*
X110492676Y-107138876D01*
X110492676Y-107138876D02*
X110683152Y-107091257D01*
X110683152Y-107091257D02*
X111016485Y-107091257D01*
X111016485Y-107091257D02*
X111206961Y-107138876D01*
X111206961Y-107138876D02*
X111302200Y-107234114D01*
X111302200Y-107234114D02*
X111349819Y-107329352D01*
X111349819Y-107329352D02*
X111349819Y-107519828D01*
X111349819Y-106138876D02*
X111349819Y-106710304D01*
X111349819Y-106424590D02*
X110349819Y-106424590D01*
X110349819Y-106424590D02*
X110492676Y-106519828D01*
X110492676Y-106519828D02*
X110587914Y-106615066D01*
X110587914Y-106615066D02*
X110635533Y-106710304D01*
X178659580Y-85166666D02*
X178707200Y-85214285D01*
X178707200Y-85214285D02*
X178754819Y-85357142D01*
X178754819Y-85357142D02*
X178754819Y-85452380D01*
X178754819Y-85452380D02*
X178707200Y-85595237D01*
X178707200Y-85595237D02*
X178611961Y-85690475D01*
X178611961Y-85690475D02*
X178516723Y-85738094D01*
X178516723Y-85738094D02*
X178326247Y-85785713D01*
X178326247Y-85785713D02*
X178183390Y-85785713D01*
X178183390Y-85785713D02*
X177992914Y-85738094D01*
X177992914Y-85738094D02*
X177897676Y-85690475D01*
X177897676Y-85690475D02*
X177802438Y-85595237D01*
X177802438Y-85595237D02*
X177754819Y-85452380D01*
X177754819Y-85452380D02*
X177754819Y-85357142D01*
X177754819Y-85357142D02*
X177802438Y-85214285D01*
X177802438Y-85214285D02*
X177850057Y-85166666D01*
X177850057Y-84785713D02*
X177802438Y-84738094D01*
X177802438Y-84738094D02*
X177754819Y-84642856D01*
X177754819Y-84642856D02*
X177754819Y-84404761D01*
X177754819Y-84404761D02*
X177802438Y-84309523D01*
X177802438Y-84309523D02*
X177850057Y-84261904D01*
X177850057Y-84261904D02*
X177945295Y-84214285D01*
X177945295Y-84214285D02*
X178040533Y-84214285D01*
X178040533Y-84214285D02*
X178183390Y-84261904D01*
X178183390Y-84261904D02*
X178754819Y-84833332D01*
X178754819Y-84833332D02*
X178754819Y-84214285D01*
X165659580Y-85166666D02*
X165707200Y-85214285D01*
X165707200Y-85214285D02*
X165754819Y-85357142D01*
X165754819Y-85357142D02*
X165754819Y-85452380D01*
X165754819Y-85452380D02*
X165707200Y-85595237D01*
X165707200Y-85595237D02*
X165611961Y-85690475D01*
X165611961Y-85690475D02*
X165516723Y-85738094D01*
X165516723Y-85738094D02*
X165326247Y-85785713D01*
X165326247Y-85785713D02*
X165183390Y-85785713D01*
X165183390Y-85785713D02*
X164992914Y-85738094D01*
X164992914Y-85738094D02*
X164897676Y-85690475D01*
X164897676Y-85690475D02*
X164802438Y-85595237D01*
X164802438Y-85595237D02*
X164754819Y-85452380D01*
X164754819Y-85452380D02*
X164754819Y-85357142D01*
X164754819Y-85357142D02*
X164802438Y-85214285D01*
X164802438Y-85214285D02*
X164850057Y-85166666D01*
X165754819Y-84214285D02*
X165754819Y-84785713D01*
X165754819Y-84499999D02*
X164754819Y-84499999D01*
X164754819Y-84499999D02*
X164897676Y-84595237D01*
X164897676Y-84595237D02*
X164992914Y-84690475D01*
X164992914Y-84690475D02*
X165040533Y-84785713D01*
X120201019Y-107621294D02*
X119201019Y-107621294D01*
X119201019Y-107621294D02*
X119201019Y-107383199D01*
X119201019Y-107383199D02*
X119248638Y-107240342D01*
X119248638Y-107240342D02*
X119343876Y-107145104D01*
X119343876Y-107145104D02*
X119439114Y-107097485D01*
X119439114Y-107097485D02*
X119629590Y-107049866D01*
X119629590Y-107049866D02*
X119772447Y-107049866D01*
X119772447Y-107049866D02*
X119962923Y-107097485D01*
X119962923Y-107097485D02*
X120058161Y-107145104D01*
X120058161Y-107145104D02*
X120153400Y-107240342D01*
X120153400Y-107240342D02*
X120201019Y-107383199D01*
X120201019Y-107383199D02*
X120201019Y-107621294D01*
X120201019Y-106097485D02*
X120201019Y-106668913D01*
X120201019Y-106383199D02*
X119201019Y-106383199D01*
X119201019Y-106383199D02*
X119343876Y-106478437D01*
X119343876Y-106478437D02*
X119439114Y-106573675D01*
X119439114Y-106573675D02*
X119486733Y-106668913D01*
D12*
X143858333Y-99657419D02*
X143525000Y-99181228D01*
X143286905Y-99657419D02*
X143286905Y-98657419D01*
X143286905Y-98657419D02*
X143667857Y-98657419D01*
X143667857Y-98657419D02*
X143763095Y-98705038D01*
X143763095Y-98705038D02*
X143810714Y-98752657D01*
X143810714Y-98752657D02*
X143858333Y-98847895D01*
X143858333Y-98847895D02*
X143858333Y-98990752D01*
X143858333Y-98990752D02*
X143810714Y-99085990D01*
X143810714Y-99085990D02*
X143763095Y-99133609D01*
X143763095Y-99133609D02*
X143667857Y-99181228D01*
X143667857Y-99181228D02*
X143286905Y-99181228D01*
X144810714Y-99657419D02*
X144239286Y-99657419D01*
X144525000Y-99657419D02*
X144525000Y-98657419D01*
X144525000Y-98657419D02*
X144429762Y-98800276D01*
X144429762Y-98800276D02*
X144334524Y-98895514D01*
X144334524Y-98895514D02*
X144239286Y-98943133D01*
D11*
X120963019Y-71096094D02*
X119963019Y-71096094D01*
X119963019Y-71096094D02*
X119963019Y-70857999D01*
X119963019Y-70857999D02*
X120010638Y-70715142D01*
X120010638Y-70715142D02*
X120105876Y-70619904D01*
X120105876Y-70619904D02*
X120201114Y-70572285D01*
X120201114Y-70572285D02*
X120391590Y-70524666D01*
X120391590Y-70524666D02*
X120534447Y-70524666D01*
X120534447Y-70524666D02*
X120724923Y-70572285D01*
X120724923Y-70572285D02*
X120820161Y-70619904D01*
X120820161Y-70619904D02*
X120915400Y-70715142D01*
X120915400Y-70715142D02*
X120963019Y-70857999D01*
X120963019Y-70857999D02*
X120963019Y-71096094D01*
X120058257Y-70143713D02*
X120010638Y-70096094D01*
X120010638Y-70096094D02*
X119963019Y-70000856D01*
X119963019Y-70000856D02*
X119963019Y-69762761D01*
X119963019Y-69762761D02*
X120010638Y-69667523D01*
X120010638Y-69667523D02*
X120058257Y-69619904D01*
X120058257Y-69619904D02*
X120153495Y-69572285D01*
X120153495Y-69572285D02*
X120248733Y-69572285D01*
X120248733Y-69572285D02*
X120391590Y-69619904D01*
X120391590Y-69619904D02*
X120963019Y-70191332D01*
X120963019Y-70191332D02*
X120963019Y-69572285D01*
X143142857Y-136456819D02*
X143476190Y-137456819D01*
X143476190Y-137456819D02*
X143809523Y-136456819D01*
X144571428Y-137409200D02*
X144476190Y-137456819D01*
X144476190Y-137456819D02*
X144285714Y-137456819D01*
X144285714Y-137456819D02*
X144190476Y-137409200D01*
X144190476Y-137409200D02*
X144142857Y-137361580D01*
X144142857Y-137361580D02*
X144095238Y-137266342D01*
X144095238Y-137266342D02*
X144095238Y-136980628D01*
X144095238Y-136980628D02*
X144142857Y-136885390D01*
X144142857Y-136885390D02*
X144190476Y-136837771D01*
X144190476Y-136837771D02*
X144285714Y-136790152D01*
X144285714Y-136790152D02*
X144476190Y-136790152D01*
X144476190Y-136790152D02*
X144571428Y-136837771D01*
X145000000Y-137075866D02*
X145761905Y-137075866D01*
X146761904Y-137456819D02*
X146190476Y-137456819D01*
X146476190Y-137456819D02*
X146476190Y-136456819D01*
X146476190Y-136456819D02*
X146380952Y-136599676D01*
X146380952Y-136599676D02*
X146285714Y-136694914D01*
X146285714Y-136694914D02*
X146190476Y-136742533D01*
X191659580Y-85166666D02*
X191707200Y-85214285D01*
X191707200Y-85214285D02*
X191754819Y-85357142D01*
X191754819Y-85357142D02*
X191754819Y-85452380D01*
X191754819Y-85452380D02*
X191707200Y-85595237D01*
X191707200Y-85595237D02*
X191611961Y-85690475D01*
X191611961Y-85690475D02*
X191516723Y-85738094D01*
X191516723Y-85738094D02*
X191326247Y-85785713D01*
X191326247Y-85785713D02*
X191183390Y-85785713D01*
X191183390Y-85785713D02*
X190992914Y-85738094D01*
X190992914Y-85738094D02*
X190897676Y-85690475D01*
X190897676Y-85690475D02*
X190802438Y-85595237D01*
X190802438Y-85595237D02*
X190754819Y-85452380D01*
X190754819Y-85452380D02*
X190754819Y-85357142D01*
X190754819Y-85357142D02*
X190802438Y-85214285D01*
X190802438Y-85214285D02*
X190850057Y-85166666D01*
X190754819Y-84833332D02*
X190754819Y-84214285D01*
X190754819Y-84214285D02*
X191135771Y-84547618D01*
X191135771Y-84547618D02*
X191135771Y-84404761D01*
X191135771Y-84404761D02*
X191183390Y-84309523D01*
X191183390Y-84309523D02*
X191231009Y-84261904D01*
X191231009Y-84261904D02*
X191326247Y-84214285D01*
X191326247Y-84214285D02*
X191564342Y-84214285D01*
X191564342Y-84214285D02*
X191659580Y-84261904D01*
X191659580Y-84261904D02*
X191707200Y-84309523D01*
X191707200Y-84309523D02*
X191754819Y-84404761D01*
X191754819Y-84404761D02*
X191754819Y-84690475D01*
X191754819Y-84690475D02*
X191707200Y-84785713D01*
X191707200Y-84785713D02*
X191659580Y-84833332D01*
X212138095Y-137454819D02*
X212138095Y-136454819D01*
X212138095Y-136931009D02*
X212709523Y-136931009D01*
X212709523Y-137454819D02*
X212709523Y-136454819D01*
X213661904Y-136454819D02*
X213185714Y-136454819D01*
X213185714Y-136454819D02*
X213138095Y-136931009D01*
X213138095Y-136931009D02*
X213185714Y-136883390D01*
X213185714Y-136883390D02*
X213280952Y-136835771D01*
X213280952Y-136835771D02*
X213519047Y-136835771D01*
X213519047Y-136835771D02*
X213614285Y-136883390D01*
X213614285Y-136883390D02*
X213661904Y-136931009D01*
X213661904Y-136931009D02*
X213709523Y-137026247D01*
X213709523Y-137026247D02*
X213709523Y-137264342D01*
X213709523Y-137264342D02*
X213661904Y-137359580D01*
X213661904Y-137359580D02*
X213614285Y-137407200D01*
X213614285Y-137407200D02*
X213519047Y-137454819D01*
X213519047Y-137454819D02*
X213280952Y-137454819D01*
X213280952Y-137454819D02*
X213185714Y-137407200D01*
X213185714Y-137407200D02*
X213138095Y-137359580D01*
D12*
X144258333Y-54957419D02*
X143925000Y-54481228D01*
X143686905Y-54957419D02*
X143686905Y-53957419D01*
X143686905Y-53957419D02*
X144067857Y-53957419D01*
X144067857Y-53957419D02*
X144163095Y-54005038D01*
X144163095Y-54005038D02*
X144210714Y-54052657D01*
X144210714Y-54052657D02*
X144258333Y-54147895D01*
X144258333Y-54147895D02*
X144258333Y-54290752D01*
X144258333Y-54290752D02*
X144210714Y-54385990D01*
X144210714Y-54385990D02*
X144163095Y-54433609D01*
X144163095Y-54433609D02*
X144067857Y-54481228D01*
X144067857Y-54481228D02*
X143686905Y-54481228D01*
X144639286Y-54052657D02*
X144686905Y-54005038D01*
X144686905Y-54005038D02*
X144782143Y-53957419D01*
X144782143Y-53957419D02*
X145020238Y-53957419D01*
X145020238Y-53957419D02*
X145115476Y-54005038D01*
X145115476Y-54005038D02*
X145163095Y-54052657D01*
X145163095Y-54052657D02*
X145210714Y-54147895D01*
X145210714Y-54147895D02*
X145210714Y-54243133D01*
X145210714Y-54243133D02*
X145163095Y-54385990D01*
X145163095Y-54385990D02*
X144591667Y-54957419D01*
X144591667Y-54957419D02*
X145210714Y-54957419D01*
D11*
X211838095Y-27754819D02*
X211838095Y-26754819D01*
X211838095Y-27231009D02*
X212409523Y-27231009D01*
X212409523Y-27754819D02*
X212409523Y-26754819D01*
X213314285Y-27088152D02*
X213314285Y-27754819D01*
X213076190Y-26707200D02*
X212838095Y-27421485D01*
X212838095Y-27421485D02*
X213457142Y-27421485D01*
X92301666Y-64389819D02*
X92301666Y-65104104D01*
X92301666Y-65104104D02*
X92254047Y-65246961D01*
X92254047Y-65246961D02*
X92158809Y-65342200D01*
X92158809Y-65342200D02*
X92015952Y-65389819D01*
X92015952Y-65389819D02*
X91920714Y-65389819D01*
X92730238Y-64485057D02*
X92777857Y-64437438D01*
X92777857Y-64437438D02*
X92873095Y-64389819D01*
X92873095Y-64389819D02*
X93111190Y-64389819D01*
X93111190Y-64389819D02*
X93206428Y-64437438D01*
X93206428Y-64437438D02*
X93254047Y-64485057D01*
X93254047Y-64485057D02*
X93301666Y-64580295D01*
X93301666Y-64580295D02*
X93301666Y-64675533D01*
X93301666Y-64675533D02*
X93254047Y-64818390D01*
X93254047Y-64818390D02*
X92682619Y-65389819D01*
X92682619Y-65389819D02*
X93301666Y-65389819D01*
X85104766Y-34278669D02*
X85104766Y-34992954D01*
X85104766Y-34992954D02*
X85057147Y-35135811D01*
X85057147Y-35135811D02*
X84961909Y-35231050D01*
X84961909Y-35231050D02*
X84819052Y-35278669D01*
X84819052Y-35278669D02*
X84723814Y-35278669D01*
X85485719Y-34278669D02*
X86104766Y-34278669D01*
X86104766Y-34278669D02*
X85771433Y-34659621D01*
X85771433Y-34659621D02*
X85914290Y-34659621D01*
X85914290Y-34659621D02*
X86009528Y-34707240D01*
X86009528Y-34707240D02*
X86057147Y-34754859D01*
X86057147Y-34754859D02*
X86104766Y-34850097D01*
X86104766Y-34850097D02*
X86104766Y-35088192D01*
X86104766Y-35088192D02*
X86057147Y-35183430D01*
X86057147Y-35183430D02*
X86009528Y-35231050D01*
X86009528Y-35231050D02*
X85914290Y-35278669D01*
X85914290Y-35278669D02*
X85628576Y-35278669D01*
X85628576Y-35278669D02*
X85533338Y-35231050D01*
X85533338Y-35231050D02*
X85485719Y-35183430D01*
X119000000Y-136456819D02*
X119333333Y-137456819D01*
X119333333Y-137456819D02*
X119666666Y-136456819D01*
X119952381Y-137409200D02*
X120047619Y-137456819D01*
X120047619Y-137456819D02*
X120238095Y-137456819D01*
X120238095Y-137456819D02*
X120333333Y-137409200D01*
X120333333Y-137409200D02*
X120380952Y-137313961D01*
X120380952Y-137313961D02*
X120380952Y-137266342D01*
X120380952Y-137266342D02*
X120333333Y-137171104D01*
X120333333Y-137171104D02*
X120238095Y-137123485D01*
X120238095Y-137123485D02*
X120095238Y-137123485D01*
X120095238Y-137123485D02*
X120000000Y-137075866D01*
X120000000Y-137075866D02*
X119952381Y-136980628D01*
X119952381Y-136980628D02*
X119952381Y-136933009D01*
X119952381Y-136933009D02*
X120000000Y-136837771D01*
X120000000Y-136837771D02*
X120095238Y-136790152D01*
X120095238Y-136790152D02*
X120238095Y-136790152D01*
X120238095Y-136790152D02*
X120333333Y-136837771D01*
X120571429Y-137552057D02*
X121333333Y-137552057D01*
X122047619Y-137456819D02*
X121571429Y-137456819D01*
X121571429Y-137456819D02*
X121571429Y-136456819D01*
X122904762Y-137456819D02*
X122333334Y-137456819D01*
X122619048Y-137456819D02*
X122619048Y-136456819D01*
X122619048Y-136456819D02*
X122523810Y-136599676D01*
X122523810Y-136599676D02*
X122428572Y-136694914D01*
X122428572Y-136694914D02*
X122333334Y-136742533D01*
X112186457Y-70467638D02*
X112138838Y-70562876D01*
X112138838Y-70562876D02*
X112043600Y-70658114D01*
X112043600Y-70658114D02*
X111900742Y-70800971D01*
X111900742Y-70800971D02*
X111853123Y-70896209D01*
X111853123Y-70896209D02*
X111853123Y-70991447D01*
X112091219Y-70943828D02*
X112043600Y-71039066D01*
X112043600Y-71039066D02*
X111948361Y-71134304D01*
X111948361Y-71134304D02*
X111757885Y-71181923D01*
X111757885Y-71181923D02*
X111424552Y-71181923D01*
X111424552Y-71181923D02*
X111234076Y-71134304D01*
X111234076Y-71134304D02*
X111138838Y-71039066D01*
X111138838Y-71039066D02*
X111091219Y-70943828D01*
X111091219Y-70943828D02*
X111091219Y-70753352D01*
X111091219Y-70753352D02*
X111138838Y-70658114D01*
X111138838Y-70658114D02*
X111234076Y-70562876D01*
X111234076Y-70562876D02*
X111424552Y-70515257D01*
X111424552Y-70515257D02*
X111757885Y-70515257D01*
X111757885Y-70515257D02*
X111948361Y-70562876D01*
X111948361Y-70562876D02*
X112043600Y-70658114D01*
X112043600Y-70658114D02*
X112091219Y-70753352D01*
X112091219Y-70753352D02*
X112091219Y-70943828D01*
X111186457Y-70134304D02*
X111138838Y-70086685D01*
X111138838Y-70086685D02*
X111091219Y-69991447D01*
X111091219Y-69991447D02*
X111091219Y-69753352D01*
X111091219Y-69753352D02*
X111138838Y-69658114D01*
X111138838Y-69658114D02*
X111186457Y-69610495D01*
X111186457Y-69610495D02*
X111281695Y-69562876D01*
X111281695Y-69562876D02*
X111376933Y-69562876D01*
X111376933Y-69562876D02*
X111519790Y-69610495D01*
X111519790Y-69610495D02*
X112091219Y-70181923D01*
X112091219Y-70181923D02*
X112091219Y-69562876D01*
X135071428Y-136456819D02*
X135404761Y-137456819D01*
X135404761Y-137456819D02*
X135738094Y-136456819D01*
X136499999Y-137409200D02*
X136404761Y-137456819D01*
X136404761Y-137456819D02*
X136214285Y-137456819D01*
X136214285Y-137456819D02*
X136119047Y-137409200D01*
X136119047Y-137409200D02*
X136071428Y-137361580D01*
X136071428Y-137361580D02*
X136023809Y-137266342D01*
X136023809Y-137266342D02*
X136023809Y-136980628D01*
X136023809Y-136980628D02*
X136071428Y-136885390D01*
X136071428Y-136885390D02*
X136119047Y-136837771D01*
X136119047Y-136837771D02*
X136214285Y-136790152D01*
X136214285Y-136790152D02*
X136404761Y-136790152D01*
X136404761Y-136790152D02*
X136499999Y-136837771D01*
X136833333Y-136790152D02*
X137071428Y-137456819D01*
X137071428Y-137456819D02*
X137309523Y-136790152D01*
X137690476Y-137456819D02*
X137690476Y-136790152D01*
X137690476Y-136980628D02*
X137738095Y-136885390D01*
X137738095Y-136885390D02*
X137785714Y-136837771D01*
X137785714Y-136837771D02*
X137880952Y-136790152D01*
X137880952Y-136790152D02*
X137976190Y-136790152D01*
X138833333Y-137456819D02*
X138261905Y-137456819D01*
X138547619Y-137456819D02*
X138547619Y-136456819D01*
X138547619Y-136456819D02*
X138452381Y-136599676D01*
X138452381Y-136599676D02*
X138357143Y-136694914D01*
X138357143Y-136694914D02*
X138261905Y-136742533D01*
X70238095Y-137354819D02*
X70238095Y-136354819D01*
X70238095Y-136831009D02*
X70809523Y-136831009D01*
X70809523Y-137354819D02*
X70809523Y-136354819D01*
X71190476Y-136354819D02*
X71857142Y-136354819D01*
X71857142Y-136354819D02*
X71428571Y-137354819D01*
X127060476Y-33931819D02*
X127393809Y-34931819D01*
X127393809Y-34931819D02*
X127727142Y-33931819D01*
X128489047Y-34931819D02*
X128489047Y-33931819D01*
X128489047Y-34884200D02*
X128393809Y-34931819D01*
X128393809Y-34931819D02*
X128203333Y-34931819D01*
X128203333Y-34931819D02*
X128108095Y-34884200D01*
X128108095Y-34884200D02*
X128060476Y-34836580D01*
X128060476Y-34836580D02*
X128012857Y-34741342D01*
X128012857Y-34741342D02*
X128012857Y-34455628D01*
X128012857Y-34455628D02*
X128060476Y-34360390D01*
X128060476Y-34360390D02*
X128108095Y-34312771D01*
X128108095Y-34312771D02*
X128203333Y-34265152D01*
X128203333Y-34265152D02*
X128393809Y-34265152D01*
X128393809Y-34265152D02*
X128489047Y-34312771D01*
X129393809Y-34884200D02*
X129298571Y-34931819D01*
X129298571Y-34931819D02*
X129108095Y-34931819D01*
X129108095Y-34931819D02*
X129012857Y-34884200D01*
X129012857Y-34884200D02*
X128965238Y-34836580D01*
X128965238Y-34836580D02*
X128917619Y-34741342D01*
X128917619Y-34741342D02*
X128917619Y-34455628D01*
X128917619Y-34455628D02*
X128965238Y-34360390D01*
X128965238Y-34360390D02*
X129012857Y-34312771D01*
X129012857Y-34312771D02*
X129108095Y-34265152D01*
X129108095Y-34265152D02*
X129298571Y-34265152D01*
X129298571Y-34265152D02*
X129393809Y-34312771D01*
X129822381Y-34550866D02*
X130584286Y-34550866D01*
X130203333Y-34931819D02*
X130203333Y-34169914D01*
X131012857Y-34027057D02*
X131060476Y-33979438D01*
X131060476Y-33979438D02*
X131155714Y-33931819D01*
X131155714Y-33931819D02*
X131393809Y-33931819D01*
X131393809Y-33931819D02*
X131489047Y-33979438D01*
X131489047Y-33979438D02*
X131536666Y-34027057D01*
X131536666Y-34027057D02*
X131584285Y-34122295D01*
X131584285Y-34122295D02*
X131584285Y-34217533D01*
X131584285Y-34217533D02*
X131536666Y-34360390D01*
X131536666Y-34360390D02*
X130965238Y-34931819D01*
X130965238Y-34931819D02*
X131584285Y-34931819D01*
X135441428Y-33931819D02*
X135774761Y-34931819D01*
X135774761Y-34931819D02*
X136108094Y-33931819D01*
X136869999Y-34884200D02*
X136774761Y-34931819D01*
X136774761Y-34931819D02*
X136584285Y-34931819D01*
X136584285Y-34931819D02*
X136489047Y-34884200D01*
X136489047Y-34884200D02*
X136441428Y-34836580D01*
X136441428Y-34836580D02*
X136393809Y-34741342D01*
X136393809Y-34741342D02*
X136393809Y-34455628D01*
X136393809Y-34455628D02*
X136441428Y-34360390D01*
X136441428Y-34360390D02*
X136489047Y-34312771D01*
X136489047Y-34312771D02*
X136584285Y-34265152D01*
X136584285Y-34265152D02*
X136774761Y-34265152D01*
X136774761Y-34265152D02*
X136869999Y-34312771D01*
X137203333Y-34265152D02*
X137441428Y-34931819D01*
X137441428Y-34931819D02*
X137679523Y-34265152D01*
X138060476Y-34931819D02*
X138060476Y-34265152D01*
X138060476Y-34455628D02*
X138108095Y-34360390D01*
X138108095Y-34360390D02*
X138155714Y-34312771D01*
X138155714Y-34312771D02*
X138250952Y-34265152D01*
X138250952Y-34265152D02*
X138346190Y-34265152D01*
X138631905Y-34027057D02*
X138679524Y-33979438D01*
X138679524Y-33979438D02*
X138774762Y-33931819D01*
X138774762Y-33931819D02*
X139012857Y-33931819D01*
X139012857Y-33931819D02*
X139108095Y-33979438D01*
X139108095Y-33979438D02*
X139155714Y-34027057D01*
X139155714Y-34027057D02*
X139203333Y-34122295D01*
X139203333Y-34122295D02*
X139203333Y-34217533D01*
X139203333Y-34217533D02*
X139155714Y-34360390D01*
X139155714Y-34360390D02*
X138584286Y-34931819D01*
X138584286Y-34931819D02*
X139203333Y-34931819D01*
X112952381Y-136456819D02*
X113285714Y-137456819D01*
X113285714Y-137456819D02*
X113619047Y-136456819D01*
X114380952Y-136790152D02*
X114380952Y-137599676D01*
X114380952Y-137599676D02*
X114333333Y-137694914D01*
X114333333Y-137694914D02*
X114285714Y-137742533D01*
X114285714Y-137742533D02*
X114190476Y-137790152D01*
X114190476Y-137790152D02*
X114047619Y-137790152D01*
X114047619Y-137790152D02*
X113952381Y-137742533D01*
X114380952Y-137409200D02*
X114285714Y-137456819D01*
X114285714Y-137456819D02*
X114095238Y-137456819D01*
X114095238Y-137456819D02*
X114000000Y-137409200D01*
X114000000Y-137409200D02*
X113952381Y-137361580D01*
X113952381Y-137361580D02*
X113904762Y-137266342D01*
X113904762Y-137266342D02*
X113904762Y-136980628D01*
X113904762Y-136980628D02*
X113952381Y-136885390D01*
X113952381Y-136885390D02*
X114000000Y-136837771D01*
X114000000Y-136837771D02*
X114095238Y-136790152D01*
X114095238Y-136790152D02*
X114285714Y-136790152D01*
X114285714Y-136790152D02*
X114380952Y-136837771D01*
X114619048Y-137552057D02*
X115380952Y-137552057D01*
X116095238Y-137456819D02*
X115619048Y-137456819D01*
X115619048Y-137456819D02*
X115619048Y-136456819D01*
X116952381Y-137456819D02*
X116380953Y-137456819D01*
X116666667Y-137456819D02*
X116666667Y-136456819D01*
X116666667Y-136456819D02*
X116571429Y-136599676D01*
X116571429Y-136599676D02*
X116476191Y-136694914D01*
X116476191Y-136694914D02*
X116380953Y-136742533D01*
X85595233Y-139421330D02*
X85595233Y-138707045D01*
X85595233Y-138707045D02*
X85642852Y-138564188D01*
X85642852Y-138564188D02*
X85738090Y-138468950D01*
X85738090Y-138468950D02*
X85880947Y-138421330D01*
X85880947Y-138421330D02*
X85976185Y-138421330D01*
X84690471Y-139087997D02*
X84690471Y-138421330D01*
X84928566Y-139468950D02*
X85166661Y-138754664D01*
X85166661Y-138754664D02*
X84547614Y-138754664D01*
X70619565Y-28229819D02*
X70619565Y-27229819D01*
X70619565Y-27706009D02*
X71190993Y-27706009D01*
X71190993Y-28229819D02*
X71190993Y-27229819D01*
X72095755Y-27229819D02*
X71905279Y-27229819D01*
X71905279Y-27229819D02*
X71810041Y-27277438D01*
X71810041Y-27277438D02*
X71762422Y-27325057D01*
X71762422Y-27325057D02*
X71667184Y-27467914D01*
X71667184Y-27467914D02*
X71619565Y-27658390D01*
X71619565Y-27658390D02*
X71619565Y-28039342D01*
X71619565Y-28039342D02*
X71667184Y-28134580D01*
X71667184Y-28134580D02*
X71714803Y-28182200D01*
X71714803Y-28182200D02*
X71810041Y-28229819D01*
X71810041Y-28229819D02*
X72000517Y-28229819D01*
X72000517Y-28229819D02*
X72095755Y-28182200D01*
X72095755Y-28182200D02*
X72143374Y-28134580D01*
X72143374Y-28134580D02*
X72190993Y-28039342D01*
X72190993Y-28039342D02*
X72190993Y-27801247D01*
X72190993Y-27801247D02*
X72143374Y-27706009D01*
X72143374Y-27706009D02*
X72095755Y-27658390D01*
X72095755Y-27658390D02*
X72000517Y-27610771D01*
X72000517Y-27610771D02*
X71810041Y-27610771D01*
X71810041Y-27610771D02*
X71714803Y-27658390D01*
X71714803Y-27658390D02*
X71667184Y-27706009D01*
X71667184Y-27706009D02*
X71619565Y-27801247D01*
D13*
%TO.C,Vg_H1*%
X113570000Y-36475000D02*
G75*
G02*
X111170000Y-36475000I-1200000J0D01*
G01*
X111170000Y-36475000D02*
G75*
G02*
X113570000Y-36475000I1200000J0D01*
G01*
%TO.C,Vs_H1*%
X120570000Y-36475000D02*
G75*
G02*
X118170000Y-36475000I-1200000J0D01*
G01*
X118170000Y-36475000D02*
G75*
G02*
X120570000Y-36475000I1200000J0D01*
G01*
%TO.C,Vc+1*%
X146570000Y-36475000D02*
G75*
G02*
X144170000Y-36475000I-1200000J0D01*
G01*
X144170000Y-36475000D02*
G75*
G02*
X146570000Y-36475000I1200000J0D01*
G01*
%TO.C,Vdc+1*%
X130200000Y-139000000D02*
G75*
G02*
X127800000Y-139000000I-1200000J0D01*
G01*
X127800000Y-139000000D02*
G75*
G02*
X130200000Y-139000000I1200000J0D01*
G01*
D10*
%TO.C,J1*%
X94540000Y-104360000D02*
X94540000Y-109440000D01*
X89460000Y-109440000D02*
X89460000Y-104360000D01*
X93370000Y-102000000D02*
G75*
G02*
X93170000Y-102000000I-100000J0D01*
G01*
X93170000Y-102000000D02*
G75*
G02*
X93370000Y-102000000I100000J0D01*
G01*
D13*
%TO.C,C4*%
X205430000Y-71630000D02*
X216170000Y-71630000D01*
X205430000Y-98370000D02*
X205430000Y-71630000D01*
X216170000Y-71630000D02*
X216170000Y-98370000D01*
X216170000Y-98370000D02*
X205430000Y-98370000D01*
%TO.C,Q1*%
X110055000Y-115008400D02*
X104805000Y-115008400D01*
X110055000Y-113908400D02*
X110055000Y-115008400D01*
X110055000Y-108753400D02*
X109835000Y-108753400D01*
X110055000Y-108458400D02*
X110055000Y-110888400D01*
X110055000Y-105143400D02*
X109835000Y-105143400D01*
X110055000Y-103008400D02*
X110055000Y-105438400D01*
X110055000Y-98888400D02*
X110055000Y-99988400D01*
X104805000Y-115008400D02*
X104805000Y-98888400D01*
X104805000Y-98888400D02*
X110055000Y-98888400D01*
%TO.C,C2*%
X179430000Y-71630000D02*
X190170000Y-71630000D01*
X179430000Y-98370000D02*
X179430000Y-71630000D01*
X190170000Y-71630000D02*
X190170000Y-98370000D01*
X190170000Y-98370000D02*
X179430000Y-98370000D01*
%TO.C,C1*%
X166430000Y-71630000D02*
X177170000Y-71630000D01*
X166430000Y-98370000D02*
X166430000Y-71630000D01*
X177170000Y-71630000D02*
X177170000Y-98370000D01*
X177170000Y-98370000D02*
X166430000Y-98370000D01*
%TO.C,D1*%
X118906200Y-114943200D02*
X113656200Y-114943200D01*
X118906200Y-113843200D02*
X118906200Y-114943200D01*
X118906200Y-108688200D02*
X118686200Y-108688200D01*
X118906200Y-105078200D02*
X118686200Y-105078200D01*
X118906200Y-102943200D02*
X118906200Y-110823200D01*
X118906200Y-98823200D02*
X118906200Y-99923200D01*
X113656200Y-114943200D02*
X113656200Y-98823200D01*
X113656200Y-98823200D02*
X118906200Y-98823200D01*
%TO.C,D2*%
X119668200Y-78418000D02*
X114418200Y-78418000D01*
X119668200Y-77318000D02*
X119668200Y-78418000D01*
X119668200Y-72163000D02*
X119448200Y-72163000D01*
X119668200Y-68553000D02*
X119448200Y-68553000D01*
X119668200Y-66418000D02*
X119668200Y-74298000D01*
X119668200Y-62298000D02*
X119668200Y-63398000D01*
X114418200Y-78418000D02*
X114418200Y-62298000D01*
X114418200Y-62298000D02*
X119668200Y-62298000D01*
%TO.C,Vc-1*%
X146200000Y-139000000D02*
G75*
G02*
X143800000Y-139000000I-1200000J0D01*
G01*
X143800000Y-139000000D02*
G75*
G02*
X146200000Y-139000000I1200000J0D01*
G01*
%TO.C,C3*%
X192430000Y-71630000D02*
X203170000Y-71630000D01*
X192430000Y-98370000D02*
X192430000Y-71630000D01*
X203170000Y-71630000D02*
X203170000Y-98370000D01*
X203170000Y-98370000D02*
X192430000Y-98370000D01*
D10*
%TO.C,J2*%
X94540000Y-68360000D02*
X94540000Y-73440000D01*
X89460000Y-73440000D02*
X89460000Y-68360000D01*
X93370000Y-66000000D02*
G75*
G02*
X93170000Y-66000000I-100000J0D01*
G01*
X93170000Y-66000000D02*
G75*
G02*
X93370000Y-66000000I100000J0D01*
G01*
D14*
%TO.C,J3*%
X79342100Y-31378246D02*
X79342100Y-33062454D01*
X79342100Y-36585246D02*
X79342100Y-38269454D01*
X81713949Y-40919850D02*
X89162251Y-40919850D01*
X89162251Y-28727850D02*
X81713949Y-28727850D01*
X91534100Y-33062454D02*
X91534100Y-31378246D01*
X91534100Y-38269454D02*
X91534100Y-36585246D01*
D13*
%TO.C,Vs_L1*%
X122200000Y-139000000D02*
G75*
G02*
X119800000Y-139000000I-1200000J0D01*
G01*
X119800000Y-139000000D02*
G75*
G02*
X122200000Y-139000000I1200000J0D01*
G01*
%TO.C,Q2*%
X110796400Y-78432400D02*
X105546400Y-78432400D01*
X110796400Y-77332400D02*
X110796400Y-78432400D01*
X110796400Y-72177400D02*
X110576400Y-72177400D01*
X110796400Y-71882400D02*
X110796400Y-74312400D01*
X110796400Y-68567400D02*
X110576400Y-68567400D01*
X110796400Y-66432400D02*
X110796400Y-68862400D01*
X110796400Y-62312400D02*
X110796400Y-63412400D01*
X105546400Y-78432400D02*
X105546400Y-62312400D01*
X105546400Y-62312400D02*
X110796400Y-62312400D01*
%TO.C,Vcvr1*%
X138200000Y-139000000D02*
G75*
G02*
X135800000Y-139000000I-1200000J0D01*
G01*
X135800000Y-139000000D02*
G75*
G02*
X138200000Y-139000000I1200000J0D01*
G01*
%TO.C,Vdc+2*%
X130570000Y-36475000D02*
G75*
G02*
X128170000Y-36475000I-1200000J0D01*
G01*
X128170000Y-36475000D02*
G75*
G02*
X130570000Y-36475000I1200000J0D01*
G01*
%TO.C,Vcvr2*%
X138570000Y-36475000D02*
G75*
G02*
X136170000Y-36475000I-1200000J0D01*
G01*
X136170000Y-36475000D02*
G75*
G02*
X138570000Y-36475000I1200000J0D01*
G01*
%TO.C,Vg_L1*%
X116200000Y-139000000D02*
G75*
G02*
X113800000Y-139000000I-1200000J0D01*
G01*
X113800000Y-139000000D02*
G75*
G02*
X116200000Y-139000000I1200000J0D01*
G01*
D14*
%TO.C,J4*%
X79165900Y-135430546D02*
X79165900Y-137114754D01*
X79165900Y-140637546D02*
X79165900Y-142321754D01*
X81537749Y-144972150D02*
X88986051Y-144972150D01*
X88986051Y-132780150D02*
X81537749Y-132780150D01*
X91357900Y-137114754D02*
X91357900Y-135430546D01*
X91357900Y-142321754D02*
X91357900Y-140637546D01*
%TD*%
M02*
