%TF.GenerationSoftware,KiCad,Pcbnew,9.0.6*%
%TF.CreationDate,2025-12-19T02:54:44-05:00*%
%TF.ProjectId,CSI_Tester,4353495f-5465-4737-9465-722e6b696361,rev?*%
%TF.SameCoordinates,Original*%
%TF.FileFunction,Soldermask,Top*%
%TF.FilePolarity,Negative*%
%FSLAX46Y46*%
G04 Gerber Fmt 4.6, Leading zero omitted, Abs format (unit mm)*
G04 Created by KiCad (PCBNEW 9.0.6) date 2025-12-19 02:54:44*
%MOMM*%
%LPD*%
G01*
G04 APERTURE LIST*
G04 Aperture macros list*
%AMRoundRect*
0 Rectangle with rounded corners*
0 $1 Rounding radius*
0 $2 $3 $4 $5 $6 $7 $8 $9 X,Y pos of 4 corners*
0 Add a 4 corners polygon primitive as box body*
4,1,4,$2,$3,$4,$5,$6,$7,$8,$9,$2,$3,0*
0 Add four circle primitives for the rounded corners*
1,1,$1+$1,$2,$3*
1,1,$1+$1,$4,$5*
1,1,$1+$1,$6,$7*
1,1,$1+$1,$8,$9*
0 Add four rect primitives between the rounded corners*
20,1,$1+$1,$2,$3,$4,$5,0*
20,1,$1+$1,$4,$5,$6,$7,0*
20,1,$1+$1,$6,$7,$8,$9,0*
20,1,$1+$1,$8,$9,$2,$3,0*%
G04 Aperture macros list end*
%ADD10C,2.140000*%
%ADD11RoundRect,0.102000X-0.635000X-1.840000X0.635000X-1.840000X0.635000X1.840000X-0.635000X1.840000X0*%
%ADD12C,2.540000*%
%ADD13RoundRect,0.070000X-2.250000X1.250000X-2.250000X-1.250000X2.250000X-1.250000X2.250000X1.250000X0*%
%ADD14O,4.640000X2.640000*%
%ADD15RoundRect,0.070000X-10.000000X-10.000000X10.000000X-10.000000X10.000000X10.000000X-10.000000X10.000000X0*%
%ADD16C,4.440000*%
%ADD17C,3.264200*%
G04 APERTURE END LIST*
D10*
%TO.C,Vg_H1*%
X112370000Y-36475000D03*
%TD*%
%TO.C,Vs_H1*%
X119370000Y-36475000D03*
%TD*%
%TO.C,Vc+1*%
X145370000Y-36475000D03*
%TD*%
%TO.C,Vdc+1*%
X129000000Y-139000000D03*
%TD*%
D11*
%TO.C,J1*%
X93270000Y-104425000D03*
X93270000Y-109375000D03*
X90730000Y-104425000D03*
X90730000Y-109375000D03*
%TD*%
D12*
%TO.C,C4*%
X210800000Y-96250000D03*
X210800000Y-73750000D03*
%TD*%
D13*
%TO.C,Q1*%
X107615000Y-101498400D03*
D14*
X107615000Y-106948400D03*
X107615000Y-112398400D03*
%TD*%
D12*
%TO.C,C2*%
X184800000Y-96250000D03*
X184800000Y-73750000D03*
%TD*%
%TO.C,C1*%
X171800000Y-96250000D03*
X171800000Y-73750000D03*
%TD*%
D13*
%TO.C,D1*%
X116466200Y-101433200D03*
D14*
X116466200Y-112333200D03*
%TD*%
D15*
%TO.C,R1*%
X144000000Y-110000000D03*
%TD*%
D13*
%TO.C,D2*%
X117228200Y-64908000D03*
D14*
X117228200Y-75808000D03*
%TD*%
D10*
%TO.C,Vc-1*%
X145000000Y-139000000D03*
%TD*%
D12*
%TO.C,C3*%
X197800000Y-96250000D03*
X197800000Y-73750000D03*
%TD*%
D16*
%TO.C,H5*%
X212900000Y-141700000D03*
%TD*%
D15*
%TO.C,R2*%
X144400000Y-65300000D03*
%TD*%
D16*
%TO.C,H4*%
X212600000Y-32000000D03*
%TD*%
D11*
%TO.C,J2*%
X93270000Y-68425000D03*
X93270000Y-73375000D03*
X90730000Y-68425000D03*
X90730000Y-73375000D03*
%TD*%
D17*
%TO.C,J3*%
X80040600Y-29616850D03*
X80040600Y-34823850D03*
X80040600Y-40030850D03*
X90835600Y-29616850D03*
X90835600Y-34823850D03*
X90835600Y-40030850D03*
%TD*%
D10*
%TO.C,Vs_L1*%
X121000000Y-139000000D03*
%TD*%
D13*
%TO.C,Q2*%
X108356400Y-64922400D03*
D14*
X108356400Y-70372400D03*
X108356400Y-75822400D03*
%TD*%
D10*
%TO.C,Vcvr1*%
X137000000Y-139000000D03*
%TD*%
D16*
%TO.C,H7*%
X71000000Y-141600000D03*
%TD*%
D10*
%TO.C,Vdc+2*%
X129370000Y-36475000D03*
%TD*%
%TO.C,Vcvr2*%
X137370000Y-36475000D03*
%TD*%
%TO.C,Vg_L1*%
X115000000Y-139000000D03*
%TD*%
D17*
%TO.C,J4*%
X90659400Y-144083150D03*
X90659400Y-138876150D03*
X90659400Y-133669150D03*
X79864400Y-144083150D03*
X79864400Y-138876150D03*
X79864400Y-133669150D03*
%TD*%
D16*
%TO.C,H6*%
X71381470Y-32475000D03*
%TD*%
M02*
