G04 #@! TF.GenerationSoftware,KiCad,Pcbnew,9.0.5*
G04 #@! TF.CreationDate,2025-10-26T17:23:22-04:00*
G04 #@! TF.ProjectId,ReedRelay_Drive,52656564-5265-46c6-9179-5f4472697665,rev?*
G04 #@! TF.SameCoordinates,Original*
G04 #@! TF.FileFunction,Legend,Top*
G04 #@! TF.FilePolarity,Positive*
%FSLAX46Y46*%
G04 Gerber Fmt 4.6, Leading zero omitted, Abs format (unit mm)*
G04 Created by KiCad (PCBNEW 9.0.5) date 2025-10-26 17:23:22*
%MOMM*%
%LPD*%
G01*
G04 APERTURE LIST*
%ADD10C,0.100000*%
%ADD11C,0.200000*%
%ADD12C,0.150000*%
%ADD13C,0.127000*%
%ADD14C,0.152400*%
%ADD15C,0.120000*%
%ADD16C,0.400000*%
G04 APERTURE END LIST*
D10*
X85172693Y-84287643D02*
X84601265Y-84287643D01*
X84886979Y-84287643D02*
X84886979Y-83287643D01*
X84886979Y-83287643D02*
X84791741Y-83430500D01*
X84791741Y-83430500D02*
X84696503Y-83525738D01*
X84696503Y-83525738D02*
X84601265Y-83573357D01*
X85601265Y-84192404D02*
X85648884Y-84240024D01*
X85648884Y-84240024D02*
X85601265Y-84287643D01*
X85601265Y-84287643D02*
X85553646Y-84240024D01*
X85553646Y-84240024D02*
X85601265Y-84192404D01*
X85601265Y-84192404D02*
X85601265Y-84287643D01*
X87410788Y-84192404D02*
X87363169Y-84240024D01*
X87363169Y-84240024D02*
X87220312Y-84287643D01*
X87220312Y-84287643D02*
X87125074Y-84287643D01*
X87125074Y-84287643D02*
X86982217Y-84240024D01*
X86982217Y-84240024D02*
X86886979Y-84144785D01*
X86886979Y-84144785D02*
X86839360Y-84049547D01*
X86839360Y-84049547D02*
X86791741Y-83859071D01*
X86791741Y-83859071D02*
X86791741Y-83716214D01*
X86791741Y-83716214D02*
X86839360Y-83525738D01*
X86839360Y-83525738D02*
X86886979Y-83430500D01*
X86886979Y-83430500D02*
X86982217Y-83335262D01*
X86982217Y-83335262D02*
X87125074Y-83287643D01*
X87125074Y-83287643D02*
X87220312Y-83287643D01*
X87220312Y-83287643D02*
X87363169Y-83335262D01*
X87363169Y-83335262D02*
X87410788Y-83382881D01*
X87982217Y-84287643D02*
X87886979Y-84240024D01*
X87886979Y-84240024D02*
X87839360Y-84144785D01*
X87839360Y-84144785D02*
X87839360Y-83287643D01*
X88506027Y-84287643D02*
X88410789Y-84240024D01*
X88410789Y-84240024D02*
X88363170Y-84192404D01*
X88363170Y-84192404D02*
X88315551Y-84097166D01*
X88315551Y-84097166D02*
X88315551Y-83811452D01*
X88315551Y-83811452D02*
X88363170Y-83716214D01*
X88363170Y-83716214D02*
X88410789Y-83668595D01*
X88410789Y-83668595D02*
X88506027Y-83620976D01*
X88506027Y-83620976D02*
X88648884Y-83620976D01*
X88648884Y-83620976D02*
X88744122Y-83668595D01*
X88744122Y-83668595D02*
X88791741Y-83716214D01*
X88791741Y-83716214D02*
X88839360Y-83811452D01*
X88839360Y-83811452D02*
X88839360Y-84097166D01*
X88839360Y-84097166D02*
X88791741Y-84192404D01*
X88791741Y-84192404D02*
X88744122Y-84240024D01*
X88744122Y-84240024D02*
X88648884Y-84287643D01*
X88648884Y-84287643D02*
X88506027Y-84287643D01*
X89220313Y-84240024D02*
X89315551Y-84287643D01*
X89315551Y-84287643D02*
X89506027Y-84287643D01*
X89506027Y-84287643D02*
X89601265Y-84240024D01*
X89601265Y-84240024D02*
X89648884Y-84144785D01*
X89648884Y-84144785D02*
X89648884Y-84097166D01*
X89648884Y-84097166D02*
X89601265Y-84001928D01*
X89601265Y-84001928D02*
X89506027Y-83954309D01*
X89506027Y-83954309D02*
X89363170Y-83954309D01*
X89363170Y-83954309D02*
X89267932Y-83906690D01*
X89267932Y-83906690D02*
X89220313Y-83811452D01*
X89220313Y-83811452D02*
X89220313Y-83763833D01*
X89220313Y-83763833D02*
X89267932Y-83668595D01*
X89267932Y-83668595D02*
X89363170Y-83620976D01*
X89363170Y-83620976D02*
X89506027Y-83620976D01*
X89506027Y-83620976D02*
X89601265Y-83668595D01*
X90458408Y-84240024D02*
X90363170Y-84287643D01*
X90363170Y-84287643D02*
X90172694Y-84287643D01*
X90172694Y-84287643D02*
X90077456Y-84240024D01*
X90077456Y-84240024D02*
X90029837Y-84144785D01*
X90029837Y-84144785D02*
X90029837Y-83763833D01*
X90029837Y-83763833D02*
X90077456Y-83668595D01*
X90077456Y-83668595D02*
X90172694Y-83620976D01*
X90172694Y-83620976D02*
X90363170Y-83620976D01*
X90363170Y-83620976D02*
X90458408Y-83668595D01*
X90458408Y-83668595D02*
X90506027Y-83763833D01*
X90506027Y-83763833D02*
X90506027Y-83859071D01*
X90506027Y-83859071D02*
X90029837Y-83954309D01*
X91648885Y-84240024D02*
X91791742Y-84287643D01*
X91791742Y-84287643D02*
X92029837Y-84287643D01*
X92029837Y-84287643D02*
X92125075Y-84240024D01*
X92125075Y-84240024D02*
X92172694Y-84192404D01*
X92172694Y-84192404D02*
X92220313Y-84097166D01*
X92220313Y-84097166D02*
X92220313Y-84001928D01*
X92220313Y-84001928D02*
X92172694Y-83906690D01*
X92172694Y-83906690D02*
X92125075Y-83859071D01*
X92125075Y-83859071D02*
X92029837Y-83811452D01*
X92029837Y-83811452D02*
X91839361Y-83763833D01*
X91839361Y-83763833D02*
X91744123Y-83716214D01*
X91744123Y-83716214D02*
X91696504Y-83668595D01*
X91696504Y-83668595D02*
X91648885Y-83573357D01*
X91648885Y-83573357D02*
X91648885Y-83478119D01*
X91648885Y-83478119D02*
X91696504Y-83382881D01*
X91696504Y-83382881D02*
X91744123Y-83335262D01*
X91744123Y-83335262D02*
X91839361Y-83287643D01*
X91839361Y-83287643D02*
X92077456Y-83287643D01*
X92077456Y-83287643D02*
X92220313Y-83335262D01*
X92601266Y-83382881D02*
X92648885Y-83335262D01*
X92648885Y-83335262D02*
X92744123Y-83287643D01*
X92744123Y-83287643D02*
X92982218Y-83287643D01*
X92982218Y-83287643D02*
X93077456Y-83335262D01*
X93077456Y-83335262D02*
X93125075Y-83382881D01*
X93125075Y-83382881D02*
X93172694Y-83478119D01*
X93172694Y-83478119D02*
X93172694Y-83573357D01*
X93172694Y-83573357D02*
X93125075Y-83716214D01*
X93125075Y-83716214D02*
X92553647Y-84287643D01*
X92553647Y-84287643D02*
X93172694Y-84287643D01*
X94791742Y-84287643D02*
X94791742Y-83763833D01*
X94791742Y-83763833D02*
X94744123Y-83668595D01*
X94744123Y-83668595D02*
X94648885Y-83620976D01*
X94648885Y-83620976D02*
X94458409Y-83620976D01*
X94458409Y-83620976D02*
X94363171Y-83668595D01*
X94791742Y-84240024D02*
X94696504Y-84287643D01*
X94696504Y-84287643D02*
X94458409Y-84287643D01*
X94458409Y-84287643D02*
X94363171Y-84240024D01*
X94363171Y-84240024D02*
X94315552Y-84144785D01*
X94315552Y-84144785D02*
X94315552Y-84049547D01*
X94315552Y-84049547D02*
X94363171Y-83954309D01*
X94363171Y-83954309D02*
X94458409Y-83906690D01*
X94458409Y-83906690D02*
X94696504Y-83906690D01*
X94696504Y-83906690D02*
X94791742Y-83859071D01*
X95267933Y-83620976D02*
X95267933Y-84287643D01*
X95267933Y-83716214D02*
X95315552Y-83668595D01*
X95315552Y-83668595D02*
X95410790Y-83620976D01*
X95410790Y-83620976D02*
X95553647Y-83620976D01*
X95553647Y-83620976D02*
X95648885Y-83668595D01*
X95648885Y-83668595D02*
X95696504Y-83763833D01*
X95696504Y-83763833D02*
X95696504Y-84287643D01*
X96601266Y-84287643D02*
X96601266Y-83287643D01*
X96601266Y-84240024D02*
X96506028Y-84287643D01*
X96506028Y-84287643D02*
X96315552Y-84287643D01*
X96315552Y-84287643D02*
X96220314Y-84240024D01*
X96220314Y-84240024D02*
X96172695Y-84192404D01*
X96172695Y-84192404D02*
X96125076Y-84097166D01*
X96125076Y-84097166D02*
X96125076Y-83811452D01*
X96125076Y-83811452D02*
X96172695Y-83716214D01*
X96172695Y-83716214D02*
X96220314Y-83668595D01*
X96220314Y-83668595D02*
X96315552Y-83620976D01*
X96315552Y-83620976D02*
X96506028Y-83620976D01*
X96506028Y-83620976D02*
X96601266Y-83668595D01*
X97791743Y-84240024D02*
X97934600Y-84287643D01*
X97934600Y-84287643D02*
X98172695Y-84287643D01*
X98172695Y-84287643D02*
X98267933Y-84240024D01*
X98267933Y-84240024D02*
X98315552Y-84192404D01*
X98315552Y-84192404D02*
X98363171Y-84097166D01*
X98363171Y-84097166D02*
X98363171Y-84001928D01*
X98363171Y-84001928D02*
X98315552Y-83906690D01*
X98315552Y-83906690D02*
X98267933Y-83859071D01*
X98267933Y-83859071D02*
X98172695Y-83811452D01*
X98172695Y-83811452D02*
X97982219Y-83763833D01*
X97982219Y-83763833D02*
X97886981Y-83716214D01*
X97886981Y-83716214D02*
X97839362Y-83668595D01*
X97839362Y-83668595D02*
X97791743Y-83573357D01*
X97791743Y-83573357D02*
X97791743Y-83478119D01*
X97791743Y-83478119D02*
X97839362Y-83382881D01*
X97839362Y-83382881D02*
X97886981Y-83335262D01*
X97886981Y-83335262D02*
X97982219Y-83287643D01*
X97982219Y-83287643D02*
X98220314Y-83287643D01*
X98220314Y-83287643D02*
X98363171Y-83335262D01*
X99315552Y-84287643D02*
X98744124Y-84287643D01*
X99029838Y-84287643D02*
X99029838Y-83287643D01*
X99029838Y-83287643D02*
X98934600Y-83430500D01*
X98934600Y-83430500D02*
X98839362Y-83525738D01*
X98839362Y-83525738D02*
X98744124Y-83573357D01*
X99791743Y-84240024D02*
X99791743Y-84287643D01*
X99791743Y-84287643D02*
X99744124Y-84382881D01*
X99744124Y-84382881D02*
X99696505Y-84430500D01*
X101125076Y-84287643D02*
X101029838Y-84240024D01*
X101029838Y-84240024D02*
X100982219Y-84192404D01*
X100982219Y-84192404D02*
X100934600Y-84097166D01*
X100934600Y-84097166D02*
X100934600Y-83811452D01*
X100934600Y-83811452D02*
X100982219Y-83716214D01*
X100982219Y-83716214D02*
X101029838Y-83668595D01*
X101029838Y-83668595D02*
X101125076Y-83620976D01*
X101125076Y-83620976D02*
X101267933Y-83620976D01*
X101267933Y-83620976D02*
X101363171Y-83668595D01*
X101363171Y-83668595D02*
X101410790Y-83716214D01*
X101410790Y-83716214D02*
X101458409Y-83811452D01*
X101458409Y-83811452D02*
X101458409Y-84097166D01*
X101458409Y-84097166D02*
X101410790Y-84192404D01*
X101410790Y-84192404D02*
X101363171Y-84240024D01*
X101363171Y-84240024D02*
X101267933Y-84287643D01*
X101267933Y-84287643D02*
X101125076Y-84287643D01*
X101886981Y-83620976D02*
X101886981Y-84620976D01*
X101886981Y-83668595D02*
X101982219Y-83620976D01*
X101982219Y-83620976D02*
X102172695Y-83620976D01*
X102172695Y-83620976D02*
X102267933Y-83668595D01*
X102267933Y-83668595D02*
X102315552Y-83716214D01*
X102315552Y-83716214D02*
X102363171Y-83811452D01*
X102363171Y-83811452D02*
X102363171Y-84097166D01*
X102363171Y-84097166D02*
X102315552Y-84192404D01*
X102315552Y-84192404D02*
X102267933Y-84240024D01*
X102267933Y-84240024D02*
X102172695Y-84287643D01*
X102172695Y-84287643D02*
X101982219Y-84287643D01*
X101982219Y-84287643D02*
X101886981Y-84240024D01*
X103172695Y-84240024D02*
X103077457Y-84287643D01*
X103077457Y-84287643D02*
X102886981Y-84287643D01*
X102886981Y-84287643D02*
X102791743Y-84240024D01*
X102791743Y-84240024D02*
X102744124Y-84144785D01*
X102744124Y-84144785D02*
X102744124Y-83763833D01*
X102744124Y-83763833D02*
X102791743Y-83668595D01*
X102791743Y-83668595D02*
X102886981Y-83620976D01*
X102886981Y-83620976D02*
X103077457Y-83620976D01*
X103077457Y-83620976D02*
X103172695Y-83668595D01*
X103172695Y-83668595D02*
X103220314Y-83763833D01*
X103220314Y-83763833D02*
X103220314Y-83859071D01*
X103220314Y-83859071D02*
X102744124Y-83954309D01*
X103648886Y-83620976D02*
X103648886Y-84287643D01*
X103648886Y-83716214D02*
X103696505Y-83668595D01*
X103696505Y-83668595D02*
X103791743Y-83620976D01*
X103791743Y-83620976D02*
X103934600Y-83620976D01*
X103934600Y-83620976D02*
X104029838Y-83668595D01*
X104029838Y-83668595D02*
X104077457Y-83763833D01*
X104077457Y-83763833D02*
X104077457Y-84287643D01*
X105267934Y-84240024D02*
X105410791Y-84287643D01*
X105410791Y-84287643D02*
X105648886Y-84287643D01*
X105648886Y-84287643D02*
X105744124Y-84240024D01*
X105744124Y-84240024D02*
X105791743Y-84192404D01*
X105791743Y-84192404D02*
X105839362Y-84097166D01*
X105839362Y-84097166D02*
X105839362Y-84001928D01*
X105839362Y-84001928D02*
X105791743Y-83906690D01*
X105791743Y-83906690D02*
X105744124Y-83859071D01*
X105744124Y-83859071D02*
X105648886Y-83811452D01*
X105648886Y-83811452D02*
X105458410Y-83763833D01*
X105458410Y-83763833D02*
X105363172Y-83716214D01*
X105363172Y-83716214D02*
X105315553Y-83668595D01*
X105315553Y-83668595D02*
X105267934Y-83573357D01*
X105267934Y-83573357D02*
X105267934Y-83478119D01*
X105267934Y-83478119D02*
X105315553Y-83382881D01*
X105315553Y-83382881D02*
X105363172Y-83335262D01*
X105363172Y-83335262D02*
X105458410Y-83287643D01*
X105458410Y-83287643D02*
X105696505Y-83287643D01*
X105696505Y-83287643D02*
X105839362Y-83335262D01*
X106172696Y-83287643D02*
X106791743Y-83287643D01*
X106791743Y-83287643D02*
X106458410Y-83668595D01*
X106458410Y-83668595D02*
X106601267Y-83668595D01*
X106601267Y-83668595D02*
X106696505Y-83716214D01*
X106696505Y-83716214D02*
X106744124Y-83763833D01*
X106744124Y-83763833D02*
X106791743Y-83859071D01*
X106791743Y-83859071D02*
X106791743Y-84097166D01*
X106791743Y-84097166D02*
X106744124Y-84192404D01*
X106744124Y-84192404D02*
X106696505Y-84240024D01*
X106696505Y-84240024D02*
X106601267Y-84287643D01*
X106601267Y-84287643D02*
X106315553Y-84287643D01*
X106315553Y-84287643D02*
X106220315Y-84240024D01*
X106220315Y-84240024D02*
X106172696Y-84192404D01*
X107267934Y-84240024D02*
X107267934Y-84287643D01*
X107267934Y-84287643D02*
X107220315Y-84382881D01*
X107220315Y-84382881D02*
X107172696Y-84430500D01*
X108886981Y-84240024D02*
X108791743Y-84287643D01*
X108791743Y-84287643D02*
X108601267Y-84287643D01*
X108601267Y-84287643D02*
X108506029Y-84240024D01*
X108506029Y-84240024D02*
X108458410Y-84192404D01*
X108458410Y-84192404D02*
X108410791Y-84097166D01*
X108410791Y-84097166D02*
X108410791Y-83811452D01*
X108410791Y-83811452D02*
X108458410Y-83716214D01*
X108458410Y-83716214D02*
X108506029Y-83668595D01*
X108506029Y-83668595D02*
X108601267Y-83620976D01*
X108601267Y-83620976D02*
X108791743Y-83620976D01*
X108791743Y-83620976D02*
X108886981Y-83668595D01*
X109315553Y-84287643D02*
X109315553Y-83287643D01*
X109744124Y-84287643D02*
X109744124Y-83763833D01*
X109744124Y-83763833D02*
X109696505Y-83668595D01*
X109696505Y-83668595D02*
X109601267Y-83620976D01*
X109601267Y-83620976D02*
X109458410Y-83620976D01*
X109458410Y-83620976D02*
X109363172Y-83668595D01*
X109363172Y-83668595D02*
X109315553Y-83716214D01*
X110648886Y-84287643D02*
X110648886Y-83763833D01*
X110648886Y-83763833D02*
X110601267Y-83668595D01*
X110601267Y-83668595D02*
X110506029Y-83620976D01*
X110506029Y-83620976D02*
X110315553Y-83620976D01*
X110315553Y-83620976D02*
X110220315Y-83668595D01*
X110648886Y-84240024D02*
X110553648Y-84287643D01*
X110553648Y-84287643D02*
X110315553Y-84287643D01*
X110315553Y-84287643D02*
X110220315Y-84240024D01*
X110220315Y-84240024D02*
X110172696Y-84144785D01*
X110172696Y-84144785D02*
X110172696Y-84049547D01*
X110172696Y-84049547D02*
X110220315Y-83954309D01*
X110220315Y-83954309D02*
X110315553Y-83906690D01*
X110315553Y-83906690D02*
X110553648Y-83906690D01*
X110553648Y-83906690D02*
X110648886Y-83859071D01*
X111125077Y-84287643D02*
X111125077Y-83620976D01*
X111125077Y-83811452D02*
X111172696Y-83716214D01*
X111172696Y-83716214D02*
X111220315Y-83668595D01*
X111220315Y-83668595D02*
X111315553Y-83620976D01*
X111315553Y-83620976D02*
X111410791Y-83620976D01*
X112172696Y-83620976D02*
X112172696Y-84430500D01*
X112172696Y-84430500D02*
X112125077Y-84525738D01*
X112125077Y-84525738D02*
X112077458Y-84573357D01*
X112077458Y-84573357D02*
X111982220Y-84620976D01*
X111982220Y-84620976D02*
X111839363Y-84620976D01*
X111839363Y-84620976D02*
X111744125Y-84573357D01*
X112172696Y-84240024D02*
X112077458Y-84287643D01*
X112077458Y-84287643D02*
X111886982Y-84287643D01*
X111886982Y-84287643D02*
X111791744Y-84240024D01*
X111791744Y-84240024D02*
X111744125Y-84192404D01*
X111744125Y-84192404D02*
X111696506Y-84097166D01*
X111696506Y-84097166D02*
X111696506Y-83811452D01*
X111696506Y-83811452D02*
X111744125Y-83716214D01*
X111744125Y-83716214D02*
X111791744Y-83668595D01*
X111791744Y-83668595D02*
X111886982Y-83620976D01*
X111886982Y-83620976D02*
X112077458Y-83620976D01*
X112077458Y-83620976D02*
X112172696Y-83668595D01*
X113029839Y-84240024D02*
X112934601Y-84287643D01*
X112934601Y-84287643D02*
X112744125Y-84287643D01*
X112744125Y-84287643D02*
X112648887Y-84240024D01*
X112648887Y-84240024D02*
X112601268Y-84144785D01*
X112601268Y-84144785D02*
X112601268Y-83763833D01*
X112601268Y-83763833D02*
X112648887Y-83668595D01*
X112648887Y-83668595D02*
X112744125Y-83620976D01*
X112744125Y-83620976D02*
X112934601Y-83620976D01*
X112934601Y-83620976D02*
X113029839Y-83668595D01*
X113029839Y-83668595D02*
X113077458Y-83763833D01*
X113077458Y-83763833D02*
X113077458Y-83859071D01*
X113077458Y-83859071D02*
X112601268Y-83954309D01*
X114839363Y-84192404D02*
X114791744Y-84240024D01*
X114791744Y-84240024D02*
X114648887Y-84287643D01*
X114648887Y-84287643D02*
X114553649Y-84287643D01*
X114553649Y-84287643D02*
X114410792Y-84240024D01*
X114410792Y-84240024D02*
X114315554Y-84144785D01*
X114315554Y-84144785D02*
X114267935Y-84049547D01*
X114267935Y-84049547D02*
X114220316Y-83859071D01*
X114220316Y-83859071D02*
X114220316Y-83716214D01*
X114220316Y-83716214D02*
X114267935Y-83525738D01*
X114267935Y-83525738D02*
X114315554Y-83430500D01*
X114315554Y-83430500D02*
X114410792Y-83335262D01*
X114410792Y-83335262D02*
X114553649Y-83287643D01*
X114553649Y-83287643D02*
X114648887Y-83287643D01*
X114648887Y-83287643D02*
X114791744Y-83335262D01*
X114791744Y-83335262D02*
X114839363Y-83382881D01*
X115029840Y-84382881D02*
X115791744Y-84382881D01*
X116029840Y-84287643D02*
X116029840Y-83287643D01*
X116029840Y-83668595D02*
X116125078Y-83620976D01*
X116125078Y-83620976D02*
X116315554Y-83620976D01*
X116315554Y-83620976D02*
X116410792Y-83668595D01*
X116410792Y-83668595D02*
X116458411Y-83716214D01*
X116458411Y-83716214D02*
X116506030Y-83811452D01*
X116506030Y-83811452D02*
X116506030Y-84097166D01*
X116506030Y-84097166D02*
X116458411Y-84192404D01*
X116458411Y-84192404D02*
X116410792Y-84240024D01*
X116410792Y-84240024D02*
X116315554Y-84287643D01*
X116315554Y-84287643D02*
X116125078Y-84287643D01*
X116125078Y-84287643D02*
X116029840Y-84240024D01*
X117363173Y-83620976D02*
X117363173Y-84287643D01*
X116934602Y-83620976D02*
X116934602Y-84144785D01*
X116934602Y-84144785D02*
X116982221Y-84240024D01*
X116982221Y-84240024D02*
X117077459Y-84287643D01*
X117077459Y-84287643D02*
X117220316Y-84287643D01*
X117220316Y-84287643D02*
X117315554Y-84240024D01*
X117315554Y-84240024D02*
X117363173Y-84192404D01*
X117982221Y-84287643D02*
X117886983Y-84240024D01*
X117886983Y-84240024D02*
X117839364Y-84144785D01*
X117839364Y-84144785D02*
X117839364Y-83287643D01*
X118363174Y-84287643D02*
X118363174Y-83287643D01*
X118458412Y-83906690D02*
X118744126Y-84287643D01*
X118744126Y-83620976D02*
X118363174Y-84001928D01*
X84601265Y-86602769D02*
X84648884Y-86555150D01*
X84648884Y-86555150D02*
X84744122Y-86507531D01*
X84744122Y-86507531D02*
X84982217Y-86507531D01*
X84982217Y-86507531D02*
X85077455Y-86555150D01*
X85077455Y-86555150D02*
X85125074Y-86602769D01*
X85125074Y-86602769D02*
X85172693Y-86698007D01*
X85172693Y-86698007D02*
X85172693Y-86793245D01*
X85172693Y-86793245D02*
X85125074Y-86936102D01*
X85125074Y-86936102D02*
X84553646Y-87507531D01*
X84553646Y-87507531D02*
X85172693Y-87507531D01*
X85601265Y-87412292D02*
X85648884Y-87459912D01*
X85648884Y-87459912D02*
X85601265Y-87507531D01*
X85601265Y-87507531D02*
X85553646Y-87459912D01*
X85553646Y-87459912D02*
X85601265Y-87412292D01*
X85601265Y-87412292D02*
X85601265Y-87507531D01*
X87029836Y-86507531D02*
X87220312Y-86507531D01*
X87220312Y-86507531D02*
X87315550Y-86555150D01*
X87315550Y-86555150D02*
X87410788Y-86650388D01*
X87410788Y-86650388D02*
X87458407Y-86840864D01*
X87458407Y-86840864D02*
X87458407Y-87174197D01*
X87458407Y-87174197D02*
X87410788Y-87364673D01*
X87410788Y-87364673D02*
X87315550Y-87459912D01*
X87315550Y-87459912D02*
X87220312Y-87507531D01*
X87220312Y-87507531D02*
X87029836Y-87507531D01*
X87029836Y-87507531D02*
X86934598Y-87459912D01*
X86934598Y-87459912D02*
X86839360Y-87364673D01*
X86839360Y-87364673D02*
X86791741Y-87174197D01*
X86791741Y-87174197D02*
X86791741Y-86840864D01*
X86791741Y-86840864D02*
X86839360Y-86650388D01*
X86839360Y-86650388D02*
X86934598Y-86555150D01*
X86934598Y-86555150D02*
X87029836Y-86507531D01*
X87886979Y-86840864D02*
X87886979Y-87840864D01*
X87886979Y-86888483D02*
X87982217Y-86840864D01*
X87982217Y-86840864D02*
X88172693Y-86840864D01*
X88172693Y-86840864D02*
X88267931Y-86888483D01*
X88267931Y-86888483D02*
X88315550Y-86936102D01*
X88315550Y-86936102D02*
X88363169Y-87031340D01*
X88363169Y-87031340D02*
X88363169Y-87317054D01*
X88363169Y-87317054D02*
X88315550Y-87412292D01*
X88315550Y-87412292D02*
X88267931Y-87459912D01*
X88267931Y-87459912D02*
X88172693Y-87507531D01*
X88172693Y-87507531D02*
X87982217Y-87507531D01*
X87982217Y-87507531D02*
X87886979Y-87459912D01*
X89172693Y-87459912D02*
X89077455Y-87507531D01*
X89077455Y-87507531D02*
X88886979Y-87507531D01*
X88886979Y-87507531D02*
X88791741Y-87459912D01*
X88791741Y-87459912D02*
X88744122Y-87364673D01*
X88744122Y-87364673D02*
X88744122Y-86983721D01*
X88744122Y-86983721D02*
X88791741Y-86888483D01*
X88791741Y-86888483D02*
X88886979Y-86840864D01*
X88886979Y-86840864D02*
X89077455Y-86840864D01*
X89077455Y-86840864D02*
X89172693Y-86888483D01*
X89172693Y-86888483D02*
X89220312Y-86983721D01*
X89220312Y-86983721D02*
X89220312Y-87078959D01*
X89220312Y-87078959D02*
X88744122Y-87174197D01*
X89648884Y-86840864D02*
X89648884Y-87507531D01*
X89648884Y-86936102D02*
X89696503Y-86888483D01*
X89696503Y-86888483D02*
X89791741Y-86840864D01*
X89791741Y-86840864D02*
X89934598Y-86840864D01*
X89934598Y-86840864D02*
X90029836Y-86888483D01*
X90029836Y-86888483D02*
X90077455Y-86983721D01*
X90077455Y-86983721D02*
X90077455Y-87507531D01*
X91267932Y-87459912D02*
X91410789Y-87507531D01*
X91410789Y-87507531D02*
X91648884Y-87507531D01*
X91648884Y-87507531D02*
X91744122Y-87459912D01*
X91744122Y-87459912D02*
X91791741Y-87412292D01*
X91791741Y-87412292D02*
X91839360Y-87317054D01*
X91839360Y-87317054D02*
X91839360Y-87221816D01*
X91839360Y-87221816D02*
X91791741Y-87126578D01*
X91791741Y-87126578D02*
X91744122Y-87078959D01*
X91744122Y-87078959D02*
X91648884Y-87031340D01*
X91648884Y-87031340D02*
X91458408Y-86983721D01*
X91458408Y-86983721D02*
X91363170Y-86936102D01*
X91363170Y-86936102D02*
X91315551Y-86888483D01*
X91315551Y-86888483D02*
X91267932Y-86793245D01*
X91267932Y-86793245D02*
X91267932Y-86698007D01*
X91267932Y-86698007D02*
X91315551Y-86602769D01*
X91315551Y-86602769D02*
X91363170Y-86555150D01*
X91363170Y-86555150D02*
X91458408Y-86507531D01*
X91458408Y-86507531D02*
X91696503Y-86507531D01*
X91696503Y-86507531D02*
X91839360Y-86555150D01*
X92791741Y-87507531D02*
X92220313Y-87507531D01*
X92506027Y-87507531D02*
X92506027Y-86507531D01*
X92506027Y-86507531D02*
X92410789Y-86650388D01*
X92410789Y-86650388D02*
X92315551Y-86745626D01*
X92315551Y-86745626D02*
X92220313Y-86793245D01*
X93267932Y-87459912D02*
X93267932Y-87507531D01*
X93267932Y-87507531D02*
X93220313Y-87602769D01*
X93220313Y-87602769D02*
X93172694Y-87650388D01*
X94410789Y-87459912D02*
X94553646Y-87507531D01*
X94553646Y-87507531D02*
X94791741Y-87507531D01*
X94791741Y-87507531D02*
X94886979Y-87459912D01*
X94886979Y-87459912D02*
X94934598Y-87412292D01*
X94934598Y-87412292D02*
X94982217Y-87317054D01*
X94982217Y-87317054D02*
X94982217Y-87221816D01*
X94982217Y-87221816D02*
X94934598Y-87126578D01*
X94934598Y-87126578D02*
X94886979Y-87078959D01*
X94886979Y-87078959D02*
X94791741Y-87031340D01*
X94791741Y-87031340D02*
X94601265Y-86983721D01*
X94601265Y-86983721D02*
X94506027Y-86936102D01*
X94506027Y-86936102D02*
X94458408Y-86888483D01*
X94458408Y-86888483D02*
X94410789Y-86793245D01*
X94410789Y-86793245D02*
X94410789Y-86698007D01*
X94410789Y-86698007D02*
X94458408Y-86602769D01*
X94458408Y-86602769D02*
X94506027Y-86555150D01*
X94506027Y-86555150D02*
X94601265Y-86507531D01*
X94601265Y-86507531D02*
X94839360Y-86507531D01*
X94839360Y-86507531D02*
X94982217Y-86555150D01*
X95363170Y-86602769D02*
X95410789Y-86555150D01*
X95410789Y-86555150D02*
X95506027Y-86507531D01*
X95506027Y-86507531D02*
X95744122Y-86507531D01*
X95744122Y-86507531D02*
X95839360Y-86555150D01*
X95839360Y-86555150D02*
X95886979Y-86602769D01*
X95886979Y-86602769D02*
X95934598Y-86698007D01*
X95934598Y-86698007D02*
X95934598Y-86793245D01*
X95934598Y-86793245D02*
X95886979Y-86936102D01*
X95886979Y-86936102D02*
X95315551Y-87507531D01*
X95315551Y-87507531D02*
X95934598Y-87507531D01*
X96410789Y-87459912D02*
X96410789Y-87507531D01*
X96410789Y-87507531D02*
X96363170Y-87602769D01*
X96363170Y-87602769D02*
X96315551Y-87650388D01*
X98029836Y-87507531D02*
X98029836Y-86983721D01*
X98029836Y-86983721D02*
X97982217Y-86888483D01*
X97982217Y-86888483D02*
X97886979Y-86840864D01*
X97886979Y-86840864D02*
X97696503Y-86840864D01*
X97696503Y-86840864D02*
X97601265Y-86888483D01*
X98029836Y-87459912D02*
X97934598Y-87507531D01*
X97934598Y-87507531D02*
X97696503Y-87507531D01*
X97696503Y-87507531D02*
X97601265Y-87459912D01*
X97601265Y-87459912D02*
X97553646Y-87364673D01*
X97553646Y-87364673D02*
X97553646Y-87269435D01*
X97553646Y-87269435D02*
X97601265Y-87174197D01*
X97601265Y-87174197D02*
X97696503Y-87126578D01*
X97696503Y-87126578D02*
X97934598Y-87126578D01*
X97934598Y-87126578D02*
X98029836Y-87078959D01*
X98506027Y-86840864D02*
X98506027Y-87507531D01*
X98506027Y-86936102D02*
X98553646Y-86888483D01*
X98553646Y-86888483D02*
X98648884Y-86840864D01*
X98648884Y-86840864D02*
X98791741Y-86840864D01*
X98791741Y-86840864D02*
X98886979Y-86888483D01*
X98886979Y-86888483D02*
X98934598Y-86983721D01*
X98934598Y-86983721D02*
X98934598Y-87507531D01*
X99839360Y-87507531D02*
X99839360Y-86507531D01*
X99839360Y-87459912D02*
X99744122Y-87507531D01*
X99744122Y-87507531D02*
X99553646Y-87507531D01*
X99553646Y-87507531D02*
X99458408Y-87459912D01*
X99458408Y-87459912D02*
X99410789Y-87412292D01*
X99410789Y-87412292D02*
X99363170Y-87317054D01*
X99363170Y-87317054D02*
X99363170Y-87031340D01*
X99363170Y-87031340D02*
X99410789Y-86936102D01*
X99410789Y-86936102D02*
X99458408Y-86888483D01*
X99458408Y-86888483D02*
X99553646Y-86840864D01*
X99553646Y-86840864D02*
X99744122Y-86840864D01*
X99744122Y-86840864D02*
X99839360Y-86888483D01*
X101029837Y-87459912D02*
X101172694Y-87507531D01*
X101172694Y-87507531D02*
X101410789Y-87507531D01*
X101410789Y-87507531D02*
X101506027Y-87459912D01*
X101506027Y-87459912D02*
X101553646Y-87412292D01*
X101553646Y-87412292D02*
X101601265Y-87317054D01*
X101601265Y-87317054D02*
X101601265Y-87221816D01*
X101601265Y-87221816D02*
X101553646Y-87126578D01*
X101553646Y-87126578D02*
X101506027Y-87078959D01*
X101506027Y-87078959D02*
X101410789Y-87031340D01*
X101410789Y-87031340D02*
X101220313Y-86983721D01*
X101220313Y-86983721D02*
X101125075Y-86936102D01*
X101125075Y-86936102D02*
X101077456Y-86888483D01*
X101077456Y-86888483D02*
X101029837Y-86793245D01*
X101029837Y-86793245D02*
X101029837Y-86698007D01*
X101029837Y-86698007D02*
X101077456Y-86602769D01*
X101077456Y-86602769D02*
X101125075Y-86555150D01*
X101125075Y-86555150D02*
X101220313Y-86507531D01*
X101220313Y-86507531D02*
X101458408Y-86507531D01*
X101458408Y-86507531D02*
X101601265Y-86555150D01*
X101934599Y-86507531D02*
X102553646Y-86507531D01*
X102553646Y-86507531D02*
X102220313Y-86888483D01*
X102220313Y-86888483D02*
X102363170Y-86888483D01*
X102363170Y-86888483D02*
X102458408Y-86936102D01*
X102458408Y-86936102D02*
X102506027Y-86983721D01*
X102506027Y-86983721D02*
X102553646Y-87078959D01*
X102553646Y-87078959D02*
X102553646Y-87317054D01*
X102553646Y-87317054D02*
X102506027Y-87412292D01*
X102506027Y-87412292D02*
X102458408Y-87459912D01*
X102458408Y-87459912D02*
X102363170Y-87507531D01*
X102363170Y-87507531D02*
X102077456Y-87507531D01*
X102077456Y-87507531D02*
X101982218Y-87459912D01*
X101982218Y-87459912D02*
X101934599Y-87412292D01*
X103029837Y-87459912D02*
X103029837Y-87507531D01*
X103029837Y-87507531D02*
X102982218Y-87602769D01*
X102982218Y-87602769D02*
X102934599Y-87650388D01*
X104648884Y-87507531D02*
X104648884Y-86983721D01*
X104648884Y-86983721D02*
X104601265Y-86888483D01*
X104601265Y-86888483D02*
X104506027Y-86840864D01*
X104506027Y-86840864D02*
X104315551Y-86840864D01*
X104315551Y-86840864D02*
X104220313Y-86888483D01*
X104648884Y-87459912D02*
X104553646Y-87507531D01*
X104553646Y-87507531D02*
X104315551Y-87507531D01*
X104315551Y-87507531D02*
X104220313Y-87459912D01*
X104220313Y-87459912D02*
X104172694Y-87364673D01*
X104172694Y-87364673D02*
X104172694Y-87269435D01*
X104172694Y-87269435D02*
X104220313Y-87174197D01*
X104220313Y-87174197D02*
X104315551Y-87126578D01*
X104315551Y-87126578D02*
X104553646Y-87126578D01*
X104553646Y-87126578D02*
X104648884Y-87078959D01*
X104982218Y-86840864D02*
X105363170Y-86840864D01*
X105125075Y-86507531D02*
X105125075Y-87364673D01*
X105125075Y-87364673D02*
X105172694Y-87459912D01*
X105172694Y-87459912D02*
X105267932Y-87507531D01*
X105267932Y-87507531D02*
X105363170Y-87507531D01*
X105553647Y-86840864D02*
X105934599Y-86840864D01*
X105696504Y-86507531D02*
X105696504Y-87364673D01*
X105696504Y-87364673D02*
X105744123Y-87459912D01*
X105744123Y-87459912D02*
X105839361Y-87507531D01*
X105839361Y-87507531D02*
X105934599Y-87507531D01*
X106696504Y-87507531D02*
X106696504Y-86983721D01*
X106696504Y-86983721D02*
X106648885Y-86888483D01*
X106648885Y-86888483D02*
X106553647Y-86840864D01*
X106553647Y-86840864D02*
X106363171Y-86840864D01*
X106363171Y-86840864D02*
X106267933Y-86888483D01*
X106696504Y-87459912D02*
X106601266Y-87507531D01*
X106601266Y-87507531D02*
X106363171Y-87507531D01*
X106363171Y-87507531D02*
X106267933Y-87459912D01*
X106267933Y-87459912D02*
X106220314Y-87364673D01*
X106220314Y-87364673D02*
X106220314Y-87269435D01*
X106220314Y-87269435D02*
X106267933Y-87174197D01*
X106267933Y-87174197D02*
X106363171Y-87126578D01*
X106363171Y-87126578D02*
X106601266Y-87126578D01*
X106601266Y-87126578D02*
X106696504Y-87078959D01*
X107601266Y-87459912D02*
X107506028Y-87507531D01*
X107506028Y-87507531D02*
X107315552Y-87507531D01*
X107315552Y-87507531D02*
X107220314Y-87459912D01*
X107220314Y-87459912D02*
X107172695Y-87412292D01*
X107172695Y-87412292D02*
X107125076Y-87317054D01*
X107125076Y-87317054D02*
X107125076Y-87031340D01*
X107125076Y-87031340D02*
X107172695Y-86936102D01*
X107172695Y-86936102D02*
X107220314Y-86888483D01*
X107220314Y-86888483D02*
X107315552Y-86840864D01*
X107315552Y-86840864D02*
X107506028Y-86840864D01*
X107506028Y-86840864D02*
X107601266Y-86888483D01*
X108029838Y-87507531D02*
X108029838Y-86507531D01*
X108458409Y-87507531D02*
X108458409Y-86983721D01*
X108458409Y-86983721D02*
X108410790Y-86888483D01*
X108410790Y-86888483D02*
X108315552Y-86840864D01*
X108315552Y-86840864D02*
X108172695Y-86840864D01*
X108172695Y-86840864D02*
X108077457Y-86888483D01*
X108077457Y-86888483D02*
X108029838Y-86936102D01*
X109648886Y-87459912D02*
X109744124Y-87507531D01*
X109744124Y-87507531D02*
X109934600Y-87507531D01*
X109934600Y-87507531D02*
X110029838Y-87459912D01*
X110029838Y-87459912D02*
X110077457Y-87364673D01*
X110077457Y-87364673D02*
X110077457Y-87317054D01*
X110077457Y-87317054D02*
X110029838Y-87221816D01*
X110029838Y-87221816D02*
X109934600Y-87174197D01*
X109934600Y-87174197D02*
X109791743Y-87174197D01*
X109791743Y-87174197D02*
X109696505Y-87126578D01*
X109696505Y-87126578D02*
X109648886Y-87031340D01*
X109648886Y-87031340D02*
X109648886Y-86983721D01*
X109648886Y-86983721D02*
X109696505Y-86888483D01*
X109696505Y-86888483D02*
X109791743Y-86840864D01*
X109791743Y-86840864D02*
X109934600Y-86840864D01*
X109934600Y-86840864D02*
X110029838Y-86888483D01*
X110934600Y-87459912D02*
X110839362Y-87507531D01*
X110839362Y-87507531D02*
X110648886Y-87507531D01*
X110648886Y-87507531D02*
X110553648Y-87459912D01*
X110553648Y-87459912D02*
X110506029Y-87412292D01*
X110506029Y-87412292D02*
X110458410Y-87317054D01*
X110458410Y-87317054D02*
X110458410Y-87031340D01*
X110458410Y-87031340D02*
X110506029Y-86936102D01*
X110506029Y-86936102D02*
X110553648Y-86888483D01*
X110553648Y-86888483D02*
X110648886Y-86840864D01*
X110648886Y-86840864D02*
X110839362Y-86840864D01*
X110839362Y-86840864D02*
X110934600Y-86888483D01*
X111506029Y-87507531D02*
X111410791Y-87459912D01*
X111410791Y-87459912D02*
X111363172Y-87412292D01*
X111363172Y-87412292D02*
X111315553Y-87317054D01*
X111315553Y-87317054D02*
X111315553Y-87031340D01*
X111315553Y-87031340D02*
X111363172Y-86936102D01*
X111363172Y-86936102D02*
X111410791Y-86888483D01*
X111410791Y-86888483D02*
X111506029Y-86840864D01*
X111506029Y-86840864D02*
X111648886Y-86840864D01*
X111648886Y-86840864D02*
X111744124Y-86888483D01*
X111744124Y-86888483D02*
X111791743Y-86936102D01*
X111791743Y-86936102D02*
X111839362Y-87031340D01*
X111839362Y-87031340D02*
X111839362Y-87317054D01*
X111839362Y-87317054D02*
X111791743Y-87412292D01*
X111791743Y-87412292D02*
X111744124Y-87459912D01*
X111744124Y-87459912D02*
X111648886Y-87507531D01*
X111648886Y-87507531D02*
X111506029Y-87507531D01*
X112267934Y-86840864D02*
X112267934Y-87840864D01*
X112267934Y-86888483D02*
X112363172Y-86840864D01*
X112363172Y-86840864D02*
X112553648Y-86840864D01*
X112553648Y-86840864D02*
X112648886Y-86888483D01*
X112648886Y-86888483D02*
X112696505Y-86936102D01*
X112696505Y-86936102D02*
X112744124Y-87031340D01*
X112744124Y-87031340D02*
X112744124Y-87317054D01*
X112744124Y-87317054D02*
X112696505Y-87412292D01*
X112696505Y-87412292D02*
X112648886Y-87459912D01*
X112648886Y-87459912D02*
X112553648Y-87507531D01*
X112553648Y-87507531D02*
X112363172Y-87507531D01*
X112363172Y-87507531D02*
X112267934Y-87459912D01*
X113553648Y-87459912D02*
X113458410Y-87507531D01*
X113458410Y-87507531D02*
X113267934Y-87507531D01*
X113267934Y-87507531D02*
X113172696Y-87459912D01*
X113172696Y-87459912D02*
X113125077Y-87364673D01*
X113125077Y-87364673D02*
X113125077Y-86983721D01*
X113125077Y-86983721D02*
X113172696Y-86888483D01*
X113172696Y-86888483D02*
X113267934Y-86840864D01*
X113267934Y-86840864D02*
X113458410Y-86840864D01*
X113458410Y-86840864D02*
X113553648Y-86888483D01*
X113553648Y-86888483D02*
X113601267Y-86983721D01*
X113601267Y-86983721D02*
X113601267Y-87078959D01*
X113601267Y-87078959D02*
X113125077Y-87174197D01*
X114077458Y-87459912D02*
X114077458Y-87507531D01*
X114077458Y-87507531D02*
X114029839Y-87602769D01*
X114029839Y-87602769D02*
X113982220Y-87650388D01*
X115125077Y-86840864D02*
X115506029Y-86840864D01*
X115267934Y-86507531D02*
X115267934Y-87364673D01*
X115267934Y-87364673D02*
X115315553Y-87459912D01*
X115315553Y-87459912D02*
X115410791Y-87507531D01*
X115410791Y-87507531D02*
X115506029Y-87507531D01*
X116220315Y-87459912D02*
X116125077Y-87507531D01*
X116125077Y-87507531D02*
X115934601Y-87507531D01*
X115934601Y-87507531D02*
X115839363Y-87459912D01*
X115839363Y-87459912D02*
X115791744Y-87364673D01*
X115791744Y-87364673D02*
X115791744Y-86983721D01*
X115791744Y-86983721D02*
X115839363Y-86888483D01*
X115839363Y-86888483D02*
X115934601Y-86840864D01*
X115934601Y-86840864D02*
X116125077Y-86840864D01*
X116125077Y-86840864D02*
X116220315Y-86888483D01*
X116220315Y-86888483D02*
X116267934Y-86983721D01*
X116267934Y-86983721D02*
X116267934Y-87078959D01*
X116267934Y-87078959D02*
X115791744Y-87174197D01*
X116648887Y-87459912D02*
X116744125Y-87507531D01*
X116744125Y-87507531D02*
X116934601Y-87507531D01*
X116934601Y-87507531D02*
X117029839Y-87459912D01*
X117029839Y-87459912D02*
X117077458Y-87364673D01*
X117077458Y-87364673D02*
X117077458Y-87317054D01*
X117077458Y-87317054D02*
X117029839Y-87221816D01*
X117029839Y-87221816D02*
X116934601Y-87174197D01*
X116934601Y-87174197D02*
X116791744Y-87174197D01*
X116791744Y-87174197D02*
X116696506Y-87126578D01*
X116696506Y-87126578D02*
X116648887Y-87031340D01*
X116648887Y-87031340D02*
X116648887Y-86983721D01*
X116648887Y-86983721D02*
X116696506Y-86888483D01*
X116696506Y-86888483D02*
X116791744Y-86840864D01*
X116791744Y-86840864D02*
X116934601Y-86840864D01*
X116934601Y-86840864D02*
X117029839Y-86888483D01*
X117363173Y-86840864D02*
X117744125Y-86840864D01*
X117506030Y-86507531D02*
X117506030Y-87364673D01*
X117506030Y-87364673D02*
X117553649Y-87459912D01*
X117553649Y-87459912D02*
X117648887Y-87507531D01*
X117648887Y-87507531D02*
X117744125Y-87507531D01*
X118077459Y-87507531D02*
X118077459Y-86840864D01*
X118077459Y-86507531D02*
X118029840Y-86555150D01*
X118029840Y-86555150D02*
X118077459Y-86602769D01*
X118077459Y-86602769D02*
X118125078Y-86555150D01*
X118125078Y-86555150D02*
X118077459Y-86507531D01*
X118077459Y-86507531D02*
X118077459Y-86602769D01*
X118553649Y-86840864D02*
X118553649Y-87507531D01*
X118553649Y-86936102D02*
X118601268Y-86888483D01*
X118601268Y-86888483D02*
X118696506Y-86840864D01*
X118696506Y-86840864D02*
X118839363Y-86840864D01*
X118839363Y-86840864D02*
X118934601Y-86888483D01*
X118934601Y-86888483D02*
X118982220Y-86983721D01*
X118982220Y-86983721D02*
X118982220Y-87507531D01*
X119886982Y-86840864D02*
X119886982Y-87650388D01*
X119886982Y-87650388D02*
X119839363Y-87745626D01*
X119839363Y-87745626D02*
X119791744Y-87793245D01*
X119791744Y-87793245D02*
X119696506Y-87840864D01*
X119696506Y-87840864D02*
X119553649Y-87840864D01*
X119553649Y-87840864D02*
X119458411Y-87793245D01*
X119886982Y-87459912D02*
X119791744Y-87507531D01*
X119791744Y-87507531D02*
X119601268Y-87507531D01*
X119601268Y-87507531D02*
X119506030Y-87459912D01*
X119506030Y-87459912D02*
X119458411Y-87412292D01*
X119458411Y-87412292D02*
X119410792Y-87317054D01*
X119410792Y-87317054D02*
X119410792Y-87031340D01*
X119410792Y-87031340D02*
X119458411Y-86936102D01*
X119458411Y-86936102D02*
X119506030Y-86888483D01*
X119506030Y-86888483D02*
X119601268Y-86840864D01*
X119601268Y-86840864D02*
X119791744Y-86840864D01*
X119791744Y-86840864D02*
X119886982Y-86888483D01*
X84553646Y-89727419D02*
X85172693Y-89727419D01*
X85172693Y-89727419D02*
X84839360Y-90108371D01*
X84839360Y-90108371D02*
X84982217Y-90108371D01*
X84982217Y-90108371D02*
X85077455Y-90155990D01*
X85077455Y-90155990D02*
X85125074Y-90203609D01*
X85125074Y-90203609D02*
X85172693Y-90298847D01*
X85172693Y-90298847D02*
X85172693Y-90536942D01*
X85172693Y-90536942D02*
X85125074Y-90632180D01*
X85125074Y-90632180D02*
X85077455Y-90679800D01*
X85077455Y-90679800D02*
X84982217Y-90727419D01*
X84982217Y-90727419D02*
X84696503Y-90727419D01*
X84696503Y-90727419D02*
X84601265Y-90679800D01*
X84601265Y-90679800D02*
X84553646Y-90632180D01*
X85601265Y-90632180D02*
X85648884Y-90679800D01*
X85648884Y-90679800D02*
X85601265Y-90727419D01*
X85601265Y-90727419D02*
X85553646Y-90679800D01*
X85553646Y-90679800D02*
X85601265Y-90632180D01*
X85601265Y-90632180D02*
X85601265Y-90727419D01*
X86839360Y-89727419D02*
X86839360Y-90536942D01*
X86839360Y-90536942D02*
X86886979Y-90632180D01*
X86886979Y-90632180D02*
X86934598Y-90679800D01*
X86934598Y-90679800D02*
X87029836Y-90727419D01*
X87029836Y-90727419D02*
X87220312Y-90727419D01*
X87220312Y-90727419D02*
X87315550Y-90679800D01*
X87315550Y-90679800D02*
X87363169Y-90632180D01*
X87363169Y-90632180D02*
X87410788Y-90536942D01*
X87410788Y-90536942D02*
X87410788Y-89727419D01*
X87886979Y-90060752D02*
X87886979Y-90727419D01*
X87886979Y-90155990D02*
X87934598Y-90108371D01*
X87934598Y-90108371D02*
X88029836Y-90060752D01*
X88029836Y-90060752D02*
X88172693Y-90060752D01*
X88172693Y-90060752D02*
X88267931Y-90108371D01*
X88267931Y-90108371D02*
X88315550Y-90203609D01*
X88315550Y-90203609D02*
X88315550Y-90727419D01*
X88791741Y-90060752D02*
X88791741Y-91060752D01*
X88791741Y-90108371D02*
X88886979Y-90060752D01*
X88886979Y-90060752D02*
X89077455Y-90060752D01*
X89077455Y-90060752D02*
X89172693Y-90108371D01*
X89172693Y-90108371D02*
X89220312Y-90155990D01*
X89220312Y-90155990D02*
X89267931Y-90251228D01*
X89267931Y-90251228D02*
X89267931Y-90536942D01*
X89267931Y-90536942D02*
X89220312Y-90632180D01*
X89220312Y-90632180D02*
X89172693Y-90679800D01*
X89172693Y-90679800D02*
X89077455Y-90727419D01*
X89077455Y-90727419D02*
X88886979Y-90727419D01*
X88886979Y-90727419D02*
X88791741Y-90679800D01*
X89839360Y-90727419D02*
X89744122Y-90679800D01*
X89744122Y-90679800D02*
X89696503Y-90584561D01*
X89696503Y-90584561D02*
X89696503Y-89727419D01*
X90648884Y-90060752D02*
X90648884Y-90727419D01*
X90220313Y-90060752D02*
X90220313Y-90584561D01*
X90220313Y-90584561D02*
X90267932Y-90679800D01*
X90267932Y-90679800D02*
X90363170Y-90727419D01*
X90363170Y-90727419D02*
X90506027Y-90727419D01*
X90506027Y-90727419D02*
X90601265Y-90679800D01*
X90601265Y-90679800D02*
X90648884Y-90632180D01*
X91553646Y-90060752D02*
X91553646Y-90870276D01*
X91553646Y-90870276D02*
X91506027Y-90965514D01*
X91506027Y-90965514D02*
X91458408Y-91013133D01*
X91458408Y-91013133D02*
X91363170Y-91060752D01*
X91363170Y-91060752D02*
X91220313Y-91060752D01*
X91220313Y-91060752D02*
X91125075Y-91013133D01*
X91553646Y-90679800D02*
X91458408Y-90727419D01*
X91458408Y-90727419D02*
X91267932Y-90727419D01*
X91267932Y-90727419D02*
X91172694Y-90679800D01*
X91172694Y-90679800D02*
X91125075Y-90632180D01*
X91125075Y-90632180D02*
X91077456Y-90536942D01*
X91077456Y-90536942D02*
X91077456Y-90251228D01*
X91077456Y-90251228D02*
X91125075Y-90155990D01*
X91125075Y-90155990D02*
X91172694Y-90108371D01*
X91172694Y-90108371D02*
X91267932Y-90060752D01*
X91267932Y-90060752D02*
X91458408Y-90060752D01*
X91458408Y-90060752D02*
X91553646Y-90108371D01*
X92791742Y-90060752D02*
X92791742Y-91060752D01*
X92791742Y-90108371D02*
X92886980Y-90060752D01*
X92886980Y-90060752D02*
X93077456Y-90060752D01*
X93077456Y-90060752D02*
X93172694Y-90108371D01*
X93172694Y-90108371D02*
X93220313Y-90155990D01*
X93220313Y-90155990D02*
X93267932Y-90251228D01*
X93267932Y-90251228D02*
X93267932Y-90536942D01*
X93267932Y-90536942D02*
X93220313Y-90632180D01*
X93220313Y-90632180D02*
X93172694Y-90679800D01*
X93172694Y-90679800D02*
X93077456Y-90727419D01*
X93077456Y-90727419D02*
X92886980Y-90727419D01*
X92886980Y-90727419D02*
X92791742Y-90679800D01*
X93839361Y-90727419D02*
X93744123Y-90679800D01*
X93744123Y-90679800D02*
X93696504Y-90632180D01*
X93696504Y-90632180D02*
X93648885Y-90536942D01*
X93648885Y-90536942D02*
X93648885Y-90251228D01*
X93648885Y-90251228D02*
X93696504Y-90155990D01*
X93696504Y-90155990D02*
X93744123Y-90108371D01*
X93744123Y-90108371D02*
X93839361Y-90060752D01*
X93839361Y-90060752D02*
X93982218Y-90060752D01*
X93982218Y-90060752D02*
X94077456Y-90108371D01*
X94077456Y-90108371D02*
X94125075Y-90155990D01*
X94125075Y-90155990D02*
X94172694Y-90251228D01*
X94172694Y-90251228D02*
X94172694Y-90536942D01*
X94172694Y-90536942D02*
X94125075Y-90632180D01*
X94125075Y-90632180D02*
X94077456Y-90679800D01*
X94077456Y-90679800D02*
X93982218Y-90727419D01*
X93982218Y-90727419D02*
X93839361Y-90727419D01*
X94506028Y-90060752D02*
X94696504Y-90727419D01*
X94696504Y-90727419D02*
X94886980Y-90251228D01*
X94886980Y-90251228D02*
X95077456Y-90727419D01*
X95077456Y-90727419D02*
X95267932Y-90060752D01*
X96029837Y-90679800D02*
X95934599Y-90727419D01*
X95934599Y-90727419D02*
X95744123Y-90727419D01*
X95744123Y-90727419D02*
X95648885Y-90679800D01*
X95648885Y-90679800D02*
X95601266Y-90584561D01*
X95601266Y-90584561D02*
X95601266Y-90203609D01*
X95601266Y-90203609D02*
X95648885Y-90108371D01*
X95648885Y-90108371D02*
X95744123Y-90060752D01*
X95744123Y-90060752D02*
X95934599Y-90060752D01*
X95934599Y-90060752D02*
X96029837Y-90108371D01*
X96029837Y-90108371D02*
X96077456Y-90203609D01*
X96077456Y-90203609D02*
X96077456Y-90298847D01*
X96077456Y-90298847D02*
X95601266Y-90394085D01*
X96506028Y-90727419D02*
X96506028Y-90060752D01*
X96506028Y-90251228D02*
X96553647Y-90155990D01*
X96553647Y-90155990D02*
X96601266Y-90108371D01*
X96601266Y-90108371D02*
X96696504Y-90060752D01*
X96696504Y-90060752D02*
X96791742Y-90060752D01*
X97839362Y-90679800D02*
X97934600Y-90727419D01*
X97934600Y-90727419D02*
X98125076Y-90727419D01*
X98125076Y-90727419D02*
X98220314Y-90679800D01*
X98220314Y-90679800D02*
X98267933Y-90584561D01*
X98267933Y-90584561D02*
X98267933Y-90536942D01*
X98267933Y-90536942D02*
X98220314Y-90441704D01*
X98220314Y-90441704D02*
X98125076Y-90394085D01*
X98125076Y-90394085D02*
X97982219Y-90394085D01*
X97982219Y-90394085D02*
X97886981Y-90346466D01*
X97886981Y-90346466D02*
X97839362Y-90251228D01*
X97839362Y-90251228D02*
X97839362Y-90203609D01*
X97839362Y-90203609D02*
X97886981Y-90108371D01*
X97886981Y-90108371D02*
X97982219Y-90060752D01*
X97982219Y-90060752D02*
X98125076Y-90060752D01*
X98125076Y-90060752D02*
X98220314Y-90108371D01*
X99125076Y-90060752D02*
X99125076Y-90727419D01*
X98696505Y-90060752D02*
X98696505Y-90584561D01*
X98696505Y-90584561D02*
X98744124Y-90679800D01*
X98744124Y-90679800D02*
X98839362Y-90727419D01*
X98839362Y-90727419D02*
X98982219Y-90727419D01*
X98982219Y-90727419D02*
X99077457Y-90679800D01*
X99077457Y-90679800D02*
X99125076Y-90632180D01*
X99601267Y-90060752D02*
X99601267Y-91060752D01*
X99601267Y-90108371D02*
X99696505Y-90060752D01*
X99696505Y-90060752D02*
X99886981Y-90060752D01*
X99886981Y-90060752D02*
X99982219Y-90108371D01*
X99982219Y-90108371D02*
X100029838Y-90155990D01*
X100029838Y-90155990D02*
X100077457Y-90251228D01*
X100077457Y-90251228D02*
X100077457Y-90536942D01*
X100077457Y-90536942D02*
X100029838Y-90632180D01*
X100029838Y-90632180D02*
X99982219Y-90679800D01*
X99982219Y-90679800D02*
X99886981Y-90727419D01*
X99886981Y-90727419D02*
X99696505Y-90727419D01*
X99696505Y-90727419D02*
X99601267Y-90679800D01*
X100506029Y-90060752D02*
X100506029Y-91060752D01*
X100506029Y-90108371D02*
X100601267Y-90060752D01*
X100601267Y-90060752D02*
X100791743Y-90060752D01*
X100791743Y-90060752D02*
X100886981Y-90108371D01*
X100886981Y-90108371D02*
X100934600Y-90155990D01*
X100934600Y-90155990D02*
X100982219Y-90251228D01*
X100982219Y-90251228D02*
X100982219Y-90536942D01*
X100982219Y-90536942D02*
X100934600Y-90632180D01*
X100934600Y-90632180D02*
X100886981Y-90679800D01*
X100886981Y-90679800D02*
X100791743Y-90727419D01*
X100791743Y-90727419D02*
X100601267Y-90727419D01*
X100601267Y-90727419D02*
X100506029Y-90679800D01*
X101553648Y-90727419D02*
X101458410Y-90679800D01*
X101458410Y-90679800D02*
X101410791Y-90584561D01*
X101410791Y-90584561D02*
X101410791Y-89727419D01*
X101839363Y-90060752D02*
X102077458Y-90727419D01*
X102315553Y-90060752D02*
X102077458Y-90727419D01*
X102077458Y-90727419D02*
X101982220Y-90965514D01*
X101982220Y-90965514D02*
X101934601Y-91013133D01*
X101934601Y-91013133D02*
X101839363Y-91060752D01*
X102744125Y-90679800D02*
X102744125Y-90727419D01*
X102744125Y-90727419D02*
X102696506Y-90822657D01*
X102696506Y-90822657D02*
X102648887Y-90870276D01*
X104363172Y-90679800D02*
X104267934Y-90727419D01*
X104267934Y-90727419D02*
X104077458Y-90727419D01*
X104077458Y-90727419D02*
X103982220Y-90679800D01*
X103982220Y-90679800D02*
X103934601Y-90632180D01*
X103934601Y-90632180D02*
X103886982Y-90536942D01*
X103886982Y-90536942D02*
X103886982Y-90251228D01*
X103886982Y-90251228D02*
X103934601Y-90155990D01*
X103934601Y-90155990D02*
X103982220Y-90108371D01*
X103982220Y-90108371D02*
X104077458Y-90060752D01*
X104077458Y-90060752D02*
X104267934Y-90060752D01*
X104267934Y-90060752D02*
X104363172Y-90108371D01*
X104934601Y-90727419D02*
X104839363Y-90679800D01*
X104839363Y-90679800D02*
X104791744Y-90584561D01*
X104791744Y-90584561D02*
X104791744Y-89727419D01*
X105458411Y-90727419D02*
X105363173Y-90679800D01*
X105363173Y-90679800D02*
X105315554Y-90632180D01*
X105315554Y-90632180D02*
X105267935Y-90536942D01*
X105267935Y-90536942D02*
X105267935Y-90251228D01*
X105267935Y-90251228D02*
X105315554Y-90155990D01*
X105315554Y-90155990D02*
X105363173Y-90108371D01*
X105363173Y-90108371D02*
X105458411Y-90060752D01*
X105458411Y-90060752D02*
X105601268Y-90060752D01*
X105601268Y-90060752D02*
X105696506Y-90108371D01*
X105696506Y-90108371D02*
X105744125Y-90155990D01*
X105744125Y-90155990D02*
X105791744Y-90251228D01*
X105791744Y-90251228D02*
X105791744Y-90536942D01*
X105791744Y-90536942D02*
X105744125Y-90632180D01*
X105744125Y-90632180D02*
X105696506Y-90679800D01*
X105696506Y-90679800D02*
X105601268Y-90727419D01*
X105601268Y-90727419D02*
X105458411Y-90727419D01*
X106172697Y-90679800D02*
X106267935Y-90727419D01*
X106267935Y-90727419D02*
X106458411Y-90727419D01*
X106458411Y-90727419D02*
X106553649Y-90679800D01*
X106553649Y-90679800D02*
X106601268Y-90584561D01*
X106601268Y-90584561D02*
X106601268Y-90536942D01*
X106601268Y-90536942D02*
X106553649Y-90441704D01*
X106553649Y-90441704D02*
X106458411Y-90394085D01*
X106458411Y-90394085D02*
X106315554Y-90394085D01*
X106315554Y-90394085D02*
X106220316Y-90346466D01*
X106220316Y-90346466D02*
X106172697Y-90251228D01*
X106172697Y-90251228D02*
X106172697Y-90203609D01*
X106172697Y-90203609D02*
X106220316Y-90108371D01*
X106220316Y-90108371D02*
X106315554Y-90060752D01*
X106315554Y-90060752D02*
X106458411Y-90060752D01*
X106458411Y-90060752D02*
X106553649Y-90108371D01*
X107410792Y-90679800D02*
X107315554Y-90727419D01*
X107315554Y-90727419D02*
X107125078Y-90727419D01*
X107125078Y-90727419D02*
X107029840Y-90679800D01*
X107029840Y-90679800D02*
X106982221Y-90584561D01*
X106982221Y-90584561D02*
X106982221Y-90203609D01*
X106982221Y-90203609D02*
X107029840Y-90108371D01*
X107029840Y-90108371D02*
X107125078Y-90060752D01*
X107125078Y-90060752D02*
X107315554Y-90060752D01*
X107315554Y-90060752D02*
X107410792Y-90108371D01*
X107410792Y-90108371D02*
X107458411Y-90203609D01*
X107458411Y-90203609D02*
X107458411Y-90298847D01*
X107458411Y-90298847D02*
X106982221Y-90394085D01*
X108601269Y-90679800D02*
X108744126Y-90727419D01*
X108744126Y-90727419D02*
X108982221Y-90727419D01*
X108982221Y-90727419D02*
X109077459Y-90679800D01*
X109077459Y-90679800D02*
X109125078Y-90632180D01*
X109125078Y-90632180D02*
X109172697Y-90536942D01*
X109172697Y-90536942D02*
X109172697Y-90441704D01*
X109172697Y-90441704D02*
X109125078Y-90346466D01*
X109125078Y-90346466D02*
X109077459Y-90298847D01*
X109077459Y-90298847D02*
X108982221Y-90251228D01*
X108982221Y-90251228D02*
X108791745Y-90203609D01*
X108791745Y-90203609D02*
X108696507Y-90155990D01*
X108696507Y-90155990D02*
X108648888Y-90108371D01*
X108648888Y-90108371D02*
X108601269Y-90013133D01*
X108601269Y-90013133D02*
X108601269Y-89917895D01*
X108601269Y-89917895D02*
X108648888Y-89822657D01*
X108648888Y-89822657D02*
X108696507Y-89775038D01*
X108696507Y-89775038D02*
X108791745Y-89727419D01*
X108791745Y-89727419D02*
X109029840Y-89727419D01*
X109029840Y-89727419D02*
X109172697Y-89775038D01*
X110125078Y-90727419D02*
X109553650Y-90727419D01*
X109839364Y-90727419D02*
X109839364Y-89727419D01*
X109839364Y-89727419D02*
X109744126Y-89870276D01*
X109744126Y-89870276D02*
X109648888Y-89965514D01*
X109648888Y-89965514D02*
X109553650Y-90013133D01*
X110601269Y-90679800D02*
X110601269Y-90727419D01*
X110601269Y-90727419D02*
X110553650Y-90822657D01*
X110553650Y-90822657D02*
X110506031Y-90870276D01*
X111744126Y-90679800D02*
X111886983Y-90727419D01*
X111886983Y-90727419D02*
X112125078Y-90727419D01*
X112125078Y-90727419D02*
X112220316Y-90679800D01*
X112220316Y-90679800D02*
X112267935Y-90632180D01*
X112267935Y-90632180D02*
X112315554Y-90536942D01*
X112315554Y-90536942D02*
X112315554Y-90441704D01*
X112315554Y-90441704D02*
X112267935Y-90346466D01*
X112267935Y-90346466D02*
X112220316Y-90298847D01*
X112220316Y-90298847D02*
X112125078Y-90251228D01*
X112125078Y-90251228D02*
X111934602Y-90203609D01*
X111934602Y-90203609D02*
X111839364Y-90155990D01*
X111839364Y-90155990D02*
X111791745Y-90108371D01*
X111791745Y-90108371D02*
X111744126Y-90013133D01*
X111744126Y-90013133D02*
X111744126Y-89917895D01*
X111744126Y-89917895D02*
X111791745Y-89822657D01*
X111791745Y-89822657D02*
X111839364Y-89775038D01*
X111839364Y-89775038D02*
X111934602Y-89727419D01*
X111934602Y-89727419D02*
X112172697Y-89727419D01*
X112172697Y-89727419D02*
X112315554Y-89775038D01*
X112696507Y-89822657D02*
X112744126Y-89775038D01*
X112744126Y-89775038D02*
X112839364Y-89727419D01*
X112839364Y-89727419D02*
X113077459Y-89727419D01*
X113077459Y-89727419D02*
X113172697Y-89775038D01*
X113172697Y-89775038D02*
X113220316Y-89822657D01*
X113220316Y-89822657D02*
X113267935Y-89917895D01*
X113267935Y-89917895D02*
X113267935Y-90013133D01*
X113267935Y-90013133D02*
X113220316Y-90155990D01*
X113220316Y-90155990D02*
X112648888Y-90727419D01*
X112648888Y-90727419D02*
X113267935Y-90727419D01*
X113744126Y-90679800D02*
X113744126Y-90727419D01*
X113744126Y-90727419D02*
X113696507Y-90822657D01*
X113696507Y-90822657D02*
X113648888Y-90870276D01*
X115363173Y-90727419D02*
X115363173Y-90203609D01*
X115363173Y-90203609D02*
X115315554Y-90108371D01*
X115315554Y-90108371D02*
X115220316Y-90060752D01*
X115220316Y-90060752D02*
X115029840Y-90060752D01*
X115029840Y-90060752D02*
X114934602Y-90108371D01*
X115363173Y-90679800D02*
X115267935Y-90727419D01*
X115267935Y-90727419D02*
X115029840Y-90727419D01*
X115029840Y-90727419D02*
X114934602Y-90679800D01*
X114934602Y-90679800D02*
X114886983Y-90584561D01*
X114886983Y-90584561D02*
X114886983Y-90489323D01*
X114886983Y-90489323D02*
X114934602Y-90394085D01*
X114934602Y-90394085D02*
X115029840Y-90346466D01*
X115029840Y-90346466D02*
X115267935Y-90346466D01*
X115267935Y-90346466D02*
X115363173Y-90298847D01*
X115839364Y-90060752D02*
X115839364Y-90727419D01*
X115839364Y-90155990D02*
X115886983Y-90108371D01*
X115886983Y-90108371D02*
X115982221Y-90060752D01*
X115982221Y-90060752D02*
X116125078Y-90060752D01*
X116125078Y-90060752D02*
X116220316Y-90108371D01*
X116220316Y-90108371D02*
X116267935Y-90203609D01*
X116267935Y-90203609D02*
X116267935Y-90727419D01*
X117172697Y-90727419D02*
X117172697Y-89727419D01*
X117172697Y-90679800D02*
X117077459Y-90727419D01*
X117077459Y-90727419D02*
X116886983Y-90727419D01*
X116886983Y-90727419D02*
X116791745Y-90679800D01*
X116791745Y-90679800D02*
X116744126Y-90632180D01*
X116744126Y-90632180D02*
X116696507Y-90536942D01*
X116696507Y-90536942D02*
X116696507Y-90251228D01*
X116696507Y-90251228D02*
X116744126Y-90155990D01*
X116744126Y-90155990D02*
X116791745Y-90108371D01*
X116791745Y-90108371D02*
X116886983Y-90060752D01*
X116886983Y-90060752D02*
X117077459Y-90060752D01*
X117077459Y-90060752D02*
X117172697Y-90108371D01*
X118363174Y-90679800D02*
X118506031Y-90727419D01*
X118506031Y-90727419D02*
X118744126Y-90727419D01*
X118744126Y-90727419D02*
X118839364Y-90679800D01*
X118839364Y-90679800D02*
X118886983Y-90632180D01*
X118886983Y-90632180D02*
X118934602Y-90536942D01*
X118934602Y-90536942D02*
X118934602Y-90441704D01*
X118934602Y-90441704D02*
X118886983Y-90346466D01*
X118886983Y-90346466D02*
X118839364Y-90298847D01*
X118839364Y-90298847D02*
X118744126Y-90251228D01*
X118744126Y-90251228D02*
X118553650Y-90203609D01*
X118553650Y-90203609D02*
X118458412Y-90155990D01*
X118458412Y-90155990D02*
X118410793Y-90108371D01*
X118410793Y-90108371D02*
X118363174Y-90013133D01*
X118363174Y-90013133D02*
X118363174Y-89917895D01*
X118363174Y-89917895D02*
X118410793Y-89822657D01*
X118410793Y-89822657D02*
X118458412Y-89775038D01*
X118458412Y-89775038D02*
X118553650Y-89727419D01*
X118553650Y-89727419D02*
X118791745Y-89727419D01*
X118791745Y-89727419D02*
X118934602Y-89775038D01*
X119267936Y-89727419D02*
X119886983Y-89727419D01*
X119886983Y-89727419D02*
X119553650Y-90108371D01*
X119553650Y-90108371D02*
X119696507Y-90108371D01*
X119696507Y-90108371D02*
X119791745Y-90155990D01*
X119791745Y-90155990D02*
X119839364Y-90203609D01*
X119839364Y-90203609D02*
X119886983Y-90298847D01*
X119886983Y-90298847D02*
X119886983Y-90536942D01*
X119886983Y-90536942D02*
X119839364Y-90632180D01*
X119839364Y-90632180D02*
X119791745Y-90679800D01*
X119791745Y-90679800D02*
X119696507Y-90727419D01*
X119696507Y-90727419D02*
X119410793Y-90727419D01*
X119410793Y-90727419D02*
X119315555Y-90679800D01*
X119315555Y-90679800D02*
X119267936Y-90632180D01*
X120363174Y-90679800D02*
X120363174Y-90727419D01*
X120363174Y-90727419D02*
X120315555Y-90822657D01*
X120315555Y-90822657D02*
X120267936Y-90870276D01*
X121982221Y-90727419D02*
X121982221Y-89727419D01*
X121982221Y-90679800D02*
X121886983Y-90727419D01*
X121886983Y-90727419D02*
X121696507Y-90727419D01*
X121696507Y-90727419D02*
X121601269Y-90679800D01*
X121601269Y-90679800D02*
X121553650Y-90632180D01*
X121553650Y-90632180D02*
X121506031Y-90536942D01*
X121506031Y-90536942D02*
X121506031Y-90251228D01*
X121506031Y-90251228D02*
X121553650Y-90155990D01*
X121553650Y-90155990D02*
X121601269Y-90108371D01*
X121601269Y-90108371D02*
X121696507Y-90060752D01*
X121696507Y-90060752D02*
X121886983Y-90060752D01*
X121886983Y-90060752D02*
X121982221Y-90108371D01*
X122458412Y-90727419D02*
X122458412Y-90060752D01*
X122458412Y-89727419D02*
X122410793Y-89775038D01*
X122410793Y-89775038D02*
X122458412Y-89822657D01*
X122458412Y-89822657D02*
X122506031Y-89775038D01*
X122506031Y-89775038D02*
X122458412Y-89727419D01*
X122458412Y-89727419D02*
X122458412Y-89822657D01*
X122886983Y-90679800D02*
X122982221Y-90727419D01*
X122982221Y-90727419D02*
X123172697Y-90727419D01*
X123172697Y-90727419D02*
X123267935Y-90679800D01*
X123267935Y-90679800D02*
X123315554Y-90584561D01*
X123315554Y-90584561D02*
X123315554Y-90536942D01*
X123315554Y-90536942D02*
X123267935Y-90441704D01*
X123267935Y-90441704D02*
X123172697Y-90394085D01*
X123172697Y-90394085D02*
X123029840Y-90394085D01*
X123029840Y-90394085D02*
X122934602Y-90346466D01*
X122934602Y-90346466D02*
X122886983Y-90251228D01*
X122886983Y-90251228D02*
X122886983Y-90203609D01*
X122886983Y-90203609D02*
X122934602Y-90108371D01*
X122934602Y-90108371D02*
X123029840Y-90060752D01*
X123029840Y-90060752D02*
X123172697Y-90060752D01*
X123172697Y-90060752D02*
X123267935Y-90108371D01*
X124172697Y-90679800D02*
X124077459Y-90727419D01*
X124077459Y-90727419D02*
X123886983Y-90727419D01*
X123886983Y-90727419D02*
X123791745Y-90679800D01*
X123791745Y-90679800D02*
X123744126Y-90632180D01*
X123744126Y-90632180D02*
X123696507Y-90536942D01*
X123696507Y-90536942D02*
X123696507Y-90251228D01*
X123696507Y-90251228D02*
X123744126Y-90155990D01*
X123744126Y-90155990D02*
X123791745Y-90108371D01*
X123791745Y-90108371D02*
X123886983Y-90060752D01*
X123886983Y-90060752D02*
X124077459Y-90060752D01*
X124077459Y-90060752D02*
X124172697Y-90108371D01*
X124601269Y-90727419D02*
X124601269Y-89727419D01*
X125029840Y-90727419D02*
X125029840Y-90203609D01*
X125029840Y-90203609D02*
X124982221Y-90108371D01*
X124982221Y-90108371D02*
X124886983Y-90060752D01*
X124886983Y-90060752D02*
X124744126Y-90060752D01*
X124744126Y-90060752D02*
X124648888Y-90108371D01*
X124648888Y-90108371D02*
X124601269Y-90155990D01*
X125934602Y-90727419D02*
X125934602Y-90203609D01*
X125934602Y-90203609D02*
X125886983Y-90108371D01*
X125886983Y-90108371D02*
X125791745Y-90060752D01*
X125791745Y-90060752D02*
X125601269Y-90060752D01*
X125601269Y-90060752D02*
X125506031Y-90108371D01*
X125934602Y-90679800D02*
X125839364Y-90727419D01*
X125839364Y-90727419D02*
X125601269Y-90727419D01*
X125601269Y-90727419D02*
X125506031Y-90679800D01*
X125506031Y-90679800D02*
X125458412Y-90584561D01*
X125458412Y-90584561D02*
X125458412Y-90489323D01*
X125458412Y-90489323D02*
X125506031Y-90394085D01*
X125506031Y-90394085D02*
X125601269Y-90346466D01*
X125601269Y-90346466D02*
X125839364Y-90346466D01*
X125839364Y-90346466D02*
X125934602Y-90298847D01*
X126410793Y-90727419D02*
X126410793Y-90060752D01*
X126410793Y-90251228D02*
X126458412Y-90155990D01*
X126458412Y-90155990D02*
X126506031Y-90108371D01*
X126506031Y-90108371D02*
X126601269Y-90060752D01*
X126601269Y-90060752D02*
X126696507Y-90060752D01*
X127458412Y-90060752D02*
X127458412Y-90870276D01*
X127458412Y-90870276D02*
X127410793Y-90965514D01*
X127410793Y-90965514D02*
X127363174Y-91013133D01*
X127363174Y-91013133D02*
X127267936Y-91060752D01*
X127267936Y-91060752D02*
X127125079Y-91060752D01*
X127125079Y-91060752D02*
X127029841Y-91013133D01*
X127458412Y-90679800D02*
X127363174Y-90727419D01*
X127363174Y-90727419D02*
X127172698Y-90727419D01*
X127172698Y-90727419D02*
X127077460Y-90679800D01*
X127077460Y-90679800D02*
X127029841Y-90632180D01*
X127029841Y-90632180D02*
X126982222Y-90536942D01*
X126982222Y-90536942D02*
X126982222Y-90251228D01*
X126982222Y-90251228D02*
X127029841Y-90155990D01*
X127029841Y-90155990D02*
X127077460Y-90108371D01*
X127077460Y-90108371D02*
X127172698Y-90060752D01*
X127172698Y-90060752D02*
X127363174Y-90060752D01*
X127363174Y-90060752D02*
X127458412Y-90108371D01*
X127934603Y-90727419D02*
X127934603Y-90060752D01*
X127934603Y-89727419D02*
X127886984Y-89775038D01*
X127886984Y-89775038D02*
X127934603Y-89822657D01*
X127934603Y-89822657D02*
X127982222Y-89775038D01*
X127982222Y-89775038D02*
X127934603Y-89727419D01*
X127934603Y-89727419D02*
X127934603Y-89822657D01*
X128410793Y-90060752D02*
X128410793Y-90727419D01*
X128410793Y-90155990D02*
X128458412Y-90108371D01*
X128458412Y-90108371D02*
X128553650Y-90060752D01*
X128553650Y-90060752D02*
X128696507Y-90060752D01*
X128696507Y-90060752D02*
X128791745Y-90108371D01*
X128791745Y-90108371D02*
X128839364Y-90203609D01*
X128839364Y-90203609D02*
X128839364Y-90727419D01*
X129744126Y-90060752D02*
X129744126Y-90870276D01*
X129744126Y-90870276D02*
X129696507Y-90965514D01*
X129696507Y-90965514D02*
X129648888Y-91013133D01*
X129648888Y-91013133D02*
X129553650Y-91060752D01*
X129553650Y-91060752D02*
X129410793Y-91060752D01*
X129410793Y-91060752D02*
X129315555Y-91013133D01*
X129744126Y-90679800D02*
X129648888Y-90727419D01*
X129648888Y-90727419D02*
X129458412Y-90727419D01*
X129458412Y-90727419D02*
X129363174Y-90679800D01*
X129363174Y-90679800D02*
X129315555Y-90632180D01*
X129315555Y-90632180D02*
X129267936Y-90536942D01*
X129267936Y-90536942D02*
X129267936Y-90251228D01*
X129267936Y-90251228D02*
X129315555Y-90155990D01*
X129315555Y-90155990D02*
X129363174Y-90108371D01*
X129363174Y-90108371D02*
X129458412Y-90060752D01*
X129458412Y-90060752D02*
X129648888Y-90060752D01*
X129648888Y-90060752D02*
X129744126Y-90108371D01*
D11*
X124839838Y-140616279D02*
X124839838Y-140235326D01*
X124839838Y-140235326D02*
X124935076Y-140044850D01*
X124935076Y-140044850D02*
X125125552Y-139854374D01*
X125125552Y-139854374D02*
X125506504Y-139759136D01*
X125506504Y-139759136D02*
X126173171Y-139759136D01*
X126173171Y-139759136D02*
X126554123Y-139854374D01*
X126554123Y-139854374D02*
X126744600Y-140044850D01*
X126744600Y-140044850D02*
X126839838Y-140235326D01*
X126839838Y-140235326D02*
X126839838Y-140616279D01*
X126839838Y-140616279D02*
X126744600Y-140806755D01*
X126744600Y-140806755D02*
X126554123Y-140997231D01*
X126554123Y-140997231D02*
X126173171Y-141092469D01*
X126173171Y-141092469D02*
X125506504Y-141092469D01*
X125506504Y-141092469D02*
X125125552Y-140997231D01*
X125125552Y-140997231D02*
X124935076Y-140806755D01*
X124935076Y-140806755D02*
X124839838Y-140616279D01*
X126839838Y-138901993D02*
X124839838Y-138901993D01*
X124839838Y-138901993D02*
X126839838Y-137759136D01*
X126839838Y-137759136D02*
X124839838Y-137759136D01*
D10*
X123845000Y-132605000D02*
X122095000Y-134355000D01*
X123845000Y-132605000D02*
X125595000Y-134355000D01*
X123845000Y-144605000D02*
X123845000Y-132605000D01*
D11*
X67088720Y-143394838D02*
X67469673Y-143394838D01*
X67469673Y-143394838D02*
X67660149Y-143490076D01*
X67660149Y-143490076D02*
X67850625Y-143680552D01*
X67850625Y-143680552D02*
X67945863Y-144061504D01*
X67945863Y-144061504D02*
X67945863Y-144728171D01*
X67945863Y-144728171D02*
X67850625Y-145109123D01*
X67850625Y-145109123D02*
X67660149Y-145299600D01*
X67660149Y-145299600D02*
X67469673Y-145394838D01*
X67469673Y-145394838D02*
X67088720Y-145394838D01*
X67088720Y-145394838D02*
X66898244Y-145299600D01*
X66898244Y-145299600D02*
X66707768Y-145109123D01*
X66707768Y-145109123D02*
X66612530Y-144728171D01*
X66612530Y-144728171D02*
X66612530Y-144061504D01*
X66612530Y-144061504D02*
X66707768Y-143680552D01*
X66707768Y-143680552D02*
X66898244Y-143490076D01*
X66898244Y-143490076D02*
X67088720Y-143394838D01*
X68803006Y-145394838D02*
X68803006Y-143394838D01*
X68803006Y-143394838D02*
X69945863Y-145394838D01*
X69945863Y-145394838D02*
X69945863Y-143394838D01*
D10*
X75100000Y-142400000D02*
X73350000Y-140650000D01*
X75100000Y-142400000D02*
X73350000Y-144150000D01*
X63100000Y-142400000D02*
X75100000Y-142400000D01*
X76300000Y-63200000D02*
X74550000Y-64950000D01*
X76300000Y-63200000D02*
X74550000Y-61450000D01*
X64300000Y-63200000D02*
X76300000Y-63200000D01*
X141398884Y-160096466D02*
X142160789Y-160096466D01*
X141779836Y-160477419D02*
X141779836Y-159715514D01*
X49503884Y-60291466D02*
X50265789Y-60291466D01*
X49884836Y-60672419D02*
X49884836Y-59910514D01*
X47398884Y-156346466D02*
X48160789Y-156346466D01*
X47779836Y-156727419D02*
X47779836Y-155965514D01*
X139839360Y-164727419D02*
X139934598Y-164727419D01*
X139934598Y-164727419D02*
X140029836Y-164775038D01*
X140029836Y-164775038D02*
X140077455Y-164822657D01*
X140077455Y-164822657D02*
X140125074Y-164917895D01*
X140125074Y-164917895D02*
X140172693Y-165108371D01*
X140172693Y-165108371D02*
X140172693Y-165346466D01*
X140172693Y-165346466D02*
X140125074Y-165536942D01*
X140125074Y-165536942D02*
X140077455Y-165632180D01*
X140077455Y-165632180D02*
X140029836Y-165679800D01*
X140029836Y-165679800D02*
X139934598Y-165727419D01*
X139934598Y-165727419D02*
X139839360Y-165727419D01*
X139839360Y-165727419D02*
X139744122Y-165679800D01*
X139744122Y-165679800D02*
X139696503Y-165632180D01*
X139696503Y-165632180D02*
X139648884Y-165536942D01*
X139648884Y-165536942D02*
X139601265Y-165346466D01*
X139601265Y-165346466D02*
X139601265Y-165108371D01*
X139601265Y-165108371D02*
X139648884Y-164917895D01*
X139648884Y-164917895D02*
X139696503Y-164822657D01*
X139696503Y-164822657D02*
X139744122Y-164775038D01*
X139744122Y-164775038D02*
X139839360Y-164727419D01*
X140601265Y-165632180D02*
X140648884Y-165679800D01*
X140648884Y-165679800D02*
X140601265Y-165727419D01*
X140601265Y-165727419D02*
X140553646Y-165679800D01*
X140553646Y-165679800D02*
X140601265Y-165632180D01*
X140601265Y-165632180D02*
X140601265Y-165727419D01*
X141601264Y-165727419D02*
X141029836Y-165727419D01*
X141315550Y-165727419D02*
X141315550Y-164727419D01*
X141315550Y-164727419D02*
X141220312Y-164870276D01*
X141220312Y-164870276D02*
X141125074Y-164965514D01*
X141125074Y-164965514D02*
X141029836Y-165013133D01*
X142458407Y-165060752D02*
X142458407Y-165727419D01*
X142029836Y-165060752D02*
X142029836Y-165584561D01*
X142029836Y-165584561D02*
X142077455Y-165679800D01*
X142077455Y-165679800D02*
X142172693Y-165727419D01*
X142172693Y-165727419D02*
X142315550Y-165727419D01*
X142315550Y-165727419D02*
X142410788Y-165679800D01*
X142410788Y-165679800D02*
X142458407Y-165632180D01*
X41967419Y-156110639D02*
X41967419Y-156015401D01*
X41967419Y-156015401D02*
X42015038Y-155920163D01*
X42015038Y-155920163D02*
X42062657Y-155872544D01*
X42062657Y-155872544D02*
X42157895Y-155824925D01*
X42157895Y-155824925D02*
X42348371Y-155777306D01*
X42348371Y-155777306D02*
X42586466Y-155777306D01*
X42586466Y-155777306D02*
X42776942Y-155824925D01*
X42776942Y-155824925D02*
X42872180Y-155872544D01*
X42872180Y-155872544D02*
X42919800Y-155920163D01*
X42919800Y-155920163D02*
X42967419Y-156015401D01*
X42967419Y-156015401D02*
X42967419Y-156110639D01*
X42967419Y-156110639D02*
X42919800Y-156205877D01*
X42919800Y-156205877D02*
X42872180Y-156253496D01*
X42872180Y-156253496D02*
X42776942Y-156301115D01*
X42776942Y-156301115D02*
X42586466Y-156348734D01*
X42586466Y-156348734D02*
X42348371Y-156348734D01*
X42348371Y-156348734D02*
X42157895Y-156301115D01*
X42157895Y-156301115D02*
X42062657Y-156253496D01*
X42062657Y-156253496D02*
X42015038Y-156205877D01*
X42015038Y-156205877D02*
X41967419Y-156110639D01*
X42872180Y-155348734D02*
X42919800Y-155301115D01*
X42919800Y-155301115D02*
X42967419Y-155348734D01*
X42967419Y-155348734D02*
X42919800Y-155396353D01*
X42919800Y-155396353D02*
X42872180Y-155348734D01*
X42872180Y-155348734D02*
X42967419Y-155348734D01*
X42967419Y-154348735D02*
X42967419Y-154920163D01*
X42967419Y-154634449D02*
X41967419Y-154634449D01*
X41967419Y-154634449D02*
X42110276Y-154729687D01*
X42110276Y-154729687D02*
X42205514Y-154824925D01*
X42205514Y-154824925D02*
X42253133Y-154920163D01*
X42300752Y-153491592D02*
X42967419Y-153491592D01*
X42300752Y-153920163D02*
X42824561Y-153920163D01*
X42824561Y-153920163D02*
X42919800Y-153872544D01*
X42919800Y-153872544D02*
X42967419Y-153777306D01*
X42967419Y-153777306D02*
X42967419Y-153634449D01*
X42967419Y-153634449D02*
X42919800Y-153539211D01*
X42919800Y-153539211D02*
X42872180Y-153491592D01*
X42967419Y-59360639D02*
X42967419Y-59265401D01*
X42967419Y-59265401D02*
X43015038Y-59170163D01*
X43015038Y-59170163D02*
X43062657Y-59122544D01*
X43062657Y-59122544D02*
X43157895Y-59074925D01*
X43157895Y-59074925D02*
X43348371Y-59027306D01*
X43348371Y-59027306D02*
X43586466Y-59027306D01*
X43586466Y-59027306D02*
X43776942Y-59074925D01*
X43776942Y-59074925D02*
X43872180Y-59122544D01*
X43872180Y-59122544D02*
X43919800Y-59170163D01*
X43919800Y-59170163D02*
X43967419Y-59265401D01*
X43967419Y-59265401D02*
X43967419Y-59360639D01*
X43967419Y-59360639D02*
X43919800Y-59455877D01*
X43919800Y-59455877D02*
X43872180Y-59503496D01*
X43872180Y-59503496D02*
X43776942Y-59551115D01*
X43776942Y-59551115D02*
X43586466Y-59598734D01*
X43586466Y-59598734D02*
X43348371Y-59598734D01*
X43348371Y-59598734D02*
X43157895Y-59551115D01*
X43157895Y-59551115D02*
X43062657Y-59503496D01*
X43062657Y-59503496D02*
X43015038Y-59455877D01*
X43015038Y-59455877D02*
X42967419Y-59360639D01*
X43872180Y-58598734D02*
X43919800Y-58551115D01*
X43919800Y-58551115D02*
X43967419Y-58598734D01*
X43967419Y-58598734D02*
X43919800Y-58646353D01*
X43919800Y-58646353D02*
X43872180Y-58598734D01*
X43872180Y-58598734D02*
X43967419Y-58598734D01*
X43967419Y-57598735D02*
X43967419Y-58170163D01*
X43967419Y-57884449D02*
X42967419Y-57884449D01*
X42967419Y-57884449D02*
X43110276Y-57979687D01*
X43110276Y-57979687D02*
X43205514Y-58074925D01*
X43205514Y-58074925D02*
X43253133Y-58170163D01*
X43300752Y-56741592D02*
X43967419Y-56741592D01*
X43300752Y-57170163D02*
X43824561Y-57170163D01*
X43824561Y-57170163D02*
X43919800Y-57122544D01*
X43919800Y-57122544D02*
X43967419Y-57027306D01*
X43967419Y-57027306D02*
X43967419Y-56884449D01*
X43967419Y-56884449D02*
X43919800Y-56789211D01*
X43919800Y-56789211D02*
X43872180Y-56741592D01*
X22599800Y-125227400D02*
X38849800Y-125227400D01*
D11*
X36467019Y-109202964D02*
X36467019Y-108536298D01*
X36467019Y-108536298D02*
X37467019Y-108964869D01*
X36467019Y-108298202D02*
X37467019Y-107964869D01*
X37467019Y-107964869D02*
X36467019Y-107631536D01*
X37467019Y-106536297D02*
X36467019Y-106536297D01*
X36467019Y-106536297D02*
X36467019Y-106298202D01*
X36467019Y-106298202D02*
X36514638Y-106155345D01*
X36514638Y-106155345D02*
X36609876Y-106060107D01*
X36609876Y-106060107D02*
X36705114Y-106012488D01*
X36705114Y-106012488D02*
X36895590Y-105964869D01*
X36895590Y-105964869D02*
X37038447Y-105964869D01*
X37038447Y-105964869D02*
X37228923Y-106012488D01*
X37228923Y-106012488D02*
X37324161Y-106060107D01*
X37324161Y-106060107D02*
X37419400Y-106155345D01*
X37419400Y-106155345D02*
X37467019Y-106298202D01*
X37467019Y-106298202D02*
X37467019Y-106536297D01*
X37371780Y-104964869D02*
X37419400Y-105012488D01*
X37419400Y-105012488D02*
X37467019Y-105155345D01*
X37467019Y-105155345D02*
X37467019Y-105250583D01*
X37467019Y-105250583D02*
X37419400Y-105393440D01*
X37419400Y-105393440D02*
X37324161Y-105488678D01*
X37324161Y-105488678D02*
X37228923Y-105536297D01*
X37228923Y-105536297D02*
X37038447Y-105583916D01*
X37038447Y-105583916D02*
X36895590Y-105583916D01*
X36895590Y-105583916D02*
X36705114Y-105536297D01*
X36705114Y-105536297D02*
X36609876Y-105488678D01*
X36609876Y-105488678D02*
X36514638Y-105393440D01*
X36514638Y-105393440D02*
X36467019Y-105250583D01*
X36467019Y-105250583D02*
X36467019Y-105155345D01*
X36467019Y-105155345D02*
X36514638Y-105012488D01*
X36514638Y-105012488D02*
X36562257Y-104964869D01*
X37467019Y-103774392D02*
X36467019Y-103774392D01*
X36800352Y-103298202D02*
X37467019Y-103298202D01*
X36895590Y-103298202D02*
X36847971Y-103250583D01*
X36847971Y-103250583D02*
X36800352Y-103155345D01*
X36800352Y-103155345D02*
X36800352Y-103012488D01*
X36800352Y-103012488D02*
X36847971Y-102917250D01*
X36847971Y-102917250D02*
X36943209Y-102869631D01*
X36943209Y-102869631D02*
X37467019Y-102869631D01*
X36800352Y-102393440D02*
X37800352Y-102393440D01*
X36847971Y-102393440D02*
X36800352Y-102298202D01*
X36800352Y-102298202D02*
X36800352Y-102107726D01*
X36800352Y-102107726D02*
X36847971Y-102012488D01*
X36847971Y-102012488D02*
X36895590Y-101964869D01*
X36895590Y-101964869D02*
X36990828Y-101917250D01*
X36990828Y-101917250D02*
X37276542Y-101917250D01*
X37276542Y-101917250D02*
X37371780Y-101964869D01*
X37371780Y-101964869D02*
X37419400Y-102012488D01*
X37419400Y-102012488D02*
X37467019Y-102107726D01*
X37467019Y-102107726D02*
X37467019Y-102298202D01*
X37467019Y-102298202D02*
X37419400Y-102393440D01*
X36800352Y-101060107D02*
X37467019Y-101060107D01*
X36800352Y-101488678D02*
X37324161Y-101488678D01*
X37324161Y-101488678D02*
X37419400Y-101441059D01*
X37419400Y-101441059D02*
X37467019Y-101345821D01*
X37467019Y-101345821D02*
X37467019Y-101202964D01*
X37467019Y-101202964D02*
X37419400Y-101107726D01*
X37419400Y-101107726D02*
X37371780Y-101060107D01*
X36800352Y-100726773D02*
X36800352Y-100345821D01*
X36467019Y-100583916D02*
X37324161Y-100583916D01*
X37324161Y-100583916D02*
X37419400Y-100536297D01*
X37419400Y-100536297D02*
X37467019Y-100441059D01*
X37467019Y-100441059D02*
X37467019Y-100345821D01*
D10*
X38849800Y-79727400D02*
X38849800Y-125227400D01*
X22599800Y-79727400D02*
X38849800Y-79727400D01*
X140095000Y-40525000D02*
X159935000Y-40525000D01*
X159935000Y-58785000D01*
X140095000Y-58785000D01*
X140095000Y-40525000D01*
X143030000Y-36170000D02*
X157000000Y-36170000D01*
X157000000Y-63140000D01*
X143030000Y-63140000D01*
X143030000Y-36170000D01*
X136300000Y-36170000D02*
X163730000Y-36170000D01*
X163730000Y-63140000D01*
X136300000Y-63140000D01*
X136300000Y-36170000D01*
D11*
X68288720Y-64194838D02*
X68669673Y-64194838D01*
X68669673Y-64194838D02*
X68860149Y-64290076D01*
X68860149Y-64290076D02*
X69050625Y-64480552D01*
X69050625Y-64480552D02*
X69145863Y-64861504D01*
X69145863Y-64861504D02*
X69145863Y-65528171D01*
X69145863Y-65528171D02*
X69050625Y-65909123D01*
X69050625Y-65909123D02*
X68860149Y-66099600D01*
X68860149Y-66099600D02*
X68669673Y-66194838D01*
X68669673Y-66194838D02*
X68288720Y-66194838D01*
X68288720Y-66194838D02*
X68098244Y-66099600D01*
X68098244Y-66099600D02*
X67907768Y-65909123D01*
X67907768Y-65909123D02*
X67812530Y-65528171D01*
X67812530Y-65528171D02*
X67812530Y-64861504D01*
X67812530Y-64861504D02*
X67907768Y-64480552D01*
X67907768Y-64480552D02*
X68098244Y-64290076D01*
X68098244Y-64290076D02*
X68288720Y-64194838D01*
X70003006Y-66194838D02*
X70003006Y-64194838D01*
X70003006Y-64194838D02*
X71145863Y-66194838D01*
X71145863Y-66194838D02*
X71145863Y-64194838D01*
D12*
X55830333Y-65688523D02*
X55799857Y-65719000D01*
X55799857Y-65719000D02*
X55708428Y-65749476D01*
X55708428Y-65749476D02*
X55647476Y-65749476D01*
X55647476Y-65749476D02*
X55556047Y-65719000D01*
X55556047Y-65719000D02*
X55495095Y-65658047D01*
X55495095Y-65658047D02*
X55464618Y-65597095D01*
X55464618Y-65597095D02*
X55434142Y-65475190D01*
X55434142Y-65475190D02*
X55434142Y-65383761D01*
X55434142Y-65383761D02*
X55464618Y-65261857D01*
X55464618Y-65261857D02*
X55495095Y-65200904D01*
X55495095Y-65200904D02*
X55556047Y-65139952D01*
X55556047Y-65139952D02*
X55647476Y-65109476D01*
X55647476Y-65109476D02*
X55708428Y-65109476D01*
X55708428Y-65109476D02*
X55799857Y-65139952D01*
X55799857Y-65139952D02*
X55830333Y-65170428D01*
X56439857Y-65749476D02*
X56074142Y-65749476D01*
X56256999Y-65749476D02*
X56256999Y-65109476D01*
X56256999Y-65109476D02*
X56196047Y-65200904D01*
X56196047Y-65200904D02*
X56135095Y-65261857D01*
X56135095Y-65261857D02*
X56074142Y-65292333D01*
X59132238Y-63868733D02*
X59741762Y-63868733D01*
X59437000Y-64173495D02*
X59437000Y-63563971D01*
D10*
X29007219Y-105610733D02*
X28531028Y-105944066D01*
X29007219Y-106182161D02*
X28007219Y-106182161D01*
X28007219Y-106182161D02*
X28007219Y-105801209D01*
X28007219Y-105801209D02*
X28054838Y-105705971D01*
X28054838Y-105705971D02*
X28102457Y-105658352D01*
X28102457Y-105658352D02*
X28197695Y-105610733D01*
X28197695Y-105610733D02*
X28340552Y-105610733D01*
X28340552Y-105610733D02*
X28435790Y-105658352D01*
X28435790Y-105658352D02*
X28483409Y-105705971D01*
X28483409Y-105705971D02*
X28531028Y-105801209D01*
X28531028Y-105801209D02*
X28531028Y-106182161D01*
X28483409Y-105182161D02*
X28483409Y-104848828D01*
X29007219Y-104705971D02*
X29007219Y-105182161D01*
X29007219Y-105182161D02*
X28007219Y-105182161D01*
X28007219Y-105182161D02*
X28007219Y-104705971D01*
X28483409Y-103944066D02*
X28483409Y-104277399D01*
X29007219Y-104277399D02*
X28007219Y-104277399D01*
X28007219Y-104277399D02*
X28007219Y-103801209D01*
X28007219Y-103277399D02*
X28245314Y-103277399D01*
X28150076Y-103515494D02*
X28245314Y-103277399D01*
X28245314Y-103277399D02*
X28150076Y-103039304D01*
X28435790Y-103420256D02*
X28245314Y-103277399D01*
X28245314Y-103277399D02*
X28435790Y-103134542D01*
X28007219Y-102515494D02*
X28245314Y-102515494D01*
X28150076Y-102753589D02*
X28245314Y-102515494D01*
X28245314Y-102515494D02*
X28150076Y-102277399D01*
X28435790Y-102658351D02*
X28245314Y-102515494D01*
X28245314Y-102515494D02*
X28435790Y-102372637D01*
D12*
X23334819Y-29843333D02*
X24049104Y-29843333D01*
X24049104Y-29843333D02*
X24191961Y-29890952D01*
X24191961Y-29890952D02*
X24287200Y-29986190D01*
X24287200Y-29986190D02*
X24334819Y-30129047D01*
X24334819Y-30129047D02*
X24334819Y-30224285D01*
X23334819Y-29462380D02*
X23334819Y-28843333D01*
X23334819Y-28843333D02*
X23715771Y-29176666D01*
X23715771Y-29176666D02*
X23715771Y-29033809D01*
X23715771Y-29033809D02*
X23763390Y-28938571D01*
X23763390Y-28938571D02*
X23811009Y-28890952D01*
X23811009Y-28890952D02*
X23906247Y-28843333D01*
X23906247Y-28843333D02*
X24144342Y-28843333D01*
X24144342Y-28843333D02*
X24239580Y-28890952D01*
X24239580Y-28890952D02*
X24287200Y-28938571D01*
X24287200Y-28938571D02*
X24334819Y-29033809D01*
X24334819Y-29033809D02*
X24334819Y-29319523D01*
X24334819Y-29319523D02*
X24287200Y-29414761D01*
X24287200Y-29414761D02*
X24239580Y-29462380D01*
X100334819Y-29843333D02*
X101049104Y-29843333D01*
X101049104Y-29843333D02*
X101191961Y-29890952D01*
X101191961Y-29890952D02*
X101287200Y-29986190D01*
X101287200Y-29986190D02*
X101334819Y-30129047D01*
X101334819Y-30129047D02*
X101334819Y-30224285D01*
X100430057Y-29414761D02*
X100382438Y-29367142D01*
X100382438Y-29367142D02*
X100334819Y-29271904D01*
X100334819Y-29271904D02*
X100334819Y-29033809D01*
X100334819Y-29033809D02*
X100382438Y-28938571D01*
X100382438Y-28938571D02*
X100430057Y-28890952D01*
X100430057Y-28890952D02*
X100525295Y-28843333D01*
X100525295Y-28843333D02*
X100620533Y-28843333D01*
X100620533Y-28843333D02*
X100763390Y-28890952D01*
X100763390Y-28890952D02*
X101334819Y-29462380D01*
X101334819Y-29462380D02*
X101334819Y-28843333D01*
D10*
X68306905Y-32957419D02*
X68306905Y-31957419D01*
X68878333Y-32957419D02*
X68449762Y-32385990D01*
X68878333Y-31957419D02*
X68306905Y-32528847D01*
X69830714Y-32957419D02*
X69259286Y-32957419D01*
X69545000Y-32957419D02*
X69545000Y-31957419D01*
X69545000Y-31957419D02*
X69449762Y-32100276D01*
X69449762Y-32100276D02*
X69354524Y-32195514D01*
X69354524Y-32195514D02*
X69259286Y-32243133D01*
X29257219Y-120610733D02*
X28781028Y-120944066D01*
X29257219Y-121182161D02*
X28257219Y-121182161D01*
X28257219Y-121182161D02*
X28257219Y-120801209D01*
X28257219Y-120801209D02*
X28304838Y-120705971D01*
X28304838Y-120705971D02*
X28352457Y-120658352D01*
X28352457Y-120658352D02*
X28447695Y-120610733D01*
X28447695Y-120610733D02*
X28590552Y-120610733D01*
X28590552Y-120610733D02*
X28685790Y-120658352D01*
X28685790Y-120658352D02*
X28733409Y-120705971D01*
X28733409Y-120705971D02*
X28781028Y-120801209D01*
X28781028Y-120801209D02*
X28781028Y-121182161D01*
X28733409Y-120182161D02*
X28733409Y-119848828D01*
X29257219Y-119705971D02*
X29257219Y-120182161D01*
X29257219Y-120182161D02*
X28257219Y-120182161D01*
X28257219Y-120182161D02*
X28257219Y-119705971D01*
X28733409Y-118944066D02*
X28733409Y-119277399D01*
X29257219Y-119277399D02*
X28257219Y-119277399D01*
X28257219Y-119277399D02*
X28257219Y-118801209D01*
X28257219Y-118277399D02*
X28495314Y-118277399D01*
X28400076Y-118515494D02*
X28495314Y-118277399D01*
X28495314Y-118277399D02*
X28400076Y-118039304D01*
X28685790Y-118420256D02*
X28495314Y-118277399D01*
X28495314Y-118277399D02*
X28685790Y-118134542D01*
X28257219Y-117515494D02*
X28495314Y-117515494D01*
X28400076Y-117753589D02*
X28495314Y-117515494D01*
X28495314Y-117515494D02*
X28400076Y-117277399D01*
X28685790Y-117658351D02*
X28495314Y-117515494D01*
X28495314Y-117515494D02*
X28685790Y-117372637D01*
X155532419Y-139293094D02*
X154532419Y-139293094D01*
X155532419Y-138721666D02*
X154960990Y-139150237D01*
X154532419Y-138721666D02*
X155103847Y-139293094D01*
X154532419Y-138388332D02*
X154532419Y-137769285D01*
X154532419Y-137769285D02*
X154913371Y-138102618D01*
X154913371Y-138102618D02*
X154913371Y-137959761D01*
X154913371Y-137959761D02*
X154960990Y-137864523D01*
X154960990Y-137864523D02*
X155008609Y-137816904D01*
X155008609Y-137816904D02*
X155103847Y-137769285D01*
X155103847Y-137769285D02*
X155341942Y-137769285D01*
X155341942Y-137769285D02*
X155437180Y-137816904D01*
X155437180Y-137816904D02*
X155484800Y-137864523D01*
X155484800Y-137864523D02*
X155532419Y-137959761D01*
X155532419Y-137959761D02*
X155532419Y-138245475D01*
X155532419Y-138245475D02*
X155484800Y-138340713D01*
X155484800Y-138340713D02*
X155437180Y-138388332D01*
D12*
X65508095Y-51092200D02*
X65650952Y-51139819D01*
X65650952Y-51139819D02*
X65889047Y-51139819D01*
X65889047Y-51139819D02*
X65984285Y-51092200D01*
X65984285Y-51092200D02*
X66031904Y-51044580D01*
X66031904Y-51044580D02*
X66079523Y-50949342D01*
X66079523Y-50949342D02*
X66079523Y-50854104D01*
X66079523Y-50854104D02*
X66031904Y-50758866D01*
X66031904Y-50758866D02*
X65984285Y-50711247D01*
X65984285Y-50711247D02*
X65889047Y-50663628D01*
X65889047Y-50663628D02*
X65698571Y-50616009D01*
X65698571Y-50616009D02*
X65603333Y-50568390D01*
X65603333Y-50568390D02*
X65555714Y-50520771D01*
X65555714Y-50520771D02*
X65508095Y-50425533D01*
X65508095Y-50425533D02*
X65508095Y-50330295D01*
X65508095Y-50330295D02*
X65555714Y-50235057D01*
X65555714Y-50235057D02*
X65603333Y-50187438D01*
X65603333Y-50187438D02*
X65698571Y-50139819D01*
X65698571Y-50139819D02*
X65936666Y-50139819D01*
X65936666Y-50139819D02*
X66079523Y-50187438D01*
X67031904Y-51139819D02*
X66460476Y-51139819D01*
X66746190Y-51139819D02*
X66746190Y-50139819D01*
X66746190Y-50139819D02*
X66650952Y-50282676D01*
X66650952Y-50282676D02*
X66555714Y-50377914D01*
X66555714Y-50377914D02*
X66460476Y-50425533D01*
X44950419Y-148643333D02*
X44902800Y-148595714D01*
X44902800Y-148595714D02*
X44855180Y-148452857D01*
X44855180Y-148452857D02*
X44855180Y-148357619D01*
X44855180Y-148357619D02*
X44902800Y-148214762D01*
X44902800Y-148214762D02*
X44998038Y-148119524D01*
X44998038Y-148119524D02*
X45093276Y-148071905D01*
X45093276Y-148071905D02*
X45283752Y-148024286D01*
X45283752Y-148024286D02*
X45426609Y-148024286D01*
X45426609Y-148024286D02*
X45617085Y-148071905D01*
X45617085Y-148071905D02*
X45712323Y-148119524D01*
X45712323Y-148119524D02*
X45807561Y-148214762D01*
X45807561Y-148214762D02*
X45855180Y-148357619D01*
X45855180Y-148357619D02*
X45855180Y-148452857D01*
X45855180Y-148452857D02*
X45807561Y-148595714D01*
X45807561Y-148595714D02*
X45759942Y-148643333D01*
X45521847Y-149500476D02*
X44855180Y-149500476D01*
X45902800Y-149262381D02*
X45188514Y-149024286D01*
X45188514Y-149024286D02*
X45188514Y-149643333D01*
X53238333Y-159832323D02*
X53207857Y-159862800D01*
X53207857Y-159862800D02*
X53116428Y-159893276D01*
X53116428Y-159893276D02*
X53055476Y-159893276D01*
X53055476Y-159893276D02*
X52964047Y-159862800D01*
X52964047Y-159862800D02*
X52903095Y-159801847D01*
X52903095Y-159801847D02*
X52872618Y-159740895D01*
X52872618Y-159740895D02*
X52842142Y-159618990D01*
X52842142Y-159618990D02*
X52842142Y-159527561D01*
X52842142Y-159527561D02*
X52872618Y-159405657D01*
X52872618Y-159405657D02*
X52903095Y-159344704D01*
X52903095Y-159344704D02*
X52964047Y-159283752D01*
X52964047Y-159283752D02*
X53055476Y-159253276D01*
X53055476Y-159253276D02*
X53116428Y-159253276D01*
X53116428Y-159253276D02*
X53207857Y-159283752D01*
X53207857Y-159283752D02*
X53238333Y-159314228D01*
X53786904Y-159253276D02*
X53664999Y-159253276D01*
X53664999Y-159253276D02*
X53604047Y-159283752D01*
X53604047Y-159283752D02*
X53573571Y-159314228D01*
X53573571Y-159314228D02*
X53512618Y-159405657D01*
X53512618Y-159405657D02*
X53482142Y-159527561D01*
X53482142Y-159527561D02*
X53482142Y-159771371D01*
X53482142Y-159771371D02*
X53512618Y-159832323D01*
X53512618Y-159832323D02*
X53543095Y-159862800D01*
X53543095Y-159862800D02*
X53604047Y-159893276D01*
X53604047Y-159893276D02*
X53725952Y-159893276D01*
X53725952Y-159893276D02*
X53786904Y-159862800D01*
X53786904Y-159862800D02*
X53817380Y-159832323D01*
X53817380Y-159832323D02*
X53847857Y-159771371D01*
X53847857Y-159771371D02*
X53847857Y-159618990D01*
X53847857Y-159618990D02*
X53817380Y-159558038D01*
X53817380Y-159558038D02*
X53786904Y-159527561D01*
X53786904Y-159527561D02*
X53725952Y-159497085D01*
X53725952Y-159497085D02*
X53604047Y-159497085D01*
X53604047Y-159497085D02*
X53543095Y-159527561D01*
X53543095Y-159527561D02*
X53512618Y-159558038D01*
X53512618Y-159558038D02*
X53482142Y-159618990D01*
X56905238Y-158147533D02*
X57514762Y-158147533D01*
X57210000Y-158452295D02*
X57210000Y-157842771D01*
X47085419Y-52543333D02*
X47037800Y-52495714D01*
X47037800Y-52495714D02*
X46990180Y-52352857D01*
X46990180Y-52352857D02*
X46990180Y-52257619D01*
X46990180Y-52257619D02*
X47037800Y-52114762D01*
X47037800Y-52114762D02*
X47133038Y-52019524D01*
X47133038Y-52019524D02*
X47228276Y-51971905D01*
X47228276Y-51971905D02*
X47418752Y-51924286D01*
X47418752Y-51924286D02*
X47561609Y-51924286D01*
X47561609Y-51924286D02*
X47752085Y-51971905D01*
X47752085Y-51971905D02*
X47847323Y-52019524D01*
X47847323Y-52019524D02*
X47942561Y-52114762D01*
X47942561Y-52114762D02*
X47990180Y-52257619D01*
X47990180Y-52257619D02*
X47990180Y-52352857D01*
X47990180Y-52352857D02*
X47942561Y-52495714D01*
X47942561Y-52495714D02*
X47894942Y-52543333D01*
X47894942Y-52924286D02*
X47942561Y-52971905D01*
X47942561Y-52971905D02*
X47990180Y-53067143D01*
X47990180Y-53067143D02*
X47990180Y-53305238D01*
X47990180Y-53305238D02*
X47942561Y-53400476D01*
X47942561Y-53400476D02*
X47894942Y-53448095D01*
X47894942Y-53448095D02*
X47799704Y-53495714D01*
X47799704Y-53495714D02*
X47704466Y-53495714D01*
X47704466Y-53495714D02*
X47561609Y-53448095D01*
X47561609Y-53448095D02*
X46990180Y-52876667D01*
X46990180Y-52876667D02*
X46990180Y-53495714D01*
X44950419Y-154893333D02*
X44902800Y-154845714D01*
X44902800Y-154845714D02*
X44855180Y-154702857D01*
X44855180Y-154702857D02*
X44855180Y-154607619D01*
X44855180Y-154607619D02*
X44902800Y-154464762D01*
X44902800Y-154464762D02*
X44998038Y-154369524D01*
X44998038Y-154369524D02*
X45093276Y-154321905D01*
X45093276Y-154321905D02*
X45283752Y-154274286D01*
X45283752Y-154274286D02*
X45426609Y-154274286D01*
X45426609Y-154274286D02*
X45617085Y-154321905D01*
X45617085Y-154321905D02*
X45712323Y-154369524D01*
X45712323Y-154369524D02*
X45807561Y-154464762D01*
X45807561Y-154464762D02*
X45855180Y-154607619D01*
X45855180Y-154607619D02*
X45855180Y-154702857D01*
X45855180Y-154702857D02*
X45807561Y-154845714D01*
X45807561Y-154845714D02*
X45759942Y-154893333D01*
X45855180Y-155798095D02*
X45855180Y-155321905D01*
X45855180Y-155321905D02*
X45378990Y-155274286D01*
X45378990Y-155274286D02*
X45426609Y-155321905D01*
X45426609Y-155321905D02*
X45474228Y-155417143D01*
X45474228Y-155417143D02*
X45474228Y-155655238D01*
X45474228Y-155655238D02*
X45426609Y-155750476D01*
X45426609Y-155750476D02*
X45378990Y-155798095D01*
X45378990Y-155798095D02*
X45283752Y-155845714D01*
X45283752Y-155845714D02*
X45045657Y-155845714D01*
X45045657Y-155845714D02*
X44950419Y-155798095D01*
X44950419Y-155798095D02*
X44902800Y-155750476D01*
X44902800Y-155750476D02*
X44855180Y-155655238D01*
X44855180Y-155655238D02*
X44855180Y-155417143D01*
X44855180Y-155417143D02*
X44902800Y-155321905D01*
X44902800Y-155321905D02*
X44950419Y-155274286D01*
X141054819Y-139398094D02*
X140054819Y-139398094D01*
X140054819Y-139398094D02*
X140054819Y-139159999D01*
X140054819Y-139159999D02*
X140102438Y-139017142D01*
X140102438Y-139017142D02*
X140197676Y-138921904D01*
X140197676Y-138921904D02*
X140292914Y-138874285D01*
X140292914Y-138874285D02*
X140483390Y-138826666D01*
X140483390Y-138826666D02*
X140626247Y-138826666D01*
X140626247Y-138826666D02*
X140816723Y-138874285D01*
X140816723Y-138874285D02*
X140911961Y-138921904D01*
X140911961Y-138921904D02*
X141007200Y-139017142D01*
X141007200Y-139017142D02*
X141054819Y-139159999D01*
X141054819Y-139159999D02*
X141054819Y-139398094D01*
X140054819Y-138493332D02*
X140054819Y-137874285D01*
X140054819Y-137874285D02*
X140435771Y-138207618D01*
X140435771Y-138207618D02*
X140435771Y-138064761D01*
X140435771Y-138064761D02*
X140483390Y-137969523D01*
X140483390Y-137969523D02*
X140531009Y-137921904D01*
X140531009Y-137921904D02*
X140626247Y-137874285D01*
X140626247Y-137874285D02*
X140864342Y-137874285D01*
X140864342Y-137874285D02*
X140959580Y-137921904D01*
X140959580Y-137921904D02*
X141007200Y-137969523D01*
X141007200Y-137969523D02*
X141054819Y-138064761D01*
X141054819Y-138064761D02*
X141054819Y-138350475D01*
X141054819Y-138350475D02*
X141007200Y-138445713D01*
X141007200Y-138445713D02*
X140959580Y-138493332D01*
X64623095Y-147382200D02*
X64765952Y-147429819D01*
X64765952Y-147429819D02*
X65004047Y-147429819D01*
X65004047Y-147429819D02*
X65099285Y-147382200D01*
X65099285Y-147382200D02*
X65146904Y-147334580D01*
X65146904Y-147334580D02*
X65194523Y-147239342D01*
X65194523Y-147239342D02*
X65194523Y-147144104D01*
X65194523Y-147144104D02*
X65146904Y-147048866D01*
X65146904Y-147048866D02*
X65099285Y-147001247D01*
X65099285Y-147001247D02*
X65004047Y-146953628D01*
X65004047Y-146953628D02*
X64813571Y-146906009D01*
X64813571Y-146906009D02*
X64718333Y-146858390D01*
X64718333Y-146858390D02*
X64670714Y-146810771D01*
X64670714Y-146810771D02*
X64623095Y-146715533D01*
X64623095Y-146715533D02*
X64623095Y-146620295D01*
X64623095Y-146620295D02*
X64670714Y-146525057D01*
X64670714Y-146525057D02*
X64718333Y-146477438D01*
X64718333Y-146477438D02*
X64813571Y-146429819D01*
X64813571Y-146429819D02*
X65051666Y-146429819D01*
X65051666Y-146429819D02*
X65194523Y-146477438D01*
X65575476Y-146525057D02*
X65623095Y-146477438D01*
X65623095Y-146477438D02*
X65718333Y-146429819D01*
X65718333Y-146429819D02*
X65956428Y-146429819D01*
X65956428Y-146429819D02*
X66051666Y-146477438D01*
X66051666Y-146477438D02*
X66099285Y-146525057D01*
X66099285Y-146525057D02*
X66146904Y-146620295D01*
X66146904Y-146620295D02*
X66146904Y-146715533D01*
X66146904Y-146715533D02*
X66099285Y-146858390D01*
X66099285Y-146858390D02*
X65527857Y-147429819D01*
X65527857Y-147429819D02*
X66146904Y-147429819D01*
X100199819Y-179383333D02*
X100914104Y-179383333D01*
X100914104Y-179383333D02*
X101056961Y-179430952D01*
X101056961Y-179430952D02*
X101152200Y-179526190D01*
X101152200Y-179526190D02*
X101199819Y-179669047D01*
X101199819Y-179669047D02*
X101199819Y-179764285D01*
X100533152Y-178478571D02*
X101199819Y-178478571D01*
X100152200Y-178716666D02*
X100866485Y-178954761D01*
X100866485Y-178954761D02*
X100866485Y-178335714D01*
X68826905Y-42779819D02*
X68826905Y-41779819D01*
X68826905Y-41779819D02*
X69065000Y-41779819D01*
X69065000Y-41779819D02*
X69207857Y-41827438D01*
X69207857Y-41827438D02*
X69303095Y-41922676D01*
X69303095Y-41922676D02*
X69350714Y-42017914D01*
X69350714Y-42017914D02*
X69398333Y-42208390D01*
X69398333Y-42208390D02*
X69398333Y-42351247D01*
X69398333Y-42351247D02*
X69350714Y-42541723D01*
X69350714Y-42541723D02*
X69303095Y-42636961D01*
X69303095Y-42636961D02*
X69207857Y-42732200D01*
X69207857Y-42732200D02*
X69065000Y-42779819D01*
X69065000Y-42779819D02*
X68826905Y-42779819D01*
X70350714Y-42779819D02*
X69779286Y-42779819D01*
X70065000Y-42779819D02*
X70065000Y-41779819D01*
X70065000Y-41779819D02*
X69969762Y-41922676D01*
X69969762Y-41922676D02*
X69874524Y-42017914D01*
X69874524Y-42017914D02*
X69779286Y-42065533D01*
X129667200Y-142741904D02*
X129714819Y-142599047D01*
X129714819Y-142599047D02*
X129714819Y-142360952D01*
X129714819Y-142360952D02*
X129667200Y-142265714D01*
X129667200Y-142265714D02*
X129619580Y-142218095D01*
X129619580Y-142218095D02*
X129524342Y-142170476D01*
X129524342Y-142170476D02*
X129429104Y-142170476D01*
X129429104Y-142170476D02*
X129333866Y-142218095D01*
X129333866Y-142218095D02*
X129286247Y-142265714D01*
X129286247Y-142265714D02*
X129238628Y-142360952D01*
X129238628Y-142360952D02*
X129191009Y-142551428D01*
X129191009Y-142551428D02*
X129143390Y-142646666D01*
X129143390Y-142646666D02*
X129095771Y-142694285D01*
X129095771Y-142694285D02*
X129000533Y-142741904D01*
X129000533Y-142741904D02*
X128905295Y-142741904D01*
X128905295Y-142741904D02*
X128810057Y-142694285D01*
X128810057Y-142694285D02*
X128762438Y-142646666D01*
X128762438Y-142646666D02*
X128714819Y-142551428D01*
X128714819Y-142551428D02*
X128714819Y-142313333D01*
X128714819Y-142313333D02*
X128762438Y-142170476D01*
X128714819Y-141837142D02*
X128714819Y-141218095D01*
X128714819Y-141218095D02*
X129095771Y-141551428D01*
X129095771Y-141551428D02*
X129095771Y-141408571D01*
X129095771Y-141408571D02*
X129143390Y-141313333D01*
X129143390Y-141313333D02*
X129191009Y-141265714D01*
X129191009Y-141265714D02*
X129286247Y-141218095D01*
X129286247Y-141218095D02*
X129524342Y-141218095D01*
X129524342Y-141218095D02*
X129619580Y-141265714D01*
X129619580Y-141265714D02*
X129667200Y-141313333D01*
X129667200Y-141313333D02*
X129714819Y-141408571D01*
X129714819Y-141408571D02*
X129714819Y-141694285D01*
X129714819Y-141694285D02*
X129667200Y-141789523D01*
X129667200Y-141789523D02*
X129619580Y-141837142D01*
X55458095Y-47700819D02*
X55458095Y-48510342D01*
X55458095Y-48510342D02*
X55505714Y-48605580D01*
X55505714Y-48605580D02*
X55553333Y-48653200D01*
X55553333Y-48653200D02*
X55648571Y-48700819D01*
X55648571Y-48700819D02*
X55839047Y-48700819D01*
X55839047Y-48700819D02*
X55934285Y-48653200D01*
X55934285Y-48653200D02*
X55981904Y-48605580D01*
X55981904Y-48605580D02*
X56029523Y-48510342D01*
X56029523Y-48510342D02*
X56029523Y-47700819D01*
X57029523Y-48700819D02*
X56458095Y-48700819D01*
X56743809Y-48700819D02*
X56743809Y-47700819D01*
X56743809Y-47700819D02*
X56648571Y-47843676D01*
X56648571Y-47843676D02*
X56553333Y-47938914D01*
X56553333Y-47938914D02*
X56458095Y-47986533D01*
X53423095Y-143690819D02*
X53423095Y-144500342D01*
X53423095Y-144500342D02*
X53470714Y-144595580D01*
X53470714Y-144595580D02*
X53518333Y-144643200D01*
X53518333Y-144643200D02*
X53613571Y-144690819D01*
X53613571Y-144690819D02*
X53804047Y-144690819D01*
X53804047Y-144690819D02*
X53899285Y-144643200D01*
X53899285Y-144643200D02*
X53946904Y-144595580D01*
X53946904Y-144595580D02*
X53994523Y-144500342D01*
X53994523Y-144500342D02*
X53994523Y-143690819D01*
X54423095Y-143786057D02*
X54470714Y-143738438D01*
X54470714Y-143738438D02*
X54565952Y-143690819D01*
X54565952Y-143690819D02*
X54804047Y-143690819D01*
X54804047Y-143690819D02*
X54899285Y-143738438D01*
X54899285Y-143738438D02*
X54946904Y-143786057D01*
X54946904Y-143786057D02*
X54994523Y-143881295D01*
X54994523Y-143881295D02*
X54994523Y-143976533D01*
X54994523Y-143976533D02*
X54946904Y-144119390D01*
X54946904Y-144119390D02*
X54375476Y-144690819D01*
X54375476Y-144690819D02*
X54994523Y-144690819D01*
D10*
X67996905Y-174572419D02*
X67996905Y-173572419D01*
X68568333Y-174572419D02*
X68139762Y-174000990D01*
X68568333Y-173572419D02*
X67996905Y-174143847D01*
X68949286Y-173667657D02*
X68996905Y-173620038D01*
X68996905Y-173620038D02*
X69092143Y-173572419D01*
X69092143Y-173572419D02*
X69330238Y-173572419D01*
X69330238Y-173572419D02*
X69425476Y-173620038D01*
X69425476Y-173620038D02*
X69473095Y-173667657D01*
X69473095Y-173667657D02*
X69520714Y-173762895D01*
X69520714Y-173762895D02*
X69520714Y-173858133D01*
X69520714Y-173858133D02*
X69473095Y-174000990D01*
X69473095Y-174000990D02*
X68901667Y-174572419D01*
X68901667Y-174572419D02*
X69520714Y-174572419D01*
D12*
X145822323Y-153961666D02*
X145852800Y-153992142D01*
X145852800Y-153992142D02*
X145883276Y-154083571D01*
X145883276Y-154083571D02*
X145883276Y-154144523D01*
X145883276Y-154144523D02*
X145852800Y-154235952D01*
X145852800Y-154235952D02*
X145791847Y-154296904D01*
X145791847Y-154296904D02*
X145730895Y-154327381D01*
X145730895Y-154327381D02*
X145608990Y-154357857D01*
X145608990Y-154357857D02*
X145517561Y-154357857D01*
X145517561Y-154357857D02*
X145395657Y-154327381D01*
X145395657Y-154327381D02*
X145334704Y-154296904D01*
X145334704Y-154296904D02*
X145273752Y-154235952D01*
X145273752Y-154235952D02*
X145243276Y-154144523D01*
X145243276Y-154144523D02*
X145243276Y-154083571D01*
X145243276Y-154083571D02*
X145273752Y-153992142D01*
X145273752Y-153992142D02*
X145304228Y-153961666D01*
X145883276Y-153656904D02*
X145883276Y-153535000D01*
X145883276Y-153535000D02*
X145852800Y-153474047D01*
X145852800Y-153474047D02*
X145822323Y-153443571D01*
X145822323Y-153443571D02*
X145730895Y-153382619D01*
X145730895Y-153382619D02*
X145608990Y-153352142D01*
X145608990Y-153352142D02*
X145365180Y-153352142D01*
X145365180Y-153352142D02*
X145304228Y-153382619D01*
X145304228Y-153382619D02*
X145273752Y-153413095D01*
X145273752Y-153413095D02*
X145243276Y-153474047D01*
X145243276Y-153474047D02*
X145243276Y-153595952D01*
X145243276Y-153595952D02*
X145273752Y-153656904D01*
X145273752Y-153656904D02*
X145304228Y-153687381D01*
X145304228Y-153687381D02*
X145365180Y-153717857D01*
X145365180Y-153717857D02*
X145517561Y-153717857D01*
X145517561Y-153717857D02*
X145578514Y-153687381D01*
X145578514Y-153687381D02*
X145608990Y-153656904D01*
X145608990Y-153656904D02*
X145639466Y-153595952D01*
X145639466Y-153595952D02*
X145639466Y-153474047D01*
X145639466Y-153474047D02*
X145608990Y-153413095D01*
X145608990Y-153413095D02*
X145578514Y-153382619D01*
X145578514Y-153382619D02*
X145517561Y-153352142D01*
X144002533Y-150659761D02*
X144002533Y-150050238D01*
X144307295Y-150354999D02*
X143697771Y-150354999D01*
X23199819Y-179383333D02*
X23914104Y-179383333D01*
X23914104Y-179383333D02*
X24056961Y-179430952D01*
X24056961Y-179430952D02*
X24152200Y-179526190D01*
X24152200Y-179526190D02*
X24199819Y-179669047D01*
X24199819Y-179669047D02*
X24199819Y-179764285D01*
X23199819Y-178430952D02*
X23199819Y-178907142D01*
X23199819Y-178907142D02*
X23676009Y-178954761D01*
X23676009Y-178954761D02*
X23628390Y-178907142D01*
X23628390Y-178907142D02*
X23580771Y-178811904D01*
X23580771Y-178811904D02*
X23580771Y-178573809D01*
X23580771Y-178573809D02*
X23628390Y-178478571D01*
X23628390Y-178478571D02*
X23676009Y-178430952D01*
X23676009Y-178430952D02*
X23771247Y-178383333D01*
X23771247Y-178383333D02*
X24009342Y-178383333D01*
X24009342Y-178383333D02*
X24104580Y-178430952D01*
X24104580Y-178430952D02*
X24152200Y-178478571D01*
X24152200Y-178478571D02*
X24199819Y-178573809D01*
X24199819Y-178573809D02*
X24199819Y-178811904D01*
X24199819Y-178811904D02*
X24152200Y-178907142D01*
X24152200Y-178907142D02*
X24104580Y-178954761D01*
X22719619Y-87010733D02*
X23433904Y-87010733D01*
X23433904Y-87010733D02*
X23576761Y-87058352D01*
X23576761Y-87058352D02*
X23672000Y-87153590D01*
X23672000Y-87153590D02*
X23719619Y-87296447D01*
X23719619Y-87296447D02*
X23719619Y-87391685D01*
X23719619Y-86010733D02*
X23719619Y-86582161D01*
X23719619Y-86296447D02*
X22719619Y-86296447D01*
X22719619Y-86296447D02*
X22862476Y-86391685D01*
X22862476Y-86391685D02*
X22957714Y-86486923D01*
X22957714Y-86486923D02*
X23005333Y-86582161D01*
X157556666Y-170439819D02*
X157556666Y-171154104D01*
X157556666Y-171154104D02*
X157509047Y-171296961D01*
X157509047Y-171296961D02*
X157413809Y-171392200D01*
X157413809Y-171392200D02*
X157270952Y-171439819D01*
X157270952Y-171439819D02*
X157175714Y-171439819D01*
X157937619Y-170439819D02*
X158604285Y-170439819D01*
X158604285Y-170439819D02*
X158175714Y-171439819D01*
X128725819Y-154441904D02*
X129535342Y-154441904D01*
X129535342Y-154441904D02*
X129630580Y-154394285D01*
X129630580Y-154394285D02*
X129678200Y-154346666D01*
X129678200Y-154346666D02*
X129725819Y-154251428D01*
X129725819Y-154251428D02*
X129725819Y-154060952D01*
X129725819Y-154060952D02*
X129678200Y-153965714D01*
X129678200Y-153965714D02*
X129630580Y-153918095D01*
X129630580Y-153918095D02*
X129535342Y-153870476D01*
X129535342Y-153870476D02*
X128725819Y-153870476D01*
X128725819Y-153489523D02*
X128725819Y-152870476D01*
X128725819Y-152870476D02*
X129106771Y-153203809D01*
X129106771Y-153203809D02*
X129106771Y-153060952D01*
X129106771Y-153060952D02*
X129154390Y-152965714D01*
X129154390Y-152965714D02*
X129202009Y-152918095D01*
X129202009Y-152918095D02*
X129297247Y-152870476D01*
X129297247Y-152870476D02*
X129535342Y-152870476D01*
X129535342Y-152870476D02*
X129630580Y-152918095D01*
X129630580Y-152918095D02*
X129678200Y-152965714D01*
X129678200Y-152965714D02*
X129725819Y-153060952D01*
X129725819Y-153060952D02*
X129725819Y-153346666D01*
X129725819Y-153346666D02*
X129678200Y-153441904D01*
X129678200Y-153441904D02*
X129630580Y-153489523D01*
X157256666Y-91824819D02*
X157256666Y-92539104D01*
X157256666Y-92539104D02*
X157209047Y-92681961D01*
X157209047Y-92681961D02*
X157113809Y-92777200D01*
X157113809Y-92777200D02*
X156970952Y-92824819D01*
X156970952Y-92824819D02*
X156875714Y-92824819D01*
X158161428Y-91824819D02*
X157970952Y-91824819D01*
X157970952Y-91824819D02*
X157875714Y-91872438D01*
X157875714Y-91872438D02*
X157828095Y-91920057D01*
X157828095Y-91920057D02*
X157732857Y-92062914D01*
X157732857Y-92062914D02*
X157685238Y-92253390D01*
X157685238Y-92253390D02*
X157685238Y-92634342D01*
X157685238Y-92634342D02*
X157732857Y-92729580D01*
X157732857Y-92729580D02*
X157780476Y-92777200D01*
X157780476Y-92777200D02*
X157875714Y-92824819D01*
X157875714Y-92824819D02*
X158066190Y-92824819D01*
X158066190Y-92824819D02*
X158161428Y-92777200D01*
X158161428Y-92777200D02*
X158209047Y-92729580D01*
X158209047Y-92729580D02*
X158256666Y-92634342D01*
X158256666Y-92634342D02*
X158256666Y-92396247D01*
X158256666Y-92396247D02*
X158209047Y-92301009D01*
X158209047Y-92301009D02*
X158161428Y-92253390D01*
X158161428Y-92253390D02*
X158066190Y-92205771D01*
X158066190Y-92205771D02*
X157875714Y-92205771D01*
X157875714Y-92205771D02*
X157780476Y-92253390D01*
X157780476Y-92253390D02*
X157732857Y-92301009D01*
X157732857Y-92301009D02*
X157685238Y-92396247D01*
X133678333Y-162914580D02*
X133630714Y-162962200D01*
X133630714Y-162962200D02*
X133487857Y-163009819D01*
X133487857Y-163009819D02*
X133392619Y-163009819D01*
X133392619Y-163009819D02*
X133249762Y-162962200D01*
X133249762Y-162962200D02*
X133154524Y-162866961D01*
X133154524Y-162866961D02*
X133106905Y-162771723D01*
X133106905Y-162771723D02*
X133059286Y-162581247D01*
X133059286Y-162581247D02*
X133059286Y-162438390D01*
X133059286Y-162438390D02*
X133106905Y-162247914D01*
X133106905Y-162247914D02*
X133154524Y-162152676D01*
X133154524Y-162152676D02*
X133249762Y-162057438D01*
X133249762Y-162057438D02*
X133392619Y-162009819D01*
X133392619Y-162009819D02*
X133487857Y-162009819D01*
X133487857Y-162009819D02*
X133630714Y-162057438D01*
X133630714Y-162057438D02*
X133678333Y-162105057D01*
X134011667Y-162009819D02*
X134678333Y-162009819D01*
X134678333Y-162009819D02*
X134249762Y-163009819D01*
X47085419Y-58813333D02*
X47037800Y-58765714D01*
X47037800Y-58765714D02*
X46990180Y-58622857D01*
X46990180Y-58622857D02*
X46990180Y-58527619D01*
X46990180Y-58527619D02*
X47037800Y-58384762D01*
X47037800Y-58384762D02*
X47133038Y-58289524D01*
X47133038Y-58289524D02*
X47228276Y-58241905D01*
X47228276Y-58241905D02*
X47418752Y-58194286D01*
X47418752Y-58194286D02*
X47561609Y-58194286D01*
X47561609Y-58194286D02*
X47752085Y-58241905D01*
X47752085Y-58241905D02*
X47847323Y-58289524D01*
X47847323Y-58289524D02*
X47942561Y-58384762D01*
X47942561Y-58384762D02*
X47990180Y-58527619D01*
X47990180Y-58527619D02*
X47990180Y-58622857D01*
X47990180Y-58622857D02*
X47942561Y-58765714D01*
X47942561Y-58765714D02*
X47894942Y-58813333D01*
X47990180Y-59146667D02*
X47990180Y-59765714D01*
X47990180Y-59765714D02*
X47609228Y-59432381D01*
X47609228Y-59432381D02*
X47609228Y-59575238D01*
X47609228Y-59575238D02*
X47561609Y-59670476D01*
X47561609Y-59670476D02*
X47513990Y-59718095D01*
X47513990Y-59718095D02*
X47418752Y-59765714D01*
X47418752Y-59765714D02*
X47180657Y-59765714D01*
X47180657Y-59765714D02*
X47085419Y-59718095D01*
X47085419Y-59718095D02*
X47037800Y-59670476D01*
X47037800Y-59670476D02*
X46990180Y-59575238D01*
X46990180Y-59575238D02*
X46990180Y-59289524D01*
X46990180Y-59289524D02*
X47037800Y-59194286D01*
X47037800Y-59194286D02*
X47085419Y-59146667D01*
X140158333Y-162914580D02*
X140110714Y-162962200D01*
X140110714Y-162962200D02*
X139967857Y-163009819D01*
X139967857Y-163009819D02*
X139872619Y-163009819D01*
X139872619Y-163009819D02*
X139729762Y-162962200D01*
X139729762Y-162962200D02*
X139634524Y-162866961D01*
X139634524Y-162866961D02*
X139586905Y-162771723D01*
X139586905Y-162771723D02*
X139539286Y-162581247D01*
X139539286Y-162581247D02*
X139539286Y-162438390D01*
X139539286Y-162438390D02*
X139586905Y-162247914D01*
X139586905Y-162247914D02*
X139634524Y-162152676D01*
X139634524Y-162152676D02*
X139729762Y-162057438D01*
X139729762Y-162057438D02*
X139872619Y-162009819D01*
X139872619Y-162009819D02*
X139967857Y-162009819D01*
X139967857Y-162009819D02*
X140110714Y-162057438D01*
X140110714Y-162057438D02*
X140158333Y-162105057D01*
X140729762Y-162438390D02*
X140634524Y-162390771D01*
X140634524Y-162390771D02*
X140586905Y-162343152D01*
X140586905Y-162343152D02*
X140539286Y-162247914D01*
X140539286Y-162247914D02*
X140539286Y-162200295D01*
X140539286Y-162200295D02*
X140586905Y-162105057D01*
X140586905Y-162105057D02*
X140634524Y-162057438D01*
X140634524Y-162057438D02*
X140729762Y-162009819D01*
X140729762Y-162009819D02*
X140920238Y-162009819D01*
X140920238Y-162009819D02*
X141015476Y-162057438D01*
X141015476Y-162057438D02*
X141063095Y-162105057D01*
X141063095Y-162105057D02*
X141110714Y-162200295D01*
X141110714Y-162200295D02*
X141110714Y-162247914D01*
X141110714Y-162247914D02*
X141063095Y-162343152D01*
X141063095Y-162343152D02*
X141015476Y-162390771D01*
X141015476Y-162390771D02*
X140920238Y-162438390D01*
X140920238Y-162438390D02*
X140729762Y-162438390D01*
X140729762Y-162438390D02*
X140634524Y-162486009D01*
X140634524Y-162486009D02*
X140586905Y-162533628D01*
X140586905Y-162533628D02*
X140539286Y-162628866D01*
X140539286Y-162628866D02*
X140539286Y-162819342D01*
X140539286Y-162819342D02*
X140586905Y-162914580D01*
X140586905Y-162914580D02*
X140634524Y-162962200D01*
X140634524Y-162962200D02*
X140729762Y-163009819D01*
X140729762Y-163009819D02*
X140920238Y-163009819D01*
X140920238Y-163009819D02*
X141015476Y-162962200D01*
X141015476Y-162962200D02*
X141063095Y-162914580D01*
X141063095Y-162914580D02*
X141110714Y-162819342D01*
X141110714Y-162819342D02*
X141110714Y-162628866D01*
X141110714Y-162628866D02*
X141063095Y-162533628D01*
X141063095Y-162533628D02*
X141015476Y-162486009D01*
X141015476Y-162486009D02*
X140920238Y-162438390D01*
X67866905Y-160369819D02*
X67866905Y-159369819D01*
X67866905Y-159369819D02*
X68105000Y-159369819D01*
X68105000Y-159369819D02*
X68247857Y-159417438D01*
X68247857Y-159417438D02*
X68343095Y-159512676D01*
X68343095Y-159512676D02*
X68390714Y-159607914D01*
X68390714Y-159607914D02*
X68438333Y-159798390D01*
X68438333Y-159798390D02*
X68438333Y-159941247D01*
X68438333Y-159941247D02*
X68390714Y-160131723D01*
X68390714Y-160131723D02*
X68343095Y-160226961D01*
X68343095Y-160226961D02*
X68247857Y-160322200D01*
X68247857Y-160322200D02*
X68105000Y-160369819D01*
X68105000Y-160369819D02*
X67866905Y-160369819D01*
X68819286Y-159465057D02*
X68866905Y-159417438D01*
X68866905Y-159417438D02*
X68962143Y-159369819D01*
X68962143Y-159369819D02*
X69200238Y-159369819D01*
X69200238Y-159369819D02*
X69295476Y-159417438D01*
X69295476Y-159417438D02*
X69343095Y-159465057D01*
X69343095Y-159465057D02*
X69390714Y-159560295D01*
X69390714Y-159560295D02*
X69390714Y-159655533D01*
X69390714Y-159655533D02*
X69343095Y-159798390D01*
X69343095Y-159798390D02*
X68771667Y-160369819D01*
X68771667Y-160369819D02*
X69390714Y-160369819D01*
D11*
X53187000Y-58961200D02*
X53187000Y-60611200D01*
X53187000Y-58961200D02*
X57637000Y-58961200D01*
X53187000Y-64461200D02*
X53187000Y-62811200D01*
X53187000Y-64461200D02*
X57637000Y-64461200D01*
X57637000Y-58961200D02*
X58687000Y-60011200D01*
X57637000Y-64461200D02*
X58687000Y-63411200D01*
X58687000Y-60011200D02*
X58687000Y-60611200D01*
X58687000Y-63411200D02*
X58687000Y-62811200D01*
D10*
X25049800Y-108277400D02*
X33049800Y-108277400D01*
X33049800Y-100277400D01*
X25049800Y-100277400D01*
X25049800Y-108277400D01*
D13*
X34630000Y-29255000D02*
X34630000Y-27745000D01*
X28935000Y-32435000D02*
X32455000Y-32435000D01*
X28935000Y-24565000D02*
X32455000Y-24565000D01*
X26760000Y-29255000D02*
X26760000Y-27745000D01*
X111630000Y-29255000D02*
X111630000Y-27745000D01*
X105935000Y-32435000D02*
X109455000Y-32435000D01*
X105935000Y-24565000D02*
X109455000Y-24565000D01*
X103760000Y-29255000D02*
X103760000Y-27745000D01*
D10*
X39045000Y-24600000D02*
X99045000Y-24600000D01*
X99045000Y-40400000D01*
X39045000Y-40400000D01*
X39045000Y-24600000D01*
X25299800Y-123277400D02*
X33299800Y-123277400D01*
X33299800Y-115277400D01*
X25299800Y-115277400D01*
X25299800Y-123277400D01*
X147175000Y-168555000D02*
X162975000Y-168555000D01*
X162975000Y-108555000D01*
X147175000Y-108555000D01*
X147175000Y-168555000D01*
D13*
X63345000Y-52570000D02*
X76045000Y-52570000D01*
X63345000Y-54292500D02*
X63345000Y-52570000D01*
X63345000Y-59430000D02*
X63345000Y-57707500D01*
X76045000Y-52570000D02*
X76045000Y-54292500D01*
X76045000Y-59430000D02*
X63345000Y-59430000D01*
X76045000Y-59430000D02*
X76045000Y-57707500D01*
D11*
X62695000Y-56000000D02*
G75*
G02*
X62495000Y-56000000I-100000J0D01*
G01*
X62495000Y-56000000D02*
G75*
G02*
X62695000Y-56000000I100000J0D01*
G01*
D14*
X43595500Y-151477000D02*
X43595500Y-146143000D01*
X47024500Y-151477000D02*
X43595500Y-151477000D01*
X47024500Y-151477000D02*
X47024500Y-146143000D01*
X47024500Y-146143000D02*
X43595500Y-146143000D01*
D11*
X56460000Y-157690000D02*
X56460000Y-157090000D01*
X56460000Y-154290000D02*
X56460000Y-154890000D01*
X55410000Y-158740000D02*
X56460000Y-157690000D01*
X55410000Y-153240000D02*
X56460000Y-154290000D01*
X50960000Y-158740000D02*
X55410000Y-158740000D01*
X50960000Y-158740000D02*
X50960000Y-157090000D01*
X50960000Y-153240000D02*
X55410000Y-153240000D01*
X50960000Y-153240000D02*
X50960000Y-154890000D01*
D14*
X49159500Y-50043000D02*
X45730500Y-50043000D01*
X49159500Y-55377000D02*
X49159500Y-50043000D01*
X49159500Y-55377000D02*
X45730500Y-55377000D01*
X45730500Y-55377000D02*
X45730500Y-50043000D01*
X43595500Y-157727000D02*
X43595500Y-152393000D01*
X47024500Y-157727000D02*
X43595500Y-157727000D01*
X47024500Y-157727000D02*
X47024500Y-152393000D01*
X47024500Y-152393000D02*
X43595500Y-152393000D01*
D15*
X141630000Y-135830000D02*
X144570000Y-135830000D01*
X141630000Y-135860000D02*
X141630000Y-141300000D01*
X141630000Y-140280000D02*
X144570000Y-140280000D01*
X141630000Y-140400000D02*
X144570000Y-140400000D01*
X141630000Y-140520000D02*
X144570000Y-140520000D01*
X141630000Y-141300000D02*
X144570000Y-141300000D01*
X144570000Y-141300000D02*
X144570000Y-135860000D01*
D13*
X62460000Y-148860000D02*
X75160000Y-148860000D01*
X62460000Y-150582500D02*
X62460000Y-148860000D01*
X62460000Y-155720000D02*
X62460000Y-153997500D01*
X75160000Y-148860000D02*
X75160000Y-150582500D01*
X75160000Y-155720000D02*
X62460000Y-155720000D01*
X75160000Y-155720000D02*
X75160000Y-153997500D01*
D11*
X61810000Y-152290000D02*
G75*
G02*
X61610000Y-152290000I-100000J0D01*
G01*
X61610000Y-152290000D02*
G75*
G02*
X61810000Y-152290000I100000J0D01*
G01*
D13*
X103625000Y-178795000D02*
X103625000Y-177285000D01*
X105800000Y-174105000D02*
X109320000Y-174105000D01*
X105800000Y-181975000D02*
X109320000Y-181975000D01*
X111495000Y-178795000D02*
X111495000Y-177285000D01*
D15*
X66925000Y-43355000D02*
X66925000Y-46295000D01*
X66925000Y-46295000D02*
X72365000Y-46295000D01*
X67705000Y-43355000D02*
X67705000Y-46295000D01*
X67825000Y-43355000D02*
X67825000Y-46295000D01*
X67945000Y-43355000D02*
X67945000Y-46295000D01*
X72365000Y-43355000D02*
X66925000Y-43355000D01*
X72395000Y-43355000D02*
X72395000Y-46295000D01*
D13*
X131145000Y-144905000D02*
X131145000Y-132205000D01*
X132867500Y-144905000D02*
X131145000Y-144905000D01*
X138005000Y-144905000D02*
X136282500Y-144905000D01*
X131145000Y-132205000D02*
X132867500Y-132205000D01*
X138005000Y-132205000D02*
X138005000Y-144905000D01*
X138005000Y-132205000D02*
X136282500Y-132205000D01*
D11*
X134675000Y-145655000D02*
G75*
G02*
X134475000Y-145655000I-100000J0D01*
G01*
X134475000Y-145655000D02*
G75*
G02*
X134675000Y-145655000I100000J0D01*
G01*
X51745000Y-50700000D02*
G75*
G02*
X51545000Y-50700000I-100000J0D01*
G01*
X51545000Y-50700000D02*
G75*
G02*
X51745000Y-50700000I100000J0D01*
G01*
D13*
X57995000Y-56250000D02*
X57995000Y-55010000D01*
X57995000Y-49750000D02*
X57995000Y-50990000D01*
X54495000Y-56250000D02*
X57995000Y-56250000D01*
X54495000Y-49750000D02*
X57995000Y-49750000D01*
X52460000Y-145740000D02*
X55960000Y-145740000D01*
X52460000Y-152240000D02*
X55960000Y-152240000D01*
X55960000Y-145740000D02*
X55960000Y-146980000D01*
X55960000Y-152240000D02*
X55960000Y-151000000D01*
D11*
X49710000Y-146690000D02*
G75*
G02*
X49510000Y-146690000I-100000J0D01*
G01*
X49510000Y-146690000D02*
G75*
G02*
X49710000Y-146690000I100000J0D01*
G01*
D10*
X38735000Y-166215000D02*
X98735000Y-166215000D01*
X98735000Y-182015000D01*
X38735000Y-182015000D01*
X38735000Y-166215000D01*
D11*
X139095000Y-156605000D02*
X140745000Y-156605000D01*
X139095000Y-156605000D02*
X139095000Y-152155000D01*
X144595000Y-156605000D02*
X142945000Y-156605000D01*
X144595000Y-156605000D02*
X144595000Y-152155000D01*
X139095000Y-152155000D02*
X140145000Y-151105000D01*
X144595000Y-152155000D02*
X143545000Y-151105000D01*
X140145000Y-151105000D02*
X140745000Y-151105000D01*
X143545000Y-151105000D02*
X142945000Y-151105000D01*
D13*
X26625000Y-178795000D02*
X26625000Y-177285000D01*
X28800000Y-174105000D02*
X32320000Y-174105000D01*
X28800000Y-181975000D02*
X32320000Y-181975000D01*
X34495000Y-178795000D02*
X34495000Y-177285000D01*
D16*
X27099800Y-90077400D02*
G75*
G02*
X26899800Y-90077400I-100000J0D01*
G01*
X26899800Y-90077400D02*
G75*
G02*
X27099800Y-90077400I100000J0D01*
G01*
D11*
X32499800Y-91777400D02*
X24799800Y-91777400D01*
X32499800Y-81577400D02*
X32499800Y-91777400D01*
X24799800Y-91777400D02*
X24799800Y-81577400D01*
X24799800Y-81577400D02*
X32499800Y-81577400D01*
D13*
X154965000Y-176040000D02*
X154965000Y-179560000D01*
X158145000Y-173865000D02*
X159655000Y-173865000D01*
X158145000Y-181735000D02*
X159655000Y-181735000D01*
X162835000Y-176040000D02*
X162835000Y-179560000D01*
D11*
X131825000Y-158255000D02*
G75*
G02*
X131625000Y-158255000I-100000J0D01*
G01*
X131625000Y-158255000D02*
G75*
G02*
X131825000Y-158255000I100000J0D01*
G01*
D13*
X137275000Y-151905000D02*
X136035000Y-151905000D01*
X130775000Y-151905000D02*
X132015000Y-151905000D01*
X137275000Y-155405000D02*
X137275000Y-151905000D01*
X130775000Y-155405000D02*
X130775000Y-151905000D01*
X162535000Y-97425000D02*
X162535000Y-100945000D01*
X157845000Y-103120000D02*
X159355000Y-103120000D01*
X157845000Y-95250000D02*
X159355000Y-95250000D01*
X154665000Y-97425000D02*
X154665000Y-100945000D01*
D14*
X136512000Y-164269500D02*
X131178000Y-164269500D01*
X136512000Y-160840500D02*
X136512000Y-164269500D01*
X136512000Y-160840500D02*
X131178000Y-160840500D01*
X131178000Y-160840500D02*
X131178000Y-164269500D01*
X49159500Y-56313000D02*
X45730500Y-56313000D01*
X49159500Y-61647000D02*
X49159500Y-56313000D01*
X49159500Y-61647000D02*
X45730500Y-61647000D01*
X45730500Y-61647000D02*
X45730500Y-56313000D01*
X137658000Y-160840500D02*
X137658000Y-164269500D01*
X142992000Y-160840500D02*
X137658000Y-160840500D01*
X142992000Y-160840500D02*
X142992000Y-164269500D01*
X142992000Y-164269500D02*
X137658000Y-164269500D01*
D15*
X65965000Y-160945000D02*
X65965000Y-163885000D01*
X65965000Y-163885000D02*
X71405000Y-163885000D01*
X66745000Y-160945000D02*
X66745000Y-163885000D01*
X66865000Y-160945000D02*
X66865000Y-163885000D01*
X66985000Y-160945000D02*
X66985000Y-163885000D01*
X71405000Y-160945000D02*
X65965000Y-160945000D01*
X71435000Y-160945000D02*
X71435000Y-163885000D01*
M02*
