M48
; DRILL file {KiCad 9.0.5} date 2025-10-26T17:24:05-0400
; FORMAT={-:-/ absolute / metric / decimal}
; #@! TF.CreationDate,2025-10-26T17:24:05-04:00
; #@! TF.GenerationSoftware,Kicad,Pcbnew,9.0.5
; #@! TF.FileFunction,Plated,1,2,PTH
FMAT,2
METRIC
; #@! TA.AperFunction,Plated,PTH,ComponentDrill
T1C0.762
; #@! TA.AperFunction,Plated,PTH,ComponentDrill
T2C1.100
; #@! TA.AperFunction,Plated,PTH,ComponentDrill
T3C1.200
; #@! TA.AperFunction,Plated,PTH,ComponentDrill
T4C1.300
; #@! TA.AperFunction,Plated,PTH,ComponentDrill
T5C1.700
; #@! TA.AperFunction,Plated,PTH,ComponentDrill
T6C1.850
; #@! TA.AperFunction,Plated,PTH,ComponentDrill
T7C1.900
%
G90
G05
T1
X45.31Y-147.54
X45.31Y-150.08
X45.31Y-153.79
X45.31Y-156.33
X47.445Y-51.44
X47.445Y-53.98
X47.445Y-57.71
X47.445Y-60.25
X132.575Y-162.555
X135.115Y-162.555
X139.055Y-162.555
X141.595Y-162.555
T2
X63.605Y-162.415
X64.565Y-44.825
X73.765Y-162.415
X74.725Y-44.825
X143.1Y-133.5
X143.1Y-143.66
T3
X43.335Y-174.115
X43.645Y-32.5
X68.735Y-169.015
X68.735Y-179.215
X69.045Y-27.4
X69.045Y-37.6
X94.135Y-174.115
X94.445Y-32.5
X149.975Y-138.555
X155.075Y-113.155
X155.075Y-163.955
X160.175Y-138.555
T4
X28.4Y-84.177
X28.4Y-89.177
T5
X26.5Y-101.727
X26.5Y-106.827
X26.75Y-116.727
X26.75Y-121.827
X31.6Y-101.727
X31.6Y-106.827
X31.85Y-116.727
X31.85Y-121.827
T6
X64.11Y-152.29
X64.995Y-56.0
X68.81Y-152.29
X69.695Y-56.0
X73.51Y-152.29
X74.395Y-56.0
X134.575Y-133.855
X134.575Y-138.555
X134.575Y-143.255
T7
X27.055Y-175.54
X27.055Y-180.54
X27.19Y-26.0
X27.19Y-31.0
X34.065Y-175.54
X34.065Y-180.54
X34.2Y-26.0
X34.2Y-31.0
X104.055Y-175.54
X104.055Y-180.54
X104.19Y-26.0
X104.19Y-31.0
X111.065Y-175.54
X111.065Y-180.54
X111.2Y-26.0
X111.2Y-31.0
X156.1Y-95.68
X156.1Y-102.69
X156.4Y-174.295
X156.4Y-181.305
X161.1Y-95.68
X161.1Y-102.69
X161.4Y-174.295
X161.4Y-181.305
M30
