G04 #@! TF.GenerationSoftware,KiCad,Pcbnew,9.0.5*
G04 #@! TF.CreationDate,2025-10-26T17:23:22-04:00*
G04 #@! TF.ProjectId,ReedRelay_Drive,52656564-5265-46c6-9179-5f4472697665,rev?*
G04 #@! TF.SameCoordinates,Original*
G04 #@! TF.FileFunction,Copper,L1,Top*
G04 #@! TF.FilePolarity,Positive*
%FSLAX46Y46*%
G04 Gerber Fmt 4.6, Leading zero omitted, Abs format (unit mm)*
G04 Created by KiCad (PCBNEW 9.0.5) date 2025-10-26 17:23:22*
%MOMM*%
%LPD*%
G01*
G04 APERTURE LIST*
G04 #@! TA.AperFunction,SMDPad,CuDef*
%ADD10R,3.000000X1.600000*%
G04 #@! TD*
G04 #@! TA.AperFunction,ComponentPad*
%ADD11C,2.400000*%
G04 #@! TD*
G04 #@! TA.AperFunction,ComponentPad*
%ADD12C,2.850000*%
G04 #@! TD*
G04 #@! TA.AperFunction,ComponentPad*
%ADD13C,2.000000*%
G04 #@! TD*
G04 #@! TA.AperFunction,ComponentPad*
%ADD14R,2.775000X2.775000*%
G04 #@! TD*
G04 #@! TA.AperFunction,ComponentPad*
%ADD15C,2.775000*%
G04 #@! TD*
G04 #@! TA.AperFunction,ComponentPad*
%ADD16C,1.270000*%
G04 #@! TD*
G04 #@! TA.AperFunction,ComponentPad*
%ADD17R,1.270000X1.270000*%
G04 #@! TD*
G04 #@! TA.AperFunction,ComponentPad*
%ADD18R,2.200000X2.200000*%
G04 #@! TD*
G04 #@! TA.AperFunction,ComponentPad*
%ADD19O,2.200000X2.200000*%
G04 #@! TD*
G04 #@! TA.AperFunction,SMDPad,CuDef*
%ADD20R,2.150000X3.250000*%
G04 #@! TD*
G04 #@! TA.AperFunction,SMDPad,CuDef*
%ADD21R,2.150000X0.950000*%
G04 #@! TD*
G04 #@! TA.AperFunction,SMDPad,CuDef*
%ADD22R,1.600000X3.000000*%
G04 #@! TD*
G04 #@! TA.AperFunction,ComponentPad*
%ADD23C,1.950000*%
G04 #@! TD*
G04 #@! TA.AperFunction,SMDPad,CuDef*
%ADD24R,3.250000X2.150000*%
G04 #@! TD*
G04 #@! TA.AperFunction,SMDPad,CuDef*
%ADD25R,0.950000X2.150000*%
G04 #@! TD*
G04 #@! TA.AperFunction,Conductor*
%ADD26C,1.000000*%
G04 #@! TD*
G04 #@! TA.AperFunction,Conductor*
%ADD27C,0.200000*%
G04 #@! TD*
G04 #@! TA.AperFunction,Conductor*
%ADD28C,0.500000*%
G04 #@! TD*
G04 APERTURE END LIST*
D10*
X58137000Y-61711200D03*
X53737000Y-61711200D03*
D11*
X26499800Y-101727400D03*
X31599800Y-101727400D03*
X26499800Y-106827400D03*
X31599800Y-106827400D03*
D12*
X27190000Y-31000000D03*
X27190000Y-26000000D03*
X34200000Y-26000000D03*
X34200000Y-31000000D03*
X104190000Y-31000000D03*
X104190000Y-26000000D03*
X111200000Y-26000000D03*
X111200000Y-31000000D03*
D13*
X69045000Y-37600000D03*
X69045000Y-27400000D03*
X94445000Y-32500000D03*
X43645000Y-32500000D03*
D11*
X31849800Y-121827400D03*
X26749800Y-121827400D03*
X31849800Y-116727400D03*
X26749800Y-116727400D03*
D13*
X155075000Y-163955000D03*
X155075000Y-113155000D03*
X149975000Y-138555000D03*
X160175000Y-138555000D03*
D14*
X64995000Y-56000000D03*
D15*
X69695000Y-56000000D03*
X74395000Y-56000000D03*
D16*
X45310000Y-150080000D03*
D17*
X45310000Y-147540000D03*
D10*
X51510000Y-155990000D03*
X55910000Y-155990000D03*
D17*
X47445000Y-51440000D03*
D16*
X47445000Y-53980000D03*
X45310000Y-156330000D03*
D17*
X45310000Y-153790000D03*
D18*
X143100000Y-143660000D03*
D19*
X143100000Y-133500000D03*
D14*
X64110000Y-152290000D03*
D15*
X68810000Y-152290000D03*
X73510000Y-152290000D03*
D12*
X111065000Y-180540000D03*
X111065000Y-175540000D03*
X104055000Y-175540000D03*
X104055000Y-180540000D03*
D18*
X64565000Y-44825000D03*
D19*
X74725000Y-44825000D03*
D14*
X134575000Y-143255000D03*
D15*
X134575000Y-138555000D03*
X134575000Y-133855000D03*
D20*
X59145000Y-53000000D03*
D21*
X53345000Y-55300000D03*
X53345000Y-53000000D03*
X53345000Y-50700000D03*
X51310000Y-146690000D03*
X51310000Y-148990000D03*
X51310000Y-151290000D03*
D20*
X57110000Y-148990000D03*
D13*
X43335000Y-174115000D03*
X94135000Y-174115000D03*
X68735000Y-169015000D03*
X68735000Y-179215000D03*
D22*
X141845000Y-151655000D03*
X141845000Y-156055000D03*
D12*
X34065000Y-180540000D03*
X34065000Y-175540000D03*
X27055000Y-175540000D03*
X27055000Y-180540000D03*
D23*
X28399800Y-84177400D03*
X28399800Y-89177400D03*
D12*
X156400000Y-181305000D03*
X161400000Y-181305000D03*
X161400000Y-174295000D03*
X156400000Y-174295000D03*
D24*
X134025000Y-150755000D03*
D25*
X136325000Y-156555000D03*
X134025000Y-156555000D03*
X131725000Y-156555000D03*
D12*
X156100000Y-95680000D03*
X161100000Y-95680000D03*
X161100000Y-102690000D03*
X156100000Y-102690000D03*
D16*
X135115000Y-162555000D03*
D17*
X132575000Y-162555000D03*
X47445000Y-57710000D03*
D16*
X47445000Y-60250000D03*
D17*
X139055000Y-162555000D03*
D16*
X141595000Y-162555000D03*
D18*
X63605000Y-162415000D03*
D19*
X73765000Y-162415000D03*
D26*
X27190000Y-31000000D02*
X27190000Y-26000000D01*
D27*
X52609200Y-55300000D02*
X53345000Y-55300000D01*
D26*
X28399800Y-84177400D02*
X28399800Y-68537000D01*
X28399800Y-68537000D02*
X45496800Y-51440000D01*
X45496800Y-51440000D02*
X47445000Y-51440000D01*
X27190000Y-26000000D02*
X26548000Y-25358000D01*
D27*
X52153000Y-54843800D02*
X52609200Y-55300000D01*
D26*
X156100000Y-102690000D02*
X156100000Y-112130000D01*
X156100000Y-112130000D02*
X155075000Y-113155000D01*
X156100000Y-102690000D02*
X161100000Y-102690000D01*
X156100000Y-95680000D02*
X156100000Y-102690000D01*
X161100000Y-102690000D02*
X161100000Y-95680000D01*
X156100000Y-95680000D02*
X161100000Y-95680000D01*
X156400000Y-174295000D02*
X156400000Y-181305000D01*
X161400000Y-181305000D02*
X156400000Y-181305000D01*
X161400000Y-174295000D02*
X161400000Y-181305000D01*
X156400000Y-174295000D02*
X161400000Y-174295000D01*
X155075000Y-163955000D02*
X156400000Y-165280000D01*
X156400000Y-165280000D02*
X156400000Y-174295000D01*
X104055000Y-175540000D02*
X111065000Y-175540000D01*
X111065000Y-180540000D02*
X111065000Y-175540000D01*
X104055000Y-180540000D02*
X111065000Y-180540000D01*
X104055000Y-175540000D02*
X104055000Y-180540000D01*
X94135000Y-174115000D02*
X95560000Y-175540000D01*
X95560000Y-175540000D02*
X104055000Y-175540000D01*
X34065000Y-175540000D02*
X41910000Y-175540000D01*
X41910000Y-175540000D02*
X43335000Y-174115000D01*
X27055000Y-180540000D02*
X34065000Y-180540000D01*
X27055000Y-180540000D02*
X27055000Y-175540000D01*
X34065000Y-180540000D02*
X34065000Y-175540000D01*
X27055000Y-175540000D02*
X34065000Y-175540000D01*
X94445000Y-32500000D02*
X95945000Y-31000000D01*
X95945000Y-31000000D02*
X104190000Y-31000000D01*
X111200000Y-31000000D02*
X104190000Y-31000000D01*
X111200000Y-31000000D02*
X111200000Y-26000000D01*
X104190000Y-26000000D02*
X111200000Y-26000000D01*
X27190000Y-26000000D02*
X34200000Y-26000000D01*
X34200000Y-31000000D02*
X42145000Y-31000000D01*
X42145000Y-31000000D02*
X43645000Y-32500000D01*
X34200000Y-26000000D02*
X34200000Y-31000000D01*
X34200000Y-31000000D02*
X27190000Y-31000000D01*
D28*
X143100000Y-143660000D02*
X144870000Y-143660000D01*
X144870000Y-143660000D02*
X149975000Y-138555000D01*
X141845000Y-151655000D02*
X141225000Y-151655000D01*
X141225000Y-151655000D02*
X136325000Y-156555000D01*
X139055000Y-162555000D02*
X139055000Y-162395000D01*
X139055000Y-162395000D02*
X141845000Y-159605000D01*
X141845000Y-159605000D02*
X141845000Y-156055000D01*
X135115000Y-162555000D02*
X139055000Y-162555000D01*
X134025000Y-156555000D02*
X134025000Y-161465000D01*
X134025000Y-161465000D02*
X135115000Y-162555000D01*
X134025000Y-150755000D02*
X134025000Y-156555000D01*
X140355000Y-163855000D02*
X143845000Y-163855000D01*
X144595000Y-145155000D02*
X143100000Y-143660000D01*
X139055000Y-162555000D02*
X140355000Y-163855000D01*
X143845000Y-163855000D02*
X144595000Y-163105000D01*
X144595000Y-163105000D02*
X144595000Y-145155000D01*
X143100000Y-133500000D02*
X155120000Y-133500000D01*
X155120000Y-133500000D02*
X160175000Y-138555000D01*
X134575000Y-133855000D02*
X142745000Y-133855000D01*
X142745000Y-133855000D02*
X143100000Y-133500000D01*
X141845000Y-151655000D02*
X141845000Y-145825000D01*
X141845000Y-145825000D02*
X134575000Y-138555000D01*
X143845000Y-160305000D02*
X143845000Y-153605000D01*
X141595000Y-162555000D02*
X143845000Y-160305000D01*
X143795000Y-153605000D02*
X141845000Y-151655000D01*
X143845000Y-153605000D02*
X143795000Y-153605000D01*
D26*
X31849800Y-116727400D02*
X86747400Y-116727400D01*
X86747400Y-116727400D02*
X132575000Y-162555000D01*
X31849800Y-121827400D02*
X31849800Y-130609800D01*
X31849800Y-130609800D02*
X45310000Y-144070000D01*
X45310000Y-144070000D02*
X45310000Y-147540000D01*
X28399800Y-84177400D02*
X34327400Y-90105000D01*
X34327400Y-90105000D02*
X34345000Y-90105000D01*
X34345000Y-90105000D02*
X34345000Y-109132200D01*
X34345000Y-109132200D02*
X26749800Y-116727400D01*
D28*
X73765000Y-162415000D02*
X73765000Y-174185000D01*
X73765000Y-174185000D02*
X68735000Y-179215000D01*
X73510000Y-152290000D02*
X73510000Y-162160000D01*
X73510000Y-162160000D02*
X73765000Y-162415000D01*
X55910000Y-155990000D02*
X65110000Y-155990000D01*
X65110000Y-155990000D02*
X68810000Y-152290000D01*
X51310000Y-151290000D02*
X51310000Y-151390000D01*
X51310000Y-151390000D02*
X55910000Y-155990000D01*
X46585000Y-157605000D02*
X55095000Y-157605000D01*
X55095000Y-157605000D02*
X55095000Y-156805000D01*
X45310000Y-156330000D02*
X46585000Y-157605000D01*
X55095000Y-156805000D02*
X55910000Y-155990000D01*
X74395000Y-56000000D02*
X74395000Y-45155000D01*
X74395000Y-45155000D02*
X74725000Y-44825000D01*
X69045000Y-37600000D02*
X74725000Y-43280000D01*
X74725000Y-43280000D02*
X74725000Y-44825000D01*
X58137000Y-61711200D02*
X63983800Y-61711200D01*
X63983800Y-61711200D02*
X69695000Y-56000000D01*
X53345000Y-55300000D02*
X53345000Y-56919200D01*
X53345000Y-56919200D02*
X58137000Y-61711200D01*
X47445000Y-60250000D02*
X52395000Y-55300000D01*
X52395000Y-55300000D02*
X53345000Y-55300000D01*
X63605000Y-162415000D02*
X63605000Y-163885000D01*
X63605000Y-163885000D02*
X68735000Y-169015000D01*
X45310000Y-153790000D02*
X43910000Y-153790000D01*
X43910000Y-153790000D02*
X42345000Y-155355000D01*
X42345000Y-155355000D02*
X42345000Y-161105000D01*
X42345000Y-161105000D02*
X43655000Y-162415000D01*
X43655000Y-162415000D02*
X63605000Y-162415000D01*
X51310000Y-148990000D02*
X57110000Y-148990000D01*
X45310000Y-150080000D02*
X46400000Y-148990000D01*
X46400000Y-148990000D02*
X51310000Y-148990000D01*
X45310000Y-153790000D02*
X49310000Y-153790000D01*
X49310000Y-153790000D02*
X51510000Y-155990000D01*
X132575000Y-162555000D02*
X132575000Y-157405000D01*
X132575000Y-157405000D02*
X131725000Y-156555000D01*
X45310000Y-147540000D02*
X50460000Y-147540000D01*
X50460000Y-147540000D02*
X51310000Y-146690000D01*
X31849800Y-121827400D02*
X31849800Y-116727400D01*
X26749800Y-121827400D02*
X31849800Y-121827400D01*
X26749800Y-116727400D02*
X26749800Y-121827400D01*
X26749800Y-116727400D02*
X31849800Y-116727400D01*
X47445000Y-57710000D02*
X45188200Y-57710000D01*
X45188200Y-57710000D02*
X44437000Y-58461200D01*
X44437000Y-58461200D02*
X44437000Y-61961200D01*
X52487000Y-62961200D02*
X53737000Y-61711200D01*
X44437000Y-61961200D02*
X45437000Y-62961200D01*
X45437000Y-62961200D02*
X52487000Y-62961200D01*
X47445000Y-51440000D02*
X47915800Y-51440000D01*
X47915800Y-51440000D02*
X48655800Y-50700000D01*
X48655800Y-50700000D02*
X53345000Y-50700000D01*
X64565000Y-44825000D02*
X64565000Y-31880000D01*
X64565000Y-31880000D02*
X69045000Y-27400000D01*
X59145000Y-53000000D02*
X59145000Y-52753200D01*
X59145000Y-52753200D02*
X64565000Y-47333200D01*
X64565000Y-47333200D02*
X64565000Y-44825000D01*
X53345000Y-53000000D02*
X59145000Y-53000000D01*
X47445000Y-53980000D02*
X48425000Y-53000000D01*
X48425000Y-53000000D02*
X53345000Y-53000000D01*
M02*
