G04 ================== begin FILE IDENTIFICATION RECORD ==================*
G04 Layout Name:  KIT-CRD-CIL12N-FMA V1R0.brd*
G04 Film Name:    Drill_Legend*
G04 File Format:  Gerber RS274X*
G04 File Origin:  Cadence Allegro 17.2-S065*
G04 Origin Date:  Fri Oct 30 16:39:25 2020*
G04 *
G04 Layer:  BOARD GEOMETRY/OUTLINE*
G04 Layer:  BOARD GEOMETRY/DIMENSION*
G04 Layer:  MANUFACTURING/PHOTOPLOT_OUTLINE*
G04 Layer:  MANUFACTURING/NO_GLOSS_ALL*
G04 Layer:  MANUFACTURING/NO_GLOSS_TOP*
G04 Layer:  MANUFACTURING/NO_GLOSS_BOTTOM*
G04 Layer:  MANUFACTURING/NO_GLOSS_INTERNAL*
G04 Layer:  MANUFACTURING/NCDRILL_LEGEND*
G04 Layer:  MANUFACTURING/NCDRILL_FIGURE*
G04 Layer:  MANUFACTURING/PROBE_TOP*
G04 Layer:  MANUFACTURING/PROBE_BOTTOM*
G04 Layer:  MANUFACTURING/AUTOSILK_TOP*
G04 Layer:  MANUFACTURING/AUTOSILK_BOTTOM*
G04 Layer:  MANUFACTURING/NO_PROBE_TOP*
G04 Layer:  MANUFACTURING/NO_PROBE_BOTTOM*
G04 Layer:  MANUFACTURING/XSECTION_CHART*
G04 Layer:  MANUFACTURING/NCLEGEND-1-4*
G04 *
G04 Offset:    (0.00 0.00)*
G04 Mirror:    No*
G04 Mode:      Positive*
G04 Rotation:  0*
G04 FullContactRelief:  No*
G04 UndefLineWidth:     1.00*
G04 ================== end FILE IDENTIFICATION RECORD ====================*
%FSLAX25Y25*MOIN*%
%IR0*IPPOS*OFA0.00000B0.00000*MIA0B0*SFA1.00000B1.00000*%
%AMMACRO25*
1,1,.001,.165,0.0*
20,1,.001,.165,0.0,.162493,-.028652,0.0*
1,1,.001,.162493,-.028652*
20,1,.001,.162493,-.028652,.155049,-.056433,0.0*
1,1,.001,.155049,-.056433*
20,1,.001,.155049,-.056433,.142894,-.0825,0.0*
1,1,.001,.142894,-.0825*
20,1,.001,.142894,-.0825,.126397,-.10606,0.0*
1,1,.001,.126397,-.10606*
20,1,.001,.126397,-.10606,.10606,-.126397,0.0*
1,1,.001,.10606,-.126397*
20,1,.001,.10606,-.126397,.0825,-.142894,0.0*
1,1,.001,.0825,-.142894*
20,1,.001,.0825,-.142894,.056433,-.155049,0.0*
1,1,.001,.056433,-.155049*
20,1,.001,.056433,-.155049,.028652,-.162493,0.0*
1,1,.001,.028652,-.162493*
20,1,.001,.028652,-.162493,0.0,-.165,0.0*
1,1,.001,0.0,-.165*
20,1,.001,0.0,-.165,-.028652,-.162493,0.0*
1,1,.001,-.028652,-.162493*
20,1,.001,-.028652,-.162493,-.056433,-.155049,0.0*
1,1,.001,-.056433,-.155049*
20,1,.001,-.056433,-.155049,-.0825,-.142894,0.0*
1,1,.001,-.0825,-.142894*
20,1,.001,-.0825,-.142894,-.10606,-.126397,0.0*
1,1,.001,-.10606,-.126397*
20,1,.001,-.10606,-.126397,-.126397,-.10606,0.0*
1,1,.001,-.126397,-.10606*
20,1,.001,-.126397,-.10606,-.142894,-.0825,0.0*
1,1,.001,-.142894,-.0825*
20,1,.001,-.142894,-.0825,-.155049,-.056433,0.0*
1,1,.001,-.155049,-.056433*
20,1,.001,-.155049,-.056433,-.162493,-.028652,0.0*
1,1,.001,-.162493,-.028652*
20,1,.001,-.162493,-.028652,-.165,0.0,0.0*
1,1,.001,-.165,0.0*
20,1,.001,-.165,0.0,-.162493,.028652,0.0*
1,1,.001,-.162493,.028652*
20,1,.001,-.162493,.028652,-.155049,.056433,0.0*
1,1,.001,-.155049,.056433*
20,1,.001,-.155049,.056433,-.142894,.0825,0.0*
1,1,.001,-.142894,.0825*
20,1,.001,-.142894,.0825,-.126397,.10606,0.0*
1,1,.001,-.126397,.10606*
20,1,.001,-.126397,.10606,-.10606,.126397,0.0*
1,1,.001,-.10606,.126397*
20,1,.001,-.10606,.126397,-.0825,.142894,0.0*
1,1,.001,-.0825,.142894*
20,1,.001,-.0825,.142894,-.056433,.155049,0.0*
1,1,.001,-.056433,.155049*
20,1,.001,-.056433,.155049,-.028652,.162493,0.0*
1,1,.001,-.028652,.162493*
20,1,.001,-.028652,.162493,0.0,.165,0.0*
1,1,.001,0.0,.165*
20,1,.001,0.0,.165,.028652,.162493,0.0*
1,1,.001,.028652,.162493*
20,1,.001,.028652,.162493,.056433,.155049,0.0*
1,1,.001,.056433,.155049*
20,1,.001,.056433,.155049,.0825,.142894,0.0*
1,1,.001,.0825,.142894*
20,1,.001,.0825,.142894,.10606,.126397,0.0*
1,1,.001,.10606,.126397*
20,1,.001,.10606,.126397,.126397,.10606,0.0*
1,1,.001,.126397,.10606*
20,1,.001,.126397,.10606,.142894,.0825,0.0*
1,1,.001,.142894,.0825*
20,1,.001,.142894,.0825,.155049,.056433,0.0*
1,1,.001,.155049,.056433*
20,1,.001,.155049,.056433,.162493,.028652,0.0*
1,1,.001,.162493,.028652*
20,1,.001,.162493,.028652,.165,0.0,0.0*
1,1,.001,.165,0.0*
1,1,.001,-.06217,.04091*
20,1,.001,-.06217,.04091,-.07199,.04582,0.0*
1,1,.001,-.07199,.04582*
20,1,.001,-.07199,.04582,-.08344,.04909,0.0*
1,1,.001,-.08344,.04909*
20,1,.001,-.08344,.04909,-.09653,.04909,0.0*
1,1,.001,-.09653,.04909*
20,1,.001,-.09653,.04909,-.11126,.04418,0.0*
1,1,.001,-.11126,.04418*
20,1,.001,-.11126,.04418,-.12271,.036,0.0*
1,1,.001,-.12271,.036*
20,1,.001,-.12271,.036,-.13089,.02618,0.0*
1,1,.001,-.13089,.02618*
20,1,.001,-.13089,.02618,-.13744,.00982,0.0*
1,1,.001,-.13744,.00982*
20,1,.001,-.13744,.00982,-.13907,-.0049,0.0*
1,1,.001,-.13907,-.0049*
20,1,.001,-.13907,-.0049,-.1358,-.01963,0.0*
1,1,.001,-.1358,-.01963*
20,1,.001,-.1358,-.01963,-.13089,-.02945,0.0*
1,1,.001,-.13089,-.02945*
20,1,.001,-.13089,-.02945,-.12107,-.03927,0.0*
1,1,.001,-.12107,-.03927*
20,1,.001,-.12107,-.03927,-.10962,-.04581,0.0*
1,1,.001,-.10962,-.04581*
20,1,.001,-.10962,-.04581,-.09817,-.04908,0.0*
1,1,.001,-.09817,-.04908*
20,1,.001,-.09817,-.04908,-.08671,-.04908,0.0*
1,1,.001,-.08671,-.04908*
20,1,.001,-.08671,-.04908,-.07526,-.04581,0.0*
1,1,.001,-.07526,-.04581*
20,1,.001,-.07526,-.04581,-.06544,-.0409,0.0*
1,1,.001,-.06544,-.0409*
20,1,.001,-.06544,-.0409,-.05726,-.03436,0.0*
1,1,.001,-.05726,-.03436*
1,1,.001,-.04089,.04909*
20,1,.001,-.04089,.04909,.00001,-.04908,0.0*
1,1,.001,.00001,-.04908*
20,1,.001,.00001,-.04908,.04092,.04909,0.0*
1,1,.001,.04092,.04909*
1,1,.001,.06547,-.04908*
20,1,.001,.06547,-.04908,.06547,.04909,0.0*
1,1,.001,.06547,.04909*
20,1,.001,.06547,.04909,.10638,.04909,0.0*
1,1,.001,.10638,.04909*
20,1,.001,.10638,.04909,.11947,.04418,0.0*
1,1,.001,.11947,.04418*
20,1,.001,.11947,.04418,.12765,.03764,0.0*
1,1,.001,.12765,.03764*
20,1,.001,.12765,.03764,.13092,.02455,0.0*
1,1,.001,.13092,.02455*
20,1,.001,.13092,.02455,.12765,.01146,0.0*
1,1,.001,.12765,.01146*
20,1,.001,.12765,.01146,.11783,.00328,0.0*
1,1,.001,.11783,.00328*
20,1,.001,.11783,.00328,.10638,-.00163,0.0*
1,1,.001,.10638,-.00163*
20,1,.001,.10638,-.00163,.06547,-.00163,0.0*
1,1,.001,.06547,-.00163*
1,1,.001,.10638,-.00163*
20,1,.001,.10638,-.00163,.13092,-.04908,0.0*
1,1,.001,.13092,-.04908*
%
%ADD25MACRO25*%
%AMMACRO17*
1,1,.001,.025,.025*
20,1,.001,.025,.025,.025,-.025,0.0*
1,1,.001,.025,-.025*
20,1,.001,.025,-.025,-.025,-.025,0.0*
1,1,.001,-.025,-.025*
20,1,.001,-.025,-.025,-.025,.025,0.0*
1,1,.001,-.025,.025*
20,1,.001,-.025,.025,.025,.025,0.0*
1,1,.001,.025,.025*
%
%ADD17MACRO17*%
%AMMACRO23*
1,1,.001,.025,0.0*
20,1,.001,.025,0.0,.02462,-.004341,0.0*
1,1,.001,.02462,-.004341*
20,1,.001,.02462,-.004341,.023492,-.008551,0.0*
1,1,.001,.023492,-.008551*
20,1,.001,.023492,-.008551,.021651,-.0125,0.0*
1,1,.001,.021651,-.0125*
20,1,.001,.021651,-.0125,.019151,-.01607,0.0*
1,1,.001,.019151,-.01607*
20,1,.001,.019151,-.01607,.01607,-.019151,0.0*
1,1,.001,.01607,-.019151*
20,1,.001,.01607,-.019151,.0125,-.021651,0.0*
1,1,.001,.0125,-.021651*
20,1,.001,.0125,-.021651,.008551,-.023492,0.0*
1,1,.001,.008551,-.023492*
20,1,.001,.008551,-.023492,.004341,-.02462,0.0*
1,1,.001,.004341,-.02462*
20,1,.001,.004341,-.02462,0.0,-.025,0.0*
1,1,.001,0.0,-.025*
20,1,.001,0.0,-.025,-.004341,-.02462,0.0*
1,1,.001,-.004341,-.02462*
20,1,.001,-.004341,-.02462,-.008551,-.023492,0.0*
1,1,.001,-.008551,-.023492*
20,1,.001,-.008551,-.023492,-.0125,-.021651,0.0*
1,1,.001,-.0125,-.021651*
20,1,.001,-.0125,-.021651,-.01607,-.019151,0.0*
1,1,.001,-.01607,-.019151*
20,1,.001,-.01607,-.019151,-.019151,-.01607,0.0*
1,1,.001,-.019151,-.01607*
20,1,.001,-.019151,-.01607,-.021651,-.0125,0.0*
1,1,.001,-.021651,-.0125*
20,1,.001,-.021651,-.0125,-.023492,-.008551,0.0*
1,1,.001,-.023492,-.008551*
20,1,.001,-.023492,-.008551,-.02462,-.004341,0.0*
1,1,.001,-.02462,-.004341*
20,1,.001,-.02462,-.004341,-.025,0.0,0.0*
1,1,.001,-.025,0.0*
20,1,.001,-.025,0.0,-.02462,.004341,0.0*
1,1,.001,-.02462,.004341*
20,1,.001,-.02462,.004341,-.023492,.008551,0.0*
1,1,.001,-.023492,.008551*
20,1,.001,-.023492,.008551,-.021651,.0125,0.0*
1,1,.001,-.021651,.0125*
20,1,.001,-.021651,.0125,-.019151,.01607,0.0*
1,1,.001,-.019151,.01607*
20,1,.001,-.019151,.01607,-.01607,.019151,0.0*
1,1,.001,-.01607,.019151*
20,1,.001,-.01607,.019151,-.0125,.021651,0.0*
1,1,.001,-.0125,.021651*
20,1,.001,-.0125,.021651,-.008551,.023492,0.0*
1,1,.001,-.008551,.023492*
20,1,.001,-.008551,.023492,-.004341,.02462,0.0*
1,1,.001,-.004341,.02462*
20,1,.001,-.004341,.02462,0.0,.025,0.0*
1,1,.001,0.0,.025*
20,1,.001,0.0,.025,.004341,.02462,0.0*
1,1,.001,.004341,.02462*
20,1,.001,.004341,.02462,.008551,.023492,0.0*
1,1,.001,.008551,.023492*
20,1,.001,.008551,.023492,.0125,.021651,0.0*
1,1,.001,.0125,.021651*
20,1,.001,.0125,.021651,.01607,.019151,0.0*
1,1,.001,.01607,.019151*
20,1,.001,.01607,.019151,.019151,.01607,0.0*
1,1,.001,.019151,.01607*
20,1,.001,.019151,.01607,.021651,.0125,0.0*
1,1,.001,.021651,.0125*
20,1,.001,.021651,.0125,.023492,.008551,0.0*
1,1,.001,.023492,.008551*
20,1,.001,.023492,.008551,.02462,.004341,0.0*
1,1,.001,.02462,.004341*
20,1,.001,.02462,.004341,.025,0.0,0.0*
1,1,.001,.025,0.0*
1,1,.001,.0125,0.0*
20,1,.001,.0125,0.0,-.0125,0.0,0.0*
1,1,.001,-.0125,0.0*
1,1,.001,0.0,.0125*
20,1,.001,0.0,.0125,0.0,-.0125,0.0*
1,1,.001,0.0,-.0125*
%
%ADD23MACRO23*%
%AMMACRO15*
1,1,.001,.0375,.025*
20,1,.001,.0375,.025,.0375,-.025,0.0*
1,1,.001,.0375,-.025*
20,1,.001,.0375,-.025,-.0375,-.025,0.0*
1,1,.001,-.0375,-.025*
20,1,.001,-.0375,-.025,-.0375,.025,0.0*
1,1,.001,-.0375,.025*
20,1,.001,-.0375,.025,.0375,.025,0.0*
1,1,.001,.0375,.025*
%
%ADD15MACRO15*%
%AMMACRO11*
1,1,.001,.0875,0.0*
20,1,.001,.0875,0.0,.086171,-.015194,0.0*
1,1,.001,.086171,-.015194*
20,1,.001,.086171,-.015194,.082223,-.029927,0.0*
1,1,.001,.082223,-.029927*
20,1,.001,.082223,-.029927,.075777,-.04375,0.0*
1,1,.001,.075777,-.04375*
20,1,.001,.075777,-.04375,.067029,-.056244,0.0*
1,1,.001,.067029,-.056244*
20,1,.001,.067029,-.056244,.056244,-.067029,0.0*
1,1,.001,.056244,-.067029*
20,1,.001,.056244,-.067029,.04375,-.075777,0.0*
1,1,.001,.04375,-.075777*
20,1,.001,.04375,-.075777,.029927,-.082223,0.0*
1,1,.001,.029927,-.082223*
20,1,.001,.029927,-.082223,.015194,-.086171,0.0*
1,1,.001,.015194,-.086171*
20,1,.001,.015194,-.086171,0.0,-.0875,0.0*
1,1,.001,0.0,-.0875*
20,1,.001,0.0,-.0875,-.015194,-.086171,0.0*
1,1,.001,-.015194,-.086171*
20,1,.001,-.015194,-.086171,-.029927,-.082223,0.0*
1,1,.001,-.029927,-.082223*
20,1,.001,-.029927,-.082223,-.04375,-.075777,0.0*
1,1,.001,-.04375,-.075777*
20,1,.001,-.04375,-.075777,-.056244,-.067029,0.0*
1,1,.001,-.056244,-.067029*
20,1,.001,-.056244,-.067029,-.067029,-.056244,0.0*
1,1,.001,-.067029,-.056244*
20,1,.001,-.067029,-.056244,-.075777,-.04375,0.0*
1,1,.001,-.075777,-.04375*
20,1,.001,-.075777,-.04375,-.082223,-.029927,0.0*
1,1,.001,-.082223,-.029927*
20,1,.001,-.082223,-.029927,-.086171,-.015194,0.0*
1,1,.001,-.086171,-.015194*
20,1,.001,-.086171,-.015194,-.0875,0.0,0.0*
1,1,.001,-.0875,0.0*
20,1,.001,-.0875,0.0,-.086171,.015194,0.0*
1,1,.001,-.086171,.015194*
20,1,.001,-.086171,.015194,-.082223,.029927,0.0*
1,1,.001,-.082223,.029927*
20,1,.001,-.082223,.029927,-.075777,.04375,0.0*
1,1,.001,-.075777,.04375*
20,1,.001,-.075777,.04375,-.067029,.056244,0.0*
1,1,.001,-.067029,.056244*
20,1,.001,-.067029,.056244,-.056244,.067029,0.0*
1,1,.001,-.056244,.067029*
20,1,.001,-.056244,.067029,-.04375,.075777,0.0*
1,1,.001,-.04375,.075777*
20,1,.001,-.04375,.075777,-.029927,.082223,0.0*
1,1,.001,-.029927,.082223*
20,1,.001,-.029927,.082223,-.015194,.086171,0.0*
1,1,.001,-.015194,.086171*
20,1,.001,-.015194,.086171,0.0,.0875,0.0*
1,1,.001,0.0,.0875*
20,1,.001,0.0,.0875,.015194,.086171,0.0*
1,1,.001,.015194,.086171*
20,1,.001,.015194,.086171,.029927,.082223,0.0*
1,1,.001,.029927,.082223*
20,1,.001,.029927,.082223,.04375,.075777,0.0*
1,1,.001,.04375,.075777*
20,1,.001,.04375,.075777,.056244,.067029,0.0*
1,1,.001,.056244,.067029*
20,1,.001,.056244,.067029,.067029,.056244,0.0*
1,1,.001,.067029,.056244*
20,1,.001,.067029,.056244,.075777,.04375,0.0*
1,1,.001,.075777,.04375*
20,1,.001,.075777,.04375,.082223,.029927,0.0*
1,1,.001,.082223,.029927*
20,1,.001,.082223,.029927,.086171,.015194,0.0*
1,1,.001,.086171,.015194*
20,1,.001,.086171,.015194,.0875,0.0,0.0*
1,1,.001,.0875,0.0*
%
%ADD11MACRO11*%
%AMMACRO13*
1,1,.001,-.022,-.03*
20,1,.001,-.022,-.03,-.022,.03,0.0*
1,1,.001,-.022,.03*
20,1,.001,-.022,.03,-.002,.03,0.0*
1,1,.001,-.002,.03*
20,1,.001,-.002,.03,.006,.027,0.0*
1,1,.001,.006,.027*
20,1,.001,.006,.027,.012,.023,0.0*
1,1,.001,.012,.023*
20,1,.001,.012,.023,.017,.017,0.0*
1,1,.001,.017,.017*
20,1,.001,.017,.017,.021,.01,0.0*
1,1,.001,.021,.01*
20,1,.001,.021,.01,.022,0.0,0.0*
1,1,.001,.022,0.0*
20,1,.001,.022,0.0,.021,-.01,0.0*
1,1,.001,.021,-.01*
20,1,.001,.021,-.01,.017,-.017,0.0*
1,1,.001,.017,-.017*
20,1,.001,.017,-.017,.012,-.023,0.0*
1,1,.001,.012,-.023*
20,1,.001,.012,-.023,.006,-.027,0.0*
1,1,.001,.006,-.027*
20,1,.001,.006,-.027,-.002,-.03,0.0*
1,1,.001,-.002,-.03*
20,1,.001,-.002,-.03,-.022,-.03,0.0*
1,1,.001,-.022,-.03*
%
%ADD13MACRO13*%
%AMMACRO29*
1,1,.001,.02,0.0*
20,1,.001,.02,0.0,0.0,-.02,0.0*
1,1,.001,0.0,-.02*
20,1,.001,0.0,-.02,-.02,0.0,0.0*
1,1,.001,-.02,0.0*
20,1,.001,-.02,0.0,0.0,.02,0.0*
1,1,.001,0.0,.02*
20,1,.001,0.0,.02,.02,0.0,0.0*
1,1,.001,.02,0.0*
1,1,.001,-.00733,-.01*
20,1,.001,-.00733,-.01,-.00733,.01,0.0*
1,1,.001,-.00733,.01*
20,1,.001,-.00733,.01,-.00067,.01,0.0*
1,1,.001,-.00067,.01*
20,1,.001,-.00067,.01,.002,.009,0.0*
1,1,.001,.002,.009*
20,1,.001,.002,.009,.004,.00767,0.0*
1,1,.001,.004,.00767*
20,1,.001,.004,.00767,.00567,.00567,0.0*
1,1,.001,.00567,.00567*
20,1,.001,.00567,.00567,.007,.00333,0.0*
1,1,.001,.007,.00333*
20,1,.001,.007,.00333,.00733,0.0,0.0*
1,1,.001,.00733,0.0*
20,1,.001,.00733,0.0,.007,-.00333,0.0*
1,1,.001,.007,-.00333*
20,1,.001,.007,-.00333,.00567,-.00567,0.0*
1,1,.001,.00567,-.00567*
20,1,.001,.00567,-.00567,.004,-.00767,0.0*
1,1,.001,.004,-.00767*
20,1,.001,.004,-.00767,.002,-.009,0.0*
1,1,.001,.002,-.009*
20,1,.001,.002,-.009,-.00067,-.01,0.0*
1,1,.001,-.00067,-.01*
20,1,.001,-.00067,-.01,-.00733,-.01,0.0*
1,1,.001,-.00733,-.01*
%
%ADD29MACRO29*%
%AMMACRO22*
1,1,.001,0.0,.055*
20,1,.001,0.0,.055,.047631,-.0275,0.0*
1,1,.001,.047631,-.0275*
20,1,.001,.047631,-.0275,-.047631,-.0275,0.0*
1,1,.001,-.047631,-.0275*
20,1,.001,-.047631,-.0275,0.0,.055,0.0*
1,1,.001,0.0,.055*
%
%ADD22MACRO22*%
%AMMACRO10*
1,1,.001,0.0,.01*
20,1,.001,0.0,.01,.00866,-.005,0.0*
1,1,.001,.00866,-.005*
20,1,.001,.00866,-.005,-.00866,-.005,0.0*
1,1,.001,-.00866,-.005*
20,1,.001,-.00866,-.005,0.0,.01,0.0*
1,1,.001,0.0,.01*
%
%ADD10MACRO10*%
%AMMACRO18*
1,1,.001,.0315,0.0*
20,1,.001,.0315,0.0,.031021,-.00547,0.0*
1,1,.001,.031021,-.00547*
20,1,.001,.031021,-.00547,.0296,-.010774,0.0*
1,1,.001,.0296,-.010774*
20,1,.001,.0296,-.010774,.02728,-.01575,0.0*
1,1,.001,.02728,-.01575*
20,1,.001,.02728,-.01575,.02413,-.020248,0.0*
1,1,.001,.02413,-.020248*
20,1,.001,.02413,-.020248,.020248,-.02413,0.0*
1,1,.001,.020248,-.02413*
20,1,.001,.020248,-.02413,.01575,-.02728,0.0*
1,1,.001,.01575,-.02728*
20,1,.001,.01575,-.02728,.010774,-.0296,0.0*
1,1,.001,.010774,-.0296*
20,1,.001,.010774,-.0296,.00547,-.031021,0.0*
1,1,.001,.00547,-.031021*
20,1,.001,.00547,-.031021,0.0,-.0315,0.0*
1,1,.001,0.0,-.0315*
20,1,.001,0.0,-.0315,-.00547,-.031021,0.0*
1,1,.001,-.00547,-.031021*
20,1,.001,-.00547,-.031021,-.010774,-.0296,0.0*
1,1,.001,-.010774,-.0296*
20,1,.001,-.010774,-.0296,-.01575,-.02728,0.0*
1,1,.001,-.01575,-.02728*
20,1,.001,-.01575,-.02728,-.020248,-.02413,0.0*
1,1,.001,-.020248,-.02413*
20,1,.001,-.020248,-.02413,-.02413,-.020248,0.0*
1,1,.001,-.02413,-.020248*
20,1,.001,-.02413,-.020248,-.02728,-.01575,0.0*
1,1,.001,-.02728,-.01575*
20,1,.001,-.02728,-.01575,-.0296,-.010774,0.0*
1,1,.001,-.0296,-.010774*
20,1,.001,-.0296,-.010774,-.031021,-.00547,0.0*
1,1,.001,-.031021,-.00547*
20,1,.001,-.031021,-.00547,-.0315,0.0,0.0*
1,1,.001,-.0315,0.0*
20,1,.001,-.0315,0.0,-.031021,.00547,0.0*
1,1,.001,-.031021,.00547*
20,1,.001,-.031021,.00547,-.0296,.010774,0.0*
1,1,.001,-.0296,.010774*
20,1,.001,-.0296,.010774,-.02728,.01575,0.0*
1,1,.001,-.02728,.01575*
20,1,.001,-.02728,.01575,-.02413,.020248,0.0*
1,1,.001,-.02413,.020248*
20,1,.001,-.02413,.020248,-.020248,.02413,0.0*
1,1,.001,-.020248,.02413*
20,1,.001,-.020248,.02413,-.01575,.02728,0.0*
1,1,.001,-.01575,.02728*
20,1,.001,-.01575,.02728,-.010774,.0296,0.0*
1,1,.001,-.010774,.0296*
20,1,.001,-.010774,.0296,-.00547,.031021,0.0*
1,1,.001,-.00547,.031021*
20,1,.001,-.00547,.031021,0.0,.0315,0.0*
1,1,.001,0.0,.0315*
20,1,.001,0.0,.0315,.00547,.031021,0.0*
1,1,.001,.00547,.031021*
20,1,.001,.00547,.031021,.010774,.0296,0.0*
1,1,.001,.010774,.0296*
20,1,.001,.010774,.0296,.01575,.02728,0.0*
1,1,.001,.01575,.02728*
20,1,.001,.01575,.02728,.020248,.02413,0.0*
1,1,.001,.020248,.02413*
20,1,.001,.020248,.02413,.02413,.020248,0.0*
1,1,.001,.02413,.020248*
20,1,.001,.02413,.020248,.02728,.01575,0.0*
1,1,.001,.02728,.01575*
20,1,.001,.02728,.01575,.0296,.010774,0.0*
1,1,.001,.0296,.010774*
20,1,.001,.0296,.010774,.031021,.00547,0.0*
1,1,.001,.031021,.00547*
20,1,.001,.031021,.00547,.0315,0.0,0.0*
1,1,.001,.0315,0.0*
1,1,.001,-.0105,-.00945*
20,1,.001,-.0105,-.00945,-.00787,-.0126,0.0*
1,1,.001,-.00787,-.0126*
20,1,.001,-.00787,-.0126,-.00473,-.0147,0.0*
1,1,.001,-.00473,-.0147*
20,1,.001,-.00473,-.0147,-.00105,-.01575,0.0*
1,1,.001,-.00105,-.01575*
20,1,.001,-.00105,-.01575,.00315,-.0147,0.0*
1,1,.001,.00315,-.0147*
20,1,.001,.00315,-.0147,.0063,-.0126,0.0*
1,1,.001,.0063,-.0126*
20,1,.001,.0063,-.0126,.00945,-.00945,0.0*
1,1,.001,.00945,-.00945*
20,1,.001,.00945,-.00945,.0105,-.00525,0.0*
1,1,.001,.0105,-.00525*
20,1,.001,.0105,-.00525,.0105,.01575,0.0*
1,1,.001,.0105,.01575*
%
%ADD18MACRO18*%
%AMMACRO24*
1,1,.001,0.0,.0005*
20,1,.001,0.0,.0005,.000433,-.00025,0.0*
1,1,.001,.000433,-.00025*
20,1,.001,.000433,-.00025,-.000433,-.00025,0.0*
1,1,.001,-.000433,-.00025*
20,1,.001,-.000433,-.00025,0.0,.0005,0.0*
1,1,.001,0.0,.0005*
%
%ADD24MACRO24*%
%AMMACRO16*
1,1,.001,0.0,.075*
20,1,.001,0.0,.075,.064952,-.0375,0.0*
1,1,.001,.064952,-.0375*
20,1,.001,.064952,-.0375,-.064952,-.0375,0.0*
1,1,.001,-.064952,-.0375*
20,1,.001,-.064952,-.0375,0.0,.075,0.0*
1,1,.001,0.0,.075*
%
%ADD16MACRO16*%
%AMMACRO12*
1,1,.001,0.0,.0625*
20,1,.001,0.0,.0625,.054127,-.03125,0.0*
1,1,.001,.054127,-.03125*
20,1,.001,.054127,-.03125,-.054127,-.03125,0.0*
1,1,.001,-.054127,-.03125*
20,1,.001,-.054127,-.03125,0.0,.0625,0.0*
1,1,.001,0.0,.0625*
%
%ADD12MACRO12*%
%AMMACRO28*
1,1,.001,0.0,.03*
20,1,.001,0.0,.03,.025981,-.015,0.0*
1,1,.001,.025981,-.015*
20,1,.001,.025981,-.015,-.025981,-.015,0.0*
1,1,.001,-.025981,-.015*
20,1,.001,-.025981,-.015,0.0,.03,0.0*
1,1,.001,0.0,.03*
%
%ADD28MACRO28*%
%AMMACRO14*
1,1,.001,0.0,.04*
20,1,.001,0.0,.04,.034641,-.02,0.0*
1,1,.001,.034641,-.02*
20,1,.001,.034641,-.02,-.034641,-.02,0.0*
1,1,.001,-.034641,-.02*
20,1,.001,-.034641,-.02,0.0,.04,0.0*
1,1,.001,0.0,.04*
%
%ADD14MACRO14*%
%AMMACRO27*
1,1,.001,.0175,0.0*
20,1,.001,.0175,0.0,.017234,-.003039,0.0*
1,1,.001,.017234,-.003039*
20,1,.001,.017234,-.003039,.016445,-.005985,0.0*
1,1,.001,.016445,-.005985*
20,1,.001,.016445,-.005985,.015155,-.00875,0.0*
1,1,.001,.015155,-.00875*
20,1,.001,.015155,-.00875,.013406,-.011249,0.0*
1,1,.001,.013406,-.011249*
20,1,.001,.013406,-.011249,.011249,-.013406,0.0*
1,1,.001,.011249,-.013406*
20,1,.001,.011249,-.013406,.00875,-.015155,0.0*
1,1,.001,.00875,-.015155*
20,1,.001,.00875,-.015155,.005985,-.016445,0.0*
1,1,.001,.005985,-.016445*
20,1,.001,.005985,-.016445,.003039,-.017234,0.0*
1,1,.001,.003039,-.017234*
20,1,.001,.003039,-.017234,0.0,-.0175,0.0*
1,1,.001,0.0,-.0175*
20,1,.001,0.0,-.0175,-.003039,-.017234,0.0*
1,1,.001,-.003039,-.017234*
20,1,.001,-.003039,-.017234,-.005985,-.016445,0.0*
1,1,.001,-.005985,-.016445*
20,1,.001,-.005985,-.016445,-.00875,-.015155,0.0*
1,1,.001,-.00875,-.015155*
20,1,.001,-.00875,-.015155,-.011249,-.013406,0.0*
1,1,.001,-.011249,-.013406*
20,1,.001,-.011249,-.013406,-.013406,-.011249,0.0*
1,1,.001,-.013406,-.011249*
20,1,.001,-.013406,-.011249,-.015155,-.00875,0.0*
1,1,.001,-.015155,-.00875*
20,1,.001,-.015155,-.00875,-.016445,-.005985,0.0*
1,1,.001,-.016445,-.005985*
20,1,.001,-.016445,-.005985,-.017234,-.003039,0.0*
1,1,.001,-.017234,-.003039*
20,1,.001,-.017234,-.003039,-.0175,0.0,0.0*
1,1,.001,-.0175,0.0*
20,1,.001,-.0175,0.0,-.017234,.003039,0.0*
1,1,.001,-.017234,.003039*
20,1,.001,-.017234,.003039,-.016445,.005985,0.0*
1,1,.001,-.016445,.005985*
20,1,.001,-.016445,.005985,-.015155,.00875,0.0*
1,1,.001,-.015155,.00875*
20,1,.001,-.015155,.00875,-.013406,.011249,0.0*
1,1,.001,-.013406,.011249*
20,1,.001,-.013406,.011249,-.011249,.013406,0.0*
1,1,.001,-.011249,.013406*
20,1,.001,-.011249,.013406,-.00875,.015155,0.0*
1,1,.001,-.00875,.015155*
20,1,.001,-.00875,.015155,-.005985,.016445,0.0*
1,1,.001,-.005985,.016445*
20,1,.001,-.005985,.016445,-.003039,.017234,0.0*
1,1,.001,-.003039,.017234*
20,1,.001,-.003039,.017234,0.0,.0175,0.0*
1,1,.001,0.0,.0175*
20,1,.001,0.0,.0175,.003039,.017234,0.0*
1,1,.001,.003039,.017234*
20,1,.001,.003039,.017234,.005985,.016445,0.0*
1,1,.001,.005985,.016445*
20,1,.001,.005985,.016445,.00875,.015155,0.0*
1,1,.001,.00875,.015155*
20,1,.001,.00875,.015155,.011249,.013406,0.0*
1,1,.001,.011249,.013406*
20,1,.001,.011249,.013406,.013406,.011249,0.0*
1,1,.001,.013406,.011249*
20,1,.001,.013406,.011249,.015155,.00875,0.0*
1,1,.001,.015155,.00875*
20,1,.001,.015155,.00875,.016445,.005985,0.0*
1,1,.001,.016445,.005985*
20,1,.001,.016445,.005985,.017234,.003039,0.0*
1,1,.001,.017234,.003039*
20,1,.001,.017234,.003039,.0175,0.0,0.0*
1,1,.001,.0175,0.0*
1,1,.001,-.00613,-.00875*
20,1,.001,-.00613,-.00875,.00613,.00875,0.0*
1,1,.001,.00613,.00875*
1,1,.001,-.00613,.00875*
20,1,.001,-.00613,.00875,.00613,-.00875,0.0*
1,1,.001,.00613,-.00875*
%
%ADD27MACRO27*%
%AMMACRO26*
1,1,.001,0.0,.0275*
20,1,.001,0.0,.0275,.023816,-.01375,0.0*
1,1,.001,.023816,-.01375*
20,1,.001,.023816,-.01375,-.023816,-.01375,0.0*
1,1,.001,-.023816,-.01375*
20,1,.001,-.023816,-.01375,0.0,.0275,0.0*
1,1,.001,0.0,.0275*
%
%ADD26MACRO26*%
%AMMACRO21*
1,1,.001,.055,0.0*
20,1,.001,.055,0.0,.054164,-.009551,0.0*
1,1,.001,.054164,-.009551*
20,1,.001,.054164,-.009551,.051683,-.018811,0.0*
1,1,.001,.051683,-.018811*
20,1,.001,.051683,-.018811,.047631,-.0275,0.0*
1,1,.001,.047631,-.0275*
20,1,.001,.047631,-.0275,.042132,-.035353,0.0*
1,1,.001,.042132,-.035353*
20,1,.001,.042132,-.035353,.035353,-.042132,0.0*
1,1,.001,.035353,-.042132*
20,1,.001,.035353,-.042132,.0275,-.047631,0.0*
1,1,.001,.0275,-.047631*
20,1,.001,.0275,-.047631,.018811,-.051683,0.0*
1,1,.001,.018811,-.051683*
20,1,.001,.018811,-.051683,.009551,-.054164,0.0*
1,1,.001,.009551,-.054164*
20,1,.001,.009551,-.054164,0.0,-.055,0.0*
1,1,.001,0.0,-.055*
20,1,.001,0.0,-.055,-.009551,-.054164,0.0*
1,1,.001,-.009551,-.054164*
20,1,.001,-.009551,-.054164,-.018811,-.051683,0.0*
1,1,.001,-.018811,-.051683*
20,1,.001,-.018811,-.051683,-.0275,-.047631,0.0*
1,1,.001,-.0275,-.047631*
20,1,.001,-.0275,-.047631,-.035353,-.042132,0.0*
1,1,.001,-.035353,-.042132*
20,1,.001,-.035353,-.042132,-.042132,-.035353,0.0*
1,1,.001,-.042132,-.035353*
20,1,.001,-.042132,-.035353,-.047631,-.0275,0.0*
1,1,.001,-.047631,-.0275*
20,1,.001,-.047631,-.0275,-.051683,-.018811,0.0*
1,1,.001,-.051683,-.018811*
20,1,.001,-.051683,-.018811,-.054164,-.009551,0.0*
1,1,.001,-.054164,-.009551*
20,1,.001,-.054164,-.009551,-.055,0.0,0.0*
1,1,.001,-.055,0.0*
20,1,.001,-.055,0.0,-.054164,.009551,0.0*
1,1,.001,-.054164,.009551*
20,1,.001,-.054164,.009551,-.051683,.018811,0.0*
1,1,.001,-.051683,.018811*
20,1,.001,-.051683,.018811,-.047631,.0275,0.0*
1,1,.001,-.047631,.0275*
20,1,.001,-.047631,.0275,-.042132,.035353,0.0*
1,1,.001,-.042132,.035353*
20,1,.001,-.042132,.035353,-.035353,.042132,0.0*
1,1,.001,-.035353,.042132*
20,1,.001,-.035353,.042132,-.0275,.047631,0.0*
1,1,.001,-.0275,.047631*
20,1,.001,-.0275,.047631,-.018811,.051683,0.0*
1,1,.001,-.018811,.051683*
20,1,.001,-.018811,.051683,-.009551,.054164,0.0*
1,1,.001,-.009551,.054164*
20,1,.001,-.009551,.054164,0.0,.055,0.0*
1,1,.001,0.0,.055*
20,1,.001,0.0,.055,.009551,.054164,0.0*
1,1,.001,.009551,.054164*
20,1,.001,.009551,.054164,.018811,.051683,0.0*
1,1,.001,.018811,.051683*
20,1,.001,.018811,.051683,.0275,.047631,0.0*
1,1,.001,.0275,.047631*
20,1,.001,.0275,.047631,.035353,.042132,0.0*
1,1,.001,.035353,.042132*
20,1,.001,.035353,.042132,.042132,.035353,0.0*
1,1,.001,.042132,.035353*
20,1,.001,.042132,.035353,.047631,.0275,0.0*
1,1,.001,.047631,.0275*
20,1,.001,.047631,.0275,.051683,.018811,0.0*
1,1,.001,.051683,.018811*
20,1,.001,.051683,.018811,.054164,.009551,0.0*
1,1,.001,.054164,.009551*
20,1,.001,.054164,.009551,.055,0.0,0.0*
1,1,.001,.055,0.0*
1,1,.001,-.0275,-.0275*
20,1,.001,-.0275,-.0275,-.0275,.00917,0.0*
1,1,.001,-.0275,.00917*
1,1,.001,-.0275,-.00092*
20,1,.001,-.0275,-.00092,-.02475,.00367,0.0*
1,1,.001,-.02475,.00367*
20,1,.001,-.02475,.00367,-.02017,.00733,0.0*
1,1,.001,-.02017,.00733*
20,1,.001,-.02017,.00733,-.01375,.00917,0.0*
1,1,.001,-.01375,.00917*
20,1,.001,-.01375,.00917,-.00733,.00733,0.0*
1,1,.001,-.00733,.00733*
20,1,.001,-.00733,.00733,-.00275,.00367,0.0*
1,1,.001,-.00275,.00367*
20,1,.001,-.00275,.00367,0.0,-.00092,0.0*
1,1,.001,0.0,-.00092*
20,1,.001,0.0,-.00092,0.0,-.0275,0.0*
1,1,.001,0.0,-.0275*
1,1,.001,0.0,-.00092*
20,1,.001,0.0,-.00092,.00275,.00367,0.0*
1,1,.001,.00275,.00367*
20,1,.001,.00275,.00367,.00733,.00733,0.0*
1,1,.001,.00733,.00733*
20,1,.001,.00733,.00733,.01375,.00917,0.0*
1,1,.001,.01375,.00917*
20,1,.001,.01375,.00917,.02017,.00733,0.0*
1,1,.001,.02017,.00733*
20,1,.001,.02017,.00733,.02475,.00367,0.0*
1,1,.001,.02475,.00367*
20,1,.001,.02475,.00367,.0275,-.00183,0.0*
1,1,.001,.0275,-.00183*
20,1,.001,.0275,-.00183,.0275,-.0275,0.0*
1,1,.001,.0275,-.0275*
%
%ADD21MACRO21*%
%AMMACRO20*
1,1,.001,.177165,0.0*
20,1,.001,.177165,0.0,.174473,-.030764,0.0*
1,1,.001,.174473,-.030764*
20,1,.001,.174473,-.030764,.166481,-.060594,0.0*
1,1,.001,.166481,-.060594*
20,1,.001,.166481,-.060594,.153429,-.088582,0.0*
1,1,.001,.153429,-.088582*
20,1,.001,.153429,-.088582,.135716,-.113879,0.0*
1,1,.001,.135716,-.113879*
20,1,.001,.135716,-.113879,.113879,-.135716,0.0*
1,1,.001,.113879,-.135716*
20,1,.001,.113879,-.135716,.088583,-.153429,0.0*
1,1,.001,.088583,-.153429*
20,1,.001,.088583,-.153429,.060594,-.166481,0.0*
1,1,.001,.060594,-.166481*
20,1,.001,.060594,-.166481,.030764,-.174473,0.0*
1,1,.001,.030764,-.174473*
20,1,.001,.030764,-.174473,0.0,-.177165,0.0*
1,1,.001,0.0,-.177165*
20,1,.001,0.0,-.177165,-.030764,-.174473,0.0*
1,1,.001,-.030764,-.174473*
20,1,.001,-.030764,-.174473,-.060594,-.166481,0.0*
1,1,.001,-.060594,-.166481*
20,1,.001,-.060594,-.166481,-.088582,-.153429,0.0*
1,1,.001,-.088582,-.153429*
20,1,.001,-.088582,-.153429,-.113879,-.135716,0.0*
1,1,.001,-.113879,-.135716*
20,1,.001,-.113879,-.135716,-.135716,-.113879,0.0*
1,1,.001,-.135716,-.113879*
20,1,.001,-.135716,-.113879,-.153429,-.088583,0.0*
1,1,.001,-.153429,-.088583*
20,1,.001,-.153429,-.088583,-.166481,-.060594,0.0*
1,1,.001,-.166481,-.060594*
20,1,.001,-.166481,-.060594,-.174473,-.030764,0.0*
1,1,.001,-.174473,-.030764*
20,1,.001,-.174473,-.030764,-.177165,0.0,0.0*
1,1,.001,-.177165,0.0*
20,1,.001,-.177165,0.0,-.174473,.030764,0.0*
1,1,.001,-.174473,.030764*
20,1,.001,-.174473,.030764,-.166481,.060594,0.0*
1,1,.001,-.166481,.060594*
20,1,.001,-.166481,.060594,-.153429,.088582,0.0*
1,1,.001,-.153429,.088582*
20,1,.001,-.153429,.088582,-.135716,.113879,0.0*
1,1,.001,-.135716,.113879*
20,1,.001,-.135716,.113879,-.113879,.135716,0.0*
1,1,.001,-.113879,.135716*
20,1,.001,-.113879,.135716,-.088583,.153429,0.0*
1,1,.001,-.088583,.153429*
20,1,.001,-.088583,.153429,-.060594,.166481,0.0*
1,1,.001,-.060594,.166481*
20,1,.001,-.060594,.166481,-.030764,.174473,0.0*
1,1,.001,-.030764,.174473*
20,1,.001,-.030764,.174473,0.0,.177165,0.0*
1,1,.001,0.0,.177165*
20,1,.001,0.0,.177165,.030764,.174473,0.0*
1,1,.001,.030764,.174473*
20,1,.001,.030764,.174473,.060594,.166481,0.0*
1,1,.001,.060594,.166481*
20,1,.001,.060594,.166481,.088582,.153429,0.0*
1,1,.001,.088582,.153429*
20,1,.001,.088582,.153429,.113879,.135716,0.0*
1,1,.001,.113879,.135716*
20,1,.001,.113879,.135716,.135716,.113879,0.0*
1,1,.001,.135716,.113879*
20,1,.001,.135716,.113879,.153429,.088583,0.0*
1,1,.001,.153429,.088583*
20,1,.001,.153429,.088583,.166481,.060594,0.0*
1,1,.001,.166481,.060594*
20,1,.001,.166481,.060594,.174473,.030764,0.0*
1,1,.001,.174473,.030764*
20,1,.001,.174473,.030764,.177165,0.0,0.0*
1,1,.001,.177165,0.0*
1,1,.001,0.0,.08858*
20,1,.001,0.0,.08858,0.0,-.08858,0.0*
1,1,.001,0.0,-.08858*
1,1,.001,-.06791,.08858*
20,1,.001,-.06791,.08858,.06791,.08858,0.0*
1,1,.001,.06791,.08858*
%
%ADD20MACRO20*%
%AMMACRO19*
1,1,.001,0.0,.00197*
20,1,.001,0.0,.00197,.001706,-.000985,0.0*
1,1,.001,.001706,-.000985*
20,1,.001,.001706,-.000985,-.001706,-.000985,0.0*
1,1,.001,-.001706,-.000985*
20,1,.001,-.001706,-.000985,0.0,.00197,0.0*
1,1,.001,0.0,.00197*
%
%ADD19MACRO19*%
%ADD30C,.015*%
%ADD31C,.001*%
G75*
%LPD*%
G75*
G54D10*
X-325000Y-220000D03*
D03*
Y510000D03*
D03*
X-194004Y-83252D03*
D03*
Y83252D03*
D03*
X325000Y-220000D03*
D03*
Y510000D03*
D03*
G54D20*
X-104331Y0D03*
X104331D03*
X632450Y-300570D03*
G54D11*
X-325000Y-220000D03*
Y510000D03*
X-194004Y-83252D03*
Y83252D03*
X325000Y-220000D03*
Y510000D03*
X632450Y-194271D03*
G54D30*
G01X-420910Y128750D02*
X-420600Y131458D01*
X-420135Y133750D01*
X-419515Y135833D01*
X-418740Y138125D01*
X-417500Y141250D01*
X-423700D01*
G01X-408200Y128333D02*
X-408510Y128542D01*
Y128958D01*
X-408200Y129167D01*
X-407890Y128958D01*
Y128542D01*
X-408200Y128333D01*
G01X-396110Y128750D02*
X-395800Y131458D01*
X-395335Y133750D01*
X-394715Y135833D01*
X-393940Y138125D01*
X-392700Y141250D01*
X-398900D01*
G01X-383400D02*
X-384640Y140833D01*
X-385570Y139792D01*
X-386190Y138542D01*
X-386655Y136875D01*
X-386810Y135000D01*
X-386655Y133125D01*
X-386190Y131458D01*
X-385570Y130208D01*
X-384640Y129167D01*
X-383400Y128750D01*
X-382160Y129167D01*
X-381230Y130208D01*
X-380610Y131458D01*
X-380145Y133125D01*
X-379990Y135000D01*
X-380145Y136875D01*
X-380610Y138542D01*
X-381230Y139792D01*
X-382160Y140833D01*
X-383400Y141250D01*
G01X-21545Y-281042D02*
X-20460Y-279583D01*
X-19530Y-278750D01*
X-18290Y-278333D01*
X-17205Y-278750D01*
X-16430Y-279583D01*
X-15810Y-280833D01*
X-15655Y-282292D01*
X-15810Y-283542D01*
X-16430Y-284792D01*
X-17360Y-285833D01*
X-18445Y-286250D01*
X-19685Y-285833D01*
X-20770Y-284584D01*
X-21390Y-282708D01*
X-21545Y-280625D01*
X-21235Y-277917D01*
X-20770Y-276458D01*
X-19995Y-275000D01*
X-18910Y-273958D01*
X-17825Y-273750D01*
X-16740Y-274167D01*
X-15965Y-275208D01*
G01X-6200Y-286667D02*
X-6510Y-286458D01*
Y-286042D01*
X-6200Y-285833D01*
X-5890Y-286042D01*
Y-286458D01*
X-6200Y-286667D01*
G01X3565Y-284792D02*
X4650Y-285833D01*
X5890Y-286250D01*
X7130Y-285833D01*
X8215Y-284584D01*
X8990Y-282708D01*
X9300Y-280833D01*
Y-278542D01*
X8990Y-276667D01*
X8215Y-275000D01*
X7285Y-274167D01*
X6200Y-273750D01*
X4960Y-274167D01*
X4030Y-275000D01*
X3410Y-276250D01*
X3100Y-277917D01*
X3410Y-279375D01*
X4185Y-280833D01*
X5115Y-281667D01*
X6200Y-281875D01*
X7440Y-281459D01*
X8370Y-280417D01*
X9300Y-278542D01*
G01X18600Y-273750D02*
X17360Y-274167D01*
X16430Y-275208D01*
X15810Y-276458D01*
X15345Y-278125D01*
X15190Y-280000D01*
X15345Y-281875D01*
X15810Y-283542D01*
X16430Y-284792D01*
X17360Y-285833D01*
X18600Y-286250D01*
X19840Y-285833D01*
X20770Y-284792D01*
X21390Y-283542D01*
X21855Y-281875D01*
X22010Y-280000D01*
X21855Y-278125D01*
X21390Y-276458D01*
X20770Y-275208D01*
X19840Y-274167D01*
X18600Y-273750D01*
G01X598505Y263750D02*
Y276250D01*
X604395D01*
G01X602225Y270208D02*
X598505D01*
G01X611990Y276250D02*
X615710D01*
G01X613850D02*
Y263750D01*
G01X611990D02*
X615710D01*
G01X627180Y270000D02*
X630280D01*
Y266250D01*
X629350Y265000D01*
X628265Y264167D01*
X626715Y263750D01*
X625165Y264167D01*
X624080Y265000D01*
X623150Y266250D01*
X622530Y267708D01*
X622220Y269375D01*
Y270833D01*
X622530Y272083D01*
X623150Y273542D01*
X624080Y274792D01*
X625010Y275625D01*
X626250Y276250D01*
X627335D01*
X628575Y275833D01*
X629505Y275000D01*
G01X635240Y276250D02*
Y267292D01*
X635860Y265416D01*
X637100Y264167D01*
X638650Y263750D01*
X640200Y264167D01*
X641440Y265416D01*
X642060Y267292D01*
Y276250D01*
G01X647950Y263750D02*
Y276250D01*
X651825D01*
X653065Y275625D01*
X653840Y274792D01*
X654150Y273125D01*
X653840Y271458D01*
X652910Y270417D01*
X651825Y269792D01*
X647950D01*
G01X651825D02*
X654150Y263750D01*
G01X666550D02*
X660350D01*
Y276250D01*
X666550D01*
G01X664070Y270208D02*
X660350D01*
G01X677090Y313750D02*
Y326250D01*
X680190D01*
X681430Y325625D01*
X682360Y324792D01*
X683135Y323542D01*
X683755Y322083D01*
X683910Y320000D01*
X683755Y317917D01*
X683135Y316458D01*
X682360Y315208D01*
X681430Y314375D01*
X680190Y313750D01*
X677090D01*
G01X689800D02*
Y326250D01*
X693675D01*
X694915Y325625D01*
X695690Y324792D01*
X696000Y323125D01*
X695690Y321458D01*
X694760Y320417D01*
X693675Y319792D01*
X689800D01*
G01X693675D02*
X696000Y313750D01*
G01X703440Y326250D02*
X707160D01*
G01X705300D02*
Y313750D01*
G01X703440D02*
X707160D01*
G01X714600Y326250D02*
Y313750D01*
X720800D01*
G01X727000Y326250D02*
Y313750D01*
X733200D01*
G01X758310Y325208D02*
X757380Y325833D01*
X756295Y326250D01*
X755055D01*
X753660Y325625D01*
X752575Y324583D01*
X751800Y323333D01*
X751180Y321250D01*
X751025Y319375D01*
X751335Y317500D01*
X751800Y316250D01*
X752730Y315000D01*
X753815Y314167D01*
X754900Y313750D01*
X755985D01*
X757070Y314167D01*
X758000Y314791D01*
X758775Y315625D01*
G01X764045Y313750D02*
Y326250D01*
G01X770555D02*
Y313750D01*
G01Y320000D02*
X764045D01*
G01X775825Y313750D02*
X779700Y326250D01*
X783575Y313750D01*
G01X782180Y318125D02*
X777220D01*
G01X789000Y313750D02*
Y326250D01*
X792875D01*
X794115Y325625D01*
X794890Y324792D01*
X795200Y323125D01*
X794890Y321458D01*
X793960Y320417D01*
X792875Y319792D01*
X789000D01*
G01X792875D02*
X795200Y313750D01*
G01X804500Y326250D02*
Y313750D01*
G01X800935Y326250D02*
X808065D01*
G01X816900Y313333D02*
X816590Y313542D01*
Y313958D01*
X816900Y314167D01*
X817210Y313958D01*
Y313542D01*
X816900Y313333D01*
G01Y318958D02*
X816590Y319167D01*
Y319583D01*
X816900Y319792D01*
X817210Y319583D01*
Y319167D01*
X816900Y318958D01*
G01X841700Y326250D02*
Y313750D01*
G01X838135Y326250D02*
X845265D01*
G01X854100Y313750D02*
X852860Y313958D01*
X851775Y314791D01*
X850845Y316042D01*
X850225Y317500D01*
X849915Y319167D01*
Y320833D01*
X850225Y322500D01*
X850845Y323958D01*
X851775Y325208D01*
X852860Y326042D01*
X854100Y326250D01*
X855340Y326042D01*
X856425Y325208D01*
X857355Y323958D01*
X857975Y322500D01*
X858285Y320833D01*
Y319167D01*
X857975Y317500D01*
X857355Y316042D01*
X856425Y314791D01*
X855340Y313958D01*
X854100Y313750D01*
G01X863400D02*
Y326250D01*
X867120D01*
X868360Y325625D01*
X869290Y324167D01*
X869600Y322500D01*
X869290Y320833D01*
X868515Y319583D01*
X867120Y318958D01*
X863400D01*
G01X891300Y326250D02*
Y313750D01*
G01X889130Y322083D02*
X893470D01*
G01X903700Y313750D02*
X902770Y313958D01*
X901840Y314791D01*
X901220Y316250D01*
X900910Y317917D01*
X901220Y319583D01*
X901840Y321042D01*
X902770Y321875D01*
X903700Y322083D01*
X904630Y321875D01*
X905560Y321042D01*
X906180Y319583D01*
X906335Y317917D01*
X906180Y316250D01*
X905560Y314791D01*
X904630Y313958D01*
X903700Y313750D01*
G01X929740Y320417D02*
X930360Y321042D01*
X930825Y322083D01*
X931135Y323542D01*
X930825Y324792D01*
X930205Y325625D01*
X929120Y326250D01*
X924935D01*
Y313750D01*
X930050D01*
X931135Y314583D01*
X931755Y315833D01*
X932065Y317292D01*
X931755Y318750D01*
X930825Y320000D01*
X929740Y320417D01*
X924935D01*
G01X940900Y313750D02*
X939660Y313958D01*
X938575Y314791D01*
X937645Y316042D01*
X937025Y317500D01*
X936715Y319167D01*
Y320833D01*
X937025Y322500D01*
X937645Y323958D01*
X938575Y325208D01*
X939660Y326042D01*
X940900Y326250D01*
X942140Y326042D01*
X943225Y325208D01*
X944155Y323958D01*
X944775Y322500D01*
X945085Y320833D01*
Y319167D01*
X944775Y317500D01*
X944155Y316042D01*
X943225Y314791D01*
X942140Y313958D01*
X940900Y313750D01*
G01X953300Y326250D02*
Y313750D01*
G01X949735Y326250D02*
X956865D01*
G01X965700D02*
Y313750D01*
G01X962135Y326250D02*
X969265D01*
G01X978100Y313750D02*
X976860Y313958D01*
X975775Y314791D01*
X974845Y316042D01*
X974225Y317500D01*
X973915Y319167D01*
Y320833D01*
X974225Y322500D01*
X974845Y323958D01*
X975775Y325208D01*
X976860Y326042D01*
X978100Y326250D01*
X979340Y326042D01*
X980425Y325208D01*
X981355Y323958D01*
X981975Y322500D01*
X982285Y320833D01*
Y319167D01*
X981975Y317500D01*
X981355Y316042D01*
X980425Y314791D01*
X979340Y313958D01*
X978100Y313750D01*
G01X986470D02*
Y326250D01*
X990500Y315833D01*
X994530Y326250D01*
Y313750D01*
G01X707625Y288750D02*
X711500Y301250D01*
X715375Y288750D01*
G01X713980Y293125D02*
X709020D01*
G01X720800Y301250D02*
Y288750D01*
X727000D01*
G01X733200Y301250D02*
Y288750D01*
X739400D01*
G01X757690Y301250D02*
Y292292D01*
X758310Y290416D01*
X759550Y289167D01*
X761100Y288750D01*
X762650Y289167D01*
X763890Y290416D01*
X764510Y292292D01*
Y301250D01*
G01X769935Y288750D02*
Y301250D01*
X777065Y288750D01*
Y301250D01*
G01X784040D02*
X787760D01*
G01X785900D02*
Y288750D01*
G01X784040D02*
X787760D01*
G01X798300Y301250D02*
Y288750D01*
G01X794735Y301250D02*
X801865D01*
G01X807445Y290416D02*
X808685Y289375D01*
X810080Y288750D01*
X811320D01*
X812560Y289375D01*
X813490Y290416D01*
X813955Y291875D01*
X813645Y293333D01*
X812870Y294583D01*
X811475Y295417D01*
X809615Y295833D01*
X808530Y296667D01*
X808065Y298125D01*
X808375Y299583D01*
X809150Y300625D01*
X810235Y301250D01*
X811320D01*
X812405Y300833D01*
X813335Y299792D01*
G01X831625Y288750D02*
X835500Y301250D01*
X839375Y288750D01*
G01X837980Y293125D02*
X833020D01*
G01X844800Y288750D02*
Y301250D01*
X848675D01*
X849915Y300625D01*
X850690Y299792D01*
X851000Y298125D01*
X850690Y296458D01*
X849760Y295417D01*
X848675Y294792D01*
X844800D01*
G01X848675D02*
X851000Y288750D01*
G01X863400D02*
X857200D01*
Y301250D01*
X863400D01*
G01X860920Y295208D02*
X857200D01*
G01X883240Y301250D02*
X886960D01*
G01X885100D02*
Y288750D01*
G01X883240D02*
X886960D01*
G01X893935D02*
Y301250D01*
X901065Y288750D01*
Y301250D01*
G01X918270Y288750D02*
Y301250D01*
X922300Y290833D01*
X926330Y301250D01*
Y288750D01*
G01X932840Y301250D02*
X936560D01*
G01X934700D02*
Y288750D01*
G01X932840D02*
X936560D01*
G01X944000Y301250D02*
Y288750D01*
X950200D01*
G01X956245Y290416D02*
X957485Y289375D01*
X958880Y288750D01*
X960120D01*
X961360Y289375D01*
X962290Y290416D01*
X962755Y291875D01*
X962445Y293333D01*
X961670Y294583D01*
X960275Y295417D01*
X958415Y295833D01*
X957330Y296667D01*
X956865Y298125D01*
X957175Y299583D01*
X957950Y300625D01*
X959035Y301250D01*
X960120D01*
X961205Y300833D01*
X962135Y299792D01*
G01X700805Y263750D02*
Y276250D01*
X706695D01*
G01X704525Y270208D02*
X700805D01*
G01X714290Y276250D02*
X718010D01*
G01X716150D02*
Y263750D01*
G01X714290D02*
X718010D01*
G01X724985D02*
Y276250D01*
X732115Y263750D01*
Y276250D01*
G01X739090D02*
X742810D01*
G01X740950D02*
Y263750D01*
G01X739090D02*
X742810D01*
G01X750095Y265416D02*
X751335Y264375D01*
X752730Y263750D01*
X753970D01*
X755210Y264375D01*
X756140Y265416D01*
X756605Y266875D01*
X756295Y268333D01*
X755520Y269583D01*
X754125Y270417D01*
X752265Y270833D01*
X751180Y271667D01*
X750715Y273125D01*
X751025Y274583D01*
X751800Y275625D01*
X752885Y276250D01*
X753970D01*
X755055Y275833D01*
X755985Y274792D01*
G01X762495Y263750D02*
Y276250D01*
G01X769005D02*
Y263750D01*
G01Y270000D02*
X762495D01*
G01X781250Y263750D02*
X775050D01*
Y276250D01*
X781250D01*
G01X778770Y270208D02*
X775050D01*
G01X787140Y263750D02*
Y276250D01*
X790240D01*
X791480Y275625D01*
X792410Y274792D01*
X793185Y273542D01*
X793805Y272083D01*
X793960Y270000D01*
X793805Y267917D01*
X793185Y266458D01*
X792410Y265208D01*
X791480Y264375D01*
X790240Y263750D01*
X787140D01*
G01X798300Y259583D02*
X807600D01*
G01X812095Y265416D02*
X813335Y264375D01*
X814730Y263750D01*
X815970D01*
X817210Y264375D01*
X818140Y265416D01*
X818605Y266875D01*
X818295Y268333D01*
X817520Y269583D01*
X816125Y270417D01*
X814265Y270833D01*
X813180Y271667D01*
X812715Y273125D01*
X813025Y274583D01*
X813800Y275625D01*
X814885Y276250D01*
X815970D01*
X817055Y275833D01*
X817985Y274792D01*
G01X825890Y276250D02*
X829610D01*
G01X827750D02*
Y263750D01*
G01X825890D02*
X829610D01*
G01X837205Y276250D02*
X843095D01*
X837205Y263750D01*
X843095D01*
G01X855650D02*
X849450D01*
Y276250D01*
X855650D01*
G01X853170Y270208D02*
X849450D01*
G01X743740Y-304320D02*
X744670Y-305779D01*
X745910Y-306612D01*
X747305Y-306820D01*
X748545Y-306612D01*
X749785Y-305570D01*
X750560Y-304320D01*
X750715Y-303070D01*
X750405Y-301612D01*
X749320Y-300570D01*
X748235Y-300153D01*
X746840D01*
G01X748235D02*
X749165Y-299528D01*
X749940Y-298487D01*
X750250Y-297237D01*
X749940Y-295987D01*
X749165Y-294945D01*
X747770Y-294320D01*
X746375Y-294528D01*
X744980Y-295362D01*
G01X756140Y-304945D02*
X757070Y-305987D01*
X758155Y-306612D01*
X759550Y-306820D01*
X760945Y-306403D01*
X762030Y-305570D01*
X762805Y-304112D01*
X762960Y-302445D01*
X762650Y-300778D01*
X761875Y-299737D01*
X760790Y-298903D01*
X759705Y-298695D01*
X758620Y-298903D01*
X757225Y-299737D01*
X757690Y-294320D01*
X761875D01*
G01X773810Y-306820D02*
Y-294320D01*
X768075Y-303278D01*
X775825D01*
G01X784350Y-307237D02*
X784040Y-307028D01*
Y-306612D01*
X784350Y-306403D01*
X784660Y-306612D01*
Y-307028D01*
X784350Y-307237D01*
G01X793340Y-304320D02*
X794270Y-305779D01*
X795510Y-306612D01*
X796905Y-306820D01*
X798145Y-306612D01*
X799385Y-305570D01*
X800160Y-304320D01*
X800315Y-303070D01*
X800005Y-301612D01*
X798920Y-300570D01*
X797835Y-300153D01*
X796440D01*
G01X797835D02*
X798765Y-299528D01*
X799540Y-298487D01*
X799850Y-297237D01*
X799540Y-295987D01*
X798765Y-294945D01*
X797370Y-294320D01*
X795975Y-294528D01*
X794580Y-295362D01*
G01X805740Y-304320D02*
X806670Y-305779D01*
X807910Y-306612D01*
X809305Y-306820D01*
X810545Y-306612D01*
X811785Y-305570D01*
X812560Y-304320D01*
X812715Y-303070D01*
X812405Y-301612D01*
X811320Y-300570D01*
X810235Y-300153D01*
X808840D01*
G01X810235D02*
X811165Y-299528D01*
X811940Y-298487D01*
X812250Y-297237D01*
X811940Y-295987D01*
X811165Y-294945D01*
X809770Y-294320D01*
X808375Y-294528D01*
X806980Y-295362D01*
G01X749940Y-251170D02*
X750870Y-252629D01*
X752110Y-253462D01*
X753505Y-253670D01*
X754745Y-253462D01*
X755985Y-252420D01*
X756760Y-251170D01*
X756915Y-249920D01*
X756605Y-248462D01*
X755520Y-247420D01*
X754435Y-247003D01*
X753040D01*
G01X754435D02*
X755365Y-246378D01*
X756140Y-245337D01*
X756450Y-244087D01*
X756140Y-242837D01*
X755365Y-241795D01*
X753970Y-241170D01*
X752575Y-241378D01*
X751180Y-242212D01*
G01X765750Y-241170D02*
X764510Y-241587D01*
X763580Y-242628D01*
X762960Y-243878D01*
X762495Y-245545D01*
X762340Y-247420D01*
X762495Y-249295D01*
X762960Y-250962D01*
X763580Y-252212D01*
X764510Y-253253D01*
X765750Y-253670D01*
X766990Y-253253D01*
X767920Y-252212D01*
X768540Y-250962D01*
X769005Y-249295D01*
X769160Y-247420D01*
X769005Y-245545D01*
X768540Y-243878D01*
X767920Y-242628D01*
X766990Y-241587D01*
X765750Y-241170D01*
G01X778150D02*
X776910Y-241587D01*
X775980Y-242628D01*
X775360Y-243878D01*
X774895Y-245545D01*
X774740Y-247420D01*
X774895Y-249295D01*
X775360Y-250962D01*
X775980Y-252212D01*
X776910Y-253253D01*
X778150Y-253670D01*
X779390Y-253253D01*
X780320Y-252212D01*
X780940Y-250962D01*
X781405Y-249295D01*
X781560Y-247420D01*
X781405Y-245545D01*
X780940Y-243878D01*
X780320Y-242628D01*
X779390Y-241587D01*
X778150Y-241170D01*
G01X790550Y-254087D02*
X790240Y-253878D01*
Y-253462D01*
X790550Y-253253D01*
X790860Y-253462D01*
Y-253878D01*
X790550Y-254087D01*
G01X802950Y-241170D02*
X801710Y-241587D01*
X800780Y-242628D01*
X800160Y-243878D01*
X799695Y-245545D01*
X799540Y-247420D01*
X799695Y-249295D01*
X800160Y-250962D01*
X800780Y-252212D01*
X801710Y-253253D01*
X802950Y-253670D01*
X804190Y-253253D01*
X805120Y-252212D01*
X805740Y-250962D01*
X806205Y-249295D01*
X806360Y-247420D01*
X806205Y-245545D01*
X805740Y-243878D01*
X805120Y-242628D01*
X804190Y-241587D01*
X802950Y-241170D01*
G01X753350Y-200521D02*
Y-188021D01*
X751490Y-190521D01*
G01Y-200521D02*
X755210D01*
G01X765440D02*
X765750Y-197813D01*
X766215Y-195521D01*
X766835Y-193438D01*
X767610Y-191146D01*
X768850Y-188021D01*
X762650D01*
G01X774740Y-198646D02*
X775670Y-199688D01*
X776755Y-200313D01*
X778150Y-200521D01*
X779545Y-200104D01*
X780630Y-199271D01*
X781405Y-197813D01*
X781560Y-196146D01*
X781250Y-194479D01*
X780475Y-193438D01*
X779390Y-192604D01*
X778305Y-192396D01*
X777220Y-192604D01*
X775825Y-193438D01*
X776290Y-188021D01*
X780475D01*
G01X790550Y-200938D02*
X790240Y-200729D01*
Y-200313D01*
X790550Y-200104D01*
X790860Y-200313D01*
Y-200729D01*
X790550Y-200938D01*
G01X802950Y-188021D02*
X801710Y-188438D01*
X800780Y-189479D01*
X800160Y-190729D01*
X799695Y-192396D01*
X799540Y-194271D01*
X799695Y-196146D01*
X800160Y-197813D01*
X800780Y-199063D01*
X801710Y-200104D01*
X802950Y-200521D01*
X804190Y-200104D01*
X805120Y-199063D01*
X805740Y-197813D01*
X806205Y-196146D01*
X806360Y-194271D01*
X806205Y-192396D01*
X805740Y-190729D01*
X805120Y-189479D01*
X804190Y-188438D01*
X802950Y-188021D01*
G01X753350Y-147371D02*
Y-134871D01*
X751490Y-137371D01*
G01Y-147371D02*
X755210D01*
G01X765750D02*
Y-134871D01*
X763890Y-137371D01*
G01Y-147371D02*
X767610D01*
G01X778150Y-134871D02*
X776910Y-135288D01*
X775980Y-136329D01*
X775360Y-137579D01*
X774895Y-139246D01*
X774740Y-141121D01*
X774895Y-142996D01*
X775360Y-144663D01*
X775980Y-145913D01*
X776910Y-146954D01*
X778150Y-147371D01*
X779390Y-146954D01*
X780320Y-145913D01*
X780940Y-144663D01*
X781405Y-142996D01*
X781560Y-141121D01*
X781405Y-139246D01*
X780940Y-137579D01*
X780320Y-136329D01*
X779390Y-135288D01*
X778150Y-134871D01*
G01X790550Y-147788D02*
X790240Y-147579D01*
Y-147163D01*
X790550Y-146954D01*
X790860Y-147163D01*
Y-147579D01*
X790550Y-147788D01*
G01X802950Y-134871D02*
X801710Y-135288D01*
X800780Y-136329D01*
X800160Y-137579D01*
X799695Y-139246D01*
X799540Y-141121D01*
X799695Y-142996D01*
X800160Y-144663D01*
X800780Y-145913D01*
X801710Y-146954D01*
X802950Y-147371D01*
X804190Y-146954D01*
X805120Y-145913D01*
X805740Y-144663D01*
X806205Y-142996D01*
X806360Y-141121D01*
X806205Y-139246D01*
X805740Y-137579D01*
X805120Y-136329D01*
X804190Y-135288D01*
X802950Y-134871D01*
G01X753350Y-94222D02*
Y-81722D01*
X751490Y-84222D01*
G01Y-94222D02*
X755210D01*
G01X765750Y-81722D02*
X764510Y-82139D01*
X763580Y-83180D01*
X762960Y-84430D01*
X762495Y-86097D01*
X762340Y-87972D01*
X762495Y-89847D01*
X762960Y-91514D01*
X763580Y-92764D01*
X764510Y-93805D01*
X765750Y-94222D01*
X766990Y-93805D01*
X767920Y-92764D01*
X768540Y-91514D01*
X769005Y-89847D01*
X769160Y-87972D01*
X769005Y-86097D01*
X768540Y-84430D01*
X767920Y-83180D01*
X766990Y-82139D01*
X765750Y-81722D01*
G01X778150Y-94222D02*
Y-81722D01*
X776290Y-84222D01*
G01Y-94222D02*
X780010D01*
G01X790550Y-94639D02*
X790240Y-94430D01*
Y-94014D01*
X790550Y-93805D01*
X790860Y-94014D01*
Y-94430D01*
X790550Y-94639D01*
G01X802950Y-81722D02*
X801710Y-82139D01*
X800780Y-83180D01*
X800160Y-84430D01*
X799695Y-86097D01*
X799540Y-87972D01*
X799695Y-89847D01*
X800160Y-91514D01*
X800780Y-92764D01*
X801710Y-93805D01*
X802950Y-94222D01*
X804190Y-93805D01*
X805120Y-92764D01*
X805740Y-91514D01*
X806205Y-89847D01*
X806360Y-87972D01*
X806205Y-86097D01*
X805740Y-84430D01*
X805120Y-83180D01*
X804190Y-82139D01*
X802950Y-81722D01*
G01X759550Y-41072D02*
X760635Y-40864D01*
X761875Y-40239D01*
X762650Y-39197D01*
X762960Y-37739D01*
X762650Y-36281D01*
X761720Y-35030D01*
X760325Y-34405D01*
X758775D01*
X757845Y-33989D01*
X757070Y-32947D01*
X756760Y-31489D01*
X757225Y-30030D01*
X758310Y-28989D01*
X759550Y-28572D01*
X760790Y-28989D01*
X761875Y-30030D01*
X762340Y-31489D01*
X762030Y-32947D01*
X761255Y-33989D01*
X760325Y-34405D01*
X758775D01*
X757380Y-35030D01*
X756450Y-36281D01*
X756140Y-37739D01*
X756450Y-39197D01*
X757225Y-40239D01*
X758465Y-40864D01*
X759550Y-41072D01*
G01X768540Y-39197D02*
X769470Y-40239D01*
X770555Y-40864D01*
X771950Y-41072D01*
X773345Y-40655D01*
X774430Y-39822D01*
X775205Y-38364D01*
X775360Y-36697D01*
X775050Y-35030D01*
X774275Y-33989D01*
X773190Y-33155D01*
X772105Y-32947D01*
X771020Y-33155D01*
X769625Y-33989D01*
X770090Y-28572D01*
X774275D01*
G01X784350Y-41489D02*
X784040Y-41280D01*
Y-40864D01*
X784350Y-40655D01*
X784660Y-40864D01*
Y-41280D01*
X784350Y-41489D01*
G01X796750Y-28572D02*
X795510Y-28989D01*
X794580Y-30030D01*
X793960Y-31280D01*
X793495Y-32947D01*
X793340Y-34822D01*
X793495Y-36697D01*
X793960Y-38364D01*
X794580Y-39614D01*
X795510Y-40655D01*
X796750Y-41072D01*
X797990Y-40655D01*
X798920Y-39614D01*
X799540Y-38364D01*
X800005Y-36697D01*
X800160Y-34822D01*
X800005Y-32947D01*
X799540Y-31280D01*
X798920Y-30030D01*
X797990Y-28989D01*
X796750Y-28572D01*
G01X756605Y17285D02*
X757690Y18744D01*
X758620Y19577D01*
X759860Y19994D01*
X760945Y19577D01*
X761720Y18744D01*
X762340Y17494D01*
X762495Y16035D01*
X762340Y14785D01*
X761720Y13535D01*
X760790Y12494D01*
X759705Y12077D01*
X758465Y12494D01*
X757380Y13743D01*
X756760Y15619D01*
X756605Y17702D01*
X756915Y20410D01*
X757380Y21869D01*
X758155Y23327D01*
X759240Y24369D01*
X760325Y24577D01*
X761410Y24160D01*
X762185Y23119D01*
G01X768540Y14577D02*
X769470Y13118D01*
X770710Y12285D01*
X772105Y12077D01*
X773345Y12285D01*
X774585Y13327D01*
X775360Y14577D01*
X775515Y15827D01*
X775205Y17285D01*
X774120Y18327D01*
X773035Y18744D01*
X771640D01*
G01X773035D02*
X773965Y19369D01*
X774740Y20410D01*
X775050Y21660D01*
X774740Y22910D01*
X773965Y23952D01*
X772570Y24577D01*
X771175Y24369D01*
X769780Y23535D01*
G01X784350Y11660D02*
X784040Y11869D01*
Y12285D01*
X784350Y12494D01*
X784660Y12285D01*
Y11869D01*
X784350Y11660D01*
G01X796750Y24577D02*
X795510Y24160D01*
X794580Y23119D01*
X793960Y21869D01*
X793495Y20202D01*
X793340Y18327D01*
X793495Y16452D01*
X793960Y14785D01*
X794580Y13535D01*
X795510Y12494D01*
X796750Y12077D01*
X797990Y12494D01*
X798920Y13535D01*
X799540Y14785D01*
X800005Y16452D01*
X800160Y18327D01*
X800005Y20202D01*
X799540Y21869D01*
X798920Y23119D01*
X797990Y24160D01*
X796750Y24577D01*
G01X756605Y70435D02*
X757690Y71894D01*
X758620Y72727D01*
X759860Y73144D01*
X760945Y72727D01*
X761720Y71894D01*
X762340Y70644D01*
X762495Y69185D01*
X762340Y67935D01*
X761720Y66685D01*
X760790Y65644D01*
X759705Y65227D01*
X758465Y65644D01*
X757380Y66893D01*
X756760Y68769D01*
X756605Y70852D01*
X756915Y73560D01*
X757380Y75019D01*
X758155Y76477D01*
X759240Y77519D01*
X760325Y77727D01*
X761410Y77310D01*
X762185Y76269D01*
G01X768540Y67727D02*
X769470Y66268D01*
X770710Y65435D01*
X772105Y65227D01*
X773345Y65435D01*
X774585Y66477D01*
X775360Y67727D01*
X775515Y68977D01*
X775205Y70435D01*
X774120Y71477D01*
X773035Y71894D01*
X771640D01*
G01X773035D02*
X773965Y72519D01*
X774740Y73560D01*
X775050Y74810D01*
X774740Y76060D01*
X773965Y77102D01*
X772570Y77727D01*
X771175Y77519D01*
X769780Y76685D01*
G01X784350Y64810D02*
X784040Y65019D01*
Y65435D01*
X784350Y65644D01*
X784660Y65435D01*
Y65019D01*
X784350Y64810D01*
G01X796750Y77727D02*
X795510Y77310D01*
X794580Y76269D01*
X793960Y75019D01*
X793495Y73352D01*
X793340Y71477D01*
X793495Y69602D01*
X793960Y67935D01*
X794580Y66685D01*
X795510Y65644D01*
X796750Y65227D01*
X797990Y65644D01*
X798920Y66685D01*
X799540Y67935D01*
X800005Y69602D01*
X800160Y71477D01*
X800005Y73352D01*
X799540Y75019D01*
X798920Y76269D01*
X797990Y77310D01*
X796750Y77727D01*
G01X756140Y120251D02*
X757070Y119209D01*
X758155Y118584D01*
X759550Y118376D01*
X760945Y118793D01*
X762030Y119626D01*
X762805Y121084D01*
X762960Y122751D01*
X762650Y124418D01*
X761875Y125459D01*
X760790Y126293D01*
X759705Y126501D01*
X758620Y126293D01*
X757225Y125459D01*
X757690Y130876D01*
X761875D01*
G01X771950D02*
X770710Y130459D01*
X769780Y129418D01*
X769160Y128168D01*
X768695Y126501D01*
X768540Y124626D01*
X768695Y122751D01*
X769160Y121084D01*
X769780Y119834D01*
X770710Y118793D01*
X771950Y118376D01*
X773190Y118793D01*
X774120Y119834D01*
X774740Y121084D01*
X775205Y122751D01*
X775360Y124626D01*
X775205Y126501D01*
X774740Y128168D01*
X774120Y129418D01*
X773190Y130459D01*
X771950Y130876D01*
G01X784350Y117959D02*
X784040Y118168D01*
Y118584D01*
X784350Y118793D01*
X784660Y118584D01*
Y118168D01*
X784350Y117959D01*
G01X796750Y130876D02*
X795510Y130459D01*
X794580Y129418D01*
X793960Y128168D01*
X793495Y126501D01*
X793340Y124626D01*
X793495Y122751D01*
X793960Y121084D01*
X794580Y119834D01*
X795510Y118793D01*
X796750Y118376D01*
X797990Y118793D01*
X798920Y119834D01*
X799540Y121084D01*
X800005Y122751D01*
X800160Y124626D01*
X800005Y126501D01*
X799540Y128168D01*
X798920Y129418D01*
X797990Y130459D01*
X796750Y130876D01*
G01X761410Y171526D02*
Y184026D01*
X755675Y175068D01*
X763425D01*
G01X771950Y184026D02*
X770710Y183609D01*
X769780Y182568D01*
X769160Y181318D01*
X768695Y179651D01*
X768540Y177776D01*
X768695Y175901D01*
X769160Y174234D01*
X769780Y172984D01*
X770710Y171943D01*
X771950Y171526D01*
X773190Y171943D01*
X774120Y172984D01*
X774740Y174234D01*
X775205Y175901D01*
X775360Y177776D01*
X775205Y179651D01*
X774740Y181318D01*
X774120Y182568D01*
X773190Y183609D01*
X771950Y184026D01*
G01X784350Y171109D02*
X784040Y171318D01*
Y171734D01*
X784350Y171943D01*
X784660Y171734D01*
Y171318D01*
X784350Y171109D01*
G01X796750Y184026D02*
X795510Y183609D01*
X794580Y182568D01*
X793960Y181318D01*
X793495Y179651D01*
X793340Y177776D01*
X793495Y175901D01*
X793960Y174234D01*
X794580Y172984D01*
X795510Y171943D01*
X796750Y171526D01*
X797990Y171943D01*
X798920Y172984D01*
X799540Y174234D01*
X800005Y175901D01*
X800160Y177776D01*
X800005Y179651D01*
X799540Y181318D01*
X798920Y182568D01*
X797990Y183609D01*
X796750Y184026D01*
G01X756140Y227175D02*
X757070Y225716D01*
X758310Y224883D01*
X759705Y224675D01*
X760945Y224883D01*
X762185Y225925D01*
X762960Y227175D01*
X763115Y228425D01*
X762805Y229883D01*
X761720Y230925D01*
X760635Y231342D01*
X759240D01*
G01X760635D02*
X761565Y231967D01*
X762340Y233008D01*
X762650Y234258D01*
X762340Y235508D01*
X761565Y236550D01*
X760170Y237175D01*
X758775Y236967D01*
X757380Y236133D01*
G01X768540Y226550D02*
X769470Y225508D01*
X770555Y224883D01*
X771950Y224675D01*
X773345Y225092D01*
X774430Y225925D01*
X775205Y227383D01*
X775360Y229050D01*
X775050Y230717D01*
X774275Y231758D01*
X773190Y232592D01*
X772105Y232800D01*
X771020Y232592D01*
X769625Y231758D01*
X770090Y237175D01*
X774275D01*
G01X784350Y224258D02*
X784040Y224467D01*
Y224883D01*
X784350Y225092D01*
X784660Y224883D01*
Y224467D01*
X784350Y224258D01*
G01X796750Y237175D02*
X795510Y236758D01*
X794580Y235717D01*
X793960Y234467D01*
X793495Y232800D01*
X793340Y230925D01*
X793495Y229050D01*
X793960Y227383D01*
X794580Y226133D01*
X795510Y225092D01*
X796750Y224675D01*
X797990Y225092D01*
X798920Y226133D01*
X799540Y227383D01*
X800005Y229050D01*
X800160Y230925D01*
X800005Y232800D01*
X799540Y234467D01*
X798920Y235717D01*
X797990Y236758D01*
X796750Y237175D01*
G01X883085Y-306820D02*
Y-294320D01*
X890215Y-306820D01*
Y-294320D01*
G01X899050Y-306820D02*
X897810Y-306612D01*
X896725Y-305779D01*
X895795Y-304528D01*
X895175Y-303070D01*
X894865Y-301403D01*
Y-299737D01*
X895175Y-298070D01*
X895795Y-296612D01*
X896725Y-295362D01*
X897810Y-294528D01*
X899050Y-294320D01*
X900290Y-294528D01*
X901375Y-295362D01*
X902305Y-296612D01*
X902925Y-298070D01*
X903235Y-299737D01*
Y-301403D01*
X902925Y-303070D01*
X902305Y-304528D01*
X901375Y-305779D01*
X900290Y-306612D01*
X899050Y-306820D01*
G01X907885D02*
Y-294320D01*
X915015Y-306820D01*
Y-294320D01*
G01X921835Y-302653D02*
X925865D01*
G01X933150Y-306820D02*
Y-294320D01*
X936870D01*
X938110Y-294945D01*
X939040Y-296403D01*
X939350Y-298070D01*
X939040Y-299737D01*
X938265Y-300987D01*
X936870Y-301612D01*
X933150D01*
G01X945550Y-294320D02*
Y-306820D01*
X951750D01*
G01X957175D02*
X961050Y-294320D01*
X964925Y-306820D01*
G01X963530Y-302445D02*
X958570D01*
G01X973450Y-294320D02*
Y-306820D01*
G01X969885Y-294320D02*
X977015D01*
G01X988950Y-306820D02*
X982750D01*
Y-294320D01*
X988950D01*
G01X986470Y-300362D02*
X982750D01*
G01X994840Y-306820D02*
Y-294320D01*
X997940D01*
X999180Y-294945D01*
X1000110Y-295778D01*
X1000885Y-297028D01*
X1001505Y-298487D01*
X1001660Y-300570D01*
X1001505Y-302653D01*
X1000885Y-304112D01*
X1000110Y-305362D01*
X999180Y-306195D01*
X997940Y-306820D01*
X994840D01*
G01X883085Y-253670D02*
Y-241170D01*
X890215Y-253670D01*
Y-241170D01*
G01X899050Y-253670D02*
X897810Y-253462D01*
X896725Y-252629D01*
X895795Y-251378D01*
X895175Y-249920D01*
X894865Y-248253D01*
Y-246587D01*
X895175Y-244920D01*
X895795Y-243462D01*
X896725Y-242212D01*
X897810Y-241378D01*
X899050Y-241170D01*
X900290Y-241378D01*
X901375Y-242212D01*
X902305Y-243462D01*
X902925Y-244920D01*
X903235Y-246587D01*
Y-248253D01*
X902925Y-249920D01*
X902305Y-251378D01*
X901375Y-252629D01*
X900290Y-253462D01*
X899050Y-253670D01*
G01X907885D02*
Y-241170D01*
X915015Y-253670D01*
Y-241170D01*
G01X921835Y-249503D02*
X925865D01*
G01X933150Y-253670D02*
Y-241170D01*
X936870D01*
X938110Y-241795D01*
X939040Y-243253D01*
X939350Y-244920D01*
X939040Y-246587D01*
X938265Y-247837D01*
X936870Y-248462D01*
X933150D01*
G01X945550Y-241170D02*
Y-253670D01*
X951750D01*
G01X957175D02*
X961050Y-241170D01*
X964925Y-253670D01*
G01X963530Y-249295D02*
X958570D01*
G01X973450Y-241170D02*
Y-253670D01*
G01X969885Y-241170D02*
X977015D01*
G01X988950Y-253670D02*
X982750D01*
Y-241170D01*
X988950D01*
G01X986470Y-247212D02*
X982750D01*
G01X994840Y-253670D02*
Y-241170D01*
X997940D01*
X999180Y-241795D01*
X1000110Y-242628D01*
X1000885Y-243878D01*
X1001505Y-245337D01*
X1001660Y-247420D01*
X1001505Y-249503D01*
X1000885Y-250962D01*
X1000110Y-252212D01*
X999180Y-253045D01*
X997940Y-253670D01*
X994840D01*
G01X883085Y-200521D02*
Y-188021D01*
X890215Y-200521D01*
Y-188021D01*
G01X899050Y-200521D02*
X897810Y-200313D01*
X896725Y-199480D01*
X895795Y-198229D01*
X895175Y-196771D01*
X894865Y-195104D01*
Y-193438D01*
X895175Y-191771D01*
X895795Y-190313D01*
X896725Y-189063D01*
X897810Y-188229D01*
X899050Y-188021D01*
X900290Y-188229D01*
X901375Y-189063D01*
X902305Y-190313D01*
X902925Y-191771D01*
X903235Y-193438D01*
Y-195104D01*
X902925Y-196771D01*
X902305Y-198229D01*
X901375Y-199480D01*
X900290Y-200313D01*
X899050Y-200521D01*
G01X907885D02*
Y-188021D01*
X915015Y-200521D01*
Y-188021D01*
G01X921835Y-196354D02*
X925865D01*
G01X933150Y-200521D02*
Y-188021D01*
X936870D01*
X938110Y-188646D01*
X939040Y-190104D01*
X939350Y-191771D01*
X939040Y-193438D01*
X938265Y-194688D01*
X936870Y-195313D01*
X933150D01*
G01X945550Y-188021D02*
Y-200521D01*
X951750D01*
G01X957175D02*
X961050Y-188021D01*
X964925Y-200521D01*
G01X963530Y-196146D02*
X958570D01*
G01X973450Y-188021D02*
Y-200521D01*
G01X969885Y-188021D02*
X977015D01*
G01X988950Y-200521D02*
X982750D01*
Y-188021D01*
X988950D01*
G01X986470Y-194063D02*
X982750D01*
G01X994840Y-200521D02*
Y-188021D01*
X997940D01*
X999180Y-188646D01*
X1000110Y-189479D01*
X1000885Y-190729D01*
X1001505Y-192188D01*
X1001660Y-194271D01*
X1001505Y-196354D01*
X1000885Y-197813D01*
X1000110Y-199063D01*
X999180Y-199896D01*
X997940Y-200521D01*
X994840D01*
G01X883085Y-147371D02*
Y-134871D01*
X890215Y-147371D01*
Y-134871D01*
G01X899050Y-147371D02*
X897810Y-147163D01*
X896725Y-146330D01*
X895795Y-145079D01*
X895175Y-143621D01*
X894865Y-141954D01*
Y-140288D01*
X895175Y-138621D01*
X895795Y-137163D01*
X896725Y-135913D01*
X897810Y-135079D01*
X899050Y-134871D01*
X900290Y-135079D01*
X901375Y-135913D01*
X902305Y-137163D01*
X902925Y-138621D01*
X903235Y-140288D01*
Y-141954D01*
X902925Y-143621D01*
X902305Y-145079D01*
X901375Y-146330D01*
X900290Y-147163D01*
X899050Y-147371D01*
G01X907885D02*
Y-134871D01*
X915015Y-147371D01*
Y-134871D01*
G01X921835Y-143204D02*
X925865D01*
G01X933150Y-147371D02*
Y-134871D01*
X936870D01*
X938110Y-135496D01*
X939040Y-136954D01*
X939350Y-138621D01*
X939040Y-140288D01*
X938265Y-141538D01*
X936870Y-142163D01*
X933150D01*
G01X945550Y-134871D02*
Y-147371D01*
X951750D01*
G01X957175D02*
X961050Y-134871D01*
X964925Y-147371D01*
G01X963530Y-142996D02*
X958570D01*
G01X973450Y-134871D02*
Y-147371D01*
G01X969885Y-134871D02*
X977015D01*
G01X988950Y-147371D02*
X982750D01*
Y-134871D01*
X988950D01*
G01X986470Y-140913D02*
X982750D01*
G01X994840Y-147371D02*
Y-134871D01*
X997940D01*
X999180Y-135496D01*
X1000110Y-136329D01*
X1000885Y-137579D01*
X1001505Y-139038D01*
X1001660Y-141121D01*
X1001505Y-143204D01*
X1000885Y-144663D01*
X1000110Y-145913D01*
X999180Y-146746D01*
X997940Y-147371D01*
X994840D01*
G01X908350Y-94222D02*
Y-81722D01*
X912070D01*
X913310Y-82347D01*
X914240Y-83805D01*
X914550Y-85472D01*
X914240Y-87139D01*
X913465Y-88389D01*
X912070Y-89014D01*
X908350D01*
G01X920750Y-81722D02*
Y-94222D01*
X926950D01*
G01X932375D02*
X936250Y-81722D01*
X940125Y-94222D01*
G01X938730Y-89847D02*
X933770D01*
G01X948650Y-81722D02*
Y-94222D01*
G01X945085Y-81722D02*
X952215D01*
G01X964150Y-94222D02*
X957950D01*
Y-81722D01*
X964150D01*
G01X961670Y-87764D02*
X957950D01*
G01X970040Y-94222D02*
Y-81722D01*
X973140D01*
X974380Y-82347D01*
X975310Y-83180D01*
X976085Y-84430D01*
X976705Y-85889D01*
X976860Y-87972D01*
X976705Y-90055D01*
X976085Y-91514D01*
X975310Y-92764D01*
X974380Y-93597D01*
X973140Y-94222D01*
X970040D01*
G01X908350Y-41072D02*
Y-28572D01*
X912070D01*
X913310Y-29197D01*
X914240Y-30655D01*
X914550Y-32322D01*
X914240Y-33989D01*
X913465Y-35239D01*
X912070Y-35864D01*
X908350D01*
G01X920750Y-28572D02*
Y-41072D01*
X926950D01*
G01X932375D02*
X936250Y-28572D01*
X940125Y-41072D01*
G01X938730Y-36697D02*
X933770D01*
G01X948650Y-28572D02*
Y-41072D01*
G01X945085Y-28572D02*
X952215D01*
G01X964150Y-41072D02*
X957950D01*
Y-28572D01*
X964150D01*
G01X961670Y-34614D02*
X957950D01*
G01X970040Y-41072D02*
Y-28572D01*
X973140D01*
X974380Y-29197D01*
X975310Y-30030D01*
X976085Y-31280D01*
X976705Y-32739D01*
X976860Y-34822D01*
X976705Y-36905D01*
X976085Y-38364D01*
X975310Y-39614D01*
X974380Y-40447D01*
X973140Y-41072D01*
X970040D01*
G01X908350Y12077D02*
Y24577D01*
X912070D01*
X913310Y23952D01*
X914240Y22494D01*
X914550Y20827D01*
X914240Y19160D01*
X913465Y17910D01*
X912070Y17285D01*
X908350D01*
G01X920750Y24577D02*
Y12077D01*
X926950D01*
G01X932375D02*
X936250Y24577D01*
X940125Y12077D01*
G01X938730Y16452D02*
X933770D01*
G01X948650Y24577D02*
Y12077D01*
G01X945085Y24577D02*
X952215D01*
G01X964150Y12077D02*
X957950D01*
Y24577D01*
X964150D01*
G01X961670Y18535D02*
X957950D01*
G01X970040Y12077D02*
Y24577D01*
X973140D01*
X974380Y23952D01*
X975310Y23119D01*
X976085Y21869D01*
X976705Y20410D01*
X976860Y18327D01*
X976705Y16244D01*
X976085Y14785D01*
X975310Y13535D01*
X974380Y12702D01*
X973140Y12077D01*
X970040D01*
G01X908350Y65227D02*
Y77727D01*
X912070D01*
X913310Y77102D01*
X914240Y75644D01*
X914550Y73977D01*
X914240Y72310D01*
X913465Y71060D01*
X912070Y70435D01*
X908350D01*
G01X920750Y77727D02*
Y65227D01*
X926950D01*
G01X932375D02*
X936250Y77727D01*
X940125Y65227D01*
G01X938730Y69602D02*
X933770D01*
G01X948650Y77727D02*
Y65227D01*
G01X945085Y77727D02*
X952215D01*
G01X964150Y65227D02*
X957950D01*
Y77727D01*
X964150D01*
G01X961670Y71685D02*
X957950D01*
G01X970040Y65227D02*
Y77727D01*
X973140D01*
X974380Y77102D01*
X975310Y76269D01*
X976085Y75019D01*
X976705Y73560D01*
X976860Y71477D01*
X976705Y69394D01*
X976085Y67935D01*
X975310Y66685D01*
X974380Y65852D01*
X973140Y65227D01*
X970040D01*
G01X908350Y118376D02*
Y130876D01*
X912070D01*
X913310Y130251D01*
X914240Y128793D01*
X914550Y127126D01*
X914240Y125459D01*
X913465Y124209D01*
X912070Y123584D01*
X908350D01*
G01X920750Y130876D02*
Y118376D01*
X926950D01*
G01X932375D02*
X936250Y130876D01*
X940125Y118376D01*
G01X938730Y122751D02*
X933770D01*
G01X948650Y130876D02*
Y118376D01*
G01X945085Y130876D02*
X952215D01*
G01X964150Y118376D02*
X957950D01*
Y130876D01*
X964150D01*
G01X961670Y124834D02*
X957950D01*
G01X970040Y118376D02*
Y130876D01*
X973140D01*
X974380Y130251D01*
X975310Y129418D01*
X976085Y128168D01*
X976705Y126709D01*
X976860Y124626D01*
X976705Y122543D01*
X976085Y121084D01*
X975310Y119834D01*
X974380Y119001D01*
X973140Y118376D01*
X970040D01*
G01X908350Y171526D02*
Y184026D01*
X912070D01*
X913310Y183401D01*
X914240Y181943D01*
X914550Y180276D01*
X914240Y178609D01*
X913465Y177359D01*
X912070Y176734D01*
X908350D01*
G01X920750Y184026D02*
Y171526D01*
X926950D01*
G01X932375D02*
X936250Y184026D01*
X940125Y171526D01*
G01X938730Y175901D02*
X933770D01*
G01X948650Y184026D02*
Y171526D01*
G01X945085Y184026D02*
X952215D01*
G01X964150Y171526D02*
X957950D01*
Y184026D01*
X964150D01*
G01X961670Y177984D02*
X957950D01*
G01X970040Y171526D02*
Y184026D01*
X973140D01*
X974380Y183401D01*
X975310Y182568D01*
X976085Y181318D01*
X976705Y179859D01*
X976860Y177776D01*
X976705Y175693D01*
X976085Y174234D01*
X975310Y172984D01*
X974380Y172151D01*
X973140Y171526D01*
X970040D01*
G01X908350Y224675D02*
Y237175D01*
X912070D01*
X913310Y236550D01*
X914240Y235092D01*
X914550Y233425D01*
X914240Y231758D01*
X913465Y230508D01*
X912070Y229883D01*
X908350D01*
G01X920750Y237175D02*
Y224675D01*
X926950D01*
G01X932375D02*
X936250Y237175D01*
X940125Y224675D01*
G01X938730Y229050D02*
X933770D01*
G01X948650Y237175D02*
Y224675D01*
G01X945085Y237175D02*
X952215D01*
G01X964150Y224675D02*
X957950D01*
Y237175D01*
X964150D01*
G01X961670Y231133D02*
X957950D01*
G01X970040Y224675D02*
Y237175D01*
X973140D01*
X974380Y236550D01*
X975310Y235717D01*
X976085Y234467D01*
X976705Y233008D01*
X976860Y230925D01*
X976705Y228842D01*
X976085Y227383D01*
X975310Y226133D01*
X974380Y225300D01*
X973140Y224675D01*
X970040D01*
G01X908350Y263750D02*
Y276250D01*
X912070D01*
X913310Y275625D01*
X914240Y274167D01*
X914550Y272500D01*
X914240Y270833D01*
X913465Y269583D01*
X912070Y268958D01*
X908350D01*
G01X920750Y276250D02*
Y263750D01*
X926950D01*
G01X932375D02*
X936250Y276250D01*
X940125Y263750D01*
G01X938730Y268125D02*
X933770D01*
G01X948650Y276250D02*
Y263750D01*
G01X945085Y276250D02*
X952215D01*
G01X964150Y263750D02*
X957950D01*
Y276250D01*
X964150D01*
G01X961670Y270208D02*
X957950D01*
G01X970040Y263750D02*
Y276250D01*
X973140D01*
X974380Y275625D01*
X975310Y274792D01*
X976085Y273542D01*
X976705Y272083D01*
X976860Y270000D01*
X976705Y267917D01*
X976085Y266458D01*
X975310Y265208D01*
X974380Y264375D01*
X973140Y263750D01*
X970040D01*
G01X1035140Y-91722D02*
X1036070Y-93181D01*
X1037310Y-94014D01*
X1038705Y-94222D01*
X1039945Y-94014D01*
X1041185Y-92972D01*
X1041960Y-91722D01*
X1042115Y-90472D01*
X1041805Y-89014D01*
X1040720Y-87972D01*
X1039635Y-87555D01*
X1038240D01*
G01X1039635D02*
X1040565Y-86930D01*
X1041340Y-85889D01*
X1041650Y-84639D01*
X1041340Y-83389D01*
X1040565Y-82347D01*
X1039170Y-81722D01*
X1037775Y-81930D01*
X1036380Y-82764D01*
G01X1050950Y-81722D02*
X1049710Y-82139D01*
X1048780Y-83180D01*
X1048160Y-84430D01*
X1047695Y-86097D01*
X1047540Y-87972D01*
X1047695Y-89847D01*
X1048160Y-91514D01*
X1048780Y-92764D01*
X1049710Y-93805D01*
X1050950Y-94222D01*
X1052190Y-93805D01*
X1053120Y-92764D01*
X1053740Y-91514D01*
X1054205Y-89847D01*
X1054360Y-87972D01*
X1054205Y-86097D01*
X1053740Y-84430D01*
X1053120Y-83180D01*
X1052190Y-82139D01*
X1050950Y-81722D01*
G01X1038550Y-41072D02*
Y-28572D01*
X1036690Y-31072D01*
G01Y-41072D02*
X1040410D01*
G01X1050950D02*
X1052035Y-40864D01*
X1053275Y-40239D01*
X1054050Y-39197D01*
X1054360Y-37739D01*
X1054050Y-36281D01*
X1053120Y-35030D01*
X1051725Y-34405D01*
X1050175D01*
X1049245Y-33989D01*
X1048470Y-32947D01*
X1048160Y-31489D01*
X1048625Y-30030D01*
X1049710Y-28989D01*
X1050950Y-28572D01*
X1052190Y-28989D01*
X1053275Y-30030D01*
X1053740Y-31489D01*
X1053430Y-32947D01*
X1052655Y-33989D01*
X1051725Y-34405D01*
X1050175D01*
X1048780Y-35030D01*
X1047850Y-36281D01*
X1047540Y-37739D01*
X1047850Y-39197D01*
X1048625Y-40239D01*
X1049865Y-40864D01*
X1050950Y-41072D01*
G01X1038550Y12077D02*
Y24577D01*
X1036690Y22077D01*
G01Y12077D02*
X1040410D01*
G01X1050950Y24577D02*
X1049710Y24160D01*
X1048780Y23119D01*
X1048160Y21869D01*
X1047695Y20202D01*
X1047540Y18327D01*
X1047695Y16452D01*
X1048160Y14785D01*
X1048780Y13535D01*
X1049710Y12494D01*
X1050950Y12077D01*
X1052190Y12494D01*
X1053120Y13535D01*
X1053740Y14785D01*
X1054205Y16452D01*
X1054360Y18327D01*
X1054205Y20202D01*
X1053740Y21869D01*
X1053120Y23119D01*
X1052190Y24160D01*
X1050950Y24577D01*
G01X1038550Y65227D02*
Y77727D01*
X1036690Y75227D01*
G01Y65227D02*
X1040410D01*
G01X1048005Y70435D02*
X1049090Y71894D01*
X1050020Y72727D01*
X1051260Y73144D01*
X1052345Y72727D01*
X1053120Y71894D01*
X1053740Y70644D01*
X1053895Y69185D01*
X1053740Y67935D01*
X1053120Y66685D01*
X1052190Y65644D01*
X1051105Y65227D01*
X1049865Y65644D01*
X1048780Y66893D01*
X1048160Y68769D01*
X1048005Y70852D01*
X1048315Y73560D01*
X1048780Y75019D01*
X1049555Y76477D01*
X1050640Y77519D01*
X1051725Y77727D01*
X1052810Y77310D01*
X1053585Y76269D01*
G01X1035605Y123584D02*
X1036690Y125043D01*
X1037620Y125876D01*
X1038860Y126293D01*
X1039945Y125876D01*
X1040720Y125043D01*
X1041340Y123793D01*
X1041495Y122334D01*
X1041340Y121084D01*
X1040720Y119834D01*
X1039790Y118793D01*
X1038705Y118376D01*
X1037465Y118793D01*
X1036380Y120042D01*
X1035760Y121918D01*
X1035605Y124001D01*
X1035915Y126709D01*
X1036380Y128168D01*
X1037155Y129626D01*
X1038240Y130668D01*
X1039325Y130876D01*
X1040410Y130459D01*
X1041185Y129418D01*
G01X1050950Y130876D02*
X1049710Y130459D01*
X1048780Y129418D01*
X1048160Y128168D01*
X1047695Y126501D01*
X1047540Y124626D01*
X1047695Y122751D01*
X1048160Y121084D01*
X1048780Y119834D01*
X1049710Y118793D01*
X1050950Y118376D01*
X1052190Y118793D01*
X1053120Y119834D01*
X1053740Y121084D01*
X1054205Y122751D01*
X1054360Y124626D01*
X1054205Y126501D01*
X1053740Y128168D01*
X1053120Y129418D01*
X1052190Y130459D01*
X1050950Y130876D01*
G01X1038550Y224675D02*
Y237175D01*
X1036690Y234675D01*
G01Y224675D02*
X1040410D01*
G01X1050950Y237175D02*
X1049710Y236758D01*
X1048780Y235717D01*
X1048160Y234467D01*
X1047695Y232800D01*
X1047540Y230925D01*
X1047695Y229050D01*
X1048160Y227383D01*
X1048780Y226133D01*
X1049710Y225092D01*
X1050950Y224675D01*
X1052190Y225092D01*
X1053120Y226133D01*
X1053740Y227383D01*
X1054205Y229050D01*
X1054360Y230925D01*
X1054205Y232800D01*
X1053740Y234467D01*
X1053120Y235717D01*
X1052190Y236758D01*
X1050950Y237175D01*
G01X1032350Y263750D02*
X1031110Y263958D01*
X1030025Y264791D01*
X1029095Y266042D01*
X1028475Y267500D01*
X1028165Y269167D01*
Y270833D01*
X1028475Y272500D01*
X1029095Y273958D01*
X1030025Y275208D01*
X1031110Y276042D01*
X1032350Y276250D01*
X1033590Y276042D01*
X1034675Y275208D01*
X1035605Y273958D01*
X1036225Y272500D01*
X1036535Y270833D01*
Y269167D01*
X1036225Y267500D01*
X1035605Y266042D01*
X1034675Y264791D01*
X1033590Y263958D01*
X1032350Y263750D01*
G01X1033590Y267083D02*
X1035450Y263750D01*
G01X1044750Y276250D02*
Y263750D01*
G01X1041185Y276250D02*
X1048315D01*
G01X1057150Y263750D02*
Y269375D01*
X1054050Y276250D01*
G01X1060250D02*
X1057150Y269375D01*
G01X1041805Y-296403D02*
X1042735Y-295154D01*
X1043820Y-294528D01*
X1045060Y-294320D01*
X1046610Y-294737D01*
X1047695Y-295778D01*
X1048005Y-297028D01*
X1047850Y-298279D01*
X1047230Y-299320D01*
X1044130Y-301403D01*
X1042735Y-302862D01*
X1041805Y-304945D01*
X1041495Y-306820D01*
X1048005D01*
G01X1044750Y-253670D02*
Y-241170D01*
X1042890Y-243670D01*
G01Y-253670D02*
X1046610D01*
G01X1041805Y-195313D02*
X1042890Y-193854D01*
X1043820Y-193021D01*
X1045060Y-192604D01*
X1046145Y-193021D01*
X1046920Y-193854D01*
X1047540Y-195104D01*
X1047695Y-196563D01*
X1047540Y-197813D01*
X1046920Y-199063D01*
X1045990Y-200104D01*
X1044905Y-200521D01*
X1043665Y-200104D01*
X1042580Y-198855D01*
X1041960Y-196979D01*
X1041805Y-194896D01*
X1042115Y-192188D01*
X1042580Y-190729D01*
X1043355Y-189271D01*
X1044440Y-188229D01*
X1045525Y-188021D01*
X1046610Y-188438D01*
X1047385Y-189479D01*
G01X1046610Y-147371D02*
Y-134871D01*
X1040875Y-143829D01*
X1048625D01*
G01X1041805Y181943D02*
X1042735Y183192D01*
X1043820Y183818D01*
X1045060Y184026D01*
X1046610Y183609D01*
X1047695Y182568D01*
X1048005Y181318D01*
X1047850Y180067D01*
X1047230Y179026D01*
X1044130Y176943D01*
X1042735Y175484D01*
X1041805Y173401D01*
X1041495Y171526D01*
X1048005D01*
G54D21*
X-83661Y-55315D03*
Y55315D03*
X83661Y-55315D03*
Y55315D03*
X632450Y-141121D03*
G54D12*
X-279724Y226465D03*
D03*
Y433157D03*
D03*
X-199802Y226465D03*
D03*
Y433157D03*
D03*
X-177550Y-160750D03*
D03*
X-119882Y226465D03*
D03*
Y433157D03*
D03*
X-93252Y-160750D03*
D03*
X-39960Y226465D03*
D03*
Y433157D03*
D03*
X-12598Y-140500D03*
D03*
X39960Y226465D03*
D03*
Y433157D03*
D03*
X68056Y-160750D03*
D03*
X129500Y-57795D03*
D03*
Y87900D03*
D03*
X119882Y226465D03*
D03*
Y433157D03*
D03*
X152354Y-160750D03*
D03*
X149500Y-37795D03*
D03*
Y67900D03*
D03*
X199802Y226465D03*
D03*
Y433157D03*
D03*
X269900Y88700D03*
D03*
X279724Y226465D03*
D03*
Y433157D03*
D03*
G54D31*
G01X-10000Y-240000D02*
X-412000D01*
G01X-404500Y-225000D02*
X-402000Y-240000D01*
X-399500Y-225000D01*
X-404500D01*
G01X-399500Y515000D02*
X-402000Y530000D01*
X-404500Y515000D01*
X-399500D01*
G01X-10000Y530000D02*
X-412000D01*
G01X-402000Y118625D02*
Y-240000D01*
G01Y151375D02*
Y530000D01*
G01X-345000Y135000D02*
Y-290000D01*
G01X-33375Y-280000D02*
X-345000D01*
G01X-330000Y-277500D02*
X-345000Y-280000D01*
X-330000Y-282500D01*
Y-277500D01*
G01X345000Y-236063D02*
Y526063D01*
G03X341063Y530000I-3937J0D01*
G01X-341063D01*
G03X-345000Y526063I0J-3937D01*
G01Y-236063D01*
G03X-341063Y-240000I3937J0D01*
G01X341063D01*
G03X345000Y-236063I0J3937D01*
G01X33375Y-280000D02*
X345000D01*
G01Y135000D02*
Y-290000D01*
G01X330000Y-282500D02*
X345000Y-280000D01*
X330000Y-277500D01*
Y-282500D01*
G01X587500Y-327144D02*
Y332500D01*
X1083500D01*
Y-327144D01*
X587500D01*
G01Y-273995D02*
X1083500D01*
G01X587500Y-220845D02*
X1083500D01*
G01X587500Y-167696D02*
X1083500D01*
G01X587500Y-114546D02*
X1083500D01*
G01X587500Y-61397D02*
X1083500D01*
G01X587500Y-8247D02*
X1083500D01*
G01X587500Y44902D02*
X1083500D01*
G01X587500Y98052D02*
X1083500D01*
G01X587500Y151201D02*
X1083500D01*
G01X587500Y204350D02*
X1083500D01*
G01X587500Y282500D02*
X1083500D01*
G01X587500Y257500D02*
X1083500D01*
G01X587500Y307500D02*
X1083500D01*
G01X677400Y282500D02*
Y-327144D01*
G01X878900Y282500D02*
Y-327144D01*
G01X1006000Y282500D02*
Y-327144D01*
G54D22*
X-62992Y-37795D03*
D03*
Y-50394D03*
D03*
X-37795Y0D03*
D03*
X-62992Y37795D03*
D03*
Y25197D03*
D03*
X-12598Y-37795D03*
D03*
Y-50394D03*
D03*
X-25197Y0D03*
D03*
X-12598D03*
D03*
Y50394D03*
D03*
Y37795D03*
D03*
X12598Y0D03*
D03*
X37795Y-37795D03*
D03*
Y-50394D03*
D03*
Y37795D03*
D03*
Y25197D03*
D03*
X62992Y-12598D03*
D03*
Y0D03*
D03*
G54D13*
X-279724Y226465D03*
Y433157D03*
X-199802Y226465D03*
Y433157D03*
X-119882Y226465D03*
Y433157D03*
X-39960Y226465D03*
Y433157D03*
X39960Y226465D03*
Y433157D03*
X119882Y226465D03*
Y433157D03*
X199802Y226465D03*
Y433157D03*
X279724Y226465D03*
Y433157D03*
X632450Y71477D03*
G54D14*
X-303156Y260913D03*
D03*
Y319969D03*
D03*
Y339653D03*
D03*
Y398709D03*
D03*
X-259848Y260913D03*
D03*
Y319969D03*
D03*
Y339653D03*
D03*
Y398709D03*
D03*
X-216540Y260913D03*
D03*
Y319969D03*
D03*
Y339653D03*
D03*
Y398709D03*
D03*
X-173232Y260913D03*
D03*
Y319969D03*
D03*
Y339653D03*
D03*
Y398709D03*
D03*
X-129924Y260913D03*
D03*
Y319969D03*
D03*
Y339653D03*
D03*
Y398709D03*
D03*
X-86616Y260913D03*
D03*
Y319969D03*
D03*
Y339653D03*
D03*
Y398709D03*
D03*
X-43308Y260913D03*
D03*
Y319969D03*
D03*
Y339653D03*
D03*
Y398709D03*
D03*
X0Y260913D03*
D03*
Y319969D03*
D03*
Y339653D03*
D03*
Y398709D03*
D03*
X43308Y260913D03*
D03*
Y319969D03*
D03*
Y339653D03*
D03*
Y398709D03*
D03*
X86616Y260913D03*
D03*
Y319969D03*
D03*
Y339653D03*
D03*
Y398709D03*
D03*
X129924Y260913D03*
D03*
Y319969D03*
D03*
Y339653D03*
D03*
Y398709D03*
D03*
X173232Y260913D03*
D03*
Y319969D03*
D03*
Y339653D03*
D03*
Y398709D03*
D03*
X216540Y260913D03*
D03*
Y319969D03*
D03*
Y339653D03*
D03*
Y398709D03*
D03*
X259848Y260913D03*
D03*
Y319969D03*
D03*
Y339653D03*
D03*
Y398709D03*
D03*
X303156Y260913D03*
D03*
Y319969D03*
D03*
Y339653D03*
D03*
Y398709D03*
D03*
G54D23*
X-62992Y-37795D03*
Y-50394D03*
X-37795Y0D03*
X-62992Y37795D03*
Y25197D03*
X-12598Y-37795D03*
Y-50394D03*
X-25197Y0D03*
X-12598D03*
Y50394D03*
Y37795D03*
X12598Y0D03*
X37795Y-37795D03*
Y-50394D03*
Y37795D03*
Y25197D03*
X62992Y-12598D03*
Y0D03*
X632450Y-34822D03*
G54D24*
X-12648Y146502D03*
D03*
G54D15*
X-303156Y260913D03*
Y319969D03*
Y339653D03*
Y398709D03*
X-259848Y260913D03*
Y319969D03*
Y339653D03*
Y398709D03*
X-216540Y260913D03*
Y319969D03*
Y339653D03*
Y398709D03*
X-173232Y260913D03*
Y319969D03*
Y339653D03*
Y398709D03*
X-129924Y260913D03*
Y319969D03*
Y339653D03*
Y398709D03*
X-86616Y260913D03*
Y319969D03*
Y339653D03*
Y398709D03*
X-43308Y260913D03*
Y319969D03*
Y339653D03*
Y398709D03*
X0Y260913D03*
Y319969D03*
Y339653D03*
Y398709D03*
X43308Y260913D03*
Y319969D03*
Y339653D03*
Y398709D03*
X86616Y260913D03*
Y319969D03*
Y339653D03*
Y398709D03*
X129924Y260913D03*
Y319969D03*
Y339653D03*
Y398709D03*
X173232Y260913D03*
Y319969D03*
Y339653D03*
Y398709D03*
X216540Y260913D03*
Y319969D03*
Y339653D03*
Y398709D03*
X259848Y260913D03*
Y319969D03*
Y339653D03*
Y398709D03*
X303156Y260913D03*
Y319969D03*
Y339653D03*
Y398709D03*
X632450Y124626D03*
G54D16*
X-245500Y471000D03*
D03*
Y491500D03*
D03*
Y512000D03*
D03*
X-203000Y471000D03*
D03*
Y491500D03*
D03*
Y512000D03*
D03*
X-159434Y471000D03*
D03*
Y491500D03*
D03*
Y512000D03*
D03*
X-116934Y471000D03*
D03*
Y491500D03*
D03*
Y512000D03*
D03*
X-33848Y-222000D03*
D03*
Y-201500D03*
D03*
Y-181000D03*
D03*
X8652Y-222000D03*
D03*
Y-201500D03*
D03*
Y-181000D03*
D03*
X116934Y471000D03*
D03*
Y491500D03*
D03*
Y512000D03*
D03*
X159434Y471000D03*
D03*
Y491500D03*
D03*
Y512000D03*
D03*
X203000Y471000D03*
D03*
Y491500D03*
D03*
Y512000D03*
D03*
X245500Y471000D03*
D03*
Y491500D03*
D03*
Y512000D03*
D03*
G54D25*
X-12648Y146502D03*
X632450Y-247420D03*
G54D26*
X124500Y-42795D03*
D03*
X134500D03*
D03*
Y-32795D03*
D03*
X124500D03*
D03*
X129500Y-37795D03*
D03*
X124500Y62900D03*
D03*
X134500D03*
D03*
Y72900D03*
D03*
X124500D03*
D03*
X129500Y67900D03*
D03*
G54D17*
X-245500Y471000D03*
Y491500D03*
Y512000D03*
X-203000Y471000D03*
Y491500D03*
Y512000D03*
X-159434Y471000D03*
Y491500D03*
Y512000D03*
X-116934Y471000D03*
Y491500D03*
Y512000D03*
X-33848Y-222000D03*
Y-201500D03*
Y-181000D03*
X8652Y-222000D03*
Y-201500D03*
Y-181000D03*
X116934Y471000D03*
Y491500D03*
Y512000D03*
X159434Y471000D03*
Y491500D03*
Y512000D03*
X203000Y471000D03*
Y491500D03*
Y512000D03*
X245500Y471000D03*
Y491500D03*
Y512000D03*
X632450Y-87972D03*
G54D27*
X124500Y-42795D03*
X134500D03*
Y-32795D03*
X124500D03*
X129500Y-37795D03*
X124500Y62900D03*
X134500D03*
Y72900D03*
X124500D03*
X129500Y67900D03*
X632450Y230925D03*
G54D18*
X-177550Y-160750D03*
X-93252D03*
X-12598Y-140500D03*
X68056Y-160750D03*
X129500Y-57795D03*
Y87900D03*
X152354Y-160750D03*
X149500Y-37795D03*
Y67900D03*
X269900Y88700D03*
X632450Y18327D03*
G54D19*
X-104331Y0D03*
D03*
X-83661Y-55315D03*
D03*
Y55315D03*
D03*
X83661Y-55315D03*
D03*
X104331Y0D03*
D03*
X83661Y55315D03*
D03*
G54D28*
X222166Y5000D03*
D03*
Y-5000D03*
D03*
G54D29*
Y5000D03*
Y-5000D03*
X632450Y177776D03*
M02*
