G04 ================== begin FILE IDENTIFICATION RECORD ==================*
G04 Layout Name:  KIT-CRD-CIL12N-FMA V1R0.brd*
G04 Film Name:    LAYER2*
G04 File Format:  Gerber RS274X*
G04 File Origin:  Cadence Allegro 17.2-S065*
G04 Origin Date:  Fri Oct 30 16:39:25 2020*
G04 *
G04 Layer:  ETCH/LAYER2*
G04 Layer:  PIN/LAYER2*
G04 Layer:  VIA CLASS/LAYER2*
G04 *
G04 Offset:    (0.00 0.00)*
G04 Mirror:    No*
G04 Mode:      Positive*
G04 Rotation:  0*
G04 FullContactRelief:  No*
G04 UndefLineWidth:     1.00*
G04 ================== end FILE IDENTIFICATION RECORD ====================*
%FSLAX25Y25*MOIN*%
%IR0*IPPOS*OFA0.00000B0.00000*MIA0B0*SFA1.00000B1.00000*%
%ADD10C,.02*%
%ADD18C,.06*%
%ADD12C,.07*%
%ADD17C,.055*%
%ADD15C,.11*%
%ADD16C,.001*%
%ADD13C,.15*%
%ADD11C,.125*%
%ADD14C,.00394*%
%ADD19C,.069*%
%ADD26C,.07504*%
%ADD24C,.5*%
%ADD25C,.13004*%
%ADD20C,.15004*%
%ADD23C,.31502*%
%ADD21C,.19004*%
%ADD22C,.24504*%
G75*
%LPD*%
G75*
G36*
G01X254063Y525000D02*
G02X258000Y521063I0J-3937D01*
G01Y446937D01*
G03X261937Y443000I3937J0D01*
G01X336063D01*
G02X340000Y439063I0J-3937D01*
G01Y-7563D01*
G02X336063Y-11500I-3937J0D01*
G01X230520D01*
G02X229685Y-9950I0J1000D01*
G03X231168Y-5000I-7520J4950D01*
G03X229652Y0I-9003J0D01*
G03X231168Y5000I-7487J5000D01*
G03X213164I-9002J0D01*
G03X214680Y0I9003J0D01*
G03X213164Y-5000I7487J-5000D01*
G03X214647Y-9950I9003J0D01*
G02X213812Y-11500I-835J-550D01*
G01X122191D01*
G02X121329Y-9993I0J1000D01*
G03X124049Y0I-16997J9993D01*
G03X84613I-19718J0D01*
G03X87333Y-9993I19717J0D01*
G02X86471Y-11500I-862J-507D01*
G01X78429D01*
G02X74492Y-7563I0J3937D01*
G01Y0D01*
G03X51492I-11500J0D01*
G01Y-7563D01*
G02X47555Y-11500I-3937J0D01*
G01X46855D01*
G03X46630Y-11498I-273J-18000D01*
G01X27926D01*
G02X24098Y-7563I108J3935D01*
G01Y0D01*
G03X12598Y11500I-11500J0D01*
G01X-37795D01*
G03X-49295Y0I0J-11500D01*
G01Y-7563D01*
G02X-53232Y-11500I-3937J0D01*
G01X-86471D01*
G02X-87333Y-9993I0J1000D01*
G03X-84613Y0I-16997J9993D01*
G03X-124049I-19718J0D01*
G03X-121329Y-9993I19717J0D01*
G02X-122191Y-11500I-862J-507D01*
G01X-336063D01*
G02X-340000Y-7563I0J3937D01*
G01Y439063D01*
G02X-336063Y443000I3937J0D01*
G01X-84649D01*
G03X-80712Y446937I0J3937D01*
G01Y521063D01*
G02X-76775Y525000I3937J0D01*
G01X254063D01*
G37*
G36*
G01X-23098Y-17500D02*
X46630D01*
G02X55115Y-21015I-1J-12000D01*
G01X60630Y-26530D01*
G03X69115Y-30045I8486J8485D01*
G01X120082D01*
G02X121012Y-31413I0J-1000D01*
G03X120748Y-32795I3488J-1383D01*
G03X128252I3752J0D01*
G03X127988Y-31413I-3752J-1D01*
G02X128918Y-30045I930J368D01*
G01X130082D01*
G02X131012Y-31413I0J-1000D01*
G03X130748Y-32795I3488J-1383D01*
G03X138252I3752J0D01*
G03X137988Y-31413I-3752J-1D01*
G02X138918Y-30045I930J368D01*
G01X153000D01*
G02X155750Y-32795I0J-2750D01*
G01Y-42795D01*
G02X153000Y-45545I-2750J0D01*
G01X138918D01*
G02X137988Y-44177I0J1000D01*
G03X138252Y-42795I-3488J1383D01*
G03X130748I-3752J0D01*
G03X131012Y-44177I3752J1D01*
G02X130082Y-45545I-930J-368D01*
G01X128918D01*
G02X127988Y-44177I0J1000D01*
G03X128252Y-42795I-3488J1383D01*
G03X120748I-3752J0D01*
G03X121012Y-44177I3752J1D01*
G02X120082Y-45545I-930J-368D01*
G01X67485D01*
G02X59001Y-42031I1J12000D01*
G01X46280Y-29310D01*
G03X37795Y-25795I-8485J-8484D01*
G01X-98D01*
G03X-1098Y-26795I0J-1000D01*
G01Y-50394D01*
G02X-24098I-11500J0D01*
G01Y-18500D01*
G02X-23098Y-17500I1000J0D01*
G37*
%LPC*%
G75*
G36*
G01X299841Y330748D02*
G02X293654Y339653I3315J8905D01*
G02X312658I9502J0D01*
G02X306471Y330748I-9502J0D01*
G03Y328874I349J-937D01*
G02X312658Y319969I-3315J-8905D01*
G02X293654I-9502J0D01*
G02X299841Y328874I9502J0D01*
G03Y330748I-349J937D01*
G37*
G36*
G01X213225D02*
G02X207038Y339653I3315J8905D01*
G02X226042I9502J0D01*
G02X219855Y330748I-9502J0D01*
G03Y328874I349J-937D01*
G02X226042Y319969I-3315J-8905D01*
G02X207038I-9502J0D01*
G02X213225Y328874I9502J0D01*
G03Y330748I-349J937D01*
G37*
G36*
G01X126609D02*
G02X120422Y339653I3315J8905D01*
G02X139426I9502J0D01*
G02X133239Y330748I-9502J0D01*
G03Y328874I349J-937D01*
G02X139426Y319969I-3315J-8905D01*
G02X120422I-9502J0D01*
G02X126609Y328874I9502J0D01*
G03Y330748I-349J937D01*
G37*
G36*
G01X39993D02*
G02X33806Y339653I3315J8905D01*
G02X52810I9502J0D01*
G02X46623Y330748I-9502J0D01*
G03Y328874I349J-937D01*
G02X52810Y319969I-3315J-8905D01*
G02X33806I-9502J0D01*
G02X39993Y328874I9502J0D01*
G03Y330748I-349J937D01*
G37*
G36*
G01X-46623D02*
G02X-52810Y339653I3315J8905D01*
G02X-33806I9502J0D01*
G02X-39993Y330748I-9502J0D01*
G03Y328874I349J-937D01*
G02X-33806Y319969I-3315J-8905D01*
G02X-52810I-9502J0D01*
G02X-46623Y328874I9502J0D01*
G03Y330748I-349J937D01*
G37*
G36*
G01X-133239D02*
G02X-139426Y339653I3315J8905D01*
G02X-120422I9502J0D01*
G02X-126609Y330748I-9502J0D01*
G03Y328874I349J-937D01*
G02X-120422Y319969I-3315J-8905D01*
G02X-139426I-9502J0D01*
G02X-133239Y328874I9502J0D01*
G03Y330748I-349J937D01*
G37*
G36*
G01X-219855D02*
G02X-226042Y339653I3315J8905D01*
G02X-207038I9502J0D01*
G02X-213225Y330748I-9502J0D01*
G03Y328874I349J-937D01*
G02X-207038Y319969I-3315J-8905D01*
G02X-226042I-9502J0D01*
G02X-219855Y328874I9502J0D01*
G03Y330748I-349J937D01*
G37*
G36*
G01X-306471D02*
G02X-312658Y339653I3315J8905D01*
G02X-293654I9502J0D01*
G02X-299841Y330748I-9502J0D01*
G03Y328874I349J-937D01*
G02X-293654Y319969I-3315J-8905D01*
G02X-312658I-9502J0D01*
G02X-306471Y328874I9502J0D01*
G03Y330748I-349J937D01*
G37*
G36*
G01X115898Y91400D02*
G02X124650Y100152I8752J0D01*
G01X129392D01*
X129500D01*
X134500D01*
G02X143252Y91400I0J-8752D01*
G01Y80068D01*
G03X144648Y79150I1000J0D01*
G02X149500Y80152I4853J-11250D01*
G02Y55648I0J-12252D01*
G02X142341Y57957I0J12253D01*
G03X141641Y57841I-292J-406D01*
G02X134500Y54148I-7141J5058D01*
G01X91083D01*
X90999Y53753D01*
G02X83661Y47813I-7338J1563D01*
G02X77206Y51492I0J7502D01*
G01X-1096D01*
Y50394D01*
G02X-1098Y50212I-11502J35D01*
G01Y37795D01*
G02X-24098I-11500J0D01*
G01Y50212D01*
G02X-24100Y50394I11500J217D01*
G01Y74650D01*
G02X-17098Y81652I7002J0D01*
G01X115898D01*
Y91400D01*
G37*
G54D24*
X-12648Y146502D03*
G54D25*
X-12598Y-50394D03*
G54D20*
X-83661Y55315D03*
G54D23*
X-194004Y83252D03*
G54D21*
X-259848Y260913D03*
X-173232D03*
X-86616D03*
X0D03*
X86616D03*
X173232D03*
X259848D03*
X-86616Y398709D03*
X0D03*
X86616D03*
X173232D03*
X259848D03*
X-259848D03*
X-173232D03*
G54D22*
X-279724Y226465D03*
X-199802D03*
X-119882D03*
X-39960D03*
X39960D03*
X119882D03*
X199802D03*
X279724D03*
%LPD*%
G75*
G36*
G01X124650Y94150D02*
X134500D01*
G02X137250Y91400I0J-2750D01*
G01Y68117D01*
G03X137248Y67900I12250J-221D01*
G03X137250Y67683I12252J4D01*
G01Y62900D01*
G02X134500Y60150I-2750J0D01*
G01X89397D01*
G03X83661Y62817I-5736J-4835D01*
G03X76592Y57827I0J-7502D01*
G01X76474Y57494D01*
X-6098D01*
G03X-7098Y56494I0J-1000D01*
G01Y50394D01*
G02X-18098I-5500J0D01*
G01Y74650D01*
G02X-17098Y75650I1000J0D01*
G01X119150D01*
G03X121900Y78400I0J2750D01*
G01Y91400D01*
G02X124650Y94150I2750J0D01*
G37*
%LPC*%
G75*
G54D26*
X129500Y67900D03*
%LPD*%
G75*
G54D10*
X-325000Y-220000D03*
Y510000D03*
X-194004Y-83252D03*
Y83252D03*
X325000Y-220000D03*
Y510000D03*
G54D11*
X-279724Y226465D03*
Y433157D03*
X-199802Y226465D03*
Y433157D03*
X-177550Y-160750D03*
X-119882Y226465D03*
Y433157D03*
X-93252Y-160750D03*
X-39960Y226465D03*
Y433157D03*
X-12598Y-140500D03*
X39960Y226465D03*
Y433157D03*
X68056Y-160750D03*
X129500Y-57795D03*
Y87900D03*
X119882Y226465D03*
Y433157D03*
X152354Y-160750D03*
X149500Y-37795D03*
Y67900D03*
X199802Y226465D03*
Y433157D03*
X269900Y88700D03*
X279724Y226465D03*
Y433157D03*
G54D12*
X-303156Y260913D03*
Y319969D03*
Y339653D03*
Y398709D03*
X-259848Y260913D03*
Y319969D03*
Y339653D03*
Y398709D03*
X-216540Y260913D03*
Y319969D03*
Y339653D03*
Y398709D03*
X-173232Y260913D03*
Y319969D03*
Y339653D03*
Y398709D03*
X-129924Y260913D03*
Y319969D03*
Y339653D03*
Y398709D03*
X-86616Y260913D03*
Y319969D03*
Y339653D03*
Y398709D03*
X-43308Y260913D03*
Y319969D03*
Y339653D03*
Y398709D03*
X0Y260913D03*
Y319969D03*
Y339653D03*
Y398709D03*
X43308Y260913D03*
Y319969D03*
Y339653D03*
Y398709D03*
X86616Y260913D03*
Y319969D03*
Y339653D03*
Y398709D03*
X129924Y260913D03*
Y319969D03*
Y339653D03*
Y398709D03*
X173232Y260913D03*
Y319969D03*
Y339653D03*
Y398709D03*
X216540Y260913D03*
Y319969D03*
Y339653D03*
Y398709D03*
X259848Y260913D03*
Y319969D03*
Y339653D03*
Y398709D03*
X303156Y260913D03*
Y319969D03*
Y339653D03*
Y398709D03*
G54D13*
X-245500Y471000D03*
Y491500D03*
Y512000D03*
X-203000Y471000D03*
Y491500D03*
Y512000D03*
X-159434Y471000D03*
Y491500D03*
Y512000D03*
X-116934Y471000D03*
Y491500D03*
Y512000D03*
X-33848Y-222000D03*
Y-201500D03*
Y-181000D03*
X8652Y-222000D03*
Y-201500D03*
Y-181000D03*
X116934Y471000D03*
Y491500D03*
Y512000D03*
X159434Y471000D03*
Y491500D03*
Y512000D03*
X203000Y471000D03*
Y491500D03*
Y512000D03*
X245500Y471000D03*
Y491500D03*
Y512000D03*
G54D14*
X-104331Y0D03*
X-83661Y-55315D03*
Y55315D03*
X83661Y-55315D03*
X104331Y0D03*
X83661Y55315D03*
G54D15*
X-62992Y-37795D03*
Y-50394D03*
X-37795Y0D03*
X-62992Y37795D03*
Y25197D03*
X-12598Y-37795D03*
Y-50394D03*
X-25197Y0D03*
X-12598D03*
Y50394D03*
Y37795D03*
X12598Y0D03*
X37795Y-37795D03*
Y-50394D03*
Y37795D03*
Y25197D03*
X62992Y-12598D03*
Y0D03*
G54D16*
X-12648Y146502D03*
G54D17*
X124500Y-42795D03*
X134500D03*
Y-32795D03*
X124500D03*
X129500Y-37795D03*
X124500Y62900D03*
X134500D03*
Y72900D03*
X124500D03*
X129500Y67900D03*
G54D18*
X222166Y5000D03*
Y-5000D03*
G54D19*
G01X-93252Y-160750D02*
X-100606Y-153396D01*
Y-40906D01*
X-81800Y-22100D01*
X-44995D01*
X-37795Y-14900D01*
Y0D01*
M02*
