G04 ================== begin FILE IDENTIFICATION RECORD ==================*
G04 Layout Name:  KIT-CRD-CIL12N-FMA V1R0.brd*
G04 Film Name:    Silkscreen_Bottom*
G04 File Format:  Gerber RS274X*
G04 File Origin:  Cadence Allegro 17.2-S065*
G04 Origin Date:  Fri Oct 30 16:39:25 2020*
G04 *
G04 Layer:  REF DES/SILKSCREEN_BOTTOM*
G04 Layer:  PACKAGE GEOMETRY/SILKSCREEN_BOTTOM*
G04 Layer:  BOARD GEOMETRY/SILKSCREEN_BOTTOM*
G04 *
G04 Offset:    (0.00 0.00)*
G04 Mirror:    No*
G04 Mode:      Positive*
G04 Rotation:  0*
G04 FullContactRelief:  No*
G04 UndefLineWidth:     1.00*
G04 ================== end FILE IDENTIFICATION RECORD ====================*
%FSLAX25Y25*MOIN*%
%IR0*IPPOS*OFA0.00000B0.00000*MIA0B0*SFA1.00000B1.00000*%
%ADD10C,.001*%
%ADD11C,.008*%
%ADD12C,.00372*%
G75*
%LPD*%
G75*
G54D10*
G01X-324810Y251071D02*
X-281502D01*
Y329811D01*
X-324810D01*
Y251071D01*
G01X-281502Y408551D02*
X-324810D01*
Y329811D01*
X-281502D01*
Y408551D01*
G01X-238194Y329811D02*
X-281502D01*
Y251071D01*
X-238194D01*
Y329811D01*
G01X-281502D02*
X-238194D01*
Y408551D01*
X-281502D01*
Y329811D01*
G01X-238194Y251071D02*
X-194886D01*
Y329811D01*
X-238194D01*
Y251071D01*
G01X-194886Y408551D02*
X-238194D01*
Y329811D01*
X-194886D01*
Y408551D01*
G01X-151578Y329811D02*
X-194886D01*
Y251071D01*
X-151578D01*
Y329811D01*
G01X-194886D02*
X-151578D01*
Y408551D01*
X-194886D01*
Y329811D01*
G01X-151578Y251071D02*
X-108270D01*
Y329811D01*
X-151578D01*
Y251071D01*
G01X-108270Y408551D02*
X-151578D01*
Y329811D01*
X-108270D01*
Y408551D01*
G01X-64962Y329811D02*
X-108270D01*
Y251071D01*
X-64962D01*
Y329811D01*
G01X-108270D02*
X-64962D01*
Y408551D01*
X-108270D01*
Y329811D01*
G01X-64962Y251071D02*
X-21654D01*
Y329811D01*
X-64962D01*
Y251071D01*
G01X-21654Y408551D02*
X-64962D01*
Y329811D01*
X-21654D01*
Y408551D01*
G01X21654Y329811D02*
X-21654D01*
Y251071D01*
X21654D01*
Y329811D01*
G01X-21654D02*
X21654D01*
Y408551D01*
X-21654D01*
Y329811D01*
G01X21654Y251071D02*
X64962D01*
Y329811D01*
X21654D01*
Y251071D01*
G01X64962Y408551D02*
X21654D01*
Y329811D01*
X64962D01*
Y408551D01*
G01X108270Y329811D02*
X64962D01*
Y251071D01*
X108270D01*
Y329811D01*
G01X64962D02*
X108270D01*
Y408551D01*
X64962D01*
Y329811D01*
G01X108270Y251071D02*
X151578D01*
Y329811D01*
X108270D01*
Y251071D01*
G01X151578Y408551D02*
X108270D01*
Y329811D01*
X151578D01*
Y408551D01*
G01X194886Y329811D02*
X151578D01*
Y251071D01*
X194886D01*
Y329811D01*
G01X151578D02*
X194886D01*
Y408551D01*
X151578D01*
Y329811D01*
G01X194886Y251071D02*
X238194D01*
Y329811D01*
X194886D01*
Y251071D01*
G01X238194Y408551D02*
X194886D01*
Y329811D01*
X238194D01*
Y408551D01*
G01X281502Y329811D02*
X238194D01*
Y251071D01*
X281502D01*
Y329811D01*
G01X238194D02*
X281502D01*
Y408551D01*
X238194D01*
Y329811D01*
G01X281502Y251071D02*
X324810D01*
Y329811D01*
X281502D01*
Y251071D01*
G01X324810Y408551D02*
X281502D01*
Y329811D01*
X324810D01*
Y408551D01*
G54D11*
G01X-82189Y463500D02*
X-98331D01*
G01X-82187Y484807D02*
X-98329D01*
G01X-82189Y476886D02*
X-98331D01*
G01X-82187Y519500D02*
X-98329D01*
G01X-82187Y506114D02*
X-98329D01*
G01X-82187Y498193D02*
X-98329D01*
G01X-46085Y463500D02*
X-62227D01*
G01X-46083Y484807D02*
X-62225D01*
G01X-46085Y476886D02*
X-62227D01*
G01X-46083Y519500D02*
X-62225D01*
G01X-46083Y506114D02*
X-62225D01*
G01X-46083Y498193D02*
X-62225D01*
G01X-9983Y463500D02*
X-26125D01*
G01X-9981Y484807D02*
X-26123D01*
G01X-9983Y476886D02*
X-26125D01*
G01X-9980Y519500D02*
X-26122D01*
G01X-9980Y506114D02*
X-26122D01*
G01X-9981Y498193D02*
X-26123D01*
G01X26119Y463500D02*
X9977D01*
G01X26121Y484807D02*
X9979D01*
G01X26119Y476886D02*
X9977D01*
G01X26122Y519500D02*
X9980D01*
G01X26122Y506114D02*
X9980D01*
G01X26121Y498193D02*
X9979D01*
G01X62221Y463500D02*
X46079D01*
G01X62223Y484807D02*
X46081D01*
G01X62221Y476886D02*
X46079D01*
G01X62224Y519500D02*
X46082D01*
G01X62224Y506114D02*
X46082D01*
G01X62223Y498193D02*
X46081D01*
G01X98325Y463500D02*
X82183D01*
G01X98327Y484807D02*
X82185D01*
G01X98325Y476886D02*
X82183D01*
G01X98326Y519500D02*
X82184D01*
G01X98326Y506114D02*
X82184D01*
G01X98327Y498193D02*
X82185D01*
G54D12*
G01X-299349Y291733D02*
X-299119Y291888D01*
X-298851Y291991D01*
X-298544D01*
X-298199Y291836D01*
X-297931Y291578D01*
X-297739Y291268D01*
X-297586Y290751D01*
X-297548Y290286D01*
X-297624Y289821D01*
X-297739Y289511D01*
X-297969Y289201D01*
X-298238Y288994D01*
X-298506Y288891D01*
X-298774D01*
X-299043Y288994D01*
X-299273Y289149D01*
X-299464Y289356D01*
G01X-301913Y290544D02*
X-302066Y290699D01*
X-302181Y290958D01*
X-302258Y291319D01*
X-302181Y291629D01*
X-302028Y291836D01*
X-301759Y291991D01*
X-300724D01*
Y288891D01*
X-301989D01*
X-302258Y289098D01*
X-302411Y289408D01*
X-302488Y289769D01*
X-302411Y290131D01*
X-302181Y290441D01*
X-301913Y290544D01*
X-300724D01*
G01X-303863Y289511D02*
X-304093Y289149D01*
X-304399Y288943D01*
X-304744Y288891D01*
X-305051Y288943D01*
X-305358Y289201D01*
X-305549Y289511D01*
X-305588Y289821D01*
X-305511Y290183D01*
X-305243Y290441D01*
X-304974Y290544D01*
X-304629D01*
G01X-304974D02*
X-305204Y290699D01*
X-305396Y290958D01*
X-305473Y291268D01*
X-305396Y291578D01*
X-305204Y291836D01*
X-304859Y291991D01*
X-304514Y291939D01*
X-304169Y291733D01*
G01X-307806Y291991D02*
X-307499Y291888D01*
X-307269Y291629D01*
X-307116Y291319D01*
X-307001Y290906D01*
X-306963Y290441D01*
X-307001Y289976D01*
X-307116Y289563D01*
X-307269Y289253D01*
X-307499Y288994D01*
X-307806Y288891D01*
X-308113Y288994D01*
X-308343Y289253D01*
X-308496Y289563D01*
X-308611Y289976D01*
X-308649Y290441D01*
X-308611Y290906D01*
X-308496Y291319D01*
X-308343Y291629D01*
X-308113Y291888D01*
X-307806Y291991D01*
G01X-299349Y370473D02*
X-299119Y370628D01*
X-298851Y370731D01*
X-298544D01*
X-298199Y370576D01*
X-297931Y370318D01*
X-297739Y370008D01*
X-297586Y369491D01*
X-297548Y369026D01*
X-297624Y368561D01*
X-297739Y368251D01*
X-297969Y367941D01*
X-298238Y367734D01*
X-298506Y367631D01*
X-298774D01*
X-299043Y367734D01*
X-299273Y367889D01*
X-299464Y368096D01*
G01X-301913Y369284D02*
X-302066Y369439D01*
X-302181Y369698D01*
X-302258Y370059D01*
X-302181Y370369D01*
X-302028Y370576D01*
X-301759Y370731D01*
X-300724D01*
Y367631D01*
X-301989D01*
X-302258Y367838D01*
X-302411Y368148D01*
X-302488Y368509D01*
X-302411Y368871D01*
X-302181Y369181D01*
X-301913Y369284D01*
X-300724D01*
G01X-304706Y367631D02*
Y370731D01*
X-304246Y370111D01*
G01Y367631D02*
X-305166D01*
G01X-306963Y368096D02*
X-307193Y367838D01*
X-307461Y367683D01*
X-307806Y367631D01*
X-308151Y367734D01*
X-308419Y367941D01*
X-308611Y368303D01*
X-308649Y368716D01*
X-308573Y369129D01*
X-308381Y369388D01*
X-308113Y369594D01*
X-307844Y369646D01*
X-307576Y369594D01*
X-307231Y369388D01*
X-307346Y370731D01*
X-308381D01*
G01X-256041Y291733D02*
X-255811Y291888D01*
X-255543Y291991D01*
X-255236D01*
X-254891Y291836D01*
X-254623Y291578D01*
X-254431Y291268D01*
X-254278Y290751D01*
X-254240Y290286D01*
X-254316Y289821D01*
X-254431Y289511D01*
X-254661Y289201D01*
X-254930Y288994D01*
X-255198Y288891D01*
X-255466D01*
X-255735Y288994D01*
X-255965Y289149D01*
X-256156Y289356D01*
G01X-258605Y290544D02*
X-258758Y290699D01*
X-258873Y290958D01*
X-258950Y291319D01*
X-258873Y291629D01*
X-258720Y291836D01*
X-258451Y291991D01*
X-257416D01*
Y288891D01*
X-258681D01*
X-258950Y289098D01*
X-259103Y289408D01*
X-259180Y289769D01*
X-259103Y290131D01*
X-258873Y290441D01*
X-258605Y290544D01*
X-257416D01*
G01X-260670Y291474D02*
X-260900Y291784D01*
X-261168Y291939D01*
X-261475Y291991D01*
X-261858Y291888D01*
X-262126Y291629D01*
X-262203Y291319D01*
X-262165Y291009D01*
X-262011Y290751D01*
X-261245Y290234D01*
X-260900Y289873D01*
X-260670Y289356D01*
X-260593Y288891D01*
X-262203D01*
G01X-263846Y289253D02*
X-264115Y288994D01*
X-264421Y288891D01*
X-264728Y288994D01*
X-264996Y289304D01*
X-265188Y289769D01*
X-265265Y290234D01*
Y290803D01*
X-265188Y291268D01*
X-264996Y291681D01*
X-264766Y291888D01*
X-264498Y291991D01*
X-264191Y291888D01*
X-263961Y291681D01*
X-263808Y291371D01*
X-263731Y290958D01*
X-263808Y290596D01*
X-264000Y290234D01*
X-264230Y290028D01*
X-264498Y289976D01*
X-264805Y290079D01*
X-265035Y290338D01*
X-265265Y290803D01*
G01X-256041Y370473D02*
X-255811Y370628D01*
X-255543Y370731D01*
X-255236D01*
X-254891Y370576D01*
X-254623Y370318D01*
X-254431Y370008D01*
X-254278Y369491D01*
X-254240Y369026D01*
X-254316Y368561D01*
X-254431Y368251D01*
X-254661Y367941D01*
X-254930Y367734D01*
X-255198Y367631D01*
X-255466D01*
X-255735Y367734D01*
X-255965Y367889D01*
X-256156Y368096D01*
G01X-258605Y369284D02*
X-258758Y369439D01*
X-258873Y369698D01*
X-258950Y370059D01*
X-258873Y370369D01*
X-258720Y370576D01*
X-258451Y370731D01*
X-257416D01*
Y367631D01*
X-258681D01*
X-258950Y367838D01*
X-259103Y368148D01*
X-259180Y368509D01*
X-259103Y368871D01*
X-258873Y369181D01*
X-258605Y369284D01*
X-257416D01*
G01X-261398Y367631D02*
Y370731D01*
X-260938Y370111D01*
G01Y367631D02*
X-261858D01*
G01X-264958D02*
Y370731D01*
X-263540Y368509D01*
X-265456D01*
G01X-212733Y291733D02*
X-212503Y291888D01*
X-212235Y291991D01*
X-211928D01*
X-211583Y291836D01*
X-211315Y291578D01*
X-211123Y291268D01*
X-210970Y290751D01*
X-210932Y290286D01*
X-211008Y289821D01*
X-211123Y289511D01*
X-211353Y289201D01*
X-211622Y288994D01*
X-211890Y288891D01*
X-212158D01*
X-212427Y288994D01*
X-212657Y289149D01*
X-212848Y289356D01*
G01X-215297Y290544D02*
X-215450Y290699D01*
X-215565Y290958D01*
X-215642Y291319D01*
X-215565Y291629D01*
X-215412Y291836D01*
X-215143Y291991D01*
X-214108D01*
Y288891D01*
X-215373D01*
X-215642Y289098D01*
X-215795Y289408D01*
X-215872Y289769D01*
X-215795Y290131D01*
X-215565Y290441D01*
X-215297Y290544D01*
X-214108D01*
G01X-217362Y291474D02*
X-217592Y291784D01*
X-217860Y291939D01*
X-218167Y291991D01*
X-218550Y291888D01*
X-218818Y291629D01*
X-218895Y291319D01*
X-218857Y291009D01*
X-218703Y290751D01*
X-217937Y290234D01*
X-217592Y289873D01*
X-217362Y289356D01*
X-217285Y288891D01*
X-218895D01*
G01X-221190D02*
X-221458Y288943D01*
X-221765Y289098D01*
X-221957Y289356D01*
X-222033Y289718D01*
X-221957Y290079D01*
X-221727Y290389D01*
X-221382Y290544D01*
X-220998D01*
X-220768Y290648D01*
X-220577Y290906D01*
X-220500Y291268D01*
X-220615Y291629D01*
X-220883Y291888D01*
X-221190Y291991D01*
X-221497Y291888D01*
X-221765Y291629D01*
X-221880Y291268D01*
X-221803Y290906D01*
X-221612Y290648D01*
X-221382Y290544D01*
X-220998D01*
X-220653Y290389D01*
X-220423Y290079D01*
X-220347Y289718D01*
X-220423Y289356D01*
X-220615Y289098D01*
X-220922Y288943D01*
X-221190Y288891D01*
G01X-212733Y370473D02*
X-212503Y370628D01*
X-212235Y370731D01*
X-211928D01*
X-211583Y370576D01*
X-211315Y370318D01*
X-211123Y370008D01*
X-210970Y369491D01*
X-210932Y369026D01*
X-211008Y368561D01*
X-211123Y368251D01*
X-211353Y367941D01*
X-211622Y367734D01*
X-211890Y367631D01*
X-212158D01*
X-212427Y367734D01*
X-212657Y367889D01*
X-212848Y368096D01*
G01X-215297Y369284D02*
X-215450Y369439D01*
X-215565Y369698D01*
X-215642Y370059D01*
X-215565Y370369D01*
X-215412Y370576D01*
X-215143Y370731D01*
X-214108D01*
Y367631D01*
X-215373D01*
X-215642Y367838D01*
X-215795Y368148D01*
X-215872Y368509D01*
X-215795Y368871D01*
X-215565Y369181D01*
X-215297Y369284D01*
X-214108D01*
G01X-218090Y367631D02*
Y370731D01*
X-217630Y370111D01*
G01Y367631D02*
X-218550D01*
G01X-220347Y368251D02*
X-220577Y367889D01*
X-220883Y367683D01*
X-221228Y367631D01*
X-221535Y367683D01*
X-221842Y367941D01*
X-222033Y368251D01*
X-222072Y368561D01*
X-221995Y368923D01*
X-221727Y369181D01*
X-221458Y369284D01*
X-221113D01*
G01X-221458D02*
X-221688Y369439D01*
X-221880Y369698D01*
X-221957Y370008D01*
X-221880Y370318D01*
X-221688Y370576D01*
X-221343Y370731D01*
X-220998Y370679D01*
X-220653Y370473D01*
G01X-169425Y291733D02*
X-169195Y291888D01*
X-168927Y291991D01*
X-168620D01*
X-168275Y291836D01*
X-168007Y291578D01*
X-167815Y291268D01*
X-167662Y290751D01*
X-167624Y290286D01*
X-167700Y289821D01*
X-167815Y289511D01*
X-168045Y289201D01*
X-168314Y288994D01*
X-168582Y288891D01*
X-168850D01*
X-169119Y288994D01*
X-169349Y289149D01*
X-169540Y289356D01*
G01X-171989Y290544D02*
X-172142Y290699D01*
X-172257Y290958D01*
X-172334Y291319D01*
X-172257Y291629D01*
X-172104Y291836D01*
X-171835Y291991D01*
X-170800D01*
Y288891D01*
X-172065D01*
X-172334Y289098D01*
X-172487Y289408D01*
X-172564Y289769D01*
X-172487Y290131D01*
X-172257Y290441D01*
X-171989Y290544D01*
X-170800D01*
G01X-174054Y291474D02*
X-174284Y291784D01*
X-174552Y291939D01*
X-174859Y291991D01*
X-175242Y291888D01*
X-175510Y291629D01*
X-175587Y291319D01*
X-175549Y291009D01*
X-175395Y290751D01*
X-174629Y290234D01*
X-174284Y289873D01*
X-174054Y289356D01*
X-173977Y288891D01*
X-175587D01*
G01X-177805D02*
X-177882Y289563D01*
X-177997Y290131D01*
X-178150Y290648D01*
X-178342Y291216D01*
X-178649Y291991D01*
X-177115D01*
G01X-169425Y370473D02*
X-169195Y370628D01*
X-168927Y370731D01*
X-168620D01*
X-168275Y370576D01*
X-168007Y370318D01*
X-167815Y370008D01*
X-167662Y369491D01*
X-167624Y369026D01*
X-167700Y368561D01*
X-167815Y368251D01*
X-168045Y367941D01*
X-168314Y367734D01*
X-168582Y367631D01*
X-168850D01*
X-169119Y367734D01*
X-169349Y367889D01*
X-169540Y368096D01*
G01X-171989Y369284D02*
X-172142Y369439D01*
X-172257Y369698D01*
X-172334Y370059D01*
X-172257Y370369D01*
X-172104Y370576D01*
X-171835Y370731D01*
X-170800D01*
Y367631D01*
X-172065D01*
X-172334Y367838D01*
X-172487Y368148D01*
X-172564Y368509D01*
X-172487Y368871D01*
X-172257Y369181D01*
X-171989Y369284D01*
X-170800D01*
G01X-174782Y367631D02*
Y370731D01*
X-174322Y370111D01*
G01Y367631D02*
X-175242D01*
G01X-177154Y370214D02*
X-177384Y370524D01*
X-177652Y370679D01*
X-177959Y370731D01*
X-178342Y370628D01*
X-178610Y370369D01*
X-178687Y370059D01*
X-178649Y369749D01*
X-178495Y369491D01*
X-177729Y368974D01*
X-177384Y368613D01*
X-177154Y368096D01*
X-177077Y367631D01*
X-178687D01*
G01X-126117Y291733D02*
X-125887Y291888D01*
X-125619Y291991D01*
X-125312D01*
X-124967Y291836D01*
X-124699Y291578D01*
X-124507Y291268D01*
X-124354Y290751D01*
X-124316Y290286D01*
X-124392Y289821D01*
X-124507Y289511D01*
X-124737Y289201D01*
X-125006Y288994D01*
X-125274Y288891D01*
X-125542D01*
X-125811Y288994D01*
X-126041Y289149D01*
X-126232Y289356D01*
G01X-128681Y290544D02*
X-128834Y290699D01*
X-128949Y290958D01*
X-129026Y291319D01*
X-128949Y291629D01*
X-128796Y291836D01*
X-128527Y291991D01*
X-127492D01*
Y288891D01*
X-128757D01*
X-129026Y289098D01*
X-129179Y289408D01*
X-129256Y289769D01*
X-129179Y290131D01*
X-128949Y290441D01*
X-128681Y290544D01*
X-127492D01*
G01X-130746Y291474D02*
X-130976Y291784D01*
X-131244Y291939D01*
X-131551Y291991D01*
X-131934Y291888D01*
X-132202Y291629D01*
X-132279Y291319D01*
X-132241Y291009D01*
X-132087Y290751D01*
X-131321Y290234D01*
X-130976Y289873D01*
X-130746Y289356D01*
X-130669Y288891D01*
X-132279D01*
G01X-133846Y290183D02*
X-134114Y290544D01*
X-134344Y290751D01*
X-134651Y290854D01*
X-134919Y290751D01*
X-135111Y290544D01*
X-135264Y290234D01*
X-135302Y289873D01*
X-135264Y289563D01*
X-135111Y289253D01*
X-134881Y288994D01*
X-134612Y288891D01*
X-134306Y288994D01*
X-134037Y289304D01*
X-133884Y289769D01*
X-133846Y290286D01*
X-133922Y290958D01*
X-134037Y291319D01*
X-134229Y291681D01*
X-134497Y291939D01*
X-134766Y291991D01*
X-135034Y291888D01*
X-135226Y291629D01*
G01X-126117Y370473D02*
X-125887Y370628D01*
X-125619Y370731D01*
X-125312D01*
X-124967Y370576D01*
X-124699Y370318D01*
X-124507Y370008D01*
X-124354Y369491D01*
X-124316Y369026D01*
X-124392Y368561D01*
X-124507Y368251D01*
X-124737Y367941D01*
X-125006Y367734D01*
X-125274Y367631D01*
X-125542D01*
X-125811Y367734D01*
X-126041Y367889D01*
X-126232Y368096D01*
G01X-128681Y369284D02*
X-128834Y369439D01*
X-128949Y369698D01*
X-129026Y370059D01*
X-128949Y370369D01*
X-128796Y370576D01*
X-128527Y370731D01*
X-127492D01*
Y367631D01*
X-128757D01*
X-129026Y367838D01*
X-129179Y368148D01*
X-129256Y368509D01*
X-129179Y368871D01*
X-128949Y369181D01*
X-128681Y369284D01*
X-127492D01*
G01X-131474Y367631D02*
Y370731D01*
X-131014Y370111D01*
G01Y367631D02*
X-131934D01*
G01X-134574D02*
Y370731D01*
X-134114Y370111D01*
G01Y367631D02*
X-135034D01*
G01X-82809Y291733D02*
X-82579Y291888D01*
X-82311Y291991D01*
X-82004D01*
X-81659Y291836D01*
X-81391Y291578D01*
X-81199Y291268D01*
X-81046Y290751D01*
X-81008Y290286D01*
X-81084Y289821D01*
X-81199Y289511D01*
X-81429Y289201D01*
X-81698Y288994D01*
X-81966Y288891D01*
X-82234D01*
X-82503Y288994D01*
X-82733Y289149D01*
X-82924Y289356D01*
G01X-85373Y290544D02*
X-85526Y290699D01*
X-85641Y290958D01*
X-85718Y291319D01*
X-85641Y291629D01*
X-85488Y291836D01*
X-85219Y291991D01*
X-84184D01*
Y288891D01*
X-85449D01*
X-85718Y289098D01*
X-85871Y289408D01*
X-85948Y289769D01*
X-85871Y290131D01*
X-85641Y290441D01*
X-85373Y290544D01*
X-84184D01*
G01X-87438Y291474D02*
X-87668Y291784D01*
X-87936Y291939D01*
X-88243Y291991D01*
X-88626Y291888D01*
X-88894Y291629D01*
X-88971Y291319D01*
X-88933Y291009D01*
X-88779Y290751D01*
X-88013Y290234D01*
X-87668Y289873D01*
X-87438Y289356D01*
X-87361Y288891D01*
X-88971D01*
G01X-90423Y289356D02*
X-90653Y289098D01*
X-90921Y288943D01*
X-91266Y288891D01*
X-91611Y288994D01*
X-91879Y289201D01*
X-92071Y289563D01*
X-92109Y289976D01*
X-92033Y290389D01*
X-91841Y290648D01*
X-91573Y290854D01*
X-91304Y290906D01*
X-91036Y290854D01*
X-90691Y290648D01*
X-90806Y291991D01*
X-91841D01*
G01X-82809Y370473D02*
X-82579Y370628D01*
X-82311Y370731D01*
X-82004D01*
X-81659Y370576D01*
X-81391Y370318D01*
X-81199Y370008D01*
X-81046Y369491D01*
X-81008Y369026D01*
X-81084Y368561D01*
X-81199Y368251D01*
X-81429Y367941D01*
X-81698Y367734D01*
X-81966Y367631D01*
X-82234D01*
X-82503Y367734D01*
X-82733Y367889D01*
X-82924Y368096D01*
G01X-85373Y369284D02*
X-85526Y369439D01*
X-85641Y369698D01*
X-85718Y370059D01*
X-85641Y370369D01*
X-85488Y370576D01*
X-85219Y370731D01*
X-84184D01*
Y367631D01*
X-85449D01*
X-85718Y367838D01*
X-85871Y368148D01*
X-85948Y368509D01*
X-85871Y368871D01*
X-85641Y369181D01*
X-85373Y369284D01*
X-84184D01*
G01X-88166Y367631D02*
Y370731D01*
X-87706Y370111D01*
G01Y367631D02*
X-88626D01*
G01X-91266Y370731D02*
X-90959Y370628D01*
X-90729Y370369D01*
X-90576Y370059D01*
X-90461Y369646D01*
X-90423Y369181D01*
X-90461Y368716D01*
X-90576Y368303D01*
X-90729Y367993D01*
X-90959Y367734D01*
X-91266Y367631D01*
X-91573Y367734D01*
X-91803Y367993D01*
X-91956Y368303D01*
X-92071Y368716D01*
X-92109Y369181D01*
X-92071Y369646D01*
X-91956Y370059D01*
X-91803Y370369D01*
X-91573Y370628D01*
X-91266Y370731D01*
G01X-84843Y467240D02*
Y470340D01*
X-85802D01*
X-86108Y470185D01*
X-86300Y469978D01*
X-86377Y469565D01*
X-86300Y469152D01*
X-86070Y468893D01*
X-85802Y468738D01*
X-84843D01*
G01X-85802D02*
X-86377Y467240D01*
G01X-89017Y468893D02*
X-89170Y469048D01*
X-89285Y469307D01*
X-89362Y469668D01*
X-89285Y469978D01*
X-89132Y470185D01*
X-88863Y470340D01*
X-87828D01*
Y467240D01*
X-89093D01*
X-89362Y467447D01*
X-89515Y467757D01*
X-89592Y468118D01*
X-89515Y468480D01*
X-89285Y468790D01*
X-89017Y468893D01*
X-87828D01*
G01X-91810Y467240D02*
Y470340D01*
X-91350Y469720D01*
G01Y467240D02*
X-92270D01*
G01X-94910D02*
X-95178Y467292D01*
X-95485Y467447D01*
X-95677Y467705D01*
X-95753Y468067D01*
X-95677Y468428D01*
X-95447Y468738D01*
X-95102Y468893D01*
X-94718D01*
X-94488Y468997D01*
X-94297Y469255D01*
X-94220Y469617D01*
X-94335Y469978D01*
X-94603Y470237D01*
X-94910Y470340D01*
X-95217Y470237D01*
X-95485Y469978D01*
X-95600Y469617D01*
X-95523Y469255D01*
X-95332Y468997D01*
X-95102Y468893D01*
X-94718D01*
X-94373Y468738D01*
X-94143Y468428D01*
X-94067Y468067D01*
X-94143Y467705D01*
X-94335Y467447D01*
X-94642Y467292D01*
X-94910Y467240D01*
G01X-84841Y488547D02*
Y491647D01*
X-85800D01*
X-86106Y491492D01*
X-86298Y491285D01*
X-86375Y490872D01*
X-86298Y490459D01*
X-86068Y490200D01*
X-85800Y490045D01*
X-84841D01*
G01X-85800D02*
X-86375Y488547D01*
G01X-89015Y490200D02*
X-89168Y490355D01*
X-89283Y490614D01*
X-89360Y490975D01*
X-89283Y491285D01*
X-89130Y491492D01*
X-88861Y491647D01*
X-87826D01*
Y488547D01*
X-89091D01*
X-89360Y488754D01*
X-89513Y489064D01*
X-89590Y489425D01*
X-89513Y489787D01*
X-89283Y490097D01*
X-89015Y490200D01*
X-87826D01*
G01X-91808Y488547D02*
Y491647D01*
X-91348Y491027D01*
G01Y488547D02*
X-92268D01*
G01X-94180Y491130D02*
X-94410Y491440D01*
X-94678Y491595D01*
X-94985Y491647D01*
X-95368Y491544D01*
X-95636Y491285D01*
X-95713Y490975D01*
X-95675Y490665D01*
X-95521Y490407D01*
X-94755Y489890D01*
X-94410Y489529D01*
X-94180Y489012D01*
X-94103Y488547D01*
X-95713D01*
G01X-86391Y509854D02*
Y512954D01*
X-87350D01*
X-87656Y512799D01*
X-87848Y512592D01*
X-87925Y512179D01*
X-87848Y511766D01*
X-87618Y511507D01*
X-87350Y511352D01*
X-86391D01*
G01X-87350D02*
X-87925Y509854D01*
G01X-90565Y511507D02*
X-90718Y511662D01*
X-90833Y511921D01*
X-90910Y512282D01*
X-90833Y512592D01*
X-90680Y512799D01*
X-90411Y512954D01*
X-89376D01*
Y509854D01*
X-90641D01*
X-90910Y510061D01*
X-91063Y510371D01*
X-91140Y510732D01*
X-91063Y511094D01*
X-90833Y511404D01*
X-90565Y511507D01*
X-89376D01*
G01X-92630Y511146D02*
X-92898Y511507D01*
X-93128Y511714D01*
X-93435Y511817D01*
X-93703Y511714D01*
X-93895Y511507D01*
X-94048Y511197D01*
X-94086Y510836D01*
X-94048Y510526D01*
X-93895Y510216D01*
X-93665Y509957D01*
X-93396Y509854D01*
X-93090Y509957D01*
X-92821Y510267D01*
X-92668Y510732D01*
X-92630Y511249D01*
X-92706Y511921D01*
X-92821Y512282D01*
X-93013Y512644D01*
X-93281Y512902D01*
X-93550Y512954D01*
X-93818Y512851D01*
X-94010Y512592D01*
G01X-39501Y291733D02*
X-39271Y291888D01*
X-39003Y291991D01*
X-38696D01*
X-38351Y291836D01*
X-38083Y291578D01*
X-37891Y291268D01*
X-37738Y290751D01*
X-37700Y290286D01*
X-37776Y289821D01*
X-37891Y289511D01*
X-38121Y289201D01*
X-38390Y288994D01*
X-38658Y288891D01*
X-38926D01*
X-39195Y288994D01*
X-39425Y289149D01*
X-39616Y289356D01*
G01X-42065Y290544D02*
X-42218Y290699D01*
X-42333Y290958D01*
X-42410Y291319D01*
X-42333Y291629D01*
X-42180Y291836D01*
X-41911Y291991D01*
X-40876D01*
Y288891D01*
X-42141D01*
X-42410Y289098D01*
X-42563Y289408D01*
X-42640Y289769D01*
X-42563Y290131D01*
X-42333Y290441D01*
X-42065Y290544D01*
X-40876D01*
G01X-44130Y291474D02*
X-44360Y291784D01*
X-44628Y291939D01*
X-44935Y291991D01*
X-45318Y291888D01*
X-45586Y291629D01*
X-45663Y291319D01*
X-45625Y291009D01*
X-45471Y290751D01*
X-44705Y290234D01*
X-44360Y289873D01*
X-44130Y289356D01*
X-44053Y288891D01*
X-45663D01*
G01X-48418D02*
Y291991D01*
X-47000Y289769D01*
X-48916D01*
G01X-41051Y370473D02*
X-40821Y370628D01*
X-40553Y370731D01*
X-40246D01*
X-39901Y370576D01*
X-39633Y370318D01*
X-39441Y370008D01*
X-39288Y369491D01*
X-39250Y369026D01*
X-39326Y368561D01*
X-39441Y368251D01*
X-39671Y367941D01*
X-39940Y367734D01*
X-40208Y367631D01*
X-40476D01*
X-40745Y367734D01*
X-40975Y367889D01*
X-41166Y368096D01*
G01X-43615Y369284D02*
X-43768Y369439D01*
X-43883Y369698D01*
X-43960Y370059D01*
X-43883Y370369D01*
X-43730Y370576D01*
X-43461Y370731D01*
X-42426D01*
Y367631D01*
X-43691D01*
X-43960Y367838D01*
X-44113Y368148D01*
X-44190Y368509D01*
X-44113Y368871D01*
X-43883Y369181D01*
X-43615Y369284D01*
X-42426D01*
G01X-45756Y367993D02*
X-46025Y367734D01*
X-46331Y367631D01*
X-46638Y367734D01*
X-46906Y368044D01*
X-47098Y368509D01*
X-47175Y368974D01*
Y369543D01*
X-47098Y370008D01*
X-46906Y370421D01*
X-46676Y370628D01*
X-46408Y370731D01*
X-46101Y370628D01*
X-45871Y370421D01*
X-45718Y370111D01*
X-45641Y369698D01*
X-45718Y369336D01*
X-45910Y368974D01*
X-46140Y368768D01*
X-46408Y368716D01*
X-46715Y368819D01*
X-46945Y369078D01*
X-47175Y369543D01*
G01X-48739Y467240D02*
Y470340D01*
X-49698D01*
X-50004Y470185D01*
X-50196Y469978D01*
X-50273Y469565D01*
X-50196Y469152D01*
X-49966Y468893D01*
X-49698Y468738D01*
X-48739D01*
G01X-49698D02*
X-50273Y467240D01*
G01X-52913Y468893D02*
X-53066Y469048D01*
X-53181Y469307D01*
X-53258Y469668D01*
X-53181Y469978D01*
X-53028Y470185D01*
X-52759Y470340D01*
X-51724D01*
Y467240D01*
X-52989D01*
X-53258Y467447D01*
X-53411Y467757D01*
X-53488Y468118D01*
X-53411Y468480D01*
X-53181Y468790D01*
X-52913Y468893D01*
X-51724D01*
G01X-55706Y467240D02*
Y470340D01*
X-55246Y469720D01*
G01Y467240D02*
X-56166D01*
G01X-58729D02*
X-58806Y467912D01*
X-58921Y468480D01*
X-59074Y468997D01*
X-59266Y469565D01*
X-59573Y470340D01*
X-58039D01*
G01X-48737Y488547D02*
Y491647D01*
X-49696D01*
X-50002Y491492D01*
X-50194Y491285D01*
X-50271Y490872D01*
X-50194Y490459D01*
X-49964Y490200D01*
X-49696Y490045D01*
X-48737D01*
G01X-49696D02*
X-50271Y488547D01*
G01X-52911Y490200D02*
X-53064Y490355D01*
X-53179Y490614D01*
X-53256Y490975D01*
X-53179Y491285D01*
X-53026Y491492D01*
X-52757Y491647D01*
X-51722D01*
Y488547D01*
X-52987D01*
X-53256Y488754D01*
X-53409Y489064D01*
X-53486Y489425D01*
X-53409Y489787D01*
X-53179Y490097D01*
X-52911Y490200D01*
X-51722D01*
G01X-55704Y488547D02*
Y491647D01*
X-55244Y491027D01*
G01Y488547D02*
X-56164D01*
G01X-58804D02*
Y491647D01*
X-58344Y491027D01*
G01Y488547D02*
X-59264D01*
G01X-50287Y509854D02*
Y512954D01*
X-51246D01*
X-51552Y512799D01*
X-51744Y512592D01*
X-51821Y512179D01*
X-51744Y511766D01*
X-51514Y511507D01*
X-51246Y511352D01*
X-50287D01*
G01X-51246D02*
X-51821Y509854D01*
G01X-54461Y511507D02*
X-54614Y511662D01*
X-54729Y511921D01*
X-54806Y512282D01*
X-54729Y512592D01*
X-54576Y512799D01*
X-54307Y512954D01*
X-53272D01*
Y509854D01*
X-54537D01*
X-54806Y510061D01*
X-54959Y510371D01*
X-55036Y510732D01*
X-54959Y511094D01*
X-54729Y511404D01*
X-54461Y511507D01*
X-53272D01*
G01X-56411Y510319D02*
X-56641Y510061D01*
X-56909Y509906D01*
X-57254Y509854D01*
X-57599Y509957D01*
X-57867Y510164D01*
X-58059Y510526D01*
X-58097Y510939D01*
X-58021Y511352D01*
X-57829Y511611D01*
X-57561Y511817D01*
X-57292Y511869D01*
X-57024Y511817D01*
X-56679Y511611D01*
X-56794Y512954D01*
X-57829D01*
G01X-12637Y467240D02*
Y470340D01*
X-13596D01*
X-13902Y470185D01*
X-14094Y469978D01*
X-14171Y469565D01*
X-14094Y469152D01*
X-13864Y468893D01*
X-13596Y468738D01*
X-12637D01*
G01X-13596D02*
X-14171Y467240D01*
G01X-16811Y468893D02*
X-16964Y469048D01*
X-17079Y469307D01*
X-17156Y469668D01*
X-17079Y469978D01*
X-16926Y470185D01*
X-16657Y470340D01*
X-15622D01*
Y467240D01*
X-16887D01*
X-17156Y467447D01*
X-17309Y467757D01*
X-17386Y468118D01*
X-17309Y468480D01*
X-17079Y468790D01*
X-16811Y468893D01*
X-15622D01*
G01X-19604Y467240D02*
Y470340D01*
X-19144Y469720D01*
G01Y467240D02*
X-20064D01*
G01X-21976Y468532D02*
X-22244Y468893D01*
X-22474Y469100D01*
X-22781Y469203D01*
X-23049Y469100D01*
X-23241Y468893D01*
X-23394Y468583D01*
X-23432Y468222D01*
X-23394Y467912D01*
X-23241Y467602D01*
X-23011Y467343D01*
X-22742Y467240D01*
X-22436Y467343D01*
X-22167Y467653D01*
X-22014Y468118D01*
X-21976Y468635D01*
X-22052Y469307D01*
X-22167Y469668D01*
X-22359Y470030D01*
X-22627Y470288D01*
X-22896Y470340D01*
X-23164Y470237D01*
X-23356Y469978D01*
G01X-12635Y488547D02*
Y491647D01*
X-13594D01*
X-13900Y491492D01*
X-14092Y491285D01*
X-14169Y490872D01*
X-14092Y490459D01*
X-13862Y490200D01*
X-13594Y490045D01*
X-12635D01*
G01X-13594D02*
X-14169Y488547D01*
G01X-16809Y490200D02*
X-16962Y490355D01*
X-17077Y490614D01*
X-17154Y490975D01*
X-17077Y491285D01*
X-16924Y491492D01*
X-16655Y491647D01*
X-15620D01*
Y488547D01*
X-16885D01*
X-17154Y488754D01*
X-17307Y489064D01*
X-17384Y489425D01*
X-17307Y489787D01*
X-17077Y490097D01*
X-16809Y490200D01*
X-15620D01*
G01X-19602Y488547D02*
Y491647D01*
X-19142Y491027D01*
G01Y488547D02*
X-20062D01*
G01X-22702Y491647D02*
X-22395Y491544D01*
X-22165Y491285D01*
X-22012Y490975D01*
X-21897Y490562D01*
X-21859Y490097D01*
X-21897Y489632D01*
X-22012Y489219D01*
X-22165Y488909D01*
X-22395Y488650D01*
X-22702Y488547D01*
X-23009Y488650D01*
X-23239Y488909D01*
X-23392Y489219D01*
X-23507Y489632D01*
X-23545Y490097D01*
X-23507Y490562D01*
X-23392Y490975D01*
X-23239Y491285D01*
X-23009Y491544D01*
X-22702Y491647D01*
G01X-14184Y511257D02*
Y514357D01*
X-15143D01*
X-15449Y514202D01*
X-15641Y513995D01*
X-15718Y513582D01*
X-15641Y513169D01*
X-15411Y512910D01*
X-15143Y512755D01*
X-14184D01*
G01X-15143D02*
X-15718Y511257D01*
G01X-18358Y512910D02*
X-18511Y513065D01*
X-18626Y513324D01*
X-18703Y513685D01*
X-18626Y513995D01*
X-18473Y514202D01*
X-18204Y514357D01*
X-17169D01*
Y511257D01*
X-18434D01*
X-18703Y511464D01*
X-18856Y511774D01*
X-18933Y512135D01*
X-18856Y512497D01*
X-18626Y512807D01*
X-18358Y512910D01*
X-17169D01*
G01X-21611Y511257D02*
Y514357D01*
X-20193Y512135D01*
X-22109D01*
G01X3807Y291733D02*
X4037Y291888D01*
X4305Y291991D01*
X4612D01*
X4957Y291836D01*
X5225Y291578D01*
X5417Y291268D01*
X5570Y290751D01*
X5608Y290286D01*
X5532Y289821D01*
X5417Y289511D01*
X5187Y289201D01*
X4918Y288994D01*
X4650Y288891D01*
X4382D01*
X4113Y288994D01*
X3883Y289149D01*
X3692Y289356D01*
G01X1243Y290544D02*
X1090Y290699D01*
X975Y290958D01*
X898Y291319D01*
X975Y291629D01*
X1128Y291836D01*
X1397Y291991D01*
X2432D01*
Y288891D01*
X1167D01*
X898Y289098D01*
X745Y289408D01*
X668Y289769D01*
X745Y290131D01*
X975Y290441D01*
X1243Y290544D01*
X2432D01*
G01X-822Y291474D02*
X-1052Y291784D01*
X-1320Y291939D01*
X-1627Y291991D01*
X-2010Y291888D01*
X-2278Y291629D01*
X-2355Y291319D01*
X-2317Y291009D01*
X-2163Y290751D01*
X-1397Y290234D01*
X-1052Y289873D01*
X-822Y289356D01*
X-745Y288891D01*
X-2355D01*
G01X-3807Y289511D02*
X-4037Y289149D01*
X-4343Y288943D01*
X-4688Y288891D01*
X-4995Y288943D01*
X-5302Y289201D01*
X-5493Y289511D01*
X-5532Y289821D01*
X-5455Y290183D01*
X-5187Y290441D01*
X-4918Y290544D01*
X-4573D01*
G01X-4918D02*
X-5148Y290699D01*
X-5340Y290958D01*
X-5417Y291268D01*
X-5340Y291578D01*
X-5148Y291836D01*
X-4803Y291991D01*
X-4458Y291939D01*
X-4113Y291733D01*
G01X2257Y370473D02*
X2487Y370628D01*
X2755Y370731D01*
X3062D01*
X3407Y370576D01*
X3675Y370318D01*
X3867Y370008D01*
X4020Y369491D01*
X4058Y369026D01*
X3982Y368561D01*
X3867Y368251D01*
X3637Y367941D01*
X3368Y367734D01*
X3100Y367631D01*
X2832D01*
X2563Y367734D01*
X2333Y367889D01*
X2142Y368096D01*
G01X-307Y369284D02*
X-460Y369439D01*
X-575Y369698D01*
X-652Y370059D01*
X-575Y370369D01*
X-422Y370576D01*
X-153Y370731D01*
X882D01*
Y367631D01*
X-383D01*
X-652Y367838D01*
X-805Y368148D01*
X-882Y368509D01*
X-805Y368871D01*
X-575Y369181D01*
X-307Y369284D01*
X882D01*
G01X-3100Y367631D02*
X-3368Y367683D01*
X-3675Y367838D01*
X-3867Y368096D01*
X-3943Y368458D01*
X-3867Y368819D01*
X-3637Y369129D01*
X-3292Y369284D01*
X-2908D01*
X-2678Y369388D01*
X-2487Y369646D01*
X-2410Y370008D01*
X-2525Y370369D01*
X-2793Y370628D01*
X-3100Y370731D01*
X-3407Y370628D01*
X-3675Y370369D01*
X-3790Y370008D01*
X-3713Y369646D01*
X-3522Y369388D01*
X-3292Y369284D01*
X-2908D01*
X-2563Y369129D01*
X-2333Y368819D01*
X-2257Y368458D01*
X-2333Y368096D01*
X-2525Y367838D01*
X-2832Y367683D01*
X-3100Y367631D01*
G01X23465Y467240D02*
Y470340D01*
X22506D01*
X22200Y470185D01*
X22008Y469978D01*
X21931Y469565D01*
X22008Y469152D01*
X22238Y468893D01*
X22506Y468738D01*
X23465D01*
G01X22506D02*
X21931Y467240D01*
G01X19291Y468893D02*
X19138Y469048D01*
X19023Y469307D01*
X18946Y469668D01*
X19023Y469978D01*
X19176Y470185D01*
X19445Y470340D01*
X20480D01*
Y467240D01*
X19215D01*
X18946Y467447D01*
X18793Y467757D01*
X18716Y468118D01*
X18793Y468480D01*
X19023Y468790D01*
X19291Y468893D01*
X20480D01*
G01X16498Y467240D02*
Y470340D01*
X16958Y469720D01*
G01Y467240D02*
X16038D01*
G01X14241Y467705D02*
X14011Y467447D01*
X13743Y467292D01*
X13398Y467240D01*
X13053Y467343D01*
X12785Y467550D01*
X12593Y467912D01*
X12555Y468325D01*
X12631Y468738D01*
X12823Y468997D01*
X13091Y469203D01*
X13360Y469255D01*
X13628Y469203D01*
X13973Y468997D01*
X13858Y470340D01*
X12823D01*
G01X21917Y488547D02*
Y491647D01*
X20958D01*
X20652Y491492D01*
X20460Y491285D01*
X20383Y490872D01*
X20460Y490459D01*
X20690Y490200D01*
X20958Y490045D01*
X21917D01*
G01X20958D02*
X20383Y488547D01*
G01X17743Y490200D02*
X17590Y490355D01*
X17475Y490614D01*
X17398Y490975D01*
X17475Y491285D01*
X17628Y491492D01*
X17897Y491647D01*
X18932D01*
Y488547D01*
X17667D01*
X17398Y488754D01*
X17245Y489064D01*
X17168Y489425D01*
X17245Y489787D01*
X17475Y490097D01*
X17743Y490200D01*
X18932D01*
G01X15602Y488909D02*
X15333Y488650D01*
X15027Y488547D01*
X14720Y488650D01*
X14452Y488960D01*
X14260Y489425D01*
X14183Y489890D01*
Y490459D01*
X14260Y490924D01*
X14452Y491337D01*
X14682Y491544D01*
X14950Y491647D01*
X15257Y491544D01*
X15487Y491337D01*
X15640Y491027D01*
X15717Y490614D01*
X15640Y490252D01*
X15448Y489890D01*
X15218Y489684D01*
X14950Y489632D01*
X14643Y489735D01*
X14413Y489994D01*
X14183Y490459D01*
G01X21918Y511257D02*
Y514357D01*
X20959D01*
X20653Y514202D01*
X20461Y513995D01*
X20384Y513582D01*
X20461Y513169D01*
X20691Y512910D01*
X20959Y512755D01*
X21918D01*
G01X20959D02*
X20384Y511257D01*
G01X17744Y512910D02*
X17591Y513065D01*
X17476Y513324D01*
X17399Y513685D01*
X17476Y513995D01*
X17629Y514202D01*
X17898Y514357D01*
X18933D01*
Y511257D01*
X17668D01*
X17399Y511464D01*
X17246Y511774D01*
X17169Y512135D01*
X17246Y512497D01*
X17476Y512807D01*
X17744Y512910D01*
X18933D01*
G01X15794Y511877D02*
X15564Y511515D01*
X15258Y511309D01*
X14913Y511257D01*
X14606Y511309D01*
X14299Y511567D01*
X14108Y511877D01*
X14069Y512187D01*
X14146Y512549D01*
X14414Y512807D01*
X14683Y512910D01*
X15028D01*
G01X14683D02*
X14453Y513065D01*
X14261Y513324D01*
X14184Y513634D01*
X14261Y513944D01*
X14453Y514202D01*
X14798Y514357D01*
X15143Y514305D01*
X15488Y514099D01*
G01X47115Y291733D02*
X47345Y291888D01*
X47613Y291991D01*
X47920D01*
X48265Y291836D01*
X48533Y291578D01*
X48725Y291268D01*
X48878Y290751D01*
X48916Y290286D01*
X48840Y289821D01*
X48725Y289511D01*
X48495Y289201D01*
X48226Y288994D01*
X47958Y288891D01*
X47690D01*
X47421Y288994D01*
X47191Y289149D01*
X47000Y289356D01*
G01X44551Y290544D02*
X44398Y290699D01*
X44283Y290958D01*
X44206Y291319D01*
X44283Y291629D01*
X44436Y291836D01*
X44705Y291991D01*
X45740D01*
Y288891D01*
X44475D01*
X44206Y289098D01*
X44053Y289408D01*
X43976Y289769D01*
X44053Y290131D01*
X44283Y290441D01*
X44551Y290544D01*
X45740D01*
G01X42486Y291474D02*
X42256Y291784D01*
X41988Y291939D01*
X41681Y291991D01*
X41298Y291888D01*
X41030Y291629D01*
X40953Y291319D01*
X40991Y291009D01*
X41145Y290751D01*
X41911Y290234D01*
X42256Y289873D01*
X42486Y289356D01*
X42563Y288891D01*
X40953D01*
G01X39386Y291474D02*
X39156Y291784D01*
X38888Y291939D01*
X38581Y291991D01*
X38198Y291888D01*
X37930Y291629D01*
X37853Y291319D01*
X37891Y291009D01*
X38045Y290751D01*
X38811Y290234D01*
X39156Y289873D01*
X39386Y289356D01*
X39463Y288891D01*
X37853D01*
G01X45565Y370473D02*
X45795Y370628D01*
X46063Y370731D01*
X46370D01*
X46715Y370576D01*
X46983Y370318D01*
X47175Y370008D01*
X47328Y369491D01*
X47366Y369026D01*
X47290Y368561D01*
X47175Y368251D01*
X46945Y367941D01*
X46676Y367734D01*
X46408Y367631D01*
X46140D01*
X45871Y367734D01*
X45641Y367889D01*
X45450Y368096D01*
G01X43001Y369284D02*
X42848Y369439D01*
X42733Y369698D01*
X42656Y370059D01*
X42733Y370369D01*
X42886Y370576D01*
X43155Y370731D01*
X44190D01*
Y367631D01*
X42925D01*
X42656Y367838D01*
X42503Y368148D01*
X42426Y368509D01*
X42503Y368871D01*
X42733Y369181D01*
X43001Y369284D01*
X44190D01*
G01X40285Y367631D02*
X40208Y368303D01*
X40093Y368871D01*
X39940Y369388D01*
X39748Y369956D01*
X39441Y370731D01*
X40975D01*
G01X59567Y467240D02*
Y470340D01*
X58608D01*
X58302Y470185D01*
X58110Y469978D01*
X58033Y469565D01*
X58110Y469152D01*
X58340Y468893D01*
X58608Y468738D01*
X59567D01*
G01X58608D02*
X58033Y467240D01*
G01X55393Y468893D02*
X55240Y469048D01*
X55125Y469307D01*
X55048Y469668D01*
X55125Y469978D01*
X55278Y470185D01*
X55547Y470340D01*
X56582D01*
Y467240D01*
X55317D01*
X55048Y467447D01*
X54895Y467757D01*
X54818Y468118D01*
X54895Y468480D01*
X55125Y468790D01*
X55393Y468893D01*
X56582D01*
G01X52600Y467240D02*
Y470340D01*
X53060Y469720D01*
G01Y467240D02*
X52140D01*
G01X49040D02*
Y470340D01*
X50458Y468118D01*
X48542D01*
G01X58019Y488547D02*
Y491647D01*
X57060D01*
X56754Y491492D01*
X56562Y491285D01*
X56485Y490872D01*
X56562Y490459D01*
X56792Y490200D01*
X57060Y490045D01*
X58019D01*
G01X57060D02*
X56485Y488547D01*
G01X53845Y490200D02*
X53692Y490355D01*
X53577Y490614D01*
X53500Y490975D01*
X53577Y491285D01*
X53730Y491492D01*
X53999Y491647D01*
X55034D01*
Y488547D01*
X53769D01*
X53500Y488754D01*
X53347Y489064D01*
X53270Y489425D01*
X53347Y489787D01*
X53577Y490097D01*
X53845Y490200D01*
X55034D01*
G01X51052Y488547D02*
X50784Y488599D01*
X50477Y488754D01*
X50285Y489012D01*
X50209Y489374D01*
X50285Y489735D01*
X50515Y490045D01*
X50860Y490200D01*
X51244D01*
X51474Y490304D01*
X51665Y490562D01*
X51742Y490924D01*
X51627Y491285D01*
X51359Y491544D01*
X51052Y491647D01*
X50745Y491544D01*
X50477Y491285D01*
X50362Y490924D01*
X50439Y490562D01*
X50630Y490304D01*
X50860Y490200D01*
X51244D01*
X51589Y490045D01*
X51819Y489735D01*
X51895Y489374D01*
X51819Y489012D01*
X51627Y488754D01*
X51320Y488599D01*
X51052Y488547D01*
G01X58020Y511257D02*
Y514357D01*
X57061D01*
X56755Y514202D01*
X56563Y513995D01*
X56486Y513582D01*
X56563Y513169D01*
X56793Y512910D01*
X57061Y512755D01*
X58020D01*
G01X57061D02*
X56486Y511257D01*
G01X53846Y512910D02*
X53693Y513065D01*
X53578Y513324D01*
X53501Y513685D01*
X53578Y513995D01*
X53731Y514202D01*
X54000Y514357D01*
X55035D01*
Y511257D01*
X53770D01*
X53501Y511464D01*
X53348Y511774D01*
X53271Y512135D01*
X53348Y512497D01*
X53578Y512807D01*
X53846Y512910D01*
X55035D01*
G01X51781Y513840D02*
X51551Y514150D01*
X51283Y514305D01*
X50976Y514357D01*
X50593Y514254D01*
X50325Y513995D01*
X50248Y513685D01*
X50286Y513375D01*
X50440Y513117D01*
X51206Y512600D01*
X51551Y512239D01*
X51781Y511722D01*
X51858Y511257D01*
X50248D01*
G01X90423Y291733D02*
X90653Y291888D01*
X90921Y291991D01*
X91228D01*
X91573Y291836D01*
X91841Y291578D01*
X92033Y291268D01*
X92186Y290751D01*
X92224Y290286D01*
X92148Y289821D01*
X92033Y289511D01*
X91803Y289201D01*
X91534Y288994D01*
X91266Y288891D01*
X90998D01*
X90729Y288994D01*
X90499Y289149D01*
X90308Y289356D01*
G01X87859Y290544D02*
X87706Y290699D01*
X87591Y290958D01*
X87514Y291319D01*
X87591Y291629D01*
X87744Y291836D01*
X88013Y291991D01*
X89048D01*
Y288891D01*
X87783D01*
X87514Y289098D01*
X87361Y289408D01*
X87284Y289769D01*
X87361Y290131D01*
X87591Y290441D01*
X87859Y290544D01*
X89048D01*
G01X85794Y291474D02*
X85564Y291784D01*
X85296Y291939D01*
X84989Y291991D01*
X84606Y291888D01*
X84338Y291629D01*
X84261Y291319D01*
X84299Y291009D01*
X84453Y290751D01*
X85219Y290234D01*
X85564Y289873D01*
X85794Y289356D01*
X85871Y288891D01*
X84261D01*
G01X81966D02*
Y291991D01*
X82426Y291371D01*
G01Y288891D02*
X81506D01*
G01X88873Y370473D02*
X89103Y370628D01*
X89371Y370731D01*
X89678D01*
X90023Y370576D01*
X90291Y370318D01*
X90483Y370008D01*
X90636Y369491D01*
X90674Y369026D01*
X90598Y368561D01*
X90483Y368251D01*
X90253Y367941D01*
X89984Y367734D01*
X89716Y367631D01*
X89448D01*
X89179Y367734D01*
X88949Y367889D01*
X88758Y368096D01*
G01X86309Y369284D02*
X86156Y369439D01*
X86041Y369698D01*
X85964Y370059D01*
X86041Y370369D01*
X86194Y370576D01*
X86463Y370731D01*
X87498D01*
Y367631D01*
X86233D01*
X85964Y367838D01*
X85811Y368148D01*
X85734Y368509D01*
X85811Y368871D01*
X86041Y369181D01*
X86309Y369284D01*
X87498D01*
G01X84244Y368923D02*
X83976Y369284D01*
X83746Y369491D01*
X83439Y369594D01*
X83171Y369491D01*
X82979Y369284D01*
X82826Y368974D01*
X82788Y368613D01*
X82826Y368303D01*
X82979Y367993D01*
X83209Y367734D01*
X83478Y367631D01*
X83784Y367734D01*
X84053Y368044D01*
X84206Y368509D01*
X84244Y369026D01*
X84168Y369698D01*
X84053Y370059D01*
X83861Y370421D01*
X83593Y370679D01*
X83324Y370731D01*
X83056Y370628D01*
X82864Y370369D01*
G01X95671Y467240D02*
Y470340D01*
X94712D01*
X94406Y470185D01*
X94214Y469978D01*
X94137Y469565D01*
X94214Y469152D01*
X94444Y468893D01*
X94712Y468738D01*
X95671D01*
G01X94712D02*
X94137Y467240D01*
G01X91497Y468893D02*
X91344Y469048D01*
X91229Y469307D01*
X91152Y469668D01*
X91229Y469978D01*
X91382Y470185D01*
X91651Y470340D01*
X92686D01*
Y467240D01*
X91421D01*
X91152Y467447D01*
X90999Y467757D01*
X90922Y468118D01*
X90999Y468480D01*
X91229Y468790D01*
X91497Y468893D01*
X92686D01*
G01X88704Y467240D02*
Y470340D01*
X89164Y469720D01*
G01Y467240D02*
X88244D01*
G01X86447Y467860D02*
X86217Y467498D01*
X85911Y467292D01*
X85566Y467240D01*
X85259Y467292D01*
X84952Y467550D01*
X84761Y467860D01*
X84722Y468170D01*
X84799Y468532D01*
X85067Y468790D01*
X85336Y468893D01*
X85681D01*
G01X85336D02*
X85106Y469048D01*
X84914Y469307D01*
X84837Y469617D01*
X84914Y469927D01*
X85106Y470185D01*
X85451Y470340D01*
X85796Y470288D01*
X86141Y470082D01*
G01X94123Y488547D02*
Y491647D01*
X93164D01*
X92858Y491492D01*
X92666Y491285D01*
X92589Y490872D01*
X92666Y490459D01*
X92896Y490200D01*
X93164Y490045D01*
X94123D01*
G01X93164D02*
X92589Y488547D01*
G01X89949Y490200D02*
X89796Y490355D01*
X89681Y490614D01*
X89604Y490975D01*
X89681Y491285D01*
X89834Y491492D01*
X90103Y491647D01*
X91138D01*
Y488547D01*
X89873D01*
X89604Y488754D01*
X89451Y489064D01*
X89374Y489425D01*
X89451Y489787D01*
X89681Y490097D01*
X89949Y490200D01*
X91138D01*
G01X87233Y488547D02*
X87156Y489219D01*
X87041Y489787D01*
X86888Y490304D01*
X86696Y490872D01*
X86389Y491647D01*
X87923D01*
G01X94122Y511257D02*
Y514357D01*
X93163D01*
X92857Y514202D01*
X92665Y513995D01*
X92588Y513582D01*
X92665Y513169D01*
X92895Y512910D01*
X93163Y512755D01*
X94122D01*
G01X93163D02*
X92588Y511257D01*
G01X89948Y512910D02*
X89795Y513065D01*
X89680Y513324D01*
X89603Y513685D01*
X89680Y513995D01*
X89833Y514202D01*
X90102Y514357D01*
X91137D01*
Y511257D01*
X89872D01*
X89603Y511464D01*
X89450Y511774D01*
X89373Y512135D01*
X89450Y512497D01*
X89680Y512807D01*
X89948Y512910D01*
X91137D01*
G01X87155Y511257D02*
Y514357D01*
X87615Y513737D01*
G01Y511257D02*
X86695D01*
G01X133731Y291733D02*
X133961Y291888D01*
X134229Y291991D01*
X134536D01*
X134881Y291836D01*
X135149Y291578D01*
X135341Y291268D01*
X135494Y290751D01*
X135532Y290286D01*
X135456Y289821D01*
X135341Y289511D01*
X135111Y289201D01*
X134842Y288994D01*
X134574Y288891D01*
X134306D01*
X134037Y288994D01*
X133807Y289149D01*
X133616Y289356D01*
G01X131167Y290544D02*
X131014Y290699D01*
X130899Y290958D01*
X130822Y291319D01*
X130899Y291629D01*
X131052Y291836D01*
X131321Y291991D01*
X132356D01*
Y288891D01*
X131091D01*
X130822Y289098D01*
X130669Y289408D01*
X130592Y289769D01*
X130669Y290131D01*
X130899Y290441D01*
X131167Y290544D01*
X132356D01*
G01X129102Y291474D02*
X128872Y291784D01*
X128604Y291939D01*
X128297Y291991D01*
X127914Y291888D01*
X127646Y291629D01*
X127569Y291319D01*
X127607Y291009D01*
X127761Y290751D01*
X128527Y290234D01*
X128872Y289873D01*
X129102Y289356D01*
X129179Y288891D01*
X127569D01*
G01X125274Y291991D02*
X125581Y291888D01*
X125811Y291629D01*
X125964Y291319D01*
X126079Y290906D01*
X126117Y290441D01*
X126079Y289976D01*
X125964Y289563D01*
X125811Y289253D01*
X125581Y288994D01*
X125274Y288891D01*
X124967Y288994D01*
X124737Y289253D01*
X124584Y289563D01*
X124469Y289976D01*
X124431Y290441D01*
X124469Y290906D01*
X124584Y291319D01*
X124737Y291629D01*
X124967Y291888D01*
X125274Y291991D01*
G01X132181Y370473D02*
X132411Y370628D01*
X132679Y370731D01*
X132986D01*
X133331Y370576D01*
X133599Y370318D01*
X133791Y370008D01*
X133944Y369491D01*
X133982Y369026D01*
X133906Y368561D01*
X133791Y368251D01*
X133561Y367941D01*
X133292Y367734D01*
X133024Y367631D01*
X132756D01*
X132487Y367734D01*
X132257Y367889D01*
X132066Y368096D01*
G01X129617Y369284D02*
X129464Y369439D01*
X129349Y369698D01*
X129272Y370059D01*
X129349Y370369D01*
X129502Y370576D01*
X129771Y370731D01*
X130806D01*
Y367631D01*
X129541D01*
X129272Y367838D01*
X129119Y368148D01*
X129042Y368509D01*
X129119Y368871D01*
X129349Y369181D01*
X129617Y369284D01*
X130806D01*
G01X127667Y368096D02*
X127437Y367838D01*
X127169Y367683D01*
X126824Y367631D01*
X126479Y367734D01*
X126211Y367941D01*
X126019Y368303D01*
X125981Y368716D01*
X126057Y369129D01*
X126249Y369388D01*
X126517Y369594D01*
X126786Y369646D01*
X127054Y369594D01*
X127399Y369388D01*
X127284Y370731D01*
X126249D01*
G01X177039Y291733D02*
X177269Y291888D01*
X177537Y291991D01*
X177844D01*
X178189Y291836D01*
X178457Y291578D01*
X178649Y291268D01*
X178802Y290751D01*
X178840Y290286D01*
X178764Y289821D01*
X178649Y289511D01*
X178419Y289201D01*
X178150Y288994D01*
X177882Y288891D01*
X177614D01*
X177345Y288994D01*
X177115Y289149D01*
X176924Y289356D01*
G01X174475Y290544D02*
X174322Y290699D01*
X174207Y290958D01*
X174130Y291319D01*
X174207Y291629D01*
X174360Y291836D01*
X174629Y291991D01*
X175664D01*
Y288891D01*
X174399D01*
X174130Y289098D01*
X173977Y289408D01*
X173900Y289769D01*
X173977Y290131D01*
X174207Y290441D01*
X174475Y290544D01*
X175664D01*
G01X171682Y288891D02*
Y291991D01*
X172142Y291371D01*
G01Y288891D02*
X171222D01*
G01X169234Y289253D02*
X168965Y288994D01*
X168659Y288891D01*
X168352Y288994D01*
X168084Y289304D01*
X167892Y289769D01*
X167815Y290234D01*
Y290803D01*
X167892Y291268D01*
X168084Y291681D01*
X168314Y291888D01*
X168582Y291991D01*
X168889Y291888D01*
X169119Y291681D01*
X169272Y291371D01*
X169349Y290958D01*
X169272Y290596D01*
X169080Y290234D01*
X168850Y290028D01*
X168582Y289976D01*
X168275Y290079D01*
X168045Y290338D01*
X167815Y290803D01*
G01X175489Y370473D02*
X175719Y370628D01*
X175987Y370731D01*
X176294D01*
X176639Y370576D01*
X176907Y370318D01*
X177099Y370008D01*
X177252Y369491D01*
X177290Y369026D01*
X177214Y368561D01*
X177099Y368251D01*
X176869Y367941D01*
X176600Y367734D01*
X176332Y367631D01*
X176064D01*
X175795Y367734D01*
X175565Y367889D01*
X175374Y368096D01*
G01X172925Y369284D02*
X172772Y369439D01*
X172657Y369698D01*
X172580Y370059D01*
X172657Y370369D01*
X172810Y370576D01*
X173079Y370731D01*
X174114D01*
Y367631D01*
X172849D01*
X172580Y367838D01*
X172427Y368148D01*
X172350Y368509D01*
X172427Y368871D01*
X172657Y369181D01*
X172925Y369284D01*
X174114D01*
G01X169672Y367631D02*
Y370731D01*
X171090Y368509D01*
X169174D01*
G01X220347Y291733D02*
X220577Y291888D01*
X220845Y291991D01*
X221152D01*
X221497Y291836D01*
X221765Y291578D01*
X221957Y291268D01*
X222110Y290751D01*
X222148Y290286D01*
X222072Y289821D01*
X221957Y289511D01*
X221727Y289201D01*
X221458Y288994D01*
X221190Y288891D01*
X220922D01*
X220653Y288994D01*
X220423Y289149D01*
X220232Y289356D01*
G01X217783Y290544D02*
X217630Y290699D01*
X217515Y290958D01*
X217438Y291319D01*
X217515Y291629D01*
X217668Y291836D01*
X217937Y291991D01*
X218972D01*
Y288891D01*
X217707D01*
X217438Y289098D01*
X217285Y289408D01*
X217208Y289769D01*
X217285Y290131D01*
X217515Y290441D01*
X217783Y290544D01*
X218972D01*
G01X214990Y288891D02*
Y291991D01*
X215450Y291371D01*
G01Y288891D02*
X214530D01*
G01X211890D02*
X211622Y288943D01*
X211315Y289098D01*
X211123Y289356D01*
X211047Y289718D01*
X211123Y290079D01*
X211353Y290389D01*
X211698Y290544D01*
X212082D01*
X212312Y290648D01*
X212503Y290906D01*
X212580Y291268D01*
X212465Y291629D01*
X212197Y291888D01*
X211890Y291991D01*
X211583Y291888D01*
X211315Y291629D01*
X211200Y291268D01*
X211277Y290906D01*
X211468Y290648D01*
X211698Y290544D01*
X212082D01*
X212427Y290389D01*
X212657Y290079D01*
X212733Y289718D01*
X212657Y289356D01*
X212465Y289098D01*
X212158Y288943D01*
X211890Y288891D01*
G01X218797Y370473D02*
X219027Y370628D01*
X219295Y370731D01*
X219602D01*
X219947Y370576D01*
X220215Y370318D01*
X220407Y370008D01*
X220560Y369491D01*
X220598Y369026D01*
X220522Y368561D01*
X220407Y368251D01*
X220177Y367941D01*
X219908Y367734D01*
X219640Y367631D01*
X219372D01*
X219103Y367734D01*
X218873Y367889D01*
X218682Y368096D01*
G01X216233Y369284D02*
X216080Y369439D01*
X215965Y369698D01*
X215888Y370059D01*
X215965Y370369D01*
X216118Y370576D01*
X216387Y370731D01*
X217422D01*
Y367631D01*
X216157D01*
X215888Y367838D01*
X215735Y368148D01*
X215658Y368509D01*
X215735Y368871D01*
X215965Y369181D01*
X216233Y369284D01*
X217422D01*
G01X214283Y368251D02*
X214053Y367889D01*
X213747Y367683D01*
X213402Y367631D01*
X213095Y367683D01*
X212788Y367941D01*
X212597Y368251D01*
X212558Y368561D01*
X212635Y368923D01*
X212903Y369181D01*
X213172Y369284D01*
X213517D01*
G01X213172D02*
X212942Y369439D01*
X212750Y369698D01*
X212673Y370008D01*
X212750Y370318D01*
X212942Y370576D01*
X213287Y370731D01*
X213632Y370679D01*
X213977Y370473D01*
G01X263655Y291733D02*
X263885Y291888D01*
X264153Y291991D01*
X264460D01*
X264805Y291836D01*
X265073Y291578D01*
X265265Y291268D01*
X265418Y290751D01*
X265456Y290286D01*
X265380Y289821D01*
X265265Y289511D01*
X265035Y289201D01*
X264766Y288994D01*
X264498Y288891D01*
X264230D01*
X263961Y288994D01*
X263731Y289149D01*
X263540Y289356D01*
G01X261091Y290544D02*
X260938Y290699D01*
X260823Y290958D01*
X260746Y291319D01*
X260823Y291629D01*
X260976Y291836D01*
X261245Y291991D01*
X262280D01*
Y288891D01*
X261015D01*
X260746Y289098D01*
X260593Y289408D01*
X260516Y289769D01*
X260593Y290131D01*
X260823Y290441D01*
X261091Y290544D01*
X262280D01*
G01X258298Y288891D02*
Y291991D01*
X258758Y291371D01*
G01Y288891D02*
X257838D01*
G01X255275D02*
X255198Y289563D01*
X255083Y290131D01*
X254930Y290648D01*
X254738Y291216D01*
X254431Y291991D01*
X255965D01*
G01X262105Y370473D02*
X262335Y370628D01*
X262603Y370731D01*
X262910D01*
X263255Y370576D01*
X263523Y370318D01*
X263715Y370008D01*
X263868Y369491D01*
X263906Y369026D01*
X263830Y368561D01*
X263715Y368251D01*
X263485Y367941D01*
X263216Y367734D01*
X262948Y367631D01*
X262680D01*
X262411Y367734D01*
X262181Y367889D01*
X261990Y368096D01*
G01X259541Y369284D02*
X259388Y369439D01*
X259273Y369698D01*
X259196Y370059D01*
X259273Y370369D01*
X259426Y370576D01*
X259695Y370731D01*
X260730D01*
Y367631D01*
X259465D01*
X259196Y367838D01*
X259043Y368148D01*
X258966Y368509D01*
X259043Y368871D01*
X259273Y369181D01*
X259541Y369284D01*
X260730D01*
G01X257476Y370214D02*
X257246Y370524D01*
X256978Y370679D01*
X256671Y370731D01*
X256288Y370628D01*
X256020Y370369D01*
X255943Y370059D01*
X255981Y369749D01*
X256135Y369491D01*
X256901Y368974D01*
X257246Y368613D01*
X257476Y368096D01*
X257553Y367631D01*
X255943D01*
G01X306963Y291733D02*
X307193Y291888D01*
X307461Y291991D01*
X307768D01*
X308113Y291836D01*
X308381Y291578D01*
X308573Y291268D01*
X308726Y290751D01*
X308764Y290286D01*
X308688Y289821D01*
X308573Y289511D01*
X308343Y289201D01*
X308074Y288994D01*
X307806Y288891D01*
X307538D01*
X307269Y288994D01*
X307039Y289149D01*
X306848Y289356D01*
G01X304399Y290544D02*
X304246Y290699D01*
X304131Y290958D01*
X304054Y291319D01*
X304131Y291629D01*
X304284Y291836D01*
X304553Y291991D01*
X305588D01*
Y288891D01*
X304323D01*
X304054Y289098D01*
X303901Y289408D01*
X303824Y289769D01*
X303901Y290131D01*
X304131Y290441D01*
X304399Y290544D01*
X305588D01*
G01X301606Y288891D02*
Y291991D01*
X302066Y291371D01*
G01Y288891D02*
X301146D01*
G01X299234Y290183D02*
X298966Y290544D01*
X298736Y290751D01*
X298429Y290854D01*
X298161Y290751D01*
X297969Y290544D01*
X297816Y290234D01*
X297778Y289873D01*
X297816Y289563D01*
X297969Y289253D01*
X298199Y288994D01*
X298468Y288891D01*
X298774Y288994D01*
X299043Y289304D01*
X299196Y289769D01*
X299234Y290286D01*
X299158Y290958D01*
X299043Y291319D01*
X298851Y291681D01*
X298583Y291939D01*
X298314Y291991D01*
X298046Y291888D01*
X297854Y291629D01*
G01X305413Y370473D02*
X305643Y370628D01*
X305911Y370731D01*
X306218D01*
X306563Y370576D01*
X306831Y370318D01*
X307023Y370008D01*
X307176Y369491D01*
X307214Y369026D01*
X307138Y368561D01*
X307023Y368251D01*
X306793Y367941D01*
X306524Y367734D01*
X306256Y367631D01*
X305988D01*
X305719Y367734D01*
X305489Y367889D01*
X305298Y368096D01*
G01X302849Y369284D02*
X302696Y369439D01*
X302581Y369698D01*
X302504Y370059D01*
X302581Y370369D01*
X302734Y370576D01*
X303003Y370731D01*
X304038D01*
Y367631D01*
X302773D01*
X302504Y367838D01*
X302351Y368148D01*
X302274Y368509D01*
X302351Y368871D01*
X302581Y369181D01*
X302849Y369284D01*
X304038D01*
G01X300056Y367631D02*
Y370731D01*
X300516Y370111D01*
G01Y367631D02*
X299596D01*
M02*
