G04 ================== begin FILE IDENTIFICATION RECORD ==================*
G04 Layout Name:  KIT-CRD-CIL12N-FMA V1R0.brd*
G04 Film Name:    Soldermask_Bottom*
G04 File Format:  Gerber RS274X*
G04 File Origin:  Cadence Allegro 17.2-S065*
G04 Origin Date:  Fri Oct 30 16:39:25 2020*
G04 *
G04 Layer:  VIA CLASS/SOLDERMASK_BOTTOM*
G04 Layer:  PIN/SOLDERMASK_BOTTOM*
G04 Layer:  PACKAGE GEOMETRY/SOLDERMASK_BOTTOM*
G04 Layer:  BOARD GEOMETRY/SOLDERMASK_BOTTOM*
G04 *
G04 Offset:    (0.00 0.00)*
G04 Mirror:    No*
G04 Mode:      Positive*
G04 Rotation:  0*
G04 FullContactRelief:  No*
G04 UndefLineWidth:     1.00*
G04 ================== end FILE IDENTIFICATION RECORD ====================*
%FSLAX25Y25*MOIN*%
%IR0*IPPOS*OFA0.00000B0.00000*MIA0B0*SFA1.00000B1.00000*%
%ADD19C,.062*%
%ADD20C,.072*%
%ADD16R,.04921X.13386*%
%ADD12C,.1*%
%ADD17C,.11*%
%ADD18C,.33*%
%ADD11C,.15*%
%ADD13C,.16*%
%ADD14C,.125*%
%ADD10C,.185*%
%ADD15C,.35433*%
G75*
%LPD*%
G75*
G36*
G01X27352Y146502D02*
G02I-40000J0D01*
G37*
G54D10*
X-325000Y-220000D03*
Y510000D03*
X-194004Y-83252D03*
Y83252D03*
X325000Y-220000D03*
Y510000D03*
G54D11*
X-279724Y226465D03*
Y433157D03*
X-199802Y226465D03*
Y433157D03*
X-119882Y226465D03*
Y433157D03*
X-39960Y226465D03*
Y433157D03*
X39960Y226465D03*
Y433157D03*
X119882Y226465D03*
Y433157D03*
X199802Y226465D03*
Y433157D03*
X279724Y226465D03*
Y433157D03*
G54D20*
X222166Y5000D03*
Y-5000D03*
G54D12*
X-303156Y260913D03*
Y319969D03*
Y339653D03*
Y398709D03*
X-259848Y260913D03*
Y319969D03*
Y339653D03*
Y398709D03*
X-216540Y260913D03*
Y319969D03*
Y339653D03*
Y398709D03*
X-173232Y260913D03*
Y319969D03*
Y339653D03*
Y398709D03*
X-129924Y260913D03*
Y319969D03*
Y339653D03*
Y398709D03*
X-86616Y260913D03*
Y319969D03*
Y339653D03*
Y398709D03*
X-43308Y260913D03*
Y319969D03*
Y339653D03*
Y398709D03*
X0Y260913D03*
Y319969D03*
Y339653D03*
Y398709D03*
X43308Y260913D03*
Y319969D03*
Y339653D03*
Y398709D03*
X86616Y260913D03*
Y319969D03*
Y339653D03*
Y398709D03*
X129924Y260913D03*
Y319969D03*
Y339653D03*
Y398709D03*
X173232Y260913D03*
Y319969D03*
Y339653D03*
Y398709D03*
X216540Y260913D03*
Y319969D03*
Y339653D03*
Y398709D03*
X259848Y260913D03*
Y319969D03*
Y339653D03*
Y398709D03*
X303156Y260913D03*
Y319969D03*
Y339653D03*
Y398709D03*
G54D13*
X-245500Y471000D03*
Y491500D03*
Y512000D03*
X-203000Y471000D03*
Y491500D03*
Y512000D03*
X-159434Y471000D03*
Y491500D03*
Y512000D03*
X-116934Y471000D03*
Y491500D03*
Y512000D03*
X-33848Y-222000D03*
Y-201500D03*
Y-181000D03*
X8652Y-222000D03*
Y-201500D03*
Y-181000D03*
X116934Y471000D03*
Y491500D03*
Y512000D03*
X159434Y471000D03*
Y491500D03*
Y512000D03*
X203000Y471000D03*
Y491500D03*
Y512000D03*
X245500Y471000D03*
Y491500D03*
Y512000D03*
G54D14*
X-177550Y-160750D03*
X-93252D03*
X-12598Y-140500D03*
X68056Y-160750D03*
X129500Y-57795D03*
Y87900D03*
X152354Y-160750D03*
X149500Y-37795D03*
Y67900D03*
X269900Y88700D03*
G54D15*
X-104331Y0D03*
X104331D03*
G54D16*
X-102268Y470193D03*
X-102266Y491500D03*
Y512807D03*
X-78252Y470193D03*
X-78250Y491500D03*
Y512807D03*
X-66164Y470193D03*
X-42148D03*
X-66162Y491500D03*
X-42146D03*
X-66162Y512807D03*
X-42146D03*
X-30062Y470193D03*
X-30060Y491500D03*
X-30059Y512807D03*
X6040Y470193D03*
X-6046D03*
X6042Y491500D03*
X-6044D03*
X6043Y512807D03*
X-6043D03*
X42142Y470193D03*
X30056D03*
X42144Y491500D03*
X30058D03*
X42145Y512807D03*
X30059D03*
X78246Y470193D03*
X66158D03*
X78248Y491500D03*
X66160D03*
X78247Y512807D03*
X66161D03*
X102262Y470193D03*
X102264Y491500D03*
X102263Y512807D03*
G54D17*
X-83661Y-55315D03*
Y55315D03*
X-62992Y-37795D03*
Y-50394D03*
X-37795Y0D03*
X-62992Y37795D03*
Y25197D03*
X-12598Y-37795D03*
Y-50394D03*
X-25197Y0D03*
X-12598D03*
Y50394D03*
Y37795D03*
X12598Y0D03*
X37795Y-37795D03*
Y-50394D03*
Y37795D03*
Y25197D03*
X62992Y-12598D03*
Y0D03*
X83661Y-55315D03*
Y55315D03*
G54D18*
X-12648Y146502D03*
G54D19*
X124500Y-42795D03*
X134500D03*
Y-32795D03*
X124500D03*
X129500Y-37795D03*
X124500Y62900D03*
X134500D03*
Y72900D03*
X124500D03*
X129500Y67900D03*
M02*
