G04 ================== begin FILE IDENTIFICATION RECORD ==================*
G04 Layout Name:  KIT-CRD-CIL12N-FMA V1R0.brd*
G04 Film Name:    TOP*
G04 File Format:  Gerber RS274X*
G04 File Origin:  Cadence Allegro 17.2-S065*
G04 Origin Date:  Fri Oct 30 16:39:25 2020*
G04 *
G04 Layer:  ETCH/TOP*
G04 Layer:  PIN/TOP*
G04 Layer:  VIA CLASS/TOP*
G04 *
G04 Offset:    (0.00 0.00)*
G04 Mirror:    No*
G04 Mode:      Positive*
G04 Rotation:  0*
G04 FullContactRelief:  No*
G04 UndefLineWidth:     1.00*
G04 ================== end FILE IDENTIFICATION RECORD ====================*
%FSLAX25Y25*MOIN*%
%IR0*IPPOS*OFA0.00000B0.00000*MIA0B0*SFA1.00000B1.00000*%
%ADD17R,.05X.125*%
%ADD10C,.02*%
%ADD19C,.06*%
%ADD12C,.08*%
%ADD18C,.055*%
%ADD15C,.11*%
%ADD16C,.001*%
%ADD13C,.15*%
%ADD11C,.125*%
%ADD14C,.00394*%
%ADD20C,.069*%
%ADD23C,.34004*%
%ADD22C,.28004*%
%ADD21C,.32504*%
G75*
%LPD*%
G75*
G36*
G01X80708Y446937D02*
G03X84645Y443000I3937J0D01*
G01X105069D01*
G02X105927Y441487I0J-1000D01*
G03X103630Y433157I13956J-8330D01*
G03X136134I16252J0D01*
G03X133837Y441487I-16253J0D01*
G02X134695Y443000I858J513D01*
G01X184989D01*
G02X185847Y441487I0J-1000D01*
G03X183550Y433157I13956J-8330D01*
G03X216054I16252J0D01*
G03X213757Y441487I-16253J0D01*
G02X214615Y443000I858J513D01*
G01X264911D01*
G02X265769Y441487I0J-1000D01*
G03X263472Y433157I13956J-8330D01*
G03X295976I16252J0D01*
G03X293679Y441487I-16253J0D01*
G02X294537Y443000I858J513D01*
G01X336063D01*
G02X340000Y439063I0J-3937D01*
G01Y110439D01*
G02X336063Y106502I-3937J0D01*
G01X-336063D01*
G02X-340000Y110439I0J3937D01*
G01Y439063D01*
G02X-336063Y443000I3937J0D01*
G01X-294537D01*
G02X-293679Y441487I0J-1000D01*
G03X-295976Y433157I13956J-8330D01*
G03X-263472I16252J0D01*
G03X-265769Y441487I-16253J0D01*
G02X-264911Y443000I858J513D01*
G01X-261937D01*
G03X-258000Y446937I0J3937D01*
G01Y521063D01*
G02X-254063Y525000I3937J0D01*
G01X76771D01*
G02X80708Y521063I0J-3937D01*
G01Y446937D01*
G37*
G36*
G01X-12598Y-44894D02*
X11063D01*
G02X12063Y-45894I0J-1000D01*
G01Y-75650D01*
X-17098D01*
G02X-18098Y-74650I0J1000D01*
G01Y-50394D01*
G02X-12598Y-44894I5500J0D01*
G37*
G36*
G01X-18098Y-31650D02*
G02X-17098Y-30650I1000J0D01*
G01X12063D01*
Y-43295D01*
X-12598D01*
G02X-18098Y-37795I0J5500D01*
G01Y-31650D01*
G37*
G36*
G01X138918Y75650D02*
X153000D01*
G02X155750Y72900I0J-2750D01*
G01Y62900D01*
G02X153000Y60150I-2750J0D01*
G01X138918D01*
G02X137988Y61518I0J1000D01*
G03X138252Y62900I-3488J1383D01*
G03X130748I-3752J0D01*
G03X131012Y61518I3752J1D01*
G02X130082Y60150I-930J-368D01*
G01X128918D01*
G02X127988Y61518I0J1000D01*
G03X128252Y62900I-3488J1383D01*
G03X120748I-3752J0D01*
G03X121012Y61518I3752J1D01*
G02X120082Y60150I-930J-368D01*
G01X92984D01*
G03X83661Y65817I-9323J-4835D01*
G03X73475Y57872I0J-10502D01*
G01X73380Y57494D01*
X-12598D01*
G03X-19698Y50394I0J-7100D01*
G03X-12598Y43295I7100J1D01*
G02X-7098Y37795I0J-5500D01*
G01Y31650D01*
G02X-8098Y30650I-1000J0D01*
G01X-36259D01*
G02X-37259Y31650I0J1000D01*
G01Y74650D01*
G02X-36259Y75650I1000J0D01*
G01X120082D01*
G02X121012Y74282I0J-1000D01*
G03X120748Y72900I3488J-1383D01*
G03X128252I3752J0D01*
G03X127988Y74282I-3752J-1D01*
G02X128918Y75650I930J368D01*
G01X130082D01*
G02X131012Y74282I0J-1000D01*
G03X130748Y72900I3488J-1383D01*
G03X138252I3752J0D01*
G03X137988Y74282I-3752J-1D01*
G02X138918Y75650I930J368D01*
G37*
G36*
G01X-12598Y55894D02*
X11063D01*
G02X12063Y54894I0J-1000D01*
G01Y30650D01*
X-4498D01*
G02X-5498Y31650I0J1000D01*
G01Y37795D01*
G03X-12596Y44894I-7099J0D01*
G01X-12598D01*
G02Y55894I0J5500D01*
G37*
%LPC*%
G75*
G36*
G01X-249889Y329811D02*
G02X-245846Y319969I-9958J-9842D01*
G02X-273850I-14002J0D01*
G02X-269807Y329811I14001J0D01*
G02X-273850Y339653I9958J9842D01*
G02X-245846I14002J0D01*
G02X-249889Y329811I-14001J0D01*
G37*
G36*
G01X-163273D02*
G02X-159230Y319969I-9958J-9842D01*
G02X-187234I-14002J0D01*
G02X-183191Y329811I14001J0D01*
G02X-187234Y339653I9958J9842D01*
G02X-159230I14002J0D01*
G02X-163273Y329811I-14001J0D01*
G37*
G36*
G01X-76657D02*
G02X-72614Y319969I-9958J-9842D01*
G02X-100618I-14002J0D01*
G02X-96575Y329811I14001J0D01*
G02X-100618Y339653I9958J9842D01*
G02X-72614I14002J0D01*
G02X-76657Y329811I-14001J0D01*
G37*
G36*
G01X9959D02*
G02X14002Y319969I-9958J-9842D01*
G02X-14002I-14002J0D01*
G02X-9959Y329811I14001J0D01*
G02X-14002Y339653I9958J9842D01*
G02X14002I14002J0D01*
G02X9959Y329811I-14001J0D01*
G37*
G36*
G01X96575D02*
G02X100618Y319969I-9958J-9842D01*
G02X72614I-14002J0D01*
G02X76657Y329811I14001J0D01*
G02X72614Y339653I9958J9842D01*
G02X100618I14002J0D01*
G02X96575Y329811I-14001J0D01*
G37*
G36*
G01X183191D02*
G02X187234Y319969I-9958J-9842D01*
G02X159230I-14002J0D01*
G02X163273Y329811I14001J0D01*
G02X159230Y339653I9958J9842D01*
G02X187234I14002J0D01*
G02X183191Y329811I-14001J0D01*
G37*
G36*
G01X269807D02*
G02X273850Y319969I-9958J-9842D01*
G02X245846I-14002J0D01*
G02X249889Y329811I14001J0D01*
G02X245846Y339653I9958J9842D01*
G02X273850I14002J0D01*
G02X269807Y329811I-14001J0D01*
G37*
G54D23*
X-12648Y146502D03*
G54D22*
X-129924Y398709D03*
X-216540D03*
X-303156D03*
Y260913D03*
X303156Y398709D03*
X216540D03*
X129924D03*
X43308D03*
X-43308D03*
X303156Y260913D03*
X216540D03*
X129924D03*
X43308D03*
X-43308D03*
X-129924D03*
X-216540D03*
G54D21*
X39960Y433157D03*
X-39960D03*
X-119882D03*
X-199802D03*
%LPD*%
G75*
G54D10*
X-325000Y-220000D03*
Y510000D03*
X-194004Y-83252D03*
Y83252D03*
X325000Y-220000D03*
Y510000D03*
G54D20*
G01X62992Y-12598D02*
X68000D01*
X74900Y-5698D01*
Y8000D01*
X90200Y23300D01*
X186716D01*
X215016Y-5000D01*
X222166D01*
G01Y5000D02*
X194966Y32200D01*
X85542D01*
X62992Y9650D01*
Y0D01*
G54D11*
X-279724Y226465D03*
Y433157D03*
X-199802Y226465D03*
Y433157D03*
X-177550Y-160750D03*
X-119882Y226465D03*
Y433157D03*
X-93252Y-160750D03*
X-39960Y226465D03*
Y433157D03*
X-12598Y-140500D03*
X39960Y226465D03*
Y433157D03*
X68056Y-160750D03*
X129500Y-57795D03*
Y87900D03*
X119882Y226465D03*
Y433157D03*
X152354Y-160750D03*
X149500Y-37795D03*
Y67900D03*
X199802Y226465D03*
Y433157D03*
X269900Y88700D03*
X279724Y226465D03*
Y433157D03*
G54D12*
X-303156Y260913D03*
Y319969D03*
Y339653D03*
Y398709D03*
X-259848Y260913D03*
Y319969D03*
Y339653D03*
Y398709D03*
X-216540Y260913D03*
Y319969D03*
Y339653D03*
Y398709D03*
X-173232Y260913D03*
Y319969D03*
Y339653D03*
Y398709D03*
X-129924Y260913D03*
Y319969D03*
Y339653D03*
Y398709D03*
X-86616Y260913D03*
Y319969D03*
Y339653D03*
Y398709D03*
X-43308Y260913D03*
Y319969D03*
Y339653D03*
Y398709D03*
X0Y260913D03*
Y319969D03*
Y339653D03*
Y398709D03*
X43308Y260913D03*
Y319969D03*
Y339653D03*
Y398709D03*
X86616Y260913D03*
Y319969D03*
Y339653D03*
Y398709D03*
X129924Y260913D03*
Y319969D03*
Y339653D03*
Y398709D03*
X173232Y260913D03*
Y319969D03*
Y339653D03*
Y398709D03*
X216540Y260913D03*
Y319969D03*
Y339653D03*
Y398709D03*
X259848Y260913D03*
Y319969D03*
Y339653D03*
Y398709D03*
X303156Y260913D03*
Y319969D03*
Y339653D03*
Y398709D03*
G54D13*
X-245500Y471000D03*
Y491500D03*
Y512000D03*
X-203000Y471000D03*
Y491500D03*
Y512000D03*
X-159434Y471000D03*
Y491500D03*
Y512000D03*
X-116934Y471000D03*
Y491500D03*
Y512000D03*
X-33848Y-222000D03*
Y-201500D03*
Y-181000D03*
X8652Y-222000D03*
Y-201500D03*
Y-181000D03*
X116934Y471000D03*
Y491500D03*
Y512000D03*
X159434Y471000D03*
Y491500D03*
Y512000D03*
X203000Y471000D03*
Y491500D03*
Y512000D03*
X245500Y471000D03*
Y491500D03*
Y512000D03*
G54D14*
X-104331Y0D03*
X-83661Y-55315D03*
Y55315D03*
X83661Y-55315D03*
X104331Y0D03*
X83661Y55315D03*
G54D15*
X-62992Y-37795D03*
Y-50394D03*
X-37795Y0D03*
X-62992Y37795D03*
Y25197D03*
X-12598Y-37795D03*
Y-50394D03*
X-25197Y0D03*
X-12598D03*
Y50394D03*
Y37795D03*
X12598Y0D03*
X37795Y-37795D03*
Y-50394D03*
Y37795D03*
Y25197D03*
X62992Y-12598D03*
Y0D03*
G54D16*
X-12648Y146502D03*
G54D17*
X-437Y-69400D03*
X9563D03*
X-437Y-36900D03*
X9563D03*
X-437Y36900D03*
X9563D03*
X-437Y69400D03*
X9563D03*
G54D18*
X124500Y-42795D03*
X134500D03*
Y-32795D03*
X124500D03*
X129500Y-37795D03*
X124500Y62900D03*
X134500D03*
Y72900D03*
X124500D03*
X129500Y67900D03*
G54D19*
X222166Y5000D03*
Y-5000D03*
M02*
